<svg xmlns="http://www.w3.org/2000/svg" xmlns:xlink="http://www.w3.org/1999/xlink" width="500" zoomAndPan="magnify" viewBox="0 0 375 374.999991" height="500" preserveAspectRatio="xMidYMid meet" version="1.0"><defs><g/><clipPath id="525ca5bf18"><path d="M 79.035156 20.605469 L 296 20.605469 L 296 236.207031 L 79.035156 236.207031 Z M 79.035156 20.605469 " clip-rule="nonzero"/></clipPath></defs><g fill="#000000" fill-opacity="1"><g transform="translate(9.903718, 288.525227)"><g><path d="M 16.015625 0 L 2.28125 0 L 2.28125 -20.53125 L 16.015625 -20.53125 C 21.640625 -20.53125 25.679688 -19.742188 28.140625 -18.171875 C 30.117188 -16.898438 31.25 -15.171875 31.53125 -12.984375 C 31.65625 -12.046875 31.71875 -11.132812 31.71875 -10.25 C 31.71875 -9.382812 31.65625 -8.476562 31.53125 -7.53125 C 31.414062 -6.582031 31.097656 -5.660156 30.578125 -4.765625 C 30.066406 -3.878906 29.25 -3.078125 28.125 -2.359375 C 27.007812 -1.640625 25.472656 -1.066406 23.515625 -0.640625 C 21.566406 -0.210938 19.066406 0 16.015625 0 Z M 15.203125 -5.078125 C 19.578125 -5.078125 22.050781 -6.179688 22.625 -8.390625 C 22.78125 -9.015625 22.859375 -9.632812 22.859375 -10.25 C 22.859375 -10.882812 22.78125 -11.507812 22.625 -12.125 C 22.46875 -12.738281 22.132812 -13.296875 21.625 -13.796875 C 21.113281 -14.296875 20.347656 -14.695312 19.328125 -15 C 18.304688 -15.300781 16.929688 -15.453125 15.203125 -15.453125 L 10.90625 -15.453125 L 10.90625 -5.078125 Z M 15.203125 -5.078125 "/></g></g></g><g fill="#000000" fill-opacity="1"><g transform="translate(42.74425, 288.525227)"><g><path d="M 10.90625 0 L 2.28125 0 L 2.28125 -20.53125 L 10.90625 -20.53125 Z M 10.90625 0 "/></g></g></g><g fill="#000000" fill-opacity="1"><g transform="translate(55.926214, 288.525227)"><g><path d="M 15.515625 0.4375 C 10.441406 0.4375 6.707031 -0.601562 4.3125 -2.6875 C 2.195312 -4.539062 1.140625 -7.0625 1.140625 -10.25 C 1.140625 -13.4375 2.195312 -15.957031 4.3125 -17.8125 C 6.707031 -19.894531 10.441406 -20.9375 15.515625 -20.9375 C 18.410156 -20.9375 20.816406 -20.613281 22.734375 -19.96875 C 24.648438 -19.320312 26.148438 -18.4375 27.234375 -17.3125 C 28.328125 -16.195312 29.078125 -14.910156 29.484375 -13.453125 L 20.265625 -13.453125 C 19.304688 -14.773438 17.722656 -15.4375 15.515625 -15.4375 C 13.441406 -15.4375 11.910156 -14.835938 10.921875 -13.640625 C 10.140625 -12.679688 9.75 -11.550781 9.75 -10.25 C 9.75 -8.9375 10.140625 -7.804688 10.921875 -6.859375 C 11.910156 -5.660156 13.441406 -5.0625 15.515625 -5.0625 C 17.191406 -5.0625 18.453125 -5.207031 19.296875 -5.5 C 20.148438 -5.789062 20.769531 -6.171875 21.15625 -6.640625 L 17.796875 -6.640625 L 17.796875 -10.25 L 29.484375 -10.25 L 29.484375 0.015625 L 25.90625 0.015625 L 25.171875 -1.96875 C 22.898438 -0.363281 19.679688 0.4375 15.515625 0.4375 Z M 15.515625 0.4375 "/></g></g></g><g fill="#000000" fill-opacity="1"><g transform="translate(87.108278, 288.525227)"><g><path d="M 10.90625 0 L 2.28125 0 L 2.28125 -20.53125 L 10.90625 -20.53125 Z M 10.90625 0 "/></g></g></g><g fill="#000000" fill-opacity="1"><g transform="translate(100.290241, 288.525227)"><g><path d="M 17.515625 0 L 8.890625 0 L 8.890625 -15.453125 L 0.859375 -15.453125 L 0.859375 -20.53125 L 25.546875 -20.53125 L 25.546875 -15.453125 L 17.515625 -15.453125 Z M 17.515625 0 "/></g></g></g><g fill="#000000" fill-opacity="1"><g transform="translate(126.682763, 288.525227)"><g><path d="M 34.46875 0 L 25.75 0 L 23.8125 -3.359375 L 10.875 -3.359375 L 8.9375 0 L 0.21875 0 L 13.34375 -20.515625 L 21.34375 -20.515625 Z M 20.921875 -8.4375 L 17.359375 -14.65625 L 13.78125 -8.4375 Z M 20.921875 -8.4375 "/></g></g></g><g fill="#000000" fill-opacity="1"><g transform="translate(161.353331, 288.525227)"><g><path d="M 26.25 0 L 2.28125 0 L 2.28125 -20.53125 L 10.90625 -20.53125 L 10.90625 -5.078125 L 26.25 -5.078125 Z M 26.25 0 "/></g></g></g><g fill="#000000" fill-opacity="1"><g transform="translate(188.16047, 288.525227)"><g/></g></g><g fill="#000000" fill-opacity="1"><g transform="translate(195.423417, 288.525227)"><g><path d="M 17.015625 0 L 2.28125 0 L 2.28125 -20.515625 L 17.328125 -20.515625 C 19.992188 -20.515625 22.1875 -20.390625 23.90625 -20.140625 C 25.632812 -19.898438 26.96875 -19.519531 27.90625 -19 C 28.84375 -18.476562 29.476562 -17.816406 29.8125 -17.015625 C 30.144531 -16.222656 30.3125 -15.265625 30.3125 -14.140625 C 30.28125 -13.265625 30.035156 -12.535156 29.578125 -11.953125 C 29.128906 -11.378906 28.601562 -10.953125 28 -10.671875 C 27.394531 -10.390625 26.863281 -10.25 26.40625 -10.25 C 26.851562 -10.25 27.375 -10.160156 27.96875 -9.984375 C 28.570312 -9.816406 29.15625 -9.5625 29.71875 -9.21875 C 30.289062 -8.882812 30.765625 -8.476562 31.140625 -8 C 31.523438 -7.53125 31.71875 -6.988281 31.71875 -6.375 C 31.71875 -5.570312 31.625 -4.835938 31.4375 -4.171875 C 31.25 -3.503906 30.875 -2.910156 30.3125 -2.390625 C 29.757812 -1.878906 28.9375 -1.445312 27.84375 -1.09375 C 26.757812 -0.738281 25.335938 -0.46875 23.578125 -0.28125 C 21.816406 -0.09375 19.628906 0 17.015625 0 Z M 16.515625 -12.015625 C 17.773438 -12.015625 18.75 -12.078125 19.4375 -12.203125 C 20.132812 -12.328125 20.613281 -12.515625 20.875 -12.765625 C 21.144531 -13.015625 21.28125 -13.335938 21.28125 -13.734375 C 21.28125 -14.128906 21.144531 -14.453125 20.875 -14.703125 C 20.613281 -14.960938 20.132812 -15.148438 19.4375 -15.265625 C 18.75 -15.390625 17.773438 -15.453125 16.515625 -15.453125 L 10.90625 -15.453125 L 10.90625 -12.015625 Z M 16.515625 -5.0625 C 17.804688 -5.0625 18.851562 -5.09375 19.65625 -5.15625 C 20.457031 -5.226562 21.039062 -5.382812 21.40625 -5.625 C 21.78125 -5.863281 21.96875 -6.25 21.96875 -6.78125 C 21.96875 -7.3125 21.78125 -7.695312 21.40625 -7.9375 C 21.039062 -8.1875 20.457031 -8.34375 19.65625 -8.40625 C 18.851562 -8.46875 17.804688 -8.5 16.515625 -8.5 L 10.90625 -8.5 L 10.90625 -5.0625 Z M 16.515625 -5.0625 "/></g></g></g><g fill="#000000" fill-opacity="1"><g transform="translate(228.263949, 288.525227)"><g><path d="M 30.3125 0 L 22.171875 0 C 21.796875 -0.507812 21.535156 -1.164062 21.390625 -1.96875 C 21.253906 -2.59375 21.050781 -3.203125 20.78125 -3.796875 C 20.519531 -4.390625 20.0625 -4.882812 19.40625 -5.28125 C 18.75 -5.675781 17.78125 -5.890625 16.5 -5.921875 L 10.90625 -5.921875 L 10.90625 0 L 2.28125 0 L 2.28125 -20.53125 L 16.296875 -20.53125 C 19.640625 -20.53125 22.335938 -20.28125 24.390625 -19.78125 C 26.453125 -19.28125 27.953125 -18.492188 28.890625 -17.421875 C 29.835938 -16.347656 30.3125 -14.945312 30.3125 -13.21875 C 30.3125 -11.78125 29.984375 -10.566406 29.328125 -9.578125 C 28.679688 -8.597656 27.648438 -7.820312 26.234375 -7.25 C 27.597656 -6.6875 28.484375 -6.007812 28.890625 -5.21875 C 29.296875 -4.4375 29.546875 -3.570312 29.640625 -2.625 C 29.734375 -1.789062 29.957031 -0.914062 30.3125 0 Z M 10.90625 -10.984375 L 15.828125 -11 C 17.191406 -11 18.269531 -11.0625 19.0625 -11.1875 C 19.851562 -11.3125 20.4375 -11.476562 20.8125 -11.6875 C 21.195312 -11.90625 21.441406 -12.144531 21.546875 -12.40625 C 21.648438 -12.664062 21.703125 -12.9375 21.703125 -13.21875 C 21.703125 -13.488281 21.648438 -13.757812 21.546875 -14.03125 C 21.441406 -14.300781 21.195312 -14.539062 20.8125 -14.75 C 20.4375 -14.96875 19.851562 -15.140625 19.0625 -15.265625 C 18.269531 -15.390625 17.191406 -15.453125 15.828125 -15.453125 L 10.90625 -15.453125 Z M 10.90625 -10.984375 "/></g></g></g><g fill="#000000" fill-opacity="1"><g transform="translate(259.703362, 288.525227)"><g><path d="M 10.90625 0 L 2.28125 0 L 2.28125 -20.53125 L 10.90625 -20.53125 Z M 10.90625 0 "/></g></g></g><g fill="#000000" fill-opacity="1"><g transform="translate(272.885326, 288.525227)"><g><path d="M 16.015625 0 L 2.28125 0 L 2.28125 -20.53125 L 16.015625 -20.53125 C 21.640625 -20.53125 25.679688 -19.742188 28.140625 -18.171875 C 30.117188 -16.898438 31.25 -15.171875 31.53125 -12.984375 C 31.65625 -12.046875 31.71875 -11.132812 31.71875 -10.25 C 31.71875 -9.382812 31.65625 -8.476562 31.53125 -7.53125 C 31.414062 -6.582031 31.097656 -5.660156 30.578125 -4.765625 C 30.066406 -3.878906 29.25 -3.078125 28.125 -2.359375 C 27.007812 -1.640625 25.472656 -1.066406 23.515625 -0.640625 C 21.566406 -0.210938 19.066406 0 16.015625 0 Z M 15.203125 -5.078125 C 19.578125 -5.078125 22.050781 -6.179688 22.625 -8.390625 C 22.78125 -9.015625 22.859375 -9.632812 22.859375 -10.25 C 22.859375 -10.882812 22.78125 -11.507812 22.625 -12.125 C 22.46875 -12.738281 22.132812 -13.296875 21.625 -13.796875 C 21.113281 -14.296875 20.347656 -14.695312 19.328125 -15 C 18.304688 -15.300781 16.929688 -15.453125 15.203125 -15.453125 L 10.90625 -15.453125 L 10.90625 -5.078125 Z M 15.203125 -5.078125 "/></g></g></g><g fill="#000000" fill-opacity="1"><g transform="translate(305.725858, 288.525227)"><g><path d="M 15.515625 0.4375 C 10.441406 0.4375 6.707031 -0.601562 4.3125 -2.6875 C 2.195312 -4.539062 1.140625 -7.0625 1.140625 -10.25 C 1.140625 -13.4375 2.195312 -15.957031 4.3125 -17.8125 C 6.707031 -19.894531 10.441406 -20.9375 15.515625 -20.9375 C 18.410156 -20.9375 20.816406 -20.613281 22.734375 -19.96875 C 24.648438 -19.320312 26.148438 -18.4375 27.234375 -17.3125 C 28.328125 -16.195312 29.078125 -14.910156 29.484375 -13.453125 L 20.265625 -13.453125 C 19.304688 -14.773438 17.722656 -15.4375 15.515625 -15.4375 C 13.441406 -15.4375 11.910156 -14.835938 10.921875 -13.640625 C 10.140625 -12.679688 9.75 -11.550781 9.75 -10.25 C 9.75 -8.9375 10.140625 -7.804688 10.921875 -6.859375 C 11.910156 -5.660156 13.441406 -5.0625 15.515625 -5.0625 C 17.191406 -5.0625 18.453125 -5.207031 19.296875 -5.5 C 20.148438 -5.789062 20.769531 -6.171875 21.15625 -6.640625 L 17.796875 -6.640625 L 17.796875 -10.25 L 29.484375 -10.25 L 29.484375 0.015625 L 25.90625 0.015625 L 25.171875 -1.96875 C 22.898438 -0.363281 19.679688 0.4375 15.515625 0.4375 Z M 15.515625 0.4375 "/></g></g></g><g fill="#000000" fill-opacity="1"><g transform="translate(336.907922, 288.525227)"><g><path d="M 27.015625 0 L 2.28125 0 L 2.28125 -20.53125 L 25.875 -20.53125 L 25.875 -15.453125 L 10.90625 -15.453125 L 10.90625 -12.234375 L 23.5625 -12.234375 L 23.5625 -8.28125 L 10.90625 -8.28125 L 10.90625 -5.078125 L 27.015625 -5.078125 Z M 27.015625 0 "/></g></g></g><g fill="#000000" fill-opacity="1"><g transform="translate(102.990338, 347.359192)"><g><path d="M 13.1875 -4.171875 L 4.984375 -4.171875 L 3.484375 0 L 0.890625 0 L 7.6875 -18.671875 L 10.515625 -18.671875 L 17.28125 0 L 14.6875 0 Z M 12.484375 -6.171875 L 9.078125 -15.65625 L 5.6875 -6.171875 Z M 12.484375 -6.171875 "/></g></g></g><g fill="#000000" fill-opacity="1"><g transform="translate(133.265808, 347.359192)"><g><path d="M 16.3125 -13.34375 C 15.789062 -14.4375 15.035156 -15.285156 14.046875 -15.890625 C 13.054688 -16.492188 11.90625 -16.796875 10.59375 -16.796875 C 9.28125 -16.796875 8.097656 -16.492188 7.046875 -15.890625 C 5.992188 -15.285156 5.164062 -14.421875 4.5625 -13.296875 C 3.96875 -12.171875 3.671875 -10.875 3.671875 -9.40625 C 3.671875 -7.9375 3.96875 -6.644531 4.5625 -5.53125 C 5.164062 -4.414062 5.992188 -3.554688 7.046875 -2.953125 C 8.097656 -2.347656 9.28125 -2.046875 10.59375 -2.046875 C 12.425781 -2.046875 13.9375 -2.59375 15.125 -3.6875 C 16.3125 -4.789062 17.003906 -6.273438 17.203125 -8.140625 L 9.703125 -8.140625 L 9.703125 -10.140625 L 19.8125 -10.140625 L 19.8125 -8.25 C 19.664062 -6.707031 19.175781 -5.289062 18.34375 -4 C 17.519531 -2.71875 16.4375 -1.703125 15.09375 -0.953125 C 13.75 -0.210938 12.25 0.15625 10.59375 0.15625 C 8.851562 0.15625 7.265625 -0.25 5.828125 -1.0625 C 4.390625 -1.882812 3.25 -3.019531 2.40625 -4.46875 C 1.570312 -5.925781 1.15625 -7.570312 1.15625 -9.40625 C 1.15625 -11.238281 1.570312 -12.882812 2.40625 -14.34375 C 3.25 -15.8125 4.390625 -16.953125 5.828125 -17.765625 C 7.265625 -18.585938 8.851562 -19 10.59375 -19 C 12.582031 -19 14.34375 -18.503906 15.875 -17.515625 C 17.414062 -16.523438 18.539062 -15.132812 19.25 -13.34375 Z M 16.3125 -13.34375 "/></g></g></g><g fill="#000000" fill-opacity="1"><g transform="translate(166.344086, 347.359192)"><g><path d="M 4.53125 -16.796875 L 4.53125 -10.515625 L 11.375 -10.515625 L 11.375 -8.484375 L 4.53125 -8.484375 L 4.53125 -2.015625 L 12.1875 -2.015625 L 12.1875 0 L 2.078125 0 L 2.078125 -18.8125 L 12.1875 -18.8125 L 12.1875 -16.796875 Z M 4.53125 -16.796875 "/></g></g></g><g fill="#000000" fill-opacity="1"><g transform="translate(192.280596, 347.359192)"><g><path d="M 16.84375 0 L 14.390625 0 L 4.53125 -14.953125 L 4.53125 0 L 2.078125 0 L 2.078125 -18.8125 L 4.53125 -18.8125 L 14.390625 -3.875 L 14.390625 -18.8125 L 16.84375 -18.8125 Z M 16.84375 0 "/></g></g></g><g fill="#000000" fill-opacity="1"><g transform="translate(223.337609, 347.359192)"><g><path d="M 1.15625 -9.40625 C 1.15625 -11.238281 1.566406 -12.882812 2.390625 -14.34375 C 3.222656 -15.8125 4.351562 -16.957031 5.78125 -17.78125 C 7.207031 -18.613281 8.789062 -19.03125 10.53125 -19.03125 C 12.582031 -19.03125 14.367188 -18.535156 15.890625 -17.546875 C 17.421875 -16.554688 18.539062 -15.15625 19.25 -13.34375 L 16.3125 -13.34375 C 15.789062 -14.476562 15.039062 -15.347656 14.0625 -15.953125 C 13.082031 -16.566406 11.90625 -16.875 10.53125 -16.875 C 9.226562 -16.875 8.050781 -16.566406 7 -15.953125 C 5.957031 -15.347656 5.140625 -14.484375 4.546875 -13.359375 C 3.960938 -12.234375 3.671875 -10.914062 3.671875 -9.40625 C 3.671875 -7.914062 3.960938 -6.609375 4.546875 -5.484375 C 5.140625 -4.359375 5.957031 -3.488281 7 -2.875 C 8.050781 -2.269531 9.226562 -1.96875 10.53125 -1.96875 C 11.90625 -1.96875 13.082031 -2.269531 14.0625 -2.875 C 15.039062 -3.476562 15.789062 -4.34375 16.3125 -5.46875 L 19.25 -5.46875 C 18.539062 -3.675781 17.421875 -2.289062 15.890625 -1.3125 C 14.367188 -0.332031 12.582031 0.15625 10.53125 0.15625 C 8.789062 0.15625 7.207031 -0.25 5.78125 -1.0625 C 4.351562 -1.882812 3.222656 -3.019531 2.390625 -4.46875 C 1.566406 -5.925781 1.15625 -7.570312 1.15625 -9.40625 Z M 1.15625 -9.40625 "/></g></g></g><g fill="#000000" fill-opacity="1"><g transform="translate(256.254192, 347.359192)"><g><path d="M 15.234375 -18.78125 L 9.109375 -7.09375 L 9.109375 0 L 6.65625 0 L 6.65625 -7.09375 L 0.515625 -18.78125 L 3.234375 -18.78125 L 7.875 -9.265625 L 12.5 -18.78125 Z M 15.234375 -18.78125 "/></g></g></g><g clip-path="url(#525ca5bf18)"><path fill="#000000" d="M 187.496094 20.605469 C 246.753906 20.605469 295.171875 68.144531 295.898438 127.222656 L 171.359375 127.222656 L 187.496094 87.121094 L 200.019531 118.105469 L 215.4375 118.105469 L 195.207031 68.394531 L 180.035156 68.394531 L 147.996094 147.394531 L 144.375 156.527344 C 141.972656 152.679688 139.320312 149.074219 136.425781 145.472656 C 134.976562 144.039062 133.539062 142.589844 132.097656 141.160156 L 140.769531 141.160156 L 146.546875 127.222656 L 79.09375 127.222656 C 80.066406 68.144531 128.238281 20.605469 187.496094 20.605469 Z M 295.171875 141.160156 C 288.910156 194.953125 243.140625 236.734375 187.496094 236.734375 C 131.851562 236.734375 86.089844 194.953125 79.820312 141.160156 L 99.574219 141.160156 C 118.605469 141.160156 131.375 157.007812 136.910156 174.53125 L 152.320312 174.53125 L 165.578125 141.160156 L 209.414062 141.160156 L 222.910156 174.53125 L 238.082031 174.53125 C 243.140625 158.683594 256.148438 141.160156 274.214844 141.160156 Z M 230.855469 156.527344 L 224.59375 141.160156 L 242.902344 141.160156 C 241.453125 142.589844 240.003906 144.039062 238.804688 145.472656 C 235.667969 149.074219 233.265625 152.679688 230.855469 156.527344 Z M 230.855469 156.527344 " fill-opacity="1" fill-rule="evenodd"/></g></svg>