<svg xmlns="http://www.w3.org/2000/svg" xmlns:xlink="http://www.w3.org/1999/xlink" width="500" zoomAndPan="magnify" viewBox="0 0 375 374.999991" height="500" preserveAspectRatio="xMidYMid meet" version="1.0"><defs><g/></defs><g fill="#292929" fill-opacity="1"><g transform="translate(17.996311, 190.377594)"><g><path d="M 0.96875 -58.609375 C 2.769531 -59.835938 4.832031 -61.078125 7.15625 -62.328125 C 9.476562 -63.585938 11.765625 -64.632812 14.015625 -65.46875 C 16.273438 -66.3125 18.113281 -66.734375 19.53125 -66.734375 C 20.5625 -66.734375 21.800781 -66.28125 23.25 -65.375 C 24.707031 -64.476562 26 -63.398438 27.125 -62.140625 C 28.257812 -60.878906 28.828125 -59.671875 28.828125 -58.515625 L 28.828125 -25.34375 C 28.828125 -22.757812 29.375 -20.453125 30.46875 -18.421875 C 31.5625 -16.390625 33.523438 -15.375 36.359375 -15.375 C 38.359375 -15.375 39.988281 -16.019531 41.25 -17.3125 C 42.507812 -18.601562 43.203125 -19.859375 43.328125 -21.078125 L 43.328125 -47.203125 C 43.328125 -49.648438 42.796875 -51.835938 41.734375 -53.765625 C 40.671875 -55.703125 39.492188 -57.1875 38.203125 -58.21875 L 38.203125 -58.609375 C 40.003906 -59.835938 42.066406 -61.078125 44.390625 -62.328125 C 46.710938 -63.585938 49 -64.632812 51.25 -65.46875 C 53.507812 -66.3125 55.351562 -66.734375 56.78125 -66.734375 C 57.8125 -66.734375 59.050781 -66.28125 60.5 -65.375 C 61.945312 -64.476562 63.234375 -63.398438 64.359375 -62.140625 C 65.492188 -60.878906 66.0625 -59.671875 66.0625 -58.515625 L 66.0625 -23.109375 C 66.0625 -19.628906 66.347656 -16.488281 66.921875 -13.6875 C 67.503906 -10.882812 69.019531 -8.453125 71.46875 -6.390625 L 71.46875 -6 C 69.019531 -4.96875 66.535156 -3.867188 64.015625 -2.703125 C 61.503906 -1.546875 59.21875 -0.566406 57.15625 0.234375 C 55.09375 1.046875 53.515625 1.453125 52.421875 1.453125 C 51.328125 1.453125 50.066406 1.03125 48.640625 0.1875 C 47.222656 -0.644531 45.984375 -1.722656 44.921875 -3.046875 C 43.859375 -4.367188 43.328125 -5.738281 43.328125 -7.15625 L 43.328125 -16.828125 C 42.296875 -14.828125 41.019531 -12.710938 39.5 -10.484375 C 37.988281 -8.265625 36.363281 -6.171875 34.625 -4.203125 C 32.882812 -2.234375 31.144531 -0.640625 29.40625 0.578125 C 28.5 0.835938 27.660156 1.046875 26.890625 1.203125 C 26.117188 1.367188 25.179688 1.453125 24.078125 1.453125 C 20.085938 1.453125 16.753906 0.535156 14.078125 -1.296875 C 11.398438 -3.140625 9.398438 -5.507812 8.078125 -8.40625 C 6.753906 -11.3125 6.09375 -14.34375 6.09375 -17.5 L 6.09375 -47.203125 C 6.09375 -49.648438 5.5625 -51.835938 4.5 -53.765625 C 3.4375 -55.703125 2.257812 -57.1875 0.96875 -58.21875 Z M 0.96875 -58.609375 "/></g></g></g><g fill="#292929" fill-opacity="1"><g transform="translate(87.822148, 190.377594)"><g><path d="M 0.96875 -58.90625 L 0.96875 -59.28125 C 3.476562 -60.320312 5.972656 -61.421875 8.453125 -62.578125 C 10.941406 -63.734375 13.21875 -64.710938 15.28125 -65.515625 C 17.34375 -66.328125 18.921875 -66.734375 20.015625 -66.734375 C 21.117188 -66.734375 22.378906 -66.3125 23.796875 -65.46875 C 25.210938 -64.632812 26.453125 -63.570312 27.515625 -62.28125 C 28.578125 -61 29.109375 -59.613281 29.109375 -58.125 L 29.109375 -36.84375 C 30.203125 -43.363281 31.972656 -48.847656 34.421875 -53.296875 C 36.878906 -57.742188 39.640625 -61.109375 42.703125 -63.390625 C 45.765625 -65.679688 48.8125 -66.828125 51.84375 -66.828125 C 53.582031 -66.828125 55.414062 -66.328125 57.34375 -65.328125 C 59.28125 -64.328125 60.910156 -62.710938 62.234375 -60.484375 C 63.554688 -58.265625 64.21875 -55.253906 64.21875 -51.453125 C 64.21875 -48.804688 64.007812 -46.882812 63.59375 -45.6875 C 63.175781 -44.5 62.707031 -44.003906 62.1875 -44.203125 C 60.382812 -44.910156 58.660156 -45.441406 57.015625 -45.796875 C 55.367188 -46.148438 53.453125 -46.328125 51.265625 -46.328125 C 46.742188 -46.328125 43.03125 -45.664062 40.125 -44.34375 C 37.226562 -43.019531 34.972656 -41.296875 33.359375 -39.171875 C 31.753906 -37.046875 30.644531 -34.722656 30.03125 -32.203125 C 29.414062 -29.691406 29.109375 -27.210938 29.109375 -24.765625 L 29.109375 -15.09375 C 29.109375 -11.539062 29.316406 -8.75 29.734375 -6.71875 C 30.160156 -4.6875 30.660156 -3.234375 31.234375 -2.359375 C 31.816406 -1.492188 32.316406 -0.945312 32.734375 -0.71875 C 33.160156 -0.5 33.375 -0.390625 33.375 -0.390625 L 33.375 0 L 2.125 0 L 2.125 -0.390625 C 2.125 -0.390625 2.332031 -0.5 2.75 -0.71875 C 3.175781 -0.945312 3.675781 -1.492188 4.25 -2.359375 C 4.832031 -3.234375 5.332031 -4.6875 5.75 -6.71875 C 6.175781 -8.75 6.390625 -11.539062 6.390625 -15.09375 L 6.390625 -42.171875 C 6.390625 -45.648438 6.097656 -48.789062 5.515625 -51.59375 C 4.929688 -54.40625 3.414062 -56.84375 0.96875 -58.90625 Z M 0.96875 -58.90625 "/></g></g></g><g fill="#292929" fill-opacity="1"><g transform="translate(151.361705, 190.377594)"><g><path d="M 6.390625 -73.609375 C 6.390625 -77.085938 6.097656 -80.226562 5.515625 -83.03125 C 4.929688 -85.832031 3.414062 -88.265625 0.96875 -90.328125 L 0.96875 -90.71875 C 3.476562 -91.75 5.972656 -92.84375 8.453125 -94 C 10.941406 -95.164062 13.21875 -96.148438 15.28125 -96.953125 C 17.34375 -97.765625 18.921875 -98.171875 20.015625 -98.171875 C 21.117188 -98.171875 22.378906 -97.75 23.796875 -96.90625 C 25.210938 -96.070312 26.453125 -95.007812 27.515625 -93.71875 C 28.578125 -92.425781 29.109375 -91.039062 29.109375 -89.5625 L 29.109375 -47.203125 C 29.878906 -49.203125 30.957031 -51.328125 32.34375 -53.578125 C 33.738281 -55.835938 35.253906 -57.96875 36.890625 -59.96875 C 38.535156 -61.96875 40.164062 -63.59375 41.78125 -64.84375 C 43.394531 -66.101562 44.8125 -66.734375 46.03125 -66.734375 C 49.769531 -66.734375 52.960938 -65.796875 55.609375 -63.921875 C 58.253906 -62.054688 60.414062 -59.59375 62.09375 -56.53125 C 63.769531 -53.46875 65.007812 -50.097656 65.8125 -46.421875 C 66.625 -42.742188 67.03125 -39.101562 67.03125 -35.5 C 67.03125 -31.113281 66.351562 -26.742188 65 -22.390625 C 63.644531 -18.035156 61.753906 -14.050781 59.328125 -10.4375 C 56.910156 -6.832031 54.109375 -3.945312 50.921875 -1.78125 C 47.734375 0.375 44.300781 1.453125 40.625 1.453125 C 39.332031 1.453125 37.640625 0.242188 35.546875 -2.171875 C 33.453125 -4.585938 31.304688 -7.796875 29.109375 -11.796875 L 29.109375 -8.609375 C 29.109375 -7.253906 28.960938 -5.914062 28.671875 -4.59375 C 28.378906 -3.269531 27.832031 -2.171875 27.03125 -1.296875 C 26.226562 -0.429688 25.019531 0 23.40625 0 L 2.125 0 L 2.125 -0.390625 C 2.125 -0.390625 2.332031 -0.5 2.75 -0.71875 C 3.175781 -0.945312 3.675781 -1.492188 4.25 -2.359375 C 4.832031 -3.234375 5.332031 -4.6875 5.75 -6.71875 C 6.175781 -8.75 6.390625 -11.539062 6.390625 -15.09375 Z M 29.109375 -14.21875 C 29.429688 -14.15625 30.015625 -14.125 30.859375 -14.125 C 32.398438 -14.125 33.992188 -14.703125 35.640625 -15.859375 C 37.285156 -17.023438 38.800781 -18.554688 40.1875 -20.453125 C 41.570312 -22.359375 42.679688 -24.453125 43.515625 -26.734375 C 44.359375 -29.023438 44.78125 -31.332031 44.78125 -33.65625 C 44.78125 -36.238281 44.503906 -38.6875 43.953125 -41 C 43.410156 -43.320312 42.476562 -45.238281 41.15625 -46.75 C 39.832031 -48.269531 38.007812 -49.03125 35.6875 -49.03125 C 33.300781 -49.03125 31.609375 -47.96875 30.609375 -45.84375 C 29.609375 -43.71875 29.109375 -41.332031 29.109375 -38.6875 Z M 29.109375 -14.21875 "/></g></g></g><g fill="#292929" fill-opacity="1"><g transform="translate(218.67304, 190.377594)"><g><path d="M 0.96875 -14.21875 C 0.96875 -17.894531 1.882812 -21.25 3.71875 -24.28125 C 5.5625 -27.3125 8 -29.726562 11.03125 -31.53125 C 14.0625 -33.332031 17.378906 -34.234375 20.984375 -34.234375 L 39.84375 -34.234375 C 39.84375 -38.109375 39.859375 -41.832031 39.890625 -45.40625 C 39.921875 -48.988281 39.9375 -52.082031 39.9375 -54.6875 C 39.9375 -57.300781 39.9375 -59.09375 39.9375 -60.0625 C 39.9375 -60.96875 39.804688 -61.660156 39.546875 -62.140625 C 39.296875 -62.628906 38.785156 -62.875 38.015625 -62.875 C 37.171875 -62.875 35.957031 -62.289062 34.375 -61.125 C 32.800781 -59.96875 31.03125 -58.421875 29.0625 -56.484375 C 27.09375 -54.546875 25.109375 -52.382812 23.109375 -50 C 21.117188 -47.613281 19.234375 -45.179688 17.453125 -42.703125 C 15.679688 -40.222656 14.25 -37.851562 13.15625 -35.59375 C 11.539062 -35.59375 9.8125 -36.238281 7.96875 -37.53125 C 6.132812 -38.820312 4.585938 -40.445312 3.328125 -42.40625 C 2.078125 -44.375 1.453125 -46.257812 1.453125 -48.0625 C 1.453125 -50.257812 2.222656 -52.453125 3.765625 -54.640625 C 5.316406 -56.835938 7.394531 -58.851562 10 -60.6875 C 12.613281 -62.53125 15.566406 -64 18.859375 -65.09375 C 22.148438 -66.1875 25.503906 -66.734375 28.921875 -66.734375 C 33.753906 -66.734375 38.21875 -65.941406 42.3125 -64.359375 C 46.40625 -62.785156 49.953125 -60.609375 52.953125 -57.828125 C 55.953125 -55.054688 58.273438 -51.832031 59.921875 -48.15625 C 61.566406 -44.488281 62.390625 -40.523438 62.390625 -36.265625 L 62.390625 -18.09375 C 62.390625 -15.707031 62.9375 -13.53125 64.03125 -11.5625 C 65.125 -9.59375 66.285156 -8.09375 67.515625 -7.0625 L 67.515625 -6.671875 C 65.765625 -5.453125 63.710938 -4.210938 61.359375 -2.953125 C 59.015625 -1.691406 56.726562 -0.644531 54.5 0.1875 C 52.28125 1.03125 50.425781 1.453125 48.9375 1.453125 C 47.96875 1.453125 46.742188 1 45.265625 0.09375 C 43.785156 -0.800781 42.476562 -1.894531 41.34375 -3.1875 C 40.21875 -4.476562 39.65625 -5.671875 39.65625 -6.765625 C 39.65625 -7.285156 39.671875 -8.59375 39.703125 -10.6875 C 39.734375 -12.78125 39.75 -15.390625 39.75 -18.515625 C 39.75 -21.648438 39.75 -24.988281 39.75 -28.53125 L 28.828125 -3 C 25.660156 -0.03125 21.820312 1.453125 17.3125 1.453125 C 14.476562 1.453125 11.800781 0.757812 9.28125 -0.625 C 6.769531 -2.007812 4.753906 -3.894531 3.234375 -6.28125 C 1.722656 -8.664062 0.96875 -11.3125 0.96875 -14.21875 Z M 23.109375 -22.046875 C 23.109375 -21.210938 23.414062 -20.472656 24.03125 -19.828125 C 24.644531 -19.179688 25.46875 -18.859375 26.5 -18.859375 C 27.851562 -18.859375 29.269531 -19.375 30.75 -20.40625 C 32.238281 -21.4375 33.644531 -22.707031 34.96875 -24.21875 C 36.289062 -25.738281 37.382812 -27.269531 38.25 -28.8125 C 39.125 -30.363281 39.59375 -31.625 39.65625 -32.59375 L 39.84375 -32.5 C 37.132812 -32.363281 34.503906 -31.796875 31.953125 -30.796875 C 29.410156 -29.804688 27.300781 -28.550781 25.625 -27.03125 C 23.945312 -25.519531 23.109375 -23.859375 23.109375 -22.046875 Z M 23.109375 -22.046875 "/></g></g></g><g fill="#292929" fill-opacity="1"><g transform="translate(284.533697, 190.377594)"><g><path d="M 6.390625 -42.171875 C 6.390625 -45.648438 6.097656 -48.789062 5.515625 -51.59375 C 4.929688 -54.40625 3.414062 -56.84375 0.96875 -58.90625 L 0.96875 -59.28125 C 3.476562 -60.320312 5.972656 -61.421875 8.453125 -62.578125 C 10.941406 -63.734375 13.21875 -64.710938 15.28125 -65.515625 C 17.34375 -66.328125 18.921875 -66.734375 20.015625 -66.734375 C 21.117188 -66.734375 22.378906 -66.3125 23.796875 -65.46875 C 25.210938 -64.632812 26.453125 -63.570312 27.515625 -62.28125 C 28.578125 -61 29.109375 -59.613281 29.109375 -58.125 L 29.109375 -48.453125 C 30.203125 -50.515625 31.488281 -52.640625 32.96875 -54.828125 C 34.457031 -57.023438 36.070312 -59.109375 37.8125 -61.078125 C 39.550781 -63.046875 41.296875 -64.640625 43.046875 -65.859375 C 43.941406 -66.117188 44.789062 -66.328125 45.59375 -66.484375 C 46.40625 -66.648438 47.359375 -66.734375 48.453125 -66.734375 C 52.453125 -66.734375 55.773438 -65.8125 58.421875 -63.96875 C 61.066406 -62.132812 63.046875 -59.78125 64.359375 -56.90625 C 65.679688 -54.039062 66.34375 -51 66.34375 -47.78125 L 66.34375 -18.09375 C 66.34375 -15.707031 66.890625 -13.53125 67.984375 -11.5625 C 69.085938 -9.59375 70.25 -8.09375 71.46875 -7.0625 L 71.46875 -6.671875 C 69.726562 -5.453125 67.679688 -4.210938 65.328125 -2.953125 C 62.972656 -1.691406 60.679688 -0.644531 58.453125 0.1875 C 56.234375 1.03125 54.382812 1.453125 52.90625 1.453125 C 51.9375 1.453125 50.707031 1 49.21875 0.09375 C 47.738281 -0.800781 46.4375 -1.894531 45.3125 -3.1875 C 44.1875 -4.476562 43.625 -5.671875 43.625 -6.765625 L 43.625 -39.9375 C 43.625 -42.582031 43.070312 -44.90625 41.96875 -46.90625 C 40.875 -48.90625 38.910156 -49.90625 36.078125 -49.90625 C 34.078125 -49.90625 32.445312 -49.273438 31.1875 -48.015625 C 29.9375 -46.765625 29.242188 -45.492188 29.109375 -44.203125 L 29.109375 -15.09375 C 29.109375 -11.539062 29.316406 -8.75 29.734375 -6.71875 C 30.160156 -4.6875 30.660156 -3.234375 31.234375 -2.359375 C 31.816406 -1.492188 32.316406 -0.945312 32.734375 -0.71875 C 33.160156 -0.5 33.375 -0.390625 33.375 -0.390625 L 33.375 0 L 2.125 0 L 2.125 -0.390625 C 2.125 -0.390625 2.332031 -0.5 2.75 -0.71875 C 3.175781 -0.945312 3.675781 -1.492188 4.25 -2.359375 C 4.832031 -3.234375 5.332031 -4.6875 5.75 -6.71875 C 6.175781 -8.75 6.390625 -11.539062 6.390625 -15.09375 Z M 6.390625 -42.171875 "/></g></g></g><path stroke-linecap="butt" transform="matrix(0.938076, 0, 0, 0.938076, 7.331955, 133.870758)" fill="none" stroke-linejoin="miter" d="M 40.521039 126.210378 C 38.397343 125.698193 36.765012 124.836222 35.632374 123.624466 C 34.495571 122.416874 33.650257 120.988584 33.100594 119.339596 C 32.550932 117.690608 32.18449 115.87922 32.001269 113.897104 C 31.818048 111.919151 31.618171 109.870409 31.397473 107.742549 C 31.693125 106.793132 32.076223 105.985294 32.550932 105.327365 C 33.029805 104.665271 33.229682 103.749167 33.158892 102.579052 C 33.962565 100.234658 34.695449 97.961054 35.357542 95.762403 C 36.015472 93.563753 36.452703 91.294313 36.673401 88.949919 C 37.114797 88.287825 37.552028 87.850594 37.993424 87.629896 C 38.580564 83.453293 38.651353 79.168424 38.214122 74.771123 C 37.772726 70.373823 37.039843 66.305487 36.015472 62.57028 C 36.086262 61.762443 36.198693 61.158647 36.344436 60.754728 C 36.49018 60.354973 36.49018 60.005188 36.344436 59.7137 C 36.198693 59.051607 36.41939 58.722642 37.002366 58.722642 C 37.589505 58.722642 38.176645 58.722642 38.763784 58.722642 C 38.763784 57.402619 38.52643 56.103417 38.047557 54.820871 C 37.572849 53.538325 37.114797 52.055901 36.673401 50.369437 C 37.260541 49.049414 37.664459 47.766868 37.885157 46.521799 C 38.101691 45.27673 38.50561 44.139928 39.092749 43.115557 C 41.437143 43.84844 43.74406 44.68959 46.017665 45.643172 C 48.287105 46.596753 50.523232 47.529514 52.721882 48.445618 C 54.920533 49.361722 57.081706 50.240349 59.205402 51.085664 C 61.333262 51.926814 63.419482 52.605564 65.472388 53.11775 C 68.620455 55.38719 71.864297 57.644138 75.19975 59.876101 C 78.531038 62.112228 81.575003 64.564889 84.323316 67.242412 C 87.067464 69.915771 89.357725 72.976392 91.189933 76.420111 C 93.022142 79.86383 94.08399 83.928002 94.379642 88.620954 C 94.229734 89.058186 94.121467 89.424628 94.046513 89.720279 C 93.975723 90.011767 93.900769 90.303255 93.829979 90.598907 C 93.755025 90.890394 93.717548 91.219359 93.717548 91.585801 C 93.717548 91.952242 93.717548 92.464428 93.717548 93.126522 C 91.081667 97.740356 87.746214 101.625471 83.715355 104.777702 C 79.688661 107.92577 75.29136 110.711559 70.527618 113.130908 C 65.763876 115.546092 60.800256 117.765562 55.632595 119.780992 C 50.469099 121.792257 45.430525 123.936774 40.521039 126.210378 Z M 51.293592 63.890303 C 50.631499 63.890303 50.15679 64.036047 49.865303 64.327535 C 50.74393 67.62551 51.401859 70.740264 51.843255 73.671798 C 52.280487 76.603332 52.522005 79.534866 52.555318 82.462235 C 52.592795 85.393769 52.430395 88.400256 52.063953 91.477534 C 51.697511 94.554811 51.181161 97.890264 50.523232 101.479727 C 51.476813 101.404773 52.317964 101.221552 53.050847 100.930064 C 53.78373 100.634413 54.53327 100.305448 55.303631 99.939006 C 56.073991 99.572564 56.881828 99.2436 57.722979 98.952112 C 58.564129 98.65646 59.534367 98.473239 60.633692 98.402449 C 60.929344 97.81531 61.312442 97.357258 61.791315 97.028293 C 62.266023 96.699328 62.686598 96.349543 63.05304 95.983101 C 64.885249 95.250218 66.717457 94.479857 68.549666 93.676184 C 70.381874 92.868347 72.064175 91.952242 73.604896 90.927871 C 75.145616 89.899336 76.536429 88.729221 77.781498 87.409198 C 79.026567 86.089175 80.055102 84.515141 80.858776 82.682933 C 80.271636 81.583608 79.559573 80.650847 78.714259 79.880487 C 77.873109 79.110126 76.994481 78.34393 76.078377 77.57357 C 75.162273 76.803209 74.283646 75.999536 73.438331 75.154221 C 72.597181 74.313071 71.918431 73.342833 71.406245 72.243508 C 70.23613 72.0936 69.207595 71.785456 68.328968 71.306584 C 67.45034 70.831875 66.60919 70.357166 65.801353 69.878294 C 64.993515 69.403585 64.135709 68.945533 63.219604 68.504137 C 62.3035 68.066906 61.220831 67.808731 59.975762 67.733777 C 58.072764 66.709406 56.348822 65.997343 54.808102 65.593424 C 53.271545 65.189505 52.097266 64.623186 51.293592 63.890303 Z M 151.952631 63.119943 C 152.027585 63.632128 152.044242 64.015226 152.006765 64.273401 C 151.973452 64.531576 151.935975 64.76893 151.898498 64.989628 C 151.861021 65.206162 151.844364 65.44768 151.844364 65.701691 C 151.844364 65.959866 151.915154 66.342964 152.065062 66.85515 C 150.524341 69.349452 148.746266 71.052573 146.730837 71.968677 C 144.719572 72.884781 142.537578 73.542711 140.193184 73.946629 C 137.84879 74.350548 135.450262 74.771123 132.993437 75.208355 C 130.540776 75.649751 128.100607 76.603332 125.685423 78.069099 C 124.731842 77.702657 123.869871 77.702657 123.103675 78.069099 C 122.333315 78.43554 121.213169 78.543807 119.747402 78.398063 C 119.31017 78.835295 118.760508 79.147603 118.102578 79.330824 C 117.440485 79.514045 116.782555 79.718086 116.120462 79.93462 C 116.416114 80.596714 116.545201 81.2713 116.507724 81.97087 C 116.470247 82.666276 116.561858 83.232595 116.782555 83.673991 C 119.347647 83.894689 122.187571 83.857212 125.298161 83.56156 C 128.412916 83.270072 131.473537 83.086852 134.47586 83.011898 C 134.550814 83.378339 134.513337 83.619858 134.367593 83.728125 C 134.22185 83.836391 134.184373 84.040433 134.259327 84.331921 C 134.771512 84.698362 135.283698 85.156414 135.795883 85.706077 C 136.308069 86.25574 136.820254 86.788746 137.336604 87.300931 C 137.84879 87.813117 138.377632 88.233692 138.927294 88.562657 C 139.476957 88.895786 140.11823 89.020709 140.851113 88.949919 C 141.146765 89.537058 141.346642 90.174167 141.454909 90.873738 C 141.56734 91.569144 141.47573 92.281207 141.180078 93.014091 C 140.009963 93.821928 138.835684 94.646422 137.665569 95.487572 C 136.49129 96.332887 135.267041 97.082426 133.984495 97.740356 C 132.701949 98.402449 131.344449 98.931291 129.916159 99.33521 C 128.48787 99.739129 126.893015 99.901529 125.135761 99.830739 C 124.769319 99.830739 124.494488 99.830739 124.311267 99.830739 C 124.128046 99.830739 123.890692 99.718308 123.59504 99.501775 C 123.012065 99.868216 122.187571 99.976483 121.121558 99.830739 C 120.05971 99.684995 119.235216 99.793262 118.652241 100.159704 C 117.844404 99.793262 116.874166 99.626698 115.737364 99.664175 C 114.600562 99.701652 113.592847 99.572564 112.71422 99.281077 C 111.544105 100.817633 110.478092 102.466621 109.528675 104.22804 C 108.575094 105.985294 107.733944 107.85498 107.00106 109.832932 C 109.491198 110.199374 111.560761 110.345118 113.209749 110.270164 C 114.858737 110.199374 116.416114 110.070287 117.881881 109.887066 C 119.347647 109.703845 120.846727 109.520624 122.387448 109.337403 C 123.924005 109.154182 125.868644 109.100049 128.213038 109.170839 C 129.678805 108.367165 131.419403 107.834159 133.434833 107.580149 C 135.450262 107.321974 137.299127 106.901399 138.985592 106.314259 C 139.568567 106.534957 140.084917 106.918055 140.522148 107.467718 C 140.963544 108.01738 141.384119 108.529566 141.788038 109.008438 C 142.187793 109.483147 142.612532 109.903722 143.049763 110.270164 C 143.491159 110.636606 144.040822 110.786513 144.698751 110.711559 C 144.994403 111.003047 145.19428 111.352832 145.302547 111.756751 C 145.414978 112.16067 145.506588 112.543768 145.577378 112.91021 C 145.652332 113.276651 145.78142 113.58896 145.964641 113.84297 C 146.147861 114.101145 146.456006 114.192756 146.897401 114.117802 C 145.798076 116.53715 144.536351 118.386015 143.103897 119.668561 C 141.675607 120.951107 140.04744 121.921344 138.215231 122.583438 C 136.383023 123.241367 134.350937 123.753553 132.11481 124.119995 C 129.878682 124.486436 127.405201 124.927832 124.694365 125.440018 C 124.036436 125.585762 123.486773 125.569105 123.045377 125.385884 C 122.608146 125.202663 122.09596 125.111053 121.508821 125.111053 C 119.822356 125.477495 117.806927 125.806459 115.462533 126.097947 C 113.118138 126.393599 110.736267 126.501866 108.316919 126.426912 C 105.901735 126.356122 103.590654 126.043814 101.392004 125.494151 C 99.197518 124.944489 97.398622 123.974251 96.007809 122.583438 C 95.42067 122.067088 95.037571 121.463292 94.854351 120.767886 C 94.67113 120.072479 94.175601 119.539473 93.371927 119.173032 C 93.296973 118.223615 93.151229 117.157602 92.930532 115.987487 C 92.709834 114.813208 92.489136 113.58896 92.272602 112.306414 C 92.051904 111.023868 91.88534 109.757978 91.777073 108.512909 C 91.668806 107.26784 91.72294 106.131038 91.939473 105.106667 C 92.160171 104.007342 92.618223 103.016284 93.31363 102.137656 C 94.0132 101.259029 94.250555 100.305448 94.029857 99.281077 C 94.396298 99.206123 94.616996 99.006245 94.687786 98.677281 C 94.76274 98.348316 95.054228 98.219229 95.570578 98.290018 C 96.007809 96.97416 96.482518 95.724926 96.998867 94.554811 C 97.511053 93.380532 98.039895 92.247894 98.589557 91.148569 C 99.13922 90.049244 99.688883 88.929098 100.238545 87.79646 C 100.788208 86.659658 101.321214 85.393769 101.833399 84.002956 C 100.809028 83.049375 100.055324 82.004183 99.580616 80.871545 C 99.105907 79.734743 98.756122 78.597941 98.535424 77.461139 C 98.314726 76.328501 98.131505 75.154221 97.985761 73.946629 C 97.840018 72.734873 97.581843 71.510625 97.215401 70.265556 C 97.948284 69.166231 98.847732 68.266783 99.90958 67.571377 C 100.971429 66.87597 102.124887 66.305487 103.37412 65.868255 C 104.619189 65.42686 105.972525 65.060418 107.438292 64.76893 C 108.904059 64.473278 110.44478 64.144314 112.05629 63.777872 C 114.987824 62.828455 117.607049 62.095571 119.913966 61.579222 C 122.220884 61.067036 124.494488 60.646461 126.730615 60.317496 C 128.962578 59.988532 131.290316 59.676223 133.709664 59.380572 C 136.124848 59.089084 138.873161 58.647688 141.950438 58.064713 C 142.612532 58.722642 143.232984 59.051607 143.820124 59.051607 C 144.111612 58.393677 144.461397 58.1938 144.865316 58.447811 C 145.269234 58.705986 145.431635 58.501944 145.360845 57.844015 C 146.089564 59.089084 147.026489 60.134276 148.163291 60.975426 C 149.295929 61.82074 150.561818 62.532803 151.952631 63.119943 Z M 145.668989 75.541484 C 146.181174 74.000763 147.005668 72.68074 148.14247 71.581415 C 149.279272 70.48209 150.524341 69.549329 151.881841 68.778969 C 153.235177 68.008608 154.646811 67.367335 156.112577 66.85515 C 157.578344 66.342964 158.969157 65.905732 160.28918 65.539291 C 163.220714 64.290058 166.352125 63.099122 169.687577 61.966484 C 173.018865 60.829682 176.425108 59.821967 179.906304 58.94334 C 183.3875 58.064713 186.960307 57.49423 190.624724 57.240219 C 194.289141 56.982044 198.136779 57.440096 202.163474 58.614375 C 202.384171 59.347259 202.713136 60.042665 203.154532 60.700595 C 203.591763 61.362688 204.049816 62.020617 204.528688 62.678547 C 205.003397 63.34064 205.423972 63.981913 205.790414 64.602366 C 206.156855 65.226982 206.377553 65.868255 206.452507 66.526185 C 207.185391 67.188278 207.768366 67.900341 208.209762 68.670702 C 208.651157 69.441062 208.721947 70.448777 208.43046 71.693846 C 207.697576 72.276821 206.981349 72.809827 206.285943 73.284536 C 205.590536 73.763409 204.840996 74.183984 204.033159 74.550425 C 201.322323 73.892496 198.57401 73.671798 195.788221 73.892496 C 193.006595 74.10903 190.512293 74.292251 188.317807 74.442159 C 187.655713 73.780065 186.868696 73.4511 185.952592 73.4511 C 185.036488 73.4511 184.082907 73.596844 183.096012 73.892496 C 182.104954 74.183984 181.11806 74.475471 180.127002 74.771123 C 179.140108 75.062611 178.203183 75.137565 177.324555 74.991821 C 176.591672 75.574797 175.696388 75.962059 174.630376 76.14528 C 173.568528 76.328501 172.415069 76.490901 171.17 76.636645 C 171.095046 77.003086 171.17 77.244605 171.390698 77.352872 C 171.607232 77.461139 171.644709 77.702657 171.498965 78.069099 C 171.940361 78.581284 172.50668 78.947726 173.202086 79.168424 C 173.897493 79.384958 174.630376 79.605655 175.400737 79.826353 C 176.171097 80.047051 176.849847 80.321882 177.432822 80.650847 C 178.019962 80.979812 178.423881 81.512818 178.644578 82.245701 C 179.743904 82.245701 180.693321 82.499712 181.501158 83.011898 C 182.308996 83.528247 182.966925 84.1487 183.479111 84.881583 C 183.991296 85.614467 184.378558 86.401483 184.632569 87.246798 C 184.890744 88.087948 185.019831 88.837488 185.019831 89.499582 C 185.236365 90.082557 185.49454 90.340732 185.786028 90.265778 C 186.081679 90.194988 186.410644 90.340732 186.777086 90.707173 C 186.997784 91.660755 187.547446 92.630992 188.426074 93.622051 C 189.304701 94.608945 190.000107 95.691614 190.512293 96.861729 C 190.662201 98.693937 190.770468 100.326268 190.845422 101.754558 C 190.916212 103.182848 190.662201 104.627794 190.075061 106.093561 C 188.975736 108.804397 187.455836 111.223745 185.511196 113.347441 C 183.570721 115.475302 181.372071 117.361644 178.91941 119.010631 C 176.462585 120.659619 173.843359 122.067088 171.061734 123.241367 C 168.275944 124.415647 165.565108 125.402541 162.925062 126.210378 C 162.633574 126.135424 162.342087 126.135424 162.046435 126.210378 C 161.754947 126.281168 161.679993 126.097947 161.825737 125.660716 C 161.242761 126.172901 160.601488 126.501866 159.901918 126.64761 C 159.206511 126.793354 158.456972 126.851651 157.649134 126.814174 C 156.845461 126.776697 156.020967 126.722564 155.175653 126.64761 C 154.334502 126.57682 153.547486 126.610133 152.814602 126.760041 C 152.302417 126.243691 151.844364 125.752326 151.440446 125.273453 C 151.036527 124.798745 150.724219 124.194949 150.507685 123.462065 C 150.141243 123.462065 149.974679 123.278844 150.012156 122.912403 C 150.049633 122.545961 149.920545 122.36274 149.624894 122.36274 C 150.066289 121.629857 150.266167 121.209282 150.232854 121.096851 C 150.195377 120.988584 150.082946 120.896973 149.899725 120.822019 C 149.716504 120.751229 149.554104 120.659619 149.40836 120.547188 C 149.258452 120.438921 149.225139 120.272357 149.295929 120.055823 C 149.591581 119.468684 149.699848 118.789934 149.624894 118.019573 C 149.554104 117.249213 149.47915 116.462196 149.40836 115.658523 C 149.333406 114.850685 149.387539 114.080325 149.57076 113.347441 C 149.753981 112.614558 150.286987 112.031582 151.165614 111.590187 C 153.655752 111.885839 156.020967 111.794228 158.25293 111.315355 C 160.489057 110.840647 162.596097 110.161897 164.57405 109.28327 C 166.552002 108.404642 168.438344 107.451061 170.23724 106.42669 C 172.031971 105.398155 173.805882 104.48205 175.567301 103.678377 C 175.787999 103.016284 176.096143 102.466621 176.500062 102.029389 C 176.90398 101.587994 177.324555 101.184075 177.765951 100.817633 C 178.203183 100.451192 178.607101 100.051437 178.973543 99.610041 C 179.339985 99.168646 179.59816 98.623147 179.743904 97.961054 C 179.814693 97.448868 179.68977 97.13656 179.356641 97.028293 C 179.027677 96.915862 178.865276 96.641031 178.865276 96.203799 L 177.65352 95.874834 C 176.262707 95.066997 174.688674 94.388247 172.927255 93.838584 C 171.17 93.288922 169.666757 92.685126 168.421688 92.027196 C 167.61385 92.464428 166.86431 92.576859 166.168904 92.356161 C 165.473497 92.135463 164.57405 91.914765 163.474725 91.698232 C 160.984587 91.548324 158.586059 91.294313 156.274978 90.927871 C 153.968061 90.56143 151.752754 89.899336 149.624894 88.949919 C 149.47915 88.583477 149.295929 88.254513 149.075231 87.958861 C 148.858697 87.667373 148.454779 87.592419 147.867639 87.738163 C 147.430407 87.155187 146.989012 86.584704 146.547616 86.035042 C 146.110384 85.485379 145.706466 84.881583 145.340024 84.223654 C 145.485768 83.345026 145.598199 82.591322 145.668989 81.97087 C 145.743943 81.346253 145.523245 80.742457 145.011059 80.155318 C 145.302547 79.201737 145.523245 78.43554 145.668989 77.848401 C 145.814733 77.261261 145.814733 76.490901 145.668989 75.541484 Z M 214.018696 117.30751 C 214.385137 119.50616 214.25605 121.225938 213.631433 122.471007 C 213.010981 123.716076 212.12819 124.653001 210.995552 125.273453 C 209.858749 125.89807 208.559547 126.243691 207.09378 126.318645 C 205.628013 126.393599 204.233036 126.318645 202.917178 126.097947 C 202.184294 125.073576 201.522201 123.79103 200.939225 122.250309 C 200.352086 120.713752 199.802423 119.118898 199.290237 117.469911 C 198.773888 115.820923 198.315836 114.192756 197.916081 112.581245 C 197.512162 110.969734 197.162377 109.53728 196.870889 108.292211 C 197.237331 107.413584 197.474685 106.405869 197.587116 105.269067 C 197.695383 104.136429 197.770337 102.982971 197.80365 101.808692 C 197.841127 100.634413 197.878604 99.443477 197.916081 98.235885 C 197.953558 97.028293 198.045168 95.874834 198.190912 94.775509 C 198.703098 91.698232 199.452638 88.766698 200.443696 85.980908 C 201.43059 83.195118 202.221771 80.301062 202.804747 77.298738 C 202.95049 76.636645 202.896357 76.016192 202.642346 75.429053 C 202.384171 74.841913 202.330038 74.292251 202.475782 73.780065 C 202.550736 73.488577 202.76727 73.284536 203.133711 73.176269 C 203.500153 73.068002 203.720851 72.826484 203.795805 72.460042 C 204.016503 71.656369 204.070636 70.998439 203.958205 70.48209 C 203.849938 69.969904 203.979026 69.349452 204.345467 68.616568 C 204.711909 68.029429 205.169961 67.167458 205.719624 66.030656 C 206.269286 64.898018 206.469164 63.707082 206.32342 62.462013 C 206.981349 62.020617 207.605966 61.508432 208.193105 60.921292 C 208.776081 60.334153 209.384041 59.805311 210.004493 59.326438 C 210.62911 58.85173 211.324516 58.431154 212.094877 58.064713 C 212.861073 57.698271 213.797998 57.51505 214.897323 57.51505 C 215.484462 58.247934 215.867561 59.051607 216.050781 59.930234 C 216.234002 60.813025 216.417223 61.691653 216.600444 62.57028 C 216.783665 63.448907 217.058496 64.273401 217.424938 65.043762 C 217.79138 65.814122 218.411832 66.417918 219.294623 66.85515 C 219.294623 67.442289 219.294623 68.175173 219.294623 69.0538 C 219.294623 69.932427 219.327936 70.794398 219.40289 71.639712 C 219.477844 72.480863 219.640245 73.251223 219.898419 73.946629 C 220.15243 74.642036 220.577169 75.100088 221.160145 75.320786 C 219.844286 78.835295 218.615873 82.316491 217.479071 85.76021 C 216.342269 89.20393 215.409508 92.668469 214.676625 96.149666 C 213.943742 99.626698 213.48569 103.128715 213.302469 106.643224 C 213.119248 110.161897 213.356602 113.713883 214.018696 117.30751 Z M 299.291347 105.214934 C 297.534092 108.367165 295.223011 110.80317 292.366431 112.522947 C 289.509852 114.246889 286.35762 115.675179 282.913901 116.811981 C 279.470182 117.948783 275.859898 118.956498 272.087214 119.835125 C 268.31453 120.713752 264.66677 121.850555 261.15226 123.241367 C 260.123725 123.241367 259.228441 123.278844 258.458081 123.349634 C 257.687721 123.424588 256.954837 123.516199 256.259431 123.624466 C 255.564024 123.736897 254.885274 123.845163 254.227345 123.957594 C 253.569415 124.065861 252.836532 124.157472 252.028695 124.232426 C 251.737207 124.157472 251.553986 124.211605 251.479032 124.394826 C 251.404078 124.578047 251.295811 124.744611 251.150067 124.890355 C 249.904998 125.111053 248.784853 125.21932 247.797959 125.21932 C 246.8069 125.21932 245.982406 125.21932 245.324477 125.21932 C 244.44585 125.21932 243.546402 125.348407 242.630298 125.606582 C 241.714193 125.860593 240.8897 125.952203 240.156816 125.877249 C 234.664355 125.585762 230.358665 123.624466 227.24391 119.997526 C 224.129156 116.370585 222.388557 111.336176 222.022116 104.885969 C 222.09707 104.519527 222.042936 104.29883 221.859715 104.22804 C 221.676495 104.153086 221.50993 104.044819 221.364186 103.894911 C 221.364186 103.166192 221.455797 102.541575 221.639018 102.029389 C 221.822238 101.517204 221.838895 100.85511 221.693151 100.051437 C 223.596149 96.020578 225.761487 92.264551 228.176671 88.783355 C 230.596019 85.302158 233.490076 82.245701 236.858841 79.605655 C 237.37519 79.168424 237.812422 78.727028 238.178864 78.285632 C 238.545305 77.848401 238.895091 77.407005 239.224055 76.969774 C 239.55302 76.528378 239.940282 76.14528 240.377514 75.816315 C 240.81891 75.483186 241.368572 75.245832 242.026502 75.100088 C 243.567222 73.342833 245.395267 71.731323 247.523127 70.265556 C 249.646824 68.799789 251.882951 67.388156 254.227345 66.030656 C 256.571739 64.67732 258.899477 63.31982 261.206394 61.966484 C 263.513311 60.608984 265.620351 59.089084 267.527513 57.402619 C 268.331187 57.769061 268.918326 57.881492 269.284768 57.735748 C 269.65121 57.58584 270.055128 57.58584 270.49236 57.735748 C 271.00871 58.830909 271.720772 59.601269 272.636877 60.042665 C 273.552981 60.479897 274.469085 60.937949 275.385189 61.416821 C 276.301294 61.89153 277.163265 62.462013 277.966938 63.119943 C 278.774775 63.777872 279.395228 64.656499 279.836623 65.755824 C 279.395228 65.755824 279.19535 65.922389 279.232827 66.251354 C 279.270304 66.580318 279.361915 66.913447 279.507659 67.242412 C 279.653403 67.571377 279.707536 67.900341 279.670059 68.229306 C 279.636746 68.558271 279.361915 68.724835 278.845565 68.724835 C 278.920519 69.091277 279.157873 69.291154 279.561792 69.328631 C 279.965711 69.366108 280.165588 69.565985 280.165588 69.932427 C 280.165588 70.298869 280.073978 70.594521 279.890757 70.815218 C 279.707536 71.031752 279.69088 71.398194 279.836623 71.91038 C 278.370857 72.863961 276.738525 73.780065 274.943794 74.658692 C 273.149062 75.541484 271.283541 76.474244 269.338901 77.461139 C 267.398426 78.452197 265.382996 79.514045 263.292613 80.650847 C 261.206394 81.787649 259.174308 83.086852 257.196356 84.552618 C 255.214239 86.018385 253.202974 87.646552 251.150067 89.445448 C 249.097161 91.24018 247.119209 93.126522 245.21621 95.104474 C 243.309048 97.082426 241.514316 99.114512 239.827851 101.204896 C 238.141387 103.291115 236.713097 105.360678 235.542982 107.413584 C 235.688726 107.780026 235.85529 108.054857 236.038511 108.238078 C 236.221732 108.421299 236.384132 108.69613 236.529876 109.062572 C 238.87427 109.208316 241.056264 109.191659 243.071693 109.008438 C 245.087123 108.825218 247.119209 108.954305 249.172115 109.391537 C 249.392813 109.245793 249.538557 109.025095 249.609347 108.733607 C 249.684301 108.437955 249.867521 108.221422 250.159009 108.071514 C 254.335612 107.634282 258.220727 106.955532 261.81019 106.039428 C 265.399653 105.123323 269.06407 104.153086 272.803441 103.128715 C 272.216302 102.908017 271.683295 102.708139 271.208587 102.524919 C 270.733878 102.341698 270.275826 102.175133 269.83443 102.029389 C 269.467989 101.662948 269.484645 101.350639 269.888564 101.092465 C 270.292483 100.838454 270.642268 100.563623 270.933756 100.267971 C 269.909384 99.684995 269.084891 98.952112 268.460274 98.073485 C 267.835657 97.190693 267.452559 96.020578 267.306815 94.554811 C 267.744047 94.18837 267.964745 93.746974 267.964745 93.234788 C 267.964745 92.722603 267.744047 92.318684 267.306815 92.027196 C 267.015328 91.952242 266.832107 91.952242 266.757153 92.027196 C 266.682199 92.097986 266.628065 92.210417 266.590588 92.356161 C 266.557276 92.501905 266.498978 92.630992 266.428188 92.739259 C 266.353234 92.85169 266.170013 92.83087 265.878526 92.685126 C 265.949315 92.027196 266.11588 91.477534 266.374055 91.036138 C 266.628065 90.598907 266.832107 90.082557 266.977851 89.499582 L 274.560696 84.444352 C 275.368533 85.027327 276.355427 85.6686 277.529706 86.364006 C 278.699821 87.063577 279.928234 87.758983 281.21078 88.45439 C 282.493326 89.149796 283.813349 89.845203 285.166685 90.540609 C 286.524185 91.24018 287.78591 91.914765 288.960189 92.576859 C 289.98456 93.014091 290.900665 93.60123 291.708502 94.334114 C 292.512175 95.066997 293.282536 95.816537 294.015419 96.586897 C 294.748302 97.357258 295.497842 98.106798 296.268203 98.839681 C 297.038563 99.572564 297.933847 100.197181 298.962382 100.709366 C 298.816638 101.662948 298.849951 102.433308 299.070649 103.016284 C 299.291347 103.603423 299.362137 104.336307 299.291347 105.214934 Z M 311.912765 104.994236 C 311.250672 105.144144 310.775963 105.527242 310.484475 106.151859 C 310.188824 106.772311 309.913992 107.413584 309.659982 108.071514 C 309.401807 108.733607 309.147796 109.337403 308.889621 109.887066 C 308.631446 110.436728 308.248348 110.711559 307.736163 110.711559 C 307.661209 111.298699 307.461331 111.810885 307.132367 112.248116 C 306.799238 112.689512 306.491094 113.147564 306.195442 113.622273 C 305.903954 114.101145 305.683256 114.613331 305.537512 115.162993 C 305.391768 115.712656 305.462558 116.353929 305.75821 117.086812 C 305.171071 117.524044 304.804629 118.148661 304.658885 118.956498 C 304.513141 119.760171 304.346577 120.530532 304.163356 121.263415 C 303.980135 121.996298 303.667827 122.616751 303.230595 123.133101 C 302.7892 123.645286 301.981362 123.865984 300.811247 123.79103 C 300.590549 124.082518 300.553072 124.265739 300.698816 124.340693 C 300.848724 124.415647 300.956991 124.669657 301.031945 125.111053 C 300.224108 124.965309 299.620312 125.019443 299.216393 125.273453 C 298.812474 125.531628 298.321109 125.694028 297.73397 125.768982 C 296.338993 125.331751 295.185534 124.56139 294.26943 123.462065 C 293.353326 122.36274 292.549652 121.134328 291.854246 119.780992 C 291.158839 118.423492 290.534223 117.049335 289.98456 115.658523 C 289.434898 114.263546 288.901892 113.055954 288.389706 112.031582 C 288.610404 111.223745 288.647881 110.436728 288.502137 109.666368 C 288.352229 108.896007 288.098218 108.254734 287.731777 107.742549 C 291.32124 100.122227 295.243832 91.989719 299.491224 83.345026 C 303.742781 74.696169 307.77364 66.159743 311.583801 57.735748 C 313.266101 58.393677 314.935909 59.143217 316.584897 59.988532 C 318.229721 60.829682 319.732964 61.79992 321.090464 62.899245 C 322.4438 63.99857 323.597259 65.264459 324.55084 66.692749 C 325.504421 68.121039 326.129038 69.715893 326.420526 71.473148 C 326.274782 71.91038 326.108217 72.076944 325.924996 71.968677 C 325.741776 71.856246 325.579375 71.91038 325.429467 72.131077 C 325.725119 72.497519 325.887519 72.755694 325.924996 72.901438 C 325.962473 73.047182 325.962473 73.192925 325.924996 73.342833 C 325.887519 73.488577 325.870863 73.688455 325.870863 73.946629 C 325.870863 74.20064 325.97913 74.550425 326.199828 74.991821 C 325.90834 74.916867 325.704299 74.954344 325.596032 75.100088 C 325.487765 75.245832 325.246246 75.245832 324.879805 75.100088 C 325.175457 75.907925 325.267067 76.565855 325.154636 77.07804 C 325.046369 77.590226 324.879805 78.048278 324.663271 78.452197 C 324.442573 78.856116 324.259352 79.293347 324.113608 79.77222 C 323.963701 80.246928 324.001177 80.850724 324.221875 81.583608 C 324.001177 81.583608 323.838777 81.637741 323.726346 81.750172 C 323.618079 81.858439 323.526469 81.97087 323.451515 82.079137 C 323.380725 82.187404 323.289115 82.299835 323.176684 82.408102 C 323.068417 82.520533 322.901852 82.537189 322.681155 82.462235 C 322.901852 84.07791 322.976806 85.689421 322.901852 87.300931 C 322.831062 88.912442 322.772765 90.540609 322.739452 92.189597 C 322.701975 93.838584 322.718632 95.562526 322.793586 97.357258 C 322.864375 99.151989 323.12255 101.000854 323.563946 102.908017 C 326.199828 101.367296 328.306868 99.389344 329.880901 96.97416 C 331.459099 94.554811 332.741645 91.843976 333.728539 88.837488 C 334.719597 85.835164 335.469137 82.612143 335.981323 79.168424 C 336.493508 75.724705 337.043171 72.206031 337.630311 68.616568 C 338.292404 67.954475 338.80459 67.150801 339.171031 66.19722 C 339.537473 65.243639 339.866438 64.235924 340.157926 63.174076 C 340.453577 62.112228 340.745065 61.05038 341.036553 59.988532 C 341.332205 58.922519 341.698646 57.952282 342.135878 57.073654 C 343.235203 57.219398 344.172128 57.569184 344.942488 58.118846 C 345.708685 58.668509 346.424912 59.255648 347.082841 59.876101 C 347.744935 60.500717 348.440341 61.087857 349.173224 61.637519 C 349.906108 62.187182 350.822212 62.532803 351.921537 62.678547 C 352.800164 63.923616 353.603838 65.135372 354.336721 66.305487 C 355.069605 67.479766 355.548477 68.724835 355.765011 70.044858 C 355.398569 70.631998 355.123738 71.289927 354.940517 72.02281 C 354.757296 72.755694 354.557419 73.488577 354.336721 74.221461 C 354.116023 74.954344 353.824536 75.633094 353.458094 76.253547 C 353.091652 76.878163 352.579467 77.407005 351.921537 77.848401 C 351.700839 79.751399 351.426008 81.491997 351.097043 83.070195 C 350.763915 84.644229 350.43495 86.201606 350.105985 87.738163 C 349.77702 89.278884 349.502189 90.873738 349.281491 92.522726 C 349.060793 94.171713 348.990004 95.983101 349.060793 97.961054 C 348.477818 99.647518 347.853201 101.44225 347.195272 103.345248 C 346.533178 105.252411 346.020993 106.976353 345.654551 108.512909 C 344.484436 109.466491 343.568332 110.603293 342.906238 111.919151 C 342.248309 113.239174 341.552903 114.559197 340.820019 115.87922 C 340.524367 116.170708 340.341146 116.245662 340.270357 116.095754 C 340.195403 115.95001 339.941392 115.841743 339.499996 115.766789 C 339.57495 116.062441 339.57495 116.278975 339.499996 116.428883 C 339.425042 116.574627 339.333432 116.703714 339.225165 116.811981 C 339.116898 116.920248 339.041944 117.086812 339.004467 117.30751 C 338.96699 117.524044 339.025288 117.819696 339.171031 118.186138 C 338.142496 118.623369 337.226392 119.247986 336.422719 120.055823 C 335.614881 120.859496 334.757074 121.59238 333.84097 122.250309 C 332.924866 122.912403 331.825541 123.349634 330.542995 123.570332 C 329.260449 123.79103 327.590641 123.532855 325.541898 122.799972 C 322.535411 120.605486 319.878708 118.073707 317.571791 115.217127 C 315.264874 112.360547 313.378532 108.954305 311.912765 104.994236 Z M 311.912765 104.994236 " stroke="#f1efe7" stroke-width="8.44155" stroke-opacity="1" stroke-miterlimit="4"/><g fill="#292929" fill-opacity="1"><g transform="translate(35.239702, 251.130199)"><g><path d="M 10.109375 1.140625 C 8.109375 0.648438 6.578125 -0.15625 5.515625 -1.28125 C 4.453125 -2.414062 3.660156 -3.753906 3.140625 -5.296875 C 2.628906 -6.847656 2.285156 -8.550781 2.109375 -10.40625 C 1.941406 -12.269531 1.753906 -14.195312 1.546875 -16.1875 C 1.816406 -17.082031 2.175781 -17.835938 2.625 -18.453125 C 3.070312 -19.078125 3.265625 -19.9375 3.203125 -21.03125 C 3.953125 -23.226562 4.632812 -25.359375 5.25 -27.421875 C 5.875 -29.484375 6.289062 -31.613281 6.5 -33.8125 C 6.90625 -34.4375 7.316406 -34.851562 7.734375 -35.0625 C 8.285156 -38.976562 8.351562 -42.992188 7.9375 -47.109375 C 7.53125 -51.234375 6.84375 -55.050781 5.875 -58.5625 C 5.945312 -59.320312 6.050781 -59.890625 6.1875 -60.265625 C 6.320312 -60.640625 6.320312 -60.96875 6.1875 -61.25 C 6.050781 -61.863281 6.253906 -62.171875 6.796875 -62.171875 C 7.347656 -62.171875 7.898438 -62.171875 8.453125 -62.171875 C 8.453125 -63.410156 8.226562 -64.628906 7.78125 -65.828125 C 7.332031 -67.035156 6.90625 -68.425781 6.5 -70 C 7.050781 -71.238281 7.425781 -72.441406 7.625 -73.609375 C 7.832031 -74.785156 8.210938 -75.851562 8.765625 -76.8125 C 10.960938 -76.125 13.125 -75.332031 15.25 -74.4375 C 17.382812 -73.539062 19.484375 -72.660156 21.546875 -71.796875 C 23.609375 -70.941406 25.632812 -70.117188 27.625 -69.328125 C 29.625 -68.546875 31.585938 -67.914062 33.515625 -67.4375 C 36.460938 -65.300781 39.5 -63.179688 42.625 -61.078125 C 45.757812 -58.984375 48.613281 -56.679688 51.1875 -54.171875 C 53.769531 -51.671875 55.921875 -48.800781 57.640625 -45.5625 C 59.359375 -42.332031 60.351562 -38.519531 60.625 -34.125 C 60.488281 -33.71875 60.382812 -33.375 60.3125 -33.09375 C 60.25 -32.820312 60.179688 -32.546875 60.109375 -32.265625 C 60.035156 -31.992188 60 -31.6875 60 -31.34375 C 60 -31 60 -30.519531 60 -29.90625 C 57.53125 -25.570312 54.40625 -21.925781 50.625 -18.96875 C 46.84375 -16.007812 42.71875 -13.394531 38.25 -11.125 C 33.78125 -8.863281 29.125 -6.785156 24.28125 -4.890625 C 19.4375 -3.003906 14.710938 -0.992188 10.109375 1.140625 Z M 20.203125 -57.328125 C 19.585938 -57.328125 19.144531 -57.1875 18.875 -56.90625 C 19.695312 -53.820312 20.3125 -50.90625 20.71875 -48.15625 C 21.132812 -45.40625 21.359375 -42.65625 21.390625 -39.90625 C 21.429688 -37.15625 21.28125 -34.332031 20.9375 -31.4375 C 20.59375 -28.550781 20.109375 -25.425781 19.484375 -22.0625 C 20.378906 -22.132812 21.171875 -22.304688 21.859375 -22.578125 C 22.546875 -22.847656 23.25 -23.15625 23.96875 -23.5 C 24.6875 -23.84375 25.441406 -24.148438 26.234375 -24.421875 C 27.023438 -24.703125 27.9375 -24.878906 28.96875 -24.953125 C 29.25 -25.503906 29.609375 -25.929688 30.046875 -26.234375 C 30.492188 -26.546875 30.890625 -26.875 31.234375 -27.21875 C 32.953125 -27.90625 34.671875 -28.625 36.390625 -29.375 C 38.109375 -30.132812 39.6875 -30.992188 41.125 -31.953125 C 42.570312 -32.921875 43.878906 -34.023438 45.046875 -35.265625 C 46.222656 -36.503906 47.1875 -37.976562 47.9375 -39.6875 C 47.394531 -40.71875 46.726562 -41.59375 45.9375 -42.3125 C 45.144531 -43.039062 44.316406 -43.765625 43.453125 -44.484375 C 42.597656 -45.210938 41.773438 -45.96875 40.984375 -46.75 C 40.191406 -47.539062 39.554688 -48.453125 39.078125 -49.484375 C 37.972656 -49.628906 37.007812 -49.921875 36.1875 -50.359375 C 35.363281 -50.804688 34.570312 -51.253906 33.8125 -51.703125 C 33.0625 -52.148438 32.253906 -52.578125 31.390625 -52.984375 C 30.535156 -53.398438 29.523438 -53.644531 28.359375 -53.71875 C 26.566406 -54.675781 24.945312 -55.34375 23.5 -55.71875 C 22.0625 -56.101562 20.960938 -56.640625 20.203125 -57.328125 Z M 20.203125 -57.328125 "/></g></g></g><g fill="#292929" fill-opacity="1"><g transform="translate(92.34277, 251.130199)"><g><path d="M 57.53125 -58.046875 C 57.601562 -57.566406 57.617188 -57.207031 57.578125 -56.96875 C 57.546875 -56.726562 57.507812 -56.503906 57.46875 -56.296875 C 57.4375 -56.085938 57.421875 -55.863281 57.421875 -55.625 C 57.421875 -55.382812 57.492188 -55.023438 57.640625 -54.546875 C 56.191406 -52.203125 54.519531 -50.597656 52.625 -49.734375 C 50.738281 -48.878906 48.695312 -48.265625 46.5 -47.890625 C 44.300781 -47.515625 42.050781 -47.117188 39.75 -46.703125 C 37.445312 -46.296875 35.160156 -45.40625 32.890625 -44.03125 C 31.992188 -44.375 31.1875 -44.375 30.46875 -44.03125 C 29.75 -43.6875 28.703125 -43.582031 27.328125 -43.71875 C 26.910156 -43.300781 26.390625 -43.003906 25.765625 -42.828125 C 25.148438 -42.660156 24.535156 -42.472656 23.921875 -42.265625 C 24.191406 -41.648438 24.3125 -41.015625 24.28125 -40.359375 C 24.25 -39.710938 24.332031 -39.179688 24.53125 -38.765625 C 26.9375 -38.554688 29.597656 -38.585938 32.515625 -38.859375 C 35.441406 -39.140625 38.316406 -39.316406 41.140625 -39.390625 C 41.203125 -39.046875 41.164062 -38.820312 41.03125 -38.71875 C 40.894531 -38.613281 40.863281 -38.421875 40.9375 -38.140625 C 41.414062 -37.804688 41.894531 -37.378906 42.375 -36.859375 C 42.851562 -36.347656 43.332031 -35.847656 43.8125 -35.359375 C 44.300781 -34.878906 44.800781 -34.484375 45.3125 -34.171875 C 45.832031 -33.867188 46.4375 -33.75 47.125 -33.8125 C 47.394531 -33.269531 47.582031 -32.671875 47.6875 -32.015625 C 47.789062 -31.359375 47.703125 -30.6875 47.421875 -30 C 46.328125 -29.25 45.226562 -28.476562 44.125 -27.6875 C 43.03125 -26.894531 41.878906 -26.1875 40.671875 -25.5625 C 39.472656 -24.945312 38.203125 -24.445312 36.859375 -24.0625 C 35.515625 -23.6875 34.019531 -23.535156 32.375 -23.609375 C 32.03125 -23.609375 31.769531 -23.609375 31.59375 -23.609375 C 31.425781 -23.609375 31.207031 -23.710938 30.9375 -23.921875 C 30.382812 -23.578125 29.609375 -23.472656 28.609375 -23.609375 C 27.609375 -23.742188 26.835938 -23.640625 26.296875 -23.296875 C 25.535156 -23.640625 24.625 -23.796875 23.5625 -23.765625 C 22.5 -23.734375 21.550781 -23.851562 20.71875 -24.125 C 19.625 -22.6875 18.628906 -21.140625 17.734375 -19.484375 C 16.835938 -17.835938 16.046875 -16.085938 15.359375 -14.234375 C 17.703125 -13.890625 19.644531 -13.75 21.1875 -13.8125 C 22.726562 -13.882812 24.1875 -14.003906 25.5625 -14.171875 C 26.9375 -14.347656 28.347656 -14.519531 29.796875 -14.6875 C 31.242188 -14.863281 33.066406 -14.914062 35.265625 -14.84375 C 36.640625 -15.601562 38.269531 -16.101562 40.15625 -16.34375 C 42.050781 -16.582031 43.785156 -16.976562 45.359375 -17.53125 C 45.910156 -17.320312 46.390625 -16.957031 46.796875 -16.4375 C 47.210938 -15.925781 47.609375 -15.445312 47.984375 -15 C 48.367188 -14.550781 48.765625 -14.15625 49.171875 -13.8125 C 49.585938 -13.46875 50.109375 -13.332031 50.734375 -13.40625 C 51.003906 -13.125 51.191406 -12.796875 51.296875 -12.421875 C 51.398438 -12.046875 51.484375 -11.6875 51.546875 -11.34375 C 51.617188 -11 51.738281 -10.707031 51.90625 -10.46875 C 52.082031 -10.226562 52.378906 -10.140625 52.796875 -10.203125 C 51.765625 -7.941406 50.578125 -6.207031 49.234375 -5 C 47.890625 -3.800781 46.359375 -2.890625 44.640625 -2.265625 C 42.921875 -1.648438 41.015625 -1.171875 38.921875 -0.828125 C 36.828125 -0.484375 34.507812 -0.0703125 31.96875 0.40625 C 31.34375 0.550781 30.820312 0.535156 30.40625 0.359375 C 30 0.191406 29.519531 0.109375 28.96875 0.109375 C 27.382812 0.453125 25.492188 0.757812 23.296875 1.03125 C 21.097656 1.300781 18.863281 1.398438 16.59375 1.328125 C 14.332031 1.265625 12.171875 0.972656 10.109375 0.453125 C 8.046875 -0.0546875 6.359375 -0.960938 5.046875 -2.265625 C 4.503906 -2.742188 4.144531 -3.3125 3.96875 -3.96875 C 3.800781 -4.625 3.335938 -5.125 2.578125 -5.46875 C 2.503906 -6.363281 2.363281 -7.359375 2.15625 -8.453125 C 1.957031 -9.554688 1.753906 -10.707031 1.546875 -11.90625 C 1.335938 -13.113281 1.179688 -14.300781 1.078125 -15.46875 C 0.972656 -16.632812 1.023438 -17.695312 1.234375 -18.65625 C 1.441406 -19.6875 1.867188 -20.613281 2.515625 -21.4375 C 3.171875 -22.269531 3.398438 -23.164062 3.203125 -24.125 C 3.546875 -24.195312 3.75 -24.382812 3.8125 -24.6875 C 3.882812 -25 4.160156 -25.117188 4.640625 -25.046875 C 5.054688 -26.285156 5.503906 -27.453125 5.984375 -28.546875 C 6.460938 -29.648438 6.957031 -30.71875 7.46875 -31.75 C 7.988281 -32.78125 8.503906 -33.828125 9.015625 -34.890625 C 9.535156 -35.960938 10.035156 -37.148438 10.515625 -38.453125 C 9.554688 -39.347656 8.851562 -40.328125 8.40625 -41.390625 C 7.957031 -42.460938 7.628906 -43.53125 7.421875 -44.59375 C 7.210938 -45.65625 7.039062 -46.753906 6.90625 -47.890625 C 6.769531 -49.023438 6.53125 -50.175781 6.1875 -51.34375 C 6.875 -52.375 7.710938 -53.210938 8.703125 -53.859375 C 9.703125 -54.515625 10.785156 -55.050781 11.953125 -55.46875 C 13.128906 -55.882812 14.40625 -56.226562 15.78125 -56.5 C 17.15625 -56.769531 18.597656 -57.078125 20.109375 -57.421875 C 22.859375 -58.316406 25.3125 -59.003906 27.46875 -59.484375 C 29.632812 -59.972656 31.765625 -60.367188 33.859375 -60.671875 C 35.960938 -60.984375 38.144531 -61.273438 40.40625 -61.546875 C 42.675781 -61.828125 45.257812 -62.242188 48.15625 -62.796875 C 48.769531 -62.171875 49.351562 -61.859375 49.90625 -61.859375 C 50.175781 -62.484375 50.5 -62.671875 50.875 -62.421875 C 51.257812 -62.179688 51.414062 -62.375 51.34375 -63 C 52.03125 -61.832031 52.90625 -60.851562 53.96875 -60.0625 C 55.039062 -59.269531 56.226562 -58.597656 57.53125 -58.046875 Z M 57.53125 -58.046875 "/></g></g></g><g fill="#292929" fill-opacity="1"><g transform="translate(142.331732, 251.130199)"><g><path d="M 1.65625 -46.390625 C 2.132812 -47.835938 2.90625 -49.078125 3.96875 -50.109375 C 5.03125 -51.140625 6.195312 -52.015625 7.46875 -52.734375 C 8.738281 -53.453125 10.0625 -54.050781 11.4375 -54.53125 C 12.8125 -55.019531 14.117188 -55.4375 15.359375 -55.78125 C 18.109375 -56.945312 21.046875 -58.0625 24.171875 -59.125 C 27.304688 -60.195312 30.503906 -61.144531 33.765625 -61.96875 C 37.023438 -62.789062 40.375 -63.320312 43.8125 -63.5625 C 47.25 -63.800781 50.859375 -63.375 54.640625 -62.28125 C 54.847656 -61.59375 55.15625 -60.9375 55.5625 -60.3125 C 55.976562 -59.695312 56.410156 -59.078125 56.859375 -58.453125 C 57.304688 -57.835938 57.703125 -57.238281 58.046875 -56.65625 C 58.390625 -56.070312 58.597656 -55.46875 58.671875 -54.84375 C 59.359375 -54.226562 59.90625 -53.5625 60.3125 -52.84375 C 60.726562 -52.125 60.796875 -51.175781 60.515625 -50 C 59.828125 -49.457031 59.15625 -48.960938 58.5 -48.515625 C 57.851562 -48.066406 57.148438 -47.671875 56.390625 -47.328125 C 53.847656 -47.941406 51.269531 -48.144531 48.65625 -47.9375 C 46.050781 -47.738281 43.71875 -47.566406 41.65625 -47.421875 C 41.03125 -48.046875 40.285156 -48.359375 39.421875 -48.359375 C 38.566406 -48.359375 37.675781 -48.21875 36.75 -47.9375 C 35.820312 -47.664062 34.894531 -47.390625 33.96875 -47.109375 C 33.039062 -46.835938 32.164062 -46.769531 31.34375 -46.90625 C 30.65625 -46.363281 29.8125 -46.003906 28.8125 -45.828125 C 27.820312 -45.660156 26.738281 -45.503906 25.5625 -45.359375 C 25.5 -45.015625 25.566406 -44.789062 25.765625 -44.6875 C 25.972656 -44.59375 26.007812 -44.375 25.875 -44.03125 C 26.289062 -43.539062 26.820312 -43.191406 27.46875 -42.984375 C 28.125 -42.785156 28.8125 -42.582031 29.53125 -42.375 C 30.257812 -42.164062 30.894531 -41.90625 31.4375 -41.59375 C 31.988281 -41.289062 32.367188 -40.796875 32.578125 -40.109375 C 33.609375 -40.109375 34.5 -39.863281 35.25 -39.375 C 36.007812 -38.894531 36.628906 -38.3125 37.109375 -37.625 C 37.597656 -36.945312 37.960938 -36.210938 38.203125 -35.421875 C 38.441406 -34.628906 38.5625 -33.921875 38.5625 -33.296875 C 38.769531 -32.753906 39.007812 -32.515625 39.28125 -32.578125 C 39.550781 -32.648438 39.859375 -32.515625 40.203125 -32.171875 C 40.410156 -31.273438 40.925781 -30.363281 41.75 -29.4375 C 42.582031 -28.507812 43.238281 -27.492188 43.71875 -26.390625 C 43.851562 -24.671875 43.953125 -23.140625 44.015625 -21.796875 C 44.085938 -20.460938 43.847656 -19.109375 43.296875 -17.734375 C 42.265625 -15.191406 40.835938 -12.921875 39.015625 -10.921875 C 37.203125 -8.929688 35.144531 -7.160156 32.84375 -5.609375 C 30.539062 -4.066406 28.082031 -2.742188 25.46875 -1.640625 C 22.851562 -0.546875 20.3125 0.378906 17.84375 1.140625 C 17.5625 1.066406 17.28125 1.0625 17 1.125 C 16.726562 1.195312 16.664062 1.03125 16.8125 0.625 C 16.257812 1.101562 15.65625 1.410156 15 1.546875 C 14.34375 1.679688 13.632812 1.734375 12.875 1.703125 C 12.125 1.671875 11.351562 1.617188 10.5625 1.546875 C 9.769531 1.472656 9.03125 1.507812 8.34375 1.65625 C 7.863281 1.164062 7.4375 0.695312 7.0625 0.25 C 6.6875 -0.1875 6.394531 -0.75 6.1875 -1.4375 C 5.84375 -1.4375 5.6875 -1.609375 5.71875 -1.953125 C 5.757812 -2.296875 5.640625 -2.46875 5.359375 -2.46875 C 5.773438 -3.15625 5.960938 -3.550781 5.921875 -3.65625 C 5.890625 -3.757812 5.785156 -3.84375 5.609375 -3.90625 C 5.441406 -3.976562 5.289062 -4.066406 5.15625 -4.171875 C 5.019531 -4.273438 4.984375 -4.429688 5.046875 -4.640625 C 5.328125 -5.191406 5.429688 -5.828125 5.359375 -6.546875 C 5.296875 -7.265625 5.226562 -8 5.15625 -8.75 C 5.082031 -9.507812 5.128906 -10.234375 5.296875 -10.921875 C 5.472656 -11.609375 5.976562 -12.160156 6.8125 -12.578125 C 9.144531 -12.304688 11.359375 -12.390625 13.453125 -12.828125 C 15.546875 -13.273438 17.519531 -13.910156 19.375 -14.734375 C 21.238281 -15.566406 23.007812 -16.460938 24.6875 -17.421875 C 26.375 -18.390625 28.039062 -19.25 29.6875 -20 C 29.894531 -20.625 30.1875 -21.140625 30.5625 -21.546875 C 30.945312 -21.960938 31.34375 -22.34375 31.75 -22.6875 C 32.164062 -23.03125 32.546875 -23.40625 32.890625 -23.8125 C 33.234375 -24.226562 33.472656 -24.742188 33.609375 -25.359375 C 33.679688 -25.835938 33.5625 -26.128906 33.25 -26.234375 C 32.9375 -26.335938 32.78125 -26.597656 32.78125 -27.015625 L 31.65625 -27.328125 C 30.34375 -28.078125 28.863281 -28.707031 27.21875 -29.21875 C 25.570312 -29.738281 24.160156 -30.3125 22.984375 -30.9375 C 22.234375 -30.519531 21.53125 -30.414062 20.875 -30.625 C 20.226562 -30.832031 19.390625 -31.035156 18.359375 -31.234375 C 16.015625 -31.378906 13.757812 -31.625 11.59375 -31.96875 C 9.425781 -32.3125 7.347656 -32.925781 5.359375 -33.8125 C 5.222656 -34.15625 5.050781 -34.460938 4.84375 -34.734375 C 4.632812 -35.015625 4.257812 -35.085938 3.71875 -34.953125 C 3.300781 -35.503906 2.882812 -36.035156 2.46875 -36.546875 C 2.0625 -37.066406 1.6875 -37.632812 1.34375 -38.25 C 1.476562 -39.070312 1.578125 -39.773438 1.640625 -40.359375 C 1.710938 -40.941406 1.507812 -41.507812 1.03125 -42.0625 C 1.300781 -42.957031 1.503906 -43.679688 1.640625 -44.234375 C 1.785156 -44.785156 1.789062 -45.503906 1.65625 -46.390625 Z M 1.65625 -46.390625 "/></g></g></g><g fill="#292929" fill-opacity="1"><g transform="translate(186.237613, 251.130199)"><g><path d="M 21.859375 -7.21875 C 22.203125 -5.15625 22.082031 -3.539062 21.5 -2.375 C 20.914062 -1.207031 20.085938 -0.332031 19.015625 0.25 C 17.953125 0.84375 16.734375 1.171875 15.359375 1.234375 C 13.984375 1.304688 12.675781 1.238281 11.4375 1.03125 C 10.75 0.0703125 10.128906 -1.128906 9.578125 -2.578125 C 9.035156 -4.023438 8.523438 -5.519531 8.046875 -7.0625 C 7.566406 -8.601562 7.132812 -10.128906 6.75 -11.640625 C 6.375 -13.160156 6.050781 -14.503906 5.78125 -15.671875 C 6.125 -16.492188 6.34375 -17.4375 6.4375 -18.5 C 6.539062 -19.570312 6.609375 -20.65625 6.640625 -21.75 C 6.679688 -22.851562 6.71875 -23.972656 6.75 -25.109375 C 6.789062 -26.242188 6.878906 -27.328125 7.015625 -28.359375 C 7.492188 -31.242188 8.195312 -33.988281 9.125 -36.59375 C 10.050781 -39.207031 10.789062 -41.925781 11.34375 -44.75 C 11.476562 -45.363281 11.425781 -45.945312 11.1875 -46.5 C 10.945312 -47.050781 10.894531 -47.566406 11.03125 -48.046875 C 11.101562 -48.316406 11.3125 -48.503906 11.65625 -48.609375 C 12 -48.710938 12.203125 -48.9375 12.265625 -49.28125 C 12.472656 -50.039062 12.523438 -50.660156 12.421875 -51.140625 C 12.316406 -51.617188 12.4375 -52.203125 12.78125 -52.890625 C 13.125 -53.441406 13.550781 -54.25 14.0625 -55.3125 C 14.582031 -56.375 14.773438 -57.492188 14.640625 -58.671875 C 15.253906 -59.078125 15.835938 -59.554688 16.390625 -60.109375 C 16.941406 -60.660156 17.507812 -61.160156 18.09375 -61.609375 C 18.675781 -62.054688 19.328125 -62.453125 20.046875 -62.796875 C 20.773438 -63.140625 21.65625 -63.3125 22.6875 -63.3125 C 23.226562 -62.625 23.582031 -61.863281 23.75 -61.03125 C 23.925781 -60.207031 24.097656 -59.382812 24.265625 -58.5625 C 24.441406 -57.738281 24.703125 -56.960938 25.046875 -56.234375 C 25.390625 -55.515625 25.976562 -54.953125 26.8125 -54.546875 C 26.8125 -53.992188 26.8125 -53.304688 26.8125 -52.484375 C 26.8125 -51.660156 26.84375 -50.851562 26.90625 -50.0625 C 26.976562 -49.269531 27.132812 -48.546875 27.375 -47.890625 C 27.613281 -47.234375 28.007812 -46.804688 28.5625 -46.609375 C 27.320312 -43.304688 26.164062 -40.039062 25.09375 -36.8125 C 24.03125 -33.582031 23.15625 -30.332031 22.46875 -27.0625 C 21.789062 -23.800781 21.363281 -20.519531 21.1875 -17.21875 C 21.019531 -13.914062 21.242188 -10.582031 21.859375 -7.21875 Z M 21.859375 -7.21875 "/></g></g></g><g fill="#292929" fill-opacity="1"><g transform="translate(214.987361, 251.130199)"><g><path d="M 73.09375 -18.5625 C 71.445312 -15.601562 69.28125 -13.316406 66.59375 -11.703125 C 63.914062 -10.085938 60.960938 -8.742188 57.734375 -7.671875 C 54.503906 -6.609375 51.117188 -5.664062 47.578125 -4.84375 C 44.035156 -4.019531 40.617188 -2.957031 37.328125 -1.65625 C 36.359375 -1.65625 35.515625 -1.617188 34.796875 -1.546875 C 34.078125 -1.472656 33.390625 -1.382812 32.734375 -1.28125 C 32.078125 -1.1875 31.441406 -1.085938 30.828125 -0.984375 C 30.210938 -0.878906 29.523438 -0.789062 28.765625 -0.71875 C 28.492188 -0.789062 28.320312 -0.738281 28.25 -0.5625 C 28.175781 -0.394531 28.070312 -0.242188 27.9375 -0.109375 C 26.769531 0.0976562 25.722656 0.203125 24.796875 0.203125 C 23.867188 0.203125 23.097656 0.203125 22.484375 0.203125 C 21.648438 0.203125 20.800781 0.320312 19.9375 0.5625 C 19.082031 0.800781 18.3125 0.890625 17.625 0.828125 C 12.46875 0.546875 8.429688 -1.289062 5.515625 -4.6875 C 2.597656 -8.09375 0.96875 -12.820312 0.625 -18.875 C 0.6875 -19.21875 0.628906 -19.421875 0.453125 -19.484375 C 0.285156 -19.554688 0.132812 -19.660156 0 -19.796875 C 0 -20.484375 0.0820312 -21.066406 0.25 -21.546875 C 0.425781 -22.023438 0.445312 -22.644531 0.3125 -23.40625 C 2.09375 -27.1875 4.117188 -30.707031 6.390625 -33.96875 C 8.660156 -37.238281 11.375 -40.109375 14.53125 -42.578125 C 15.019531 -42.992188 15.4375 -43.40625 15.78125 -43.8125 C 16.125 -44.226562 16.445312 -44.640625 16.75 -45.046875 C 17.0625 -45.460938 17.421875 -45.828125 17.828125 -46.140625 C 18.242188 -46.453125 18.765625 -46.675781 19.390625 -46.8125 C 20.828125 -48.457031 22.539062 -49.96875 24.53125 -51.34375 C 26.53125 -52.71875 28.628906 -54.039062 30.828125 -55.3125 C 33.023438 -56.582031 35.207031 -57.851562 37.375 -59.125 C 39.539062 -60.394531 41.515625 -61.820312 43.296875 -63.40625 C 44.054688 -63.0625 44.609375 -62.957031 44.953125 -63.09375 C 45.296875 -63.238281 45.675781 -63.238281 46.09375 -63.09375 C 46.570312 -62.0625 47.238281 -61.335938 48.09375 -60.921875 C 48.957031 -60.515625 49.816406 -60.085938 50.671875 -59.640625 C 51.535156 -59.191406 52.34375 -58.660156 53.09375 -58.046875 C 53.851562 -57.429688 54.4375 -56.609375 54.84375 -55.578125 C 54.4375 -55.578125 54.25 -55.421875 54.28125 -55.109375 C 54.3125 -54.796875 54.394531 -54.484375 54.53125 -54.171875 C 54.675781 -53.867188 54.726562 -53.5625 54.6875 -53.25 C 54.65625 -52.945312 54.398438 -52.796875 53.921875 -52.796875 C 53.992188 -52.453125 54.21875 -52.257812 54.59375 -52.21875 C 54.96875 -52.1875 55.15625 -52 55.15625 -51.65625 C 55.15625 -51.3125 55.066406 -51.035156 54.890625 -50.828125 C 54.722656 -50.617188 54.707031 -50.273438 54.84375 -49.796875 C 53.476562 -48.898438 51.953125 -48.039062 50.265625 -47.21875 C 48.578125 -46.394531 46.820312 -45.519531 45 -44.59375 C 43.175781 -43.664062 41.285156 -42.664062 39.328125 -41.59375 C 37.367188 -40.53125 35.460938 -39.3125 33.609375 -37.9375 C 31.753906 -36.5625 29.863281 -35.03125 27.9375 -33.34375 C 26.007812 -31.664062 24.148438 -29.898438 22.359375 -28.046875 C 20.578125 -26.191406 18.894531 -24.285156 17.3125 -22.328125 C 15.738281 -20.367188 14.398438 -18.425781 13.296875 -16.5 C 13.429688 -16.15625 13.582031 -15.894531 13.75 -15.71875 C 13.925781 -15.550781 14.085938 -15.296875 14.234375 -14.953125 C 16.429688 -14.816406 18.472656 -14.832031 20.359375 -15 C 22.253906 -15.175781 24.160156 -15.054688 26.078125 -14.640625 C 26.285156 -14.773438 26.421875 -14.976562 26.484375 -15.25 C 26.554688 -15.53125 26.734375 -15.738281 27.015625 -15.875 C 30.929688 -16.289062 34.570312 -16.925781 37.9375 -17.78125 C 41.3125 -18.644531 44.75 -19.554688 48.25 -20.515625 C 47.695312 -20.722656 47.195312 -20.910156 46.75 -21.078125 C 46.3125 -21.253906 45.882812 -21.410156 45.46875 -21.546875 C 45.125 -21.890625 45.140625 -22.179688 45.515625 -22.421875 C 45.898438 -22.660156 46.226562 -22.921875 46.5 -23.203125 C 45.539062 -23.742188 44.765625 -24.425781 44.171875 -25.25 C 43.585938 -26.082031 43.226562 -27.1875 43.09375 -28.5625 C 43.507812 -28.90625 43.71875 -29.316406 43.71875 -29.796875 C 43.71875 -30.273438 43.507812 -30.65625 43.09375 -30.9375 C 42.820312 -31 42.648438 -30.992188 42.578125 -30.921875 C 42.515625 -30.859375 42.460938 -30.757812 42.421875 -30.625 C 42.390625 -30.488281 42.335938 -30.367188 42.265625 -30.265625 C 42.203125 -30.160156 42.03125 -30.175781 41.75 -30.3125 C 41.820312 -30.925781 41.976562 -31.441406 42.21875 -31.859375 C 42.457031 -32.273438 42.644531 -32.753906 42.78125 -33.296875 L 49.90625 -38.046875 C 50.65625 -37.492188 51.578125 -36.890625 52.671875 -36.234375 C 53.773438 -35.585938 54.925781 -34.9375 56.125 -34.28125 C 57.332031 -33.625 58.570312 -32.96875 59.84375 -32.3125 C 61.125 -31.664062 62.3125 -31.035156 63.40625 -30.421875 C 64.375 -30.003906 65.234375 -29.453125 65.984375 -28.765625 C 66.742188 -28.078125 67.46875 -27.367188 68.15625 -26.640625 C 68.84375 -25.921875 69.546875 -25.21875 70.265625 -24.53125 C 70.984375 -23.84375 71.828125 -23.257812 72.796875 -22.78125 C 72.648438 -21.894531 72.679688 -21.175781 72.890625 -20.625 C 73.097656 -20.070312 73.164062 -19.382812 73.09375 -18.5625 Z M 73.09375 -18.5625 "/></g></g></g><g fill="#292929" fill-opacity="1"><g transform="translate(278.792113, 251.130199)"><g><path d="M 21.140625 -18.765625 C 20.515625 -18.628906 20.066406 -18.269531 19.796875 -17.6875 C 19.523438 -17.101562 19.265625 -16.5 19.015625 -15.875 C 18.773438 -15.257812 18.535156 -14.691406 18.296875 -14.171875 C 18.054688 -13.660156 17.695312 -13.40625 17.21875 -13.40625 C 17.144531 -12.851562 16.953125 -12.367188 16.640625 -11.953125 C 16.335938 -11.546875 16.046875 -11.117188 15.765625 -10.671875 C 15.492188 -10.222656 15.289062 -9.738281 15.15625 -9.21875 C 15.019531 -8.707031 15.085938 -8.109375 15.359375 -7.421875 C 14.804688 -7.015625 14.460938 -6.429688 14.328125 -5.671875 C 14.191406 -4.910156 14.035156 -4.1875 13.859375 -3.5 C 13.691406 -2.8125 13.398438 -2.226562 12.984375 -1.75 C 12.578125 -1.269531 11.820312 -1.066406 10.71875 -1.140625 C 10.507812 -0.859375 10.472656 -0.679688 10.609375 -0.609375 C 10.753906 -0.546875 10.859375 -0.304688 10.921875 0.109375 C 10.171875 -0.0351562 9.601562 0.0078125 9.21875 0.25 C 8.84375 0.5 8.378906 0.65625 7.828125 0.71875 C 6.523438 0.3125 5.441406 -0.40625 4.578125 -1.4375 C 3.722656 -2.46875 2.96875 -3.617188 2.3125 -4.890625 C 1.664062 -6.171875 1.082031 -7.460938 0.5625 -8.765625 C 0.0507812 -10.066406 -0.441406 -11.203125 -0.921875 -12.171875 C -0.722656 -12.921875 -0.691406 -13.65625 -0.828125 -14.375 C -0.960938 -15.101562 -1.203125 -15.707031 -1.546875 -16.1875 C 1.816406 -23.332031 5.492188 -30.960938 9.484375 -39.078125 C 13.472656 -47.191406 17.253906 -55.195312 20.828125 -63.09375 C 22.410156 -62.476562 23.972656 -61.773438 25.515625 -60.984375 C 27.066406 -60.191406 28.476562 -59.28125 29.75 -58.25 C 31.019531 -57.21875 32.097656 -56.03125 32.984375 -54.6875 C 33.878906 -53.351562 34.46875 -51.863281 34.75 -50.21875 C 34.613281 -49.800781 34.457031 -49.644531 34.28125 -49.75 C 34.113281 -49.851562 33.957031 -49.800781 33.8125 -49.59375 C 34.09375 -49.25 34.25 -49.007812 34.28125 -48.875 C 34.3125 -48.738281 34.3125 -48.597656 34.28125 -48.453125 C 34.25 -48.316406 34.234375 -48.128906 34.234375 -47.890625 C 34.234375 -47.648438 34.335938 -47.320312 34.546875 -46.90625 C 34.265625 -46.976562 34.070312 -46.945312 33.96875 -46.8125 C 33.863281 -46.675781 33.640625 -46.675781 33.296875 -46.8125 C 33.578125 -46.050781 33.664062 -45.429688 33.5625 -44.953125 C 33.457031 -44.472656 33.300781 -44.039062 33.09375 -43.65625 C 32.882812 -43.28125 32.710938 -42.867188 32.578125 -42.421875 C 32.441406 -41.972656 32.476562 -41.40625 32.6875 -40.71875 C 32.476562 -40.71875 32.320312 -40.664062 32.21875 -40.5625 C 32.113281 -40.46875 32.023438 -40.367188 31.953125 -40.265625 C 31.890625 -40.160156 31.804688 -40.054688 31.703125 -39.953125 C 31.597656 -39.847656 31.441406 -39.832031 31.234375 -39.90625 C 31.441406 -38.394531 31.507812 -36.878906 31.4375 -35.359375 C 31.375 -33.847656 31.320312 -32.316406 31.28125 -30.765625 C 31.25 -29.222656 31.269531 -27.609375 31.34375 -25.921875 C 31.414062 -24.242188 31.65625 -22.507812 32.0625 -20.71875 C 34.539062 -22.164062 36.515625 -24.019531 37.984375 -26.28125 C 39.460938 -28.550781 40.664062 -31.09375 41.59375 -33.90625 C 42.53125 -36.726562 43.238281 -39.753906 43.71875 -42.984375 C 44.195312 -46.222656 44.710938 -49.523438 45.265625 -52.890625 C 45.878906 -53.503906 46.359375 -54.257812 46.703125 -55.15625 C 47.046875 -56.050781 47.351562 -56.992188 47.625 -57.984375 C 47.90625 -58.984375 48.179688 -59.984375 48.453125 -60.984375 C 48.734375 -61.984375 49.078125 -62.894531 49.484375 -63.71875 C 50.515625 -63.582031 51.390625 -63.253906 52.109375 -62.734375 C 52.835938 -62.222656 53.507812 -61.675781 54.125 -61.09375 C 54.75 -60.507812 55.40625 -59.957031 56.09375 -59.4375 C 56.78125 -58.925781 57.640625 -58.597656 58.671875 -58.453125 C 59.492188 -57.285156 60.25 -56.148438 60.9375 -55.046875 C 61.625 -53.953125 62.070312 -52.785156 62.28125 -51.546875 C 61.9375 -51.003906 61.675781 -50.390625 61.5 -49.703125 C 61.332031 -49.015625 61.144531 -48.328125 60.9375 -47.640625 C 60.726562 -46.953125 60.453125 -46.3125 60.109375 -45.71875 C 59.765625 -45.132812 59.285156 -44.640625 58.671875 -44.234375 C 58.460938 -42.441406 58.203125 -40.804688 57.890625 -39.328125 C 57.578125 -37.859375 57.265625 -36.398438 56.953125 -34.953125 C 56.648438 -33.503906 56.394531 -32.003906 56.1875 -30.453125 C 55.976562 -28.910156 55.910156 -27.210938 55.984375 -25.359375 C 55.429688 -23.773438 54.84375 -22.085938 54.21875 -20.296875 C 53.601562 -18.515625 53.128906 -16.90625 52.796875 -15.46875 C 51.691406 -14.570312 50.828125 -13.503906 50.203125 -12.265625 C 49.585938 -11.023438 48.9375 -9.789062 48.25 -8.5625 C 47.976562 -8.28125 47.804688 -8.207031 47.734375 -8.34375 C 47.671875 -8.488281 47.429688 -8.59375 47.015625 -8.65625 C 47.085938 -8.382812 47.085938 -8.175781 47.015625 -8.03125 C 46.941406 -7.894531 46.851562 -7.773438 46.75 -7.671875 C 46.65625 -7.578125 46.585938 -7.425781 46.546875 -7.21875 C 46.515625 -7.007812 46.566406 -6.734375 46.703125 -6.390625 C 45.742188 -5.984375 44.882812 -5.398438 44.125 -4.640625 C 43.375 -3.878906 42.566406 -3.191406 41.703125 -2.578125 C 40.847656 -1.960938 39.816406 -1.550781 38.609375 -1.34375 C 37.410156 -1.132812 35.847656 -1.375 33.921875 -2.0625 C 31.097656 -4.125 28.601562 -6.492188 26.4375 -9.171875 C 24.28125 -11.859375 22.515625 -15.054688 21.140625 -18.765625 Z M 21.140625 -18.765625 "/></g></g></g></svg>