<svg xmlns="http://www.w3.org/2000/svg" xmlns:xlink="http://www.w3.org/1999/xlink" width="500" zoomAndPan="magnify" viewBox="0 0 375 374.999991" height="500" preserveAspectRatio="xMidYMid meet" version="1.0"><defs><g/></defs><g fill="#000000" fill-opacity="1"><g transform="translate(13.794694, 199.231692)"><g><path d="M 4.59375 -64.234375 L 72.03125 -64.234375 L 72.03125 -32.03125 L 55.515625 -32.03125 L 55.515625 -47.71875 L 46.609375 -47.71875 L 46.609375 0 L 30.09375 0 L 30.09375 -47.71875 L 21.109375 -47.71875 L 21.109375 -26.515625 L 4.59375 -26.515625 Z M 4.59375 -64.234375 "/></g></g></g><g fill="#000000" fill-opacity="1"><g transform="translate(90.403043, 199.231692)"><g><path d="M 37.625 -74.703125 L 37.625 -64.234375 L 54.140625 -64.234375 L 54.140625 0 L 37.625 0 L 37.625 -16.0625 L 21.109375 -16.0625 L 21.109375 0 L 4.59375 0 L 4.59375 -64.234375 L 21.109375 -64.234375 L 21.109375 -74.703125 Z M 21.109375 -47.71875 L 21.109375 -32.578125 L 37.625 -32.578125 L 37.625 -47.71875 Z M 21.109375 -47.71875 "/></g></g></g><g fill="#000000" fill-opacity="1"><g transform="translate(149.120816, 199.231692)"><g><path d="M 57.71875 -20.1875 C 59.613281 -13.945312 62.179688 -9.019531 65.421875 -5.40625 C 68.671875 -1.800781 71.976562 0 75.34375 0 L 75.34375 16.515625 C 69.957031 16.515625 64.953125 14.953125 60.328125 11.828125 C 55.710938 8.710938 51.707031 4.40625 48.3125 -1.09375 C 44.914062 -6.601562 42.363281 -12.96875 40.65625 -20.1875 L 28.90625 -20.1875 L 28.90625 0 L 12.390625 0 L 12.390625 -20.1875 L 4.59375 -20.1875 L 4.59375 -64.234375 L 28.90625 -64.234375 L 28.90625 -74.703125 L 45.421875 -74.703125 L 45.421875 -64.234375 L 71.484375 -64.234375 L 71.484375 -20.1875 Z M 21.109375 -47.71875 L 21.109375 -36.703125 L 54.96875 -36.703125 L 54.96875 -47.71875 Z M 21.109375 -47.71875 "/></g></g></g><g fill="#000000" fill-opacity="1"><g transform="translate(224.444712, 199.231692)"><g><path d="M 66.890625 -47.71875 L 43.953125 -47.71875 L 43.953125 -16.515625 L 66.890625 -16.515625 L 66.890625 0 L 4.59375 0 L 4.59375 -16.515625 L 27.4375 -16.515625 L 27.4375 -47.71875 L 4.59375 -47.71875 L 4.59375 -64.234375 L 66.890625 -64.234375 Z M 66.890625 -47.71875 "/></g></g></g><g fill="#000000" fill-opacity="1"><g transform="translate(295.915249, 199.231692)"><g><path d="M 4.59375 -64.234375 L 60.65625 -64.234375 L 60.65625 0 L 40.828125 0 L 40.828125 14.125 L 24.3125 14.125 L 24.3125 0 L 4.59375 0 Z M 21.109375 -15.78125 L 44.140625 -15.78125 L 44.140625 -48.359375 L 21.109375 -48.359375 Z M 21.109375 -15.78125 "/></g></g></g><g fill="#000000" fill-opacity="1"><g transform="translate(22.09997, 248.82796)"><g><path d="M 27.5 -11.015625 L 27.5 -8.59375 L 1.609375 -8.59375 L 1.609375 -11.015625 Z M 27.5 -11.015625 "/></g></g></g><g fill="#000000" fill-opacity="1"><g transform="translate(66.094947, 248.82796)"><g><path d="M 4.59375 0 L 0.40625 0 L 11.234375 -26.03125 L 15.453125 -26.03125 L 26.296875 0 L 22.140625 0 L 18.734375 -8.15625 L 7.96875 -8.15625 Z M 9.4375 -11.671875 L 17.265625 -11.671875 L 13.359375 -21.078125 Z M 9.4375 -11.671875 "/></g></g></g><g fill="#000000" fill-opacity="1"><g transform="translate(107.84987, 248.82796)"><g><path d="M 2.171875 0 L 2.171875 -26.03125 L 6.015625 -26.03125 L 6.015625 -3.5625 L 18.0625 -3.5625 L 18.0625 0 Z M 2.171875 0 "/></g></g></g><g fill="#000000" fill-opacity="1"><g transform="translate(141.562592, 248.82796)"><g/></g></g><g fill="#000000" fill-opacity="1"><g transform="translate(166.021272, 248.82796)"><g><path d="M 4.59375 0 L 0.40625 0 L 11.234375 -26.03125 L 15.453125 -26.03125 L 26.296875 0 L 22.140625 0 L 18.734375 -8.15625 L 7.96875 -8.15625 Z M 9.4375 -11.671875 L 17.265625 -11.671875 L 13.359375 -21.078125 Z M 9.4375 -11.671875 "/></g></g></g><g fill="#000000" fill-opacity="1"><g transform="translate(207.776189, 248.82796)"><g><path d="M 24.234375 -26.03125 L 28.09375 -26.03125 L 28.09375 0 L 24.265625 0 L 24.265625 -19.96875 L 16.671875 -9.515625 L 13.703125 -9.515625 L 6.0625 -19.96875 L 6.0625 0 L 2.203125 0 L 2.203125 -26.03125 L 6.0625 -26.03125 L 15.171875 -13.515625 Z M 24.234375 -26.03125 "/></g></g></g><g fill="#000000" fill-opacity="1"><g transform="translate(252.946289, 248.82796)"><g><path d="M 9.109375 -22.875 L 9.109375 -3.15625 L 11.015625 -3.15625 L 11.015625 0 L 3.34375 0 L 3.34375 -3.15625 L 5.28125 -3.15625 L 5.28125 -22.875 L 3.34375 -22.875 L 3.34375 -26.03125 L 11.015625 -26.03125 L 11.015625 -22.875 Z M 9.109375 -22.875 "/></g></g></g><g fill="#000000" fill-opacity="1"><g transform="translate(282.252339, 248.82796)"><g><path d="M 24.484375 -26.03125 L 24.484375 0 L 20.59375 0 L 6.0625 -19.96875 L 6.0625 0 L 2.0625 0 L 2.0625 -26.03125 L 6.09375 -26.03125 L 20.640625 -5.953125 L 20.640625 -26.03125 Z M 24.484375 -26.03125 "/></g></g></g><g fill="#000000" fill-opacity="1"><g transform="translate(323.750194, 248.82796)"><g><path d="M 27.5 -11.015625 L 27.5 -8.59375 L 1.609375 -8.59375 L 1.609375 -11.015625 Z M 27.5 -11.015625 "/></g></g></g></svg>