<svg xmlns="http://www.w3.org/2000/svg" xmlns:xlink="http://www.w3.org/1999/xlink" width="500" zoomAndPan="magnify" viewBox="0 0 375 374.999991" height="500" preserveAspectRatio="xMidYMid meet" version="1.0"><defs><g/></defs><g fill="#ffffff" fill-opacity="1"><g transform="translate(14.103582, 199.211587)"><g><path d="M 4.578125 -64.125 L 71.90625 -64.125 L 71.90625 -31.96875 L 55.421875 -31.96875 L 55.421875 -47.640625 L 46.53125 -47.640625 L 46.53125 0 L 30.046875 0 L 30.046875 -47.640625 L 21.0625 -47.640625 L 21.0625 -26.46875 L 4.578125 -26.46875 Z M 4.578125 -64.125 "/></g></g></g><g fill="#ffffff" fill-opacity="1"><g transform="translate(90.580751, 199.211587)"><g><path d="M 37.5625 -74.5625 L 37.5625 -64.125 L 54.046875 -64.125 L 54.046875 0 L 37.5625 0 L 37.5625 -16.03125 L 21.0625 -16.03125 L 21.0625 0 L 4.578125 0 L 4.578125 -64.125 L 21.0625 -64.125 L 21.0625 -74.5625 Z M 21.0625 -47.640625 L 21.0625 -32.515625 L 37.5625 -32.515625 L 37.5625 -47.640625 Z M 21.0625 -47.640625 "/></g></g></g><g fill="#ffffff" fill-opacity="1"><g transform="translate(149.197978, 199.211587)"><g><path d="M 57.625 -20.15625 C 59.519531 -13.925781 62.082031 -9.007812 65.3125 -5.40625 C 68.550781 -1.800781 71.851562 0 75.21875 0 L 75.21875 16.484375 C 69.84375 16.484375 64.847656 14.925781 60.234375 11.8125 C 55.617188 8.695312 51.613281 4.394531 48.21875 -1.09375 C 44.832031 -6.59375 42.285156 -12.945312 40.578125 -20.15625 L 28.859375 -20.15625 L 28.859375 0 L 12.375 0 L 12.375 -20.15625 L 4.578125 -20.15625 L 4.578125 -64.125 L 28.859375 -64.125 L 28.859375 -74.5625 L 45.34375 -74.5625 L 45.34375 -64.125 L 71.359375 -64.125 L 71.359375 -20.15625 Z M 21.0625 -47.640625 L 21.0625 -36.640625 L 54.875 -36.640625 L 54.875 -47.640625 Z M 21.0625 -47.640625 "/></g></g></g><g fill="#ffffff" fill-opacity="1"><g transform="translate(224.392893, 199.211587)"><g><path d="M 66.78125 -47.640625 L 43.875 -47.640625 L 43.875 -16.484375 L 66.78125 -16.484375 L 66.78125 0 L 4.578125 0 L 4.578125 -16.484375 L 27.390625 -16.484375 L 27.390625 -47.640625 L 4.578125 -47.640625 L 4.578125 -64.125 L 66.78125 -64.125 Z M 66.78125 -47.640625 "/></g></g></g><g fill="#ffffff" fill-opacity="1"><g transform="translate(295.741048, 199.211587)"><g><path d="M 4.578125 -64.125 L 60.546875 -64.125 L 60.546875 0 L 40.765625 0 L 40.765625 14.109375 L 24.28125 14.109375 L 24.28125 0 L 4.578125 0 Z M 21.0625 -15.75 L 44.0625 -15.75 L 44.0625 -48.28125 L 21.0625 -48.28125 Z M 21.0625 -15.75 "/></g></g></g><g fill="#ffffff" fill-opacity="1"><g transform="translate(22.387409, 248.722973)"><g><path d="M 27.453125 -11 L 27.453125 -8.578125 L 1.609375 -8.578125 L 1.609375 -11 Z M 27.453125 -11 "/></g></g></g><g fill="#ffffff" fill-opacity="1"><g transform="translate(66.307049, 248.722973)"><g><path d="M 4.578125 0 L 0.40625 0 L 11.21875 -25.984375 L 15.4375 -25.984375 L 26.25 0 L 22.109375 0 L 18.6875 -8.140625 L 7.953125 -8.140625 Z M 9.421875 -11.65625 L 17.234375 -11.65625 L 13.34375 -21.046875 Z M 9.421875 -11.65625 "/></g></g></g><g fill="#ffffff" fill-opacity="1"><g transform="translate(107.990472, 248.722973)"><g><path d="M 2.15625 0 L 2.15625 -25.984375 L 6.015625 -25.984375 L 6.015625 -3.5625 L 18.03125 -3.5625 L 18.03125 0 Z M 2.15625 0 "/></g></g></g><g fill="#ffffff" fill-opacity="1"><g transform="translate(141.645464, 248.722973)"><g/></g></g><g fill="#ffffff" fill-opacity="1"><g transform="translate(166.062262, 248.722973)"><g><path d="M 4.578125 0 L 0.40625 0 L 11.21875 -25.984375 L 15.4375 -25.984375 L 26.25 0 L 22.109375 0 L 18.6875 -8.140625 L 7.953125 -8.140625 Z M 9.421875 -11.65625 L 17.234375 -11.65625 L 13.34375 -21.046875 Z M 9.421875 -11.65625 "/></g></g></g><g fill="#ffffff" fill-opacity="1"><g transform="translate(207.745677, 248.722973)"><g><path d="M 24.1875 -25.984375 L 28.046875 -25.984375 L 28.046875 0 L 24.234375 0 L 24.234375 -19.9375 L 16.640625 -9.5 L 13.671875 -9.5 L 6.046875 -19.9375 L 6.046875 0 L 2.203125 0 L 2.203125 -25.984375 L 6.046875 -25.984375 L 15.140625 -13.484375 Z M 24.1875 -25.984375 "/></g></g></g><g fill="#ffffff" fill-opacity="1"><g transform="translate(252.838429, 248.722973)"><g><path d="M 9.09375 -22.84375 L 9.09375 -3.15625 L 11 -3.15625 L 11 0 L 3.328125 0 L 3.328125 -3.15625 L 5.28125 -3.15625 L 5.28125 -22.84375 L 3.328125 -22.84375 L 3.328125 -25.984375 L 11 -25.984375 L 11 -22.84375 Z M 9.09375 -22.84375 "/></g></g></g><g fill="#ffffff" fill-opacity="1"><g transform="translate(282.094295, 248.722973)"><g><path d="M 24.453125 -25.984375 L 24.453125 0 L 20.5625 0 L 6.046875 -19.9375 L 6.046875 0 L 2.046875 0 L 2.046875 -25.984375 L 6.078125 -25.984375 L 20.59375 -5.9375 L 20.59375 -25.984375 Z M 24.453125 -25.984375 "/></g></g></g><g fill="#ffffff" fill-opacity="1"><g transform="translate(323.521089, 248.722973)"><g><path d="M 27.453125 -11 L 27.453125 -8.578125 L 1.609375 -8.578125 L 1.609375 -11 Z M 27.453125 -11 "/></g></g></g></svg>