<svg xmlns="http://www.w3.org/2000/svg" xmlns:xlink="http://www.w3.org/1999/xlink" width="500" zoomAndPan="magnify" viewBox="0 0 375 374.999991" height="500" preserveAspectRatio="xMidYMid meet" version="1.0"><defs><g/><clipPath id="77e07f7f08"><path d="M 86.890625 138 L 105 138 L 105 157 L 86.890625 157 Z M 86.890625 138 " clip-rule="nonzero"/></clipPath><clipPath id="974c1d051b"><path d="M 183 46.867188 L 197 46.867188 L 197 60 L 183 60 Z M 183 46.867188 " clip-rule="nonzero"/></clipPath><clipPath id="a7ac4aeaaf"><path d="M 280.1875 143.542969 L 287.8125 143.542969 L 287.8125 151.402344 L 280.1875 151.402344 Z M 280.1875 143.542969 " clip-rule="nonzero"/></clipPath><clipPath id="ecca0f4d6c"><path d="M 188 240 L 192 240 L 192 243.367188 L 188 243.367188 Z M 188 240 " clip-rule="nonzero"/></clipPath></defs><g clip-path="url(#77e07f7f08)"><path fill="#000000" d="M 86.953125 147.5625 C 86.953125 142.785156 90.816406 138.914062 95.582031 138.914062 C 100.347656 138.914062 104.210938 142.785156 104.210938 147.5625 C 104.210938 152.34375 100.347656 156.214844 95.582031 156.214844 C 90.816406 156.214844 86.953125 152.34375 86.953125 147.5625 " fill-opacity="1" fill-rule="nonzero"/></g><path fill="#000000" d="M 89.171875 128.519531 C 89.171875 123.910156 92.898438 120.175781 97.496094 120.175781 C 102.09375 120.175781 105.820312 123.910156 105.820312 128.519531 C 105.820312 133.128906 102.09375 136.867188 97.496094 136.867188 C 92.898438 136.867188 89.171875 133.128906 89.171875 128.519531 " fill-opacity="1" fill-rule="nonzero"/><path fill="#000000" d="M 94.96875 110.78125 C 94.96875 106.34375 98.558594 102.742188 102.988281 102.742188 C 107.414062 102.742188 111.003906 106.34375 111.003906 110.78125 C 111.003906 115.222656 107.414062 118.820312 102.988281 118.820312 C 98.558594 118.820312 94.96875 115.222656 94.96875 110.78125 " fill-opacity="1" fill-rule="nonzero"/><path fill="#000000" d="M 103.960938 94.730469 C 103.960938 90.460938 107.417969 86.996094 111.675781 86.996094 C 115.9375 86.996094 119.390625 90.460938 119.390625 94.730469 C 119.390625 99.003906 115.9375 102.464844 111.675781 102.464844 C 107.417969 102.464844 103.960938 99.003906 103.960938 94.730469 " fill-opacity="1" fill-rule="nonzero"/><path fill="#000000" d="M 115.777344 80.746094 C 115.777344 76.644531 119.09375 73.316406 123.183594 73.316406 C 127.273438 73.316406 130.59375 76.644531 130.59375 80.746094 C 130.59375 84.847656 127.273438 88.175781 123.183594 88.175781 C 119.09375 88.175781 115.777344 84.847656 115.777344 80.746094 " fill-opacity="1" fill-rule="nonzero"/><path fill="#000000" d="M 130.027344 69.207031 C 130.027344 65.277344 133.210938 62.085938 137.132812 62.085938 C 141.054688 62.085938 144.234375 65.277344 144.234375 69.207031 C 144.234375 73.140625 141.054688 76.332031 137.132812 76.332031 C 133.210938 76.332031 130.027344 73.140625 130.027344 69.207031 " fill-opacity="1" fill-rule="nonzero"/><path fill="#000000" d="M 146.34375 60.496094 C 146.34375 56.730469 149.386719 53.679688 153.140625 53.679688 C 156.894531 53.679688 159.9375 56.730469 159.9375 60.496094 C 159.9375 64.261719 156.894531 67.3125 153.140625 67.3125 C 149.386719 67.3125 146.34375 64.261719 146.34375 60.496094 " fill-opacity="1" fill-rule="nonzero"/><path fill="#000000" d="M 164.335938 54.988281 C 164.335938 51.394531 167.246094 48.480469 170.828125 48.480469 C 174.417969 48.480469 177.324219 51.394531 177.324219 54.988281 C 177.324219 58.585938 174.417969 61.5 170.828125 61.5 C 167.246094 61.5 164.335938 58.585938 164.335938 54.988281 " fill-opacity="1" fill-rule="nonzero"/><g clip-path="url(#974c1d051b)"><path fill="#000000" d="M 183.636719 53.070312 C 183.636719 49.644531 186.40625 46.867188 189.824219 46.867188 C 193.242188 46.867188 196.011719 49.644531 196.011719 53.070312 C 196.011719 56.496094 193.242188 59.273438 189.824219 59.273438 C 186.40625 59.273438 183.636719 56.496094 183.636719 53.070312 " fill-opacity="1" fill-rule="nonzero"/></g><path fill="#000000" d="M 202.933594 54.988281 C 202.933594 51.730469 205.566406 49.09375 208.816406 49.09375 C 212.066406 49.09375 214.699219 51.730469 214.699219 54.988281 C 214.699219 58.246094 212.066406 60.886719 208.816406 60.886719 C 205.566406 60.886719 202.933594 58.246094 202.933594 54.988281 " fill-opacity="1" fill-rule="nonzero"/><path fill="#000000" d="M 220.929688 60.496094 C 220.929688 57.40625 223.425781 54.902344 226.507812 54.902344 C 229.585938 54.902344 232.085938 57.40625 232.085938 60.496094 C 232.085938 63.582031 229.585938 66.085938 226.507812 66.085938 C 223.425781 66.085938 220.929688 63.582031 220.929688 60.496094 " fill-opacity="1" fill-rule="nonzero"/><path fill="#000000" d="M 237.242188 69.207031 C 237.242188 66.289062 239.605469 63.921875 242.515625 63.921875 C 245.425781 63.921875 247.789062 66.289062 247.789062 69.207031 C 247.789062 72.125 245.425781 74.492188 242.515625 74.492188 C 239.605469 74.492188 237.242188 72.125 237.242188 69.207031 " fill-opacity="1" fill-rule="nonzero"/><path fill="#000000" d="M 251.496094 80.746094 C 251.496094 77.996094 253.71875 75.765625 256.460938 75.765625 C 259.207031 75.765625 261.429688 77.996094 261.429688 80.746094 C 261.429688 83.496094 259.207031 85.726562 256.460938 85.726562 C 253.71875 85.726562 251.496094 83.496094 251.496094 80.746094 " fill-opacity="1" fill-rule="nonzero"/><path fill="#000000" d="M 263.308594 94.730469 C 263.308594 92.148438 265.394531 90.058594 267.96875 90.058594 C 270.546875 90.058594 272.632812 92.148438 272.632812 94.730469 C 272.632812 97.3125 270.546875 99.40625 267.96875 99.40625 C 265.394531 99.40625 263.308594 97.3125 263.308594 94.730469 " fill-opacity="1" fill-rule="nonzero"/><path fill="#000000" d="M 272.304688 110.78125 C 272.304688 108.367188 274.253906 106.414062 276.660156 106.414062 C 279.066406 106.414062 281.015625 108.367188 281.015625 110.78125 C 281.015625 113.195312 279.066406 115.152344 276.660156 115.152344 C 274.253906 115.152344 272.304688 113.195312 272.304688 110.78125 " fill-opacity="1" fill-rule="nonzero"/><path fill="#000000" d="M 278.101562 128.519531 C 278.101562 126.277344 279.914062 124.457031 282.152344 124.457031 C 284.390625 124.457031 286.203125 126.277344 286.203125 128.519531 C 286.203125 130.761719 284.390625 132.582031 282.152344 132.582031 C 279.914062 132.582031 278.101562 130.761719 278.101562 128.519531 " fill-opacity="1" fill-rule="nonzero"/><g clip-path="url(#a7ac4aeaaf)"><path fill="#000000" d="M 280.320312 147.5625 C 280.320312 145.488281 281.996094 143.804688 284.066406 143.804688 C 286.132812 143.804688 287.8125 145.488281 287.8125 147.5625 C 287.8125 149.636719 286.132812 151.320312 284.066406 151.320312 C 281.996094 151.320312 280.320312 149.636719 280.320312 147.5625 " fill-opacity="1" fill-rule="nonzero"/></g><path fill="#000000" d="M 278.710938 166.609375 C 278.710938 164.703125 280.25 163.15625 282.152344 163.15625 C 284.050781 163.15625 285.59375 164.703125 285.59375 166.609375 C 285.59375 168.511719 284.050781 170.058594 282.152344 170.058594 C 280.25 170.058594 278.710938 168.511719 278.710938 166.609375 " fill-opacity="1" fill-rule="nonzero"/><path fill="#000000" d="M 273.523438 184.34375 C 273.523438 182.609375 274.925781 181.199219 276.660156 181.199219 C 278.390625 181.199219 279.796875 182.609375 279.796875 184.34375 C 279.796875 186.082031 278.390625 187.488281 276.660156 187.488281 C 274.925781 187.488281 273.523438 186.082031 273.523438 184.34375 " fill-opacity="1" fill-rule="nonzero"/><path fill="#000000" d="M 265.140625 200.394531 C 265.140625 198.828125 266.40625 197.558594 267.96875 197.558594 C 269.535156 197.558594 270.800781 198.828125 270.800781 200.394531 C 270.800781 201.960938 269.535156 203.234375 267.96875 203.234375 C 266.40625 203.234375 265.140625 201.960938 265.140625 200.394531 " fill-opacity="1" fill-rule="nonzero"/><path fill="#000000" d="M 253.9375 214.378906 C 253.9375 212.980469 255.066406 211.847656 256.460938 211.847656 C 257.855469 211.847656 258.988281 212.980469 258.988281 214.378906 C 258.988281 215.777344 257.855469 216.914062 256.460938 216.914062 C 255.066406 216.914062 253.9375 215.777344 253.9375 214.378906 " fill-opacity="1" fill-rule="nonzero"/><path fill="#000000" d="M 240.292969 225.917969 C 240.292969 224.6875 241.289062 223.691406 242.515625 223.691406 C 243.742188 223.691406 244.734375 224.6875 244.734375 225.917969 C 244.734375 227.148438 243.742188 228.144531 242.515625 228.144531 C 241.289062 228.144531 240.292969 227.148438 240.292969 225.917969 " fill-opacity="1" fill-rule="nonzero"/><path fill="#000000" d="M 224.589844 234.628906 C 224.589844 233.570312 225.449219 232.710938 226.507812 232.710938 C 227.566406 232.710938 228.421875 233.570312 228.421875 234.628906 C 228.421875 235.691406 227.566406 236.550781 226.507812 236.550781 C 225.449219 236.550781 224.589844 235.691406 224.589844 234.628906 " fill-opacity="1" fill-rule="nonzero"/><path fill="#000000" d="M 207.207031 240.136719 C 207.207031 239.246094 207.925781 238.523438 208.816406 238.523438 C 209.707031 238.523438 210.425781 239.246094 210.425781 240.136719 C 210.425781 241.03125 209.707031 241.753906 208.816406 241.753906 C 207.925781 241.753906 207.207031 241.03125 207.207031 240.136719 " fill-opacity="1" fill-rule="nonzero"/><g clip-path="url(#ecca0f4d6c)"><path fill="#000000" d="M 188.519531 242.054688 C 188.519531 241.335938 189.101562 240.75 189.824219 240.75 C 190.546875 240.75 191.128906 241.335938 191.128906 242.054688 C 191.128906 242.78125 190.546875 243.367188 189.824219 243.367188 C 189.101562 243.367188 188.519531 242.78125 188.519531 242.054688 " fill-opacity="1" fill-rule="nonzero"/></g><path fill="#000000" d="M 111.214844 119.402344 C 112.519531 115.8125 116.480469 113.960938 120.0625 115.265625 C 123.644531 116.574219 125.492188 120.546875 124.191406 124.136719 C 122.886719 127.730469 118.925781 129.582031 115.339844 128.273438 C 111.757812 126.96875 109.914062 122.996094 111.214844 119.402344 " fill-opacity="1" fill-rule="nonzero"/><path fill="#000000" d="M 118.082031 105.695312 C 119.339844 102.230469 123.160156 100.445312 126.617188 101.707031 C 130.070312 102.964844 131.855469 106.796875 130.59375 110.261719 C 129.339844 113.726562 125.515625 115.515625 122.0625 114.253906 C 118.605469 112.992188 116.824219 109.160156 118.082031 105.695312 " fill-opacity="1" fill-rule="nonzero"/><path fill="#000000" d="M 127.28125 93.953125 C 128.492188 90.613281 132.171875 88.894531 135.5 90.109375 C 138.828125 91.324219 140.546875 95.015625 139.335938 98.351562 C 138.125 101.6875 134.441406 103.410156 131.113281 102.195312 C 127.785156 100.980469 126.066406 97.289062 127.28125 93.953125 " fill-opacity="1" fill-rule="nonzero"/><path fill="#000000" d="M 138.421875 84.351562 C 139.585938 81.144531 143.128906 79.488281 146.328125 80.65625 C 149.53125 81.824219 151.183594 85.375 150.015625 88.585938 C 148.851562 91.796875 145.3125 93.453125 142.109375 92.285156 C 138.90625 91.113281 137.253906 87.5625 138.421875 84.351562 " fill-opacity="1" fill-rule="nonzero"/><path fill="#000000" d="M 151.117188 77.082031 C 152.238281 73.996094 155.636719 72.40625 158.714844 73.53125 C 161.789062 74.652344 163.375 78.0625 162.253906 81.144531 C 161.136719 84.230469 157.734375 85.820312 154.660156 84.695312 C 151.582031 83.574219 149.996094 80.164062 151.117188 77.082031 " fill-opacity="1" fill-rule="nonzero"/><path fill="#000000" d="M 164.980469 72.316406 C 166.054688 69.359375 169.316406 67.835938 172.265625 68.914062 C 175.210938 69.988281 176.734375 73.257812 175.660156 76.214844 C 174.585938 79.171875 171.328125 80.695312 168.375 79.621094 C 165.425781 78.542969 163.90625 75.273438 164.980469 72.316406 " fill-opacity="1" fill-rule="nonzero"/><path fill="#000000" d="M 179.621094 70.242188 C 180.648438 67.414062 183.769531 65.953125 186.59375 66.984375 C 189.414062 68.015625 190.871094 71.144531 189.84375 73.972656 C 188.816406 76.804688 185.695312 78.261719 182.871094 77.234375 C 180.050781 76.203125 178.59375 73.074219 179.621094 70.242188 " fill-opacity="1" fill-rule="nonzero"/><path fill="#000000" d="M 194.652344 71.042969 C 195.632812 68.339844 198.617188 66.945312 201.308594 67.929688 C 204.007812 68.914062 205.394531 71.902344 204.414062 74.601562 C 203.433594 77.304688 200.453125 78.699219 197.757812 77.714844 C 195.0625 76.730469 193.671875 73.742188 194.652344 71.042969 " fill-opacity="1" fill-rule="nonzero"/><path fill="#000000" d="M 209.683594 74.890625 C 210.617188 72.316406 213.460938 70.988281 216.027344 71.925781 C 218.597656 72.863281 219.921875 75.710938 218.988281 78.289062 C 218.050781 80.863281 215.210938 82.191406 212.644531 81.253906 C 210.074219 80.316406 208.75 77.46875 209.683594 74.890625 " fill-opacity="1" fill-rule="nonzero"/><path fill="#000000" d="M 223.667969 81.628906 C 224.554688 79.179688 227.257812 77.917969 229.699219 78.808594 C 232.140625 79.703125 233.402344 82.40625 232.511719 84.859375 C 231.625 87.304688 228.921875 88.570312 226.480469 87.679688 C 224.039062 86.785156 222.777344 84.078125 223.667969 81.628906 " fill-opacity="1" fill-rule="nonzero"/><path fill="#000000" d="M 235.695312 90.707031 C 236.535156 88.382812 239.097656 87.1875 241.410156 88.03125 C 243.726562 88.875 244.921875 91.445312 244.078125 93.765625 C 243.234375 96.085938 240.675781 97.285156 238.359375 96.441406 C 236.042969 95.59375 234.851562 93.027344 235.695312 90.707031 " fill-opacity="1" fill-rule="nonzero"/><path fill="#000000" d="M 245.578125 101.730469 C 246.375 99.535156 248.796875 98.402344 250.984375 99.203125 C 253.175781 100.003906 254.304688 102.429688 253.507812 104.621094 C 252.710938 106.816406 250.289062 107.949219 248.101562 107.152344 C 245.910156 106.351562 244.785156 103.925781 245.578125 101.730469 " fill-opacity="1" fill-rule="nonzero"/><path fill="#000000" d="M 253.144531 114.316406 C 253.894531 112.246094 256.175781 111.179688 258.238281 111.933594 C 260.300781 112.6875 261.363281 114.972656 260.613281 117.039062 C 259.863281 119.109375 257.582031 120.175781 255.519531 119.421875 C 253.457031 118.667969 252.394531 116.382812 253.144531 114.316406 " fill-opacity="1" fill-rule="nonzero"/><path fill="#000000" d="M 258.210938 128.070312 C 258.914062 126.128906 261.054688 125.128906 262.988281 125.835938 C 264.925781 126.539062 265.921875 128.6875 265.21875 130.628906 C 264.515625 132.566406 262.375 133.570312 260.4375 132.863281 C 258.503906 132.15625 257.503906 130.011719 258.210938 128.070312 " fill-opacity="1" fill-rule="nonzero"/><path fill="#000000" d="M 260.589844 142.601562 C 261.25 140.789062 263.25 139.851562 265.058594 140.511719 C 266.867188 141.175781 267.800781 143.179688 267.140625 144.992188 C 266.484375 146.808594 264.484375 147.742188 262.675781 147.082031 C 260.863281 146.421875 259.933594 144.417969 260.589844 142.601562 " fill-opacity="1" fill-rule="nonzero"/><path fill="#000000" d="M 260.109375 157.527344 C 260.71875 155.839844 262.582031 154.972656 264.261719 155.585938 C 265.945312 156.199219 266.8125 158.0625 266.199219 159.75 C 265.585938 161.4375 263.726562 162.304688 262.042969 161.691406 C 260.363281 161.078125 259.496094 159.214844 260.109375 157.527344 " fill-opacity="1" fill-rule="nonzero"/><path fill="#000000" d="M 256.582031 172.453125 C 257.148438 170.894531 258.867188 170.089844 260.421875 170.65625 C 261.976562 171.222656 262.78125 172.949219 262.214844 174.507812 C 261.648438 176.066406 259.925781 176.871094 258.371094 176.304688 C 256.816406 175.734375 256.015625 174.011719 256.582031 172.453125 " fill-opacity="1" fill-rule="nonzero"/><path fill="#000000" d="M 250.171875 186.328125 C 250.695312 184.894531 252.273438 184.15625 253.703125 184.675781 C 255.128906 185.199219 255.867188 186.78125 255.347656 188.214844 C 254.828125 189.648438 253.246094 190.386719 251.820312 189.867188 C 250.390625 189.34375 249.652344 187.757812 250.171875 186.328125 " fill-opacity="1" fill-rule="nonzero"/><path fill="#000000" d="M 241.433594 198.238281 C 241.90625 196.933594 243.347656 196.257812 244.648438 196.734375 C 245.953125 197.210938 246.625 198.65625 246.148438 199.960938 C 245.675781 201.265625 244.234375 201.9375 242.933594 201.464844 C 241.632812 200.988281 240.960938 199.542969 241.433594 198.238281 " fill-opacity="1" fill-rule="nonzero"/><path fill="#000000" d="M 230.75 208.003906 C 231.179688 206.824219 232.476562 206.21875 233.652344 206.648438 C 234.828125 207.078125 235.4375 208.378906 235.007812 209.558594 C 234.582031 210.738281 233.28125 211.34375 232.105469 210.914062 C 230.929688 210.488281 230.324219 209.183594 230.75 208.003906 " fill-opacity="1" fill-rule="nonzero"/><path fill="#000000" d="M 218.511719 215.445312 C 218.894531 214.394531 220.054688 213.851562 221.105469 214.234375 C 222.152344 214.617188 222.691406 215.777344 222.3125 216.832031 C 221.929688 217.882812 220.769531 218.425781 219.722656 218.042969 C 218.671875 217.660156 218.132812 216.496094 218.511719 215.445312 " fill-opacity="1" fill-rule="nonzero"/><path fill="#000000" d="M 205.109375 220.375 C 205.445312 219.453125 206.464844 218.976562 207.386719 219.3125 C 208.308594 219.648438 208.78125 220.671875 208.449219 221.59375 C 208.113281 222.519531 207.09375 222.996094 206.167969 222.660156 C 205.246094 222.324219 204.773438 221.300781 205.109375 220.375 " fill-opacity="1" fill-rule="nonzero"/><path fill="#000000" d="M 190.925781 222.617188 C 191.214844 221.820312 192.097656 221.410156 192.890625 221.699219 C 193.6875 221.988281 194.09375 222.871094 193.804688 223.667969 C 193.515625 224.464844 192.636719 224.878906 191.84375 224.585938 C 191.046875 224.296875 190.636719 223.414062 190.925781 222.617188 " fill-opacity="1" fill-rule="nonzero"/><path fill="#000000" d="M 176.355469 221.988281 C 176.597656 221.316406 177.339844 220.972656 178.003906 221.214844 C 178.675781 221.460938 179.019531 222.199219 178.777344 222.871094 C 178.53125 223.539062 177.792969 223.886719 177.125 223.640625 C 176.457031 223.398438 176.113281 222.65625 176.355469 221.988281 " fill-opacity="1" fill-rule="nonzero"/><path fill="#000000" d="M 161.78125 218.304688 C 161.976562 217.757812 162.578125 217.480469 163.121094 217.679688 C 163.664062 217.875 163.941406 218.476562 163.746094 219.019531 C 163.546875 219.5625 162.949219 219.84375 162.40625 219.644531 C 161.863281 219.449219 161.585938 218.847656 161.78125 218.304688 " fill-opacity="1" fill-rule="nonzero"/><path fill="#000000" d="M 137.140625 104.890625 C 139.101562 102.546875 142.585938 102.242188 144.921875 104.207031 C 147.257812 106.171875 147.5625 109.667969 145.601562 112.007812 C 143.640625 114.351562 140.15625 114.65625 137.820312 112.691406 C 135.484375 110.726562 135.179688 107.234375 137.140625 104.890625 " fill-opacity="1" fill-rule="nonzero"/><path fill="#000000" d="M 146.042969 96.46875 C 147.933594 94.210938 151.292969 93.914062 153.546875 95.8125 C 155.800781 97.707031 156.09375 101.078125 154.203125 103.335938 C 152.3125 105.597656 148.953125 105.890625 146.699219 103.992188 C 144.445312 102.097656 144.148438 98.730469 146.042969 96.46875 " fill-opacity="1" fill-rule="nonzero"/><path fill="#000000" d="M 156.160156 90.164062 C 157.984375 87.988281 161.21875 87.703125 163.390625 89.53125 C 165.5625 91.355469 165.84375 94.601562 164.023438 96.78125 C 162.203125 98.957031 158.964844 99.242188 156.792969 97.414062 C 154.621094 95.585938 154.339844 92.339844 156.160156 90.164062 " fill-opacity="1" fill-rule="nonzero"/><path fill="#000000" d="M 167.15625 86.003906 C 168.910156 83.910156 172.023438 83.636719 174.113281 85.394531 C 176.199219 87.152344 176.472656 90.273438 174.71875 92.367188 C 172.964844 94.460938 169.855469 94.734375 167.765625 92.980469 C 165.675781 91.222656 165.40625 88.097656 167.15625 86.003906 " fill-opacity="1" fill-rule="nonzero"/><path fill="#000000" d="M 178.683594 84.019531 C 180.371094 82.011719 183.359375 81.746094 185.367188 83.433594 C 187.371094 85.125 187.632812 88.121094 185.949219 90.132812 C 184.265625 92.144531 181.277344 92.40625 179.269531 90.71875 C 177.265625 89.03125 177.003906 86.03125 178.683594 84.019531 " fill-opacity="1" fill-rule="nonzero"/><path fill="#000000" d="M 190.40625 84.242188 C 192.023438 82.3125 194.886719 82.0625 196.8125 83.683594 C 198.734375 85.300781 198.984375 88.175781 197.371094 90.105469 C 195.757812 92.03125 192.890625 92.285156 190.96875 90.664062 C 189.042969 89.046875 188.792969 86.171875 190.40625 84.242188 " fill-opacity="1" fill-rule="nonzero"/><path fill="#000000" d="M 201.980469 86.703125 C 203.523438 84.855469 206.269531 84.617188 208.109375 86.164062 C 209.949219 87.710938 210.191406 90.464844 208.644531 92.308594 C 207.101562 94.15625 204.355469 94.394531 202.515625 92.847656 C 200.675781 91.296875 200.4375 88.546875 201.980469 86.703125 " fill-opacity="1" fill-rule="nonzero"/><path fill="#000000" d="M 213.0625 91.421875 C 214.535156 89.660156 217.15625 89.429688 218.914062 90.910156 C 220.671875 92.390625 220.902344 95.015625 219.429688 96.78125 C 217.953125 98.542969 215.332031 98.773438 213.574219 97.292969 C 211.816406 95.816406 211.585938 93.1875 213.0625 91.421875 " fill-opacity="1" fill-rule="nonzero"/><path fill="#000000" d="M 223.3125 98.441406 C 224.71875 96.761719 227.214844 96.542969 228.890625 97.953125 C 230.566406 99.363281 230.785156 101.867188 229.378906 103.546875 C 227.972656 105.226562 225.476562 105.449219 223.796875 104.035156 C 222.125 102.628906 221.90625 100.125 223.3125 98.441406 " fill-opacity="1" fill-rule="nonzero"/><path fill="#000000" d="M 231.984375 107.34375 C 233.320312 105.746094 235.695312 105.539062 237.289062 106.878906 C 238.882812 108.21875 239.089844 110.601562 237.753906 112.199219 C 236.417969 113.792969 234.042969 114.003906 232.449219 112.664062 C 230.855469 111.324219 230.648438 108.941406 231.984375 107.34375 " fill-opacity="1" fill-rule="nonzero"/><path fill="#000000" d="M 238.550781 117.464844 C 239.816406 115.953125 242.066406 115.753906 243.578125 117.027344 C 245.085938 118.296875 245.285156 120.554688 244.019531 122.070312 C 242.75 123.582031 240.496094 123.78125 238.988281 122.507812 C 237.476562 121.238281 237.28125 118.980469 238.550781 117.464844 " fill-opacity="1" fill-rule="nonzero"/><path fill="#000000" d="M 242.972656 128.46875 C 244.167969 127.035156 246.296875 126.847656 247.726562 128.050781 C 249.152344 129.25 249.339844 131.386719 248.140625 132.816406 C 246.945312 134.25 244.816406 134.433594 243.386719 133.234375 C 241.960938 132.035156 241.773438 129.898438 242.972656 128.46875 " fill-opacity="1" fill-rule="nonzero"/><path fill="#000000" d="M 245.226562 140.003906 C 246.355469 138.65625 248.359375 138.476562 249.703125 139.609375 C 251.046875 140.742188 251.226562 142.75 250.097656 144.101562 C 248.96875 145.449219 246.960938 145.625 245.617188 144.492188 C 244.273438 143.363281 244.097656 141.351562 245.226562 140.003906 " fill-opacity="1" fill-rule="nonzero"/><path fill="#000000" d="M 245.28125 151.730469 C 246.335938 150.464844 248.21875 150.300781 249.480469 151.363281 C 250.746094 152.425781 250.910156 154.3125 249.851562 155.578125 C 248.792969 156.84375 246.910156 157.007812 245.648438 155.945312 C 244.382812 154.882812 244.21875 152.996094 245.28125 151.730469 " fill-opacity="1" fill-rule="nonzero"/><path fill="#000000" d="M 243.101562 163.3125 C 244.09375 162.128906 245.851562 161.972656 247.03125 162.964844 C 248.210938 163.957031 248.363281 165.722656 247.375 166.90625 C 246.386719 168.089844 244.625 168.242188 243.445312 167.25 C 242.265625 166.257812 242.113281 164.492188 243.101562 163.3125 " fill-opacity="1" fill-rule="nonzero"/><path fill="#000000" d="M 238.667969 174.398438 C 239.589844 173.296875 241.222656 173.15625 242.320312 174.078125 C 243.417969 175 243.558594 176.640625 242.640625 177.742188 C 241.71875 178.839844 240.085938 178.984375 238.988281 178.058594 C 237.890625 177.136719 237.746094 175.5 238.667969 174.398438 " fill-opacity="1" fill-rule="nonzero"/><path fill="#000000" d="M 231.941406 184.652344 C 232.792969 183.632812 234.304688 183.5 235.320312 184.355469 C 236.335938 185.207031 236.464844 186.722656 235.617188 187.742188 C 234.765625 188.757812 233.253906 188.890625 232.238281 188.039062 C 231.222656 187.183594 231.089844 185.667969 231.941406 184.652344 " fill-opacity="1" fill-rule="nonzero"/><path fill="#000000" d="M 223.339844 193.324219 C 224.121094 192.386719 225.511719 192.265625 226.441406 193.050781 C 227.375 193.835938 227.496094 195.226562 226.714844 196.164062 C 225.929688 197.097656 224.542969 197.21875 223.613281 196.433594 C 222.679688 195.648438 222.558594 194.257812 223.339844 193.324219 " fill-opacity="1" fill-rule="nonzero"/><path fill="#000000" d="M 213.519531 199.878906 C 214.230469 199.027344 215.5 198.917969 216.347656 199.632812 C 217.195312 200.347656 217.308594 201.617188 216.59375 202.46875 C 215.882812 203.316406 214.617188 203.429688 213.765625 202.714844 C 212.917969 202 212.808594 200.730469 213.519531 199.878906 " fill-opacity="1" fill-rule="nonzero"/><path fill="#000000" d="M 202.824219 204.292969 C 203.46875 203.523438 204.609375 203.421875 205.375 204.066406 C 206.140625 204.710938 206.242188 205.859375 205.597656 206.625 C 204.957031 207.394531 203.8125 207.496094 203.046875 206.851562 C 202.28125 206.207031 202.179688 205.058594 202.824219 204.292969 " fill-opacity="1" fill-rule="nonzero"/><path fill="#000000" d="M 191.59375 206.527344 C 192.167969 205.839844 193.1875 205.75 193.871094 206.328125 C 194.554688 206.902344 194.644531 207.921875 194.070312 208.609375 C 193.496094 209.296875 192.476562 209.386719 191.792969 208.808594 C 191.109375 208.234375 191.019531 207.214844 191.59375 206.527344 " fill-opacity="1" fill-rule="nonzero"/><path fill="#000000" d="M 180.171875 206.554688 C 180.675781 205.953125 181.570312 205.875 182.171875 206.378906 C 182.773438 206.886719 182.851562 207.785156 182.347656 208.390625 C 181.84375 208.992188 180.945312 209.070312 180.347656 208.5625 C 179.746094 208.058594 179.664062 207.160156 180.171875 206.554688 " fill-opacity="1" fill-rule="nonzero"/><path fill="#000000" d="M 168.898438 204.351562 C 169.332031 203.828125 170.105469 203.761719 170.625 204.199219 C 171.144531 204.636719 171.210938 205.410156 170.777344 205.929688 C 170.339844 206.449219 169.566406 206.519531 169.046875 206.082031 C 168.53125 205.644531 168.460938 204.871094 168.898438 204.351562 " fill-opacity="1" fill-rule="nonzero"/><path fill="#000000" d="M 158.117188 199.878906 C 158.480469 199.441406 159.128906 199.386719 159.566406 199.75 C 160.003906 200.117188 160.058594 200.769531 159.695312 201.207031 C 159.328125 201.644531 158.675781 201.703125 158.242188 201.335938 C 157.804688 200.96875 157.75 200.316406 158.117188 199.878906 " fill-opacity="1" fill-rule="nonzero"/><path fill="#000000" d="M 148.164062 193.109375 C 148.460938 192.757812 148.988281 192.710938 149.34375 193.007812 C 149.695312 193.304688 149.742188 193.835938 149.445312 194.1875 C 149.148438 194.542969 148.621094 194.589844 148.265625 194.292969 C 147.914062 193.992188 147.867188 193.464844 148.164062 193.109375 " fill-opacity="1" fill-rule="nonzero"/><path fill="#000000" d="M 160.589844 101.09375 C 162.703125 99.867188 165.40625 100.59375 166.625 102.714844 C 167.84375 104.832031 167.121094 107.542969 165.007812 108.765625 C 162.894531 109.988281 160.191406 109.261719 158.972656 107.144531 C 157.753906 105.023438 158.476562 102.316406 160.589844 101.09375 " fill-opacity="1" fill-rule="nonzero"/><path fill="#000000" d="M 169.578125 97.207031 C 171.617188 96.023438 174.222656 96.726562 175.402344 98.769531 C 176.578125 100.8125 175.878906 103.425781 173.839844 104.605469 C 171.804688 105.785156 169.195312 105.085938 168.019531 103.042969 C 166.84375 100.996094 167.542969 98.382812 169.578125 97.207031 " fill-opacity="1" fill-rule="nonzero"/><path fill="#000000" d="M 178.90625 95.238281 C 180.871094 94.105469 183.382812 94.777344 184.515625 96.746094 C 185.648438 98.714844 184.976562 101.234375 183.011719 102.371094 C 181.050781 103.507812 178.539062 102.832031 177.40625 100.863281 C 176.269531 98.894531 176.945312 96.378906 178.90625 95.238281 " fill-opacity="1" fill-rule="nonzero"/><path fill="#000000" d="M 188.308594 95.128906 C 190.199219 94.035156 192.613281 94.6875 193.703125 96.578125 C 194.792969 98.472656 194.144531 100.894531 192.257812 101.988281 C 190.367188 103.082031 187.953125 102.433594 186.863281 100.539062 C 185.773438 98.644531 186.417969 96.222656 188.308594 95.128906 " fill-opacity="1" fill-rule="nonzero"/><path fill="#000000" d="M 197.515625 96.800781 C 199.332031 95.75 201.652344 96.375 202.699219 98.195312 C 203.746094 100.011719 203.125 102.339844 201.308594 103.390625 C 199.496094 104.4375 197.175781 103.816406 196.128906 101.996094 C 195.082031 100.179688 195.703125 97.851562 197.515625 96.800781 " fill-opacity="1" fill-rule="nonzero"/><path fill="#000000" d="M 206.269531 100.183594 C 208.007812 99.179688 210.230469 99.773438 211.234375 101.519531 C 212.242188 103.261719 211.644531 105.492188 209.90625 106.5 C 208.167969 107.507812 205.941406 106.910156 204.9375 105.167969 C 203.933594 103.421875 204.527344 101.191406 206.269531 100.183594 " fill-opacity="1" fill-rule="nonzero"/><path fill="#000000" d="M 214.296875 105.207031 C 215.960938 104.242188 218.089844 104.816406 219.050781 106.484375 C 220.011719 108.152344 219.441406 110.289062 217.777344 111.25 C 216.113281 112.214844 213.984375 111.644531 213.023438 109.972656 C 212.0625 108.304688 212.632812 106.171875 214.296875 105.207031 " fill-opacity="1" fill-rule="nonzero"/><path fill="#000000" d="M 221.339844 111.796875 C 222.929688 110.878906 224.960938 111.421875 225.878906 113.019531 C 226.796875 114.613281 226.253906 116.652344 224.664062 117.570312 C 223.074219 118.492188 221.039062 117.945312 220.121094 116.351562 C 219.203125 114.757812 219.75 112.71875 221.339844 111.796875 " fill-opacity="1" fill-rule="nonzero"/><path fill="#000000" d="M 227.128906 119.886719 C 228.644531 119.007812 230.582031 119.53125 231.457031 121.050781 C 232.332031 122.570312 231.8125 124.511719 230.296875 125.390625 C 228.78125 126.265625 226.84375 125.746094 225.96875 124.226562 C 225.09375 122.707031 225.613281 120.761719 227.128906 119.886719 " fill-opacity="1" fill-rule="nonzero"/><path fill="#000000" d="M 231.21875 128.957031 C 232.660156 128.125 234.503906 128.617188 235.332031 130.0625 C 236.164062 131.507812 235.671875 133.351562 234.230469 134.1875 C 232.789062 135.023438 230.949219 134.527344 230.117188 133.082031 C 229.285156 131.640625 229.777344 129.792969 231.21875 128.957031 " fill-opacity="1" fill-rule="nonzero"/><path fill="#000000" d="M 233.390625 138.367188 C 234.757812 137.578125 236.503906 138.046875 237.292969 139.414062 C 238.082031 140.785156 237.613281 142.535156 236.246094 143.328125 C 234.878906 144.117188 233.136719 143.648438 232.347656 142.277344 C 231.558594 140.910156 232.027344 139.15625 233.390625 138.367188 " fill-opacity="1" fill-rule="nonzero"/><path fill="#000000" d="M 233.714844 147.851562 C 235.007812 147.105469 236.65625 147.546875 237.402344 148.839844 C 238.148438 150.136719 237.707031 151.789062 236.414062 152.539062 C 235.125 153.285156 233.472656 152.84375 232.726562 151.546875 C 231.980469 150.253906 232.425781 148.597656 233.714844 147.851562 " fill-opacity="1" fill-rule="nonzero"/><path fill="#000000" d="M 232.261719 157.140625 C 233.476562 156.4375 235.035156 156.855469 235.734375 158.074219 C 236.4375 159.292969 236.019531 160.855469 234.804688 161.558594 C 233.589844 162.261719 232.03125 161.84375 231.328125 160.625 C 230.628906 159.40625 231.046875 157.84375 232.261719 157.140625 " fill-opacity="1" fill-rule="nonzero"/><path fill="#000000" d="M 229.101562 165.972656 C 230.242188 165.3125 231.703125 165.707031 232.363281 166.847656 C 233.019531 167.996094 232.628906 169.457031 231.488281 170.117188 C 230.347656 170.777344 228.886719 170.386719 228.226562 169.242188 C 227.566406 168.097656 227.960938 166.632812 229.101562 165.972656 " fill-opacity="1" fill-rule="nonzero"/><path fill="#000000" d="M 224.304688 174.082031 C 225.371094 173.464844 226.738281 173.828125 227.351562 174.898438 C 227.96875 175.96875 227.601562 177.335938 226.535156 177.953125 C 225.46875 178.574219 224.105469 178.207031 223.488281 177.136719 C 222.871094 176.066406 223.238281 174.699219 224.304688 174.082031 " fill-opacity="1" fill-rule="nonzero"/><path fill="#000000" d="M 217.945312 181.199219 C 218.9375 180.625 220.207031 180.964844 220.777344 181.960938 C 221.351562 182.953125 221.011719 184.226562 220.019531 184.800781 C 219.027344 185.375 217.757812 185.035156 217.1875 184.039062 C 216.613281 183.046875 216.953125 181.773438 217.945312 181.199219 " fill-opacity="1" fill-rule="nonzero"/><path fill="#000000" d="M 210.089844 187.0625 C 211.007812 186.53125 212.183594 186.84375 212.710938 187.765625 C 213.242188 188.683594 212.929688 189.859375 212.011719 190.390625 C 211.09375 190.921875 209.917969 190.609375 209.390625 189.6875 C 208.859375 188.769531 209.171875 187.59375 210.089844 187.0625 " fill-opacity="1" fill-rule="nonzero"/><path fill="#000000" d="M 201.257812 191.21875 C 202.101562 190.734375 203.179688 191.023438 203.664062 191.867188 C 204.152344 192.710938 203.863281 193.792969 203.019531 194.28125 C 202.179688 194.769531 201.101562 194.480469 200.613281 193.632812 C 200.125 192.789062 200.414062 191.707031 201.257812 191.21875 " fill-opacity="1" fill-rule="nonzero"/><path fill="#000000" d="M 192.085938 193.457031 C 192.855469 193.011719 193.835938 193.273438 194.28125 194.042969 C 194.722656 194.816406 194.460938 195.800781 193.691406 196.246094 C 192.925781 196.6875 191.941406 196.425781 191.5 195.65625 C 191.054688 194.886719 191.316406 193.898438 192.085938 193.457031 " fill-opacity="1" fill-rule="nonzero"/><path fill="#000000" d="M 182.84375 193.835938 C 183.535156 193.4375 184.421875 193.675781 184.820312 194.367188 C 185.222656 195.066406 184.984375 195.953125 184.292969 196.355469 C 183.597656 196.753906 182.710938 196.515625 182.3125 195.820312 C 181.910156 195.128906 182.148438 194.238281 182.84375 193.835938 " fill-opacity="1" fill-rule="nonzero"/><path fill="#000000" d="M 173.789062 192.4375 C 174.410156 192.078125 175.199219 192.292969 175.554688 192.910156 C 175.914062 193.53125 175.703125 194.324219 175.082031 194.683594 C 174.464844 195.039062 173.675781 194.828125 173.316406 194.207031 C 172.960938 193.589844 173.171875 192.792969 173.789062 192.4375 " fill-opacity="1" fill-rule="nonzero"/><path fill="#000000" d="M 165.195312 189.324219 C 165.738281 189.011719 166.433594 189.199219 166.746094 189.742188 C 167.0625 190.289062 166.875 190.984375 166.332031 191.300781 C 165.789062 191.613281 165.09375 191.429688 164.777344 190.882812 C 164.464844 190.335938 164.648438 189.640625 165.195312 189.324219 " fill-opacity="1" fill-rule="nonzero"/><path fill="#000000" d="M 157.320312 184.574219 C 157.789062 184.300781 158.390625 184.464844 158.660156 184.933594 C 158.933594 185.40625 158.773438 186.007812 158.300781 186.277344 C 157.832031 186.550781 157.234375 186.386719 156.960938 185.917969 C 156.691406 185.449219 156.851562 184.84375 157.320312 184.574219 " fill-opacity="1" fill-rule="nonzero"/><path fill="#000000" d="M 150.4375 178.253906 C 150.832031 178.027344 151.335938 178.160156 151.5625 178.558594 C 151.789062 178.953125 151.65625 179.457031 151.261719 179.6875 C 150.867188 179.914062 150.363281 179.78125 150.132812 179.382812 C 149.90625 178.988281 150.042969 178.484375 150.4375 178.253906 " fill-opacity="1" fill-rule="nonzero"/><path fill="#000000" d="M 144.800781 170.4375 C 145.121094 170.253906 145.53125 170.363281 145.714844 170.683594 C 145.898438 171.003906 145.792969 171.414062 145.472656 171.597656 C 145.152344 171.78125 144.742188 171.675781 144.558594 171.351562 C 144.375 171.03125 144.484375 170.621094 144.800781 170.4375 " fill-opacity="1" fill-rule="nonzero"/><path fill="#000000" d="M 179.253906 104.671875 C 181.175781 104.332031 183.007812 105.617188 183.347656 107.546875 C 183.6875 109.472656 182.402344 111.308594 180.480469 111.652344 C 178.558594 111.992188 176.726562 110.703125 176.386719 108.777344 C 176.046875 106.847656 177.332031 105.011719 179.253906 104.671875 " fill-opacity="1" fill-rule="nonzero"/><path fill="#000000" d="M 187.074219 104.214844 C 188.929688 103.886719 190.695312 105.128906 191.023438 106.988281 C 191.351562 108.847656 190.113281 110.621094 188.257812 110.949219 C 186.402344 111.273438 184.636719 110.03125 184.308594 108.175781 C 183.980469 106.316406 185.21875 104.542969 187.074219 104.214844 " fill-opacity="1" fill-rule="nonzero"/><path fill="#000000" d="M 194.621094 105.296875 C 196.40625 104.980469 198.113281 106.175781 198.425781 107.96875 C 198.742188 109.757812 197.546875 111.464844 195.761719 111.78125 C 193.976562 112.097656 192.273438 110.902344 191.957031 109.113281 C 191.644531 107.320312 192.835938 105.613281 194.621094 105.296875 " fill-opacity="1" fill-rule="nonzero"/><path fill="#000000" d="M 201.71875 107.792969 C 203.4375 107.488281 205.074219 108.640625 205.378906 110.363281 C 205.679688 112.085938 204.535156 113.726562 202.816406 114.03125 C 201.097656 114.335938 199.457031 113.1875 199.15625 111.460938 C 198.851562 109.738281 200 108.097656 201.71875 107.792969 " fill-opacity="1" fill-rule="nonzero"/><path fill="#000000" d="M 208.1875 111.574219 C 209.835938 111.285156 211.410156 112.390625 211.699219 114.042969 C 211.992188 115.699219 210.890625 117.277344 209.238281 117.570312 C 207.589844 117.859375 206.015625 116.753906 205.722656 115.101562 C 205.433594 113.445312 206.535156 111.867188 208.1875 111.574219 " fill-opacity="1" fill-rule="nonzero"/><path fill="#000000" d="M 213.84375 116.519531 C 215.421875 116.238281 216.929688 117.300781 217.210938 118.886719 C 217.492188 120.472656 216.433594 121.984375 214.851562 122.265625 C 213.269531 122.546875 211.757812 121.484375 211.480469 119.898438 C 211.203125 118.3125 212.257812 116.800781 213.84375 116.519531 " fill-opacity="1" fill-rule="nonzero"/><path fill="#000000" d="M 218.507812 122.5 C 220.019531 122.230469 221.464844 123.246094 221.730469 124.761719 C 222 126.28125 220.988281 127.730469 219.472656 127.996094 C 217.957031 128.265625 216.515625 127.25 216.246094 125.734375 C 215.980469 124.214844 216.992188 122.765625 218.507812 122.5 " fill-opacity="1" fill-rule="nonzero"/><path fill="#000000" d="M 222 129.386719 C 223.449219 129.128906 224.828125 130.097656 225.082031 131.546875 C 225.335938 133 224.371094 134.382812 222.925781 134.636719 C 221.480469 134.894531 220.097656 133.925781 219.84375 132.472656 C 219.589844 131.023438 220.554688 129.640625 222 129.386719 " fill-opacity="1" fill-rule="nonzero"/><path fill="#000000" d="M 224.144531 137.054688 C 225.523438 136.808594 226.839844 137.734375 227.082031 139.113281 C 227.324219 140.496094 226.40625 141.816406 225.027344 142.058594 C 223.648438 142.300781 222.332031 141.378906 222.089844 139.996094 C 221.847656 138.617188 222.769531 137.296875 224.144531 137.054688 " fill-opacity="1" fill-rule="nonzero"/><path fill="#000000" d="M 224.746094 144.996094 C 226.058594 144.765625 227.304688 145.640625 227.539062 146.953125 C 227.769531 148.269531 226.894531 149.523438 225.582031 149.753906 C 224.273438 149.984375 223.023438 149.105469 222.792969 147.792969 C 222.5625 146.480469 223.4375 145.226562 224.746094 144.996094 " fill-opacity="1" fill-rule="nonzero"/><path fill="#000000" d="M 223.8125 152.664062 C 225.054688 152.445312 226.238281 153.277344 226.457031 154.523438 C 226.675781 155.769531 225.847656 156.957031 224.605469 157.175781 C 223.363281 157.398438 222.175781 156.566406 221.957031 155.320312 C 221.738281 154.074219 222.570312 152.886719 223.8125 152.664062 " fill-opacity="1" fill-rule="nonzero"/><path fill="#000000" d="M 221.464844 159.882812 C 222.640625 159.675781 223.761719 160.460938 223.96875 161.640625 C 224.175781 162.816406 223.390625 163.941406 222.21875 164.148438 C 221.042969 164.355469 219.921875 163.570312 219.714844 162.390625 C 219.507812 161.214844 220.292969 160.089844 221.464844 159.882812 " fill-opacity="1" fill-rule="nonzero"/><path fill="#000000" d="M 217.839844 166.46875 C 218.945312 166.273438 220 167.011719 220.195312 168.125 C 220.390625 169.230469 219.652344 170.289062 218.546875 170.484375 C 217.4375 170.683594 216.382812 169.941406 216.1875 168.832031 C 215.992188 167.722656 216.734375 166.664062 217.839844 166.46875 " fill-opacity="1" fill-rule="nonzero"/><path fill="#000000" d="M 213.054688 172.242188 C 214.089844 172.058594 215.082031 172.75 215.265625 173.792969 C 215.449219 174.835938 214.753906 175.828125 213.714844 176.011719 C 212.675781 176.195312 211.6875 175.5 211.503906 174.457031 C 211.320312 173.417969 212.015625 172.425781 213.054688 172.242188 " fill-opacity="1" fill-rule="nonzero"/><path fill="#000000" d="M 207.234375 177.019531 C 208.207031 176.847656 209.128906 177.5 209.300781 178.472656 C 209.472656 179.445312 208.824219 180.371094 207.855469 180.542969 C 206.882812 180.714844 205.957031 180.066406 205.785156 179.09375 C 205.617188 178.121094 206.265625 177.191406 207.234375 177.019531 " fill-opacity="1" fill-rule="nonzero"/><path fill="#000000" d="M 200.511719 180.625 C 201.414062 180.464844 202.273438 181.070312 202.433594 181.976562 C 202.59375 182.878906 201.988281 183.742188 201.089844 183.902344 C 200.183594 184.0625 199.324219 183.457031 199.164062 182.554688 C 199.003906 181.648438 199.609375 180.785156 200.511719 180.625 " fill-opacity="1" fill-rule="nonzero"/><path fill="#000000" d="M 193.007812 182.878906 C 193.84375 182.730469 194.640625 183.289062 194.785156 184.128906 C 194.933594 184.964844 194.375 185.761719 193.542969 185.910156 C 192.707031 186.058594 191.910156 185.5 191.765625 184.660156 C 191.613281 183.824219 192.175781 183.027344 193.007812 182.878906 " fill-opacity="1" fill-rule="nonzero"/><path fill="#000000" d="M 185.230469 183.582031 C 186 183.445312 186.730469 183.960938 186.863281 184.730469 C 187 185.496094 186.488281 186.230469 185.722656 186.367188 C 184.953125 186.503906 184.222656 185.988281 184.089844 185.21875 C 183.953125 184.449219 184.464844 183.71875 185.230469 183.582031 " fill-opacity="1" fill-rule="nonzero"/><path fill="#000000" d="M 177.726562 182.746094 C 178.425781 182.621094 179.09375 183.089844 179.214844 183.792969 C 179.339844 184.492188 178.871094 185.160156 178.175781 185.28125 C 177.472656 185.40625 176.808594 184.9375 176.6875 184.238281 C 176.5625 183.539062 177.027344 182.871094 177.726562 182.746094 " fill-opacity="1" fill-rule="nonzero"/><path fill="#000000" d="M 170.671875 180.496094 C 171.304688 180.382812 171.90625 180.808594 172.015625 181.441406 C 172.128906 182.070312 171.707031 182.675781 171.074219 182.785156 C 170.445312 182.898438 169.84375 182.476562 169.734375 181.84375 C 169.621094 181.210938 170.042969 180.609375 170.671875 180.496094 " fill-opacity="1" fill-rule="nonzero"/><path fill="#000000" d="M 164.25 176.960938 C 164.8125 176.863281 165.347656 177.238281 165.449219 177.800781 C 165.546875 178.367188 165.171875 178.90625 164.609375 179.003906 C 164.046875 179.101562 163.511719 178.726562 163.410156 178.164062 C 163.3125 177.597656 163.6875 177.058594 164.25 176.960938 " fill-opacity="1" fill-rule="nonzero"/><path fill="#000000" d="M 158.640625 172.261719 C 159.132812 172.175781 159.605469 172.507812 159.691406 173.003906 C 159.78125 173.5 159.449219 173.972656 158.953125 174.058594 C 158.460938 174.148438 157.988281 173.816406 157.902344 173.320312 C 157.8125 172.824219 158.144531 172.351562 158.640625 172.261719 " fill-opacity="1" fill-rule="nonzero"/><path fill="#000000" d="M 154.015625 166.53125 C 154.445312 166.457031 154.847656 166.742188 154.925781 167.167969 C 155 167.597656 154.714844 168.007812 154.289062 168.082031 C 153.863281 168.15625 153.453125 167.871094 153.378906 167.441406 C 153.304688 167.015625 153.589844 166.609375 154.015625 166.53125 " fill-opacity="1" fill-rule="nonzero"/><path fill="#000000" d="M 150.566406 159.890625 C 150.921875 159.828125 151.265625 160.066406 151.328125 160.429688 C 151.390625 160.789062 151.152344 161.132812 150.792969 161.195312 C 150.433594 161.257812 150.09375 161.019531 150.03125 160.65625 C 149.96875 160.296875 150.207031 159.957031 150.566406 159.890625 " fill-opacity="1" fill-rule="nonzero"/><path fill="#000000" d="M 148.464844 152.472656 C 148.753906 152.417969 149.03125 152.613281 149.082031 152.90625 C 149.132812 153.195312 148.941406 153.476562 148.648438 153.527344 C 148.359375 153.578125 148.082031 153.382812 148.03125 153.089844 C 147.976562 152.800781 148.171875 152.519531 148.464844 152.472656 " fill-opacity="1" fill-rule="nonzero"/><path fill="#000000" d="M 192.308594 112.480469 C 193.847656 112.753906 194.875 114.222656 194.601562 115.765625 C 194.332031 117.308594 192.863281 118.335938 191.328125 118.066406 C 189.789062 117.792969 188.761719 116.324219 189.035156 114.78125 C 189.304688 113.238281 190.773438 112.210938 192.308594 112.480469 " fill-opacity="1" fill-rule="nonzero"/><path fill="#000000" d="M 198.3125 114.285156 C 199.796875 114.542969 200.785156 115.964844 200.523438 117.449219 C 200.261719 118.9375 198.847656 119.929688 197.363281 119.667969 C 195.878906 119.40625 194.890625 117.988281 195.152344 116.503906 C 195.414062 115.015625 196.828125 114.019531 198.3125 114.285156 " fill-opacity="1" fill-rule="nonzero"/><path fill="#000000" d="M 203.691406 117.167969 C 205.121094 117.421875 206.074219 118.785156 205.820312 120.21875 C 205.570312 121.652344 204.207031 122.609375 202.777344 122.355469 C 201.351562 122.105469 200.394531 120.738281 200.648438 119.304688 C 200.898438 117.871094 202.261719 116.914062 203.691406 117.167969 " fill-opacity="1" fill-rule="nonzero"/><path fill="#000000" d="M 208.34375 120.992188 C 209.71875 121.234375 210.636719 122.550781 210.394531 123.925781 C 210.152344 125.304688 208.839844 126.226562 207.46875 125.984375 C 206.09375 125.738281 205.175781 124.425781 205.417969 123.046875 C 205.660156 121.667969 206.96875 120.75 208.34375 120.992188 " fill-opacity="1" fill-rule="nonzero"/><path fill="#000000" d="M 212.175781 125.609375 C 213.496094 125.84375 214.375 127.105469 214.144531 128.429688 C 213.910156 129.753906 212.652344 130.636719 211.332031 130.402344 C 210.011719 130.167969 209.128906 128.90625 209.363281 127.585938 C 209.59375 126.257812 210.851562 125.375 212.175781 125.609375 " fill-opacity="1" fill-rule="nonzero"/><path fill="#000000" d="M 215.074219 130.878906 C 216.34375 131.101562 217.1875 132.3125 216.964844 133.582031 C 216.742188 134.851562 215.535156 135.699219 214.265625 135.472656 C 213.003906 135.25 212.15625 134.039062 212.378906 132.769531 C 212.601562 131.5 213.808594 130.652344 215.074219 130.878906 " fill-opacity="1" fill-rule="nonzero"/><path fill="#000000" d="M 216.953125 136.652344 C 218.164062 136.867188 218.972656 138.023438 218.757812 139.238281 C 218.546875 140.453125 217.390625 141.265625 216.179688 141.050781 C 214.96875 140.835938 214.15625 139.679688 214.371094 138.464844 C 214.585938 137.25 215.742188 136.4375 216.953125 136.652344 " fill-opacity="1" fill-rule="nonzero"/><path fill="#000000" d="M 217.699219 142.785156 C 218.859375 142.992188 219.628906 144.097656 219.425781 145.257812 C 219.222656 146.417969 218.117188 147.195312 216.960938 146.992188 C 215.804688 146.785156 215.03125 145.679688 215.234375 144.519531 C 215.441406 143.359375 216.542969 142.582031 217.699219 142.785156 " fill-opacity="1" fill-rule="nonzero"/><path fill="#000000" d="M 217.21875 149.140625 C 218.320312 149.335938 219.058594 150.390625 218.867188 151.496094 C 218.671875 152.601562 217.617188 153.339844 216.515625 153.144531 C 215.414062 152.949219 214.675781 151.898438 214.871094 150.789062 C 215.066406 149.683594 216.117188 148.945312 217.21875 149.140625 " fill-opacity="1" fill-rule="nonzero"/><path fill="#000000" d="M 215.503906 155.277344 C 216.550781 155.460938 217.253906 156.464844 217.066406 157.515625 C 216.882812 158.566406 215.882812 159.269531 214.835938 159.082031 C 213.785156 158.898438 213.085938 157.894531 213.269531 156.84375 C 213.457031 155.792969 214.457031 155.089844 215.503906 155.277344 " fill-opacity="1" fill-rule="nonzero"/><path fill="#000000" d="M 212.707031 160.785156 C 213.703125 160.960938 214.367188 161.910156 214.1875 162.910156 C 214.015625 163.90625 213.066406 164.570312 212.074219 164.394531 C 211.078125 164.21875 210.414062 163.265625 210.589844 162.269531 C 210.765625 161.273438 211.714844 160.609375 212.707031 160.785156 " fill-opacity="1" fill-rule="nonzero"/><path fill="#000000" d="M 208.976562 165.566406 C 209.914062 165.734375 210.542969 166.632812 210.378906 167.574219 C 210.210938 168.519531 209.316406 169.144531 208.375 168.980469 C 207.4375 168.8125 206.808594 167.914062 206.976562 166.972656 C 207.140625 166.03125 208.035156 165.402344 208.976562 165.566406 " fill-opacity="1" fill-rule="nonzero"/><path fill="#000000" d="M 204.453125 169.523438 C 205.335938 169.679688 205.925781 170.527344 205.773438 171.414062 C 205.617188 172.300781 204.773438 172.894531 203.886719 172.738281 C 203 172.582031 202.410156 171.734375 202.566406 170.847656 C 202.722656 169.960938 203.566406 169.367188 204.453125 169.523438 " fill-opacity="1" fill-rule="nonzero"/><path fill="#000000" d="M 199.277344 172.550781 C 200.109375 172.695312 200.664062 173.488281 200.515625 174.324219 C 200.371094 175.15625 199.578125 175.714844 198.746094 175.566406 C 197.917969 175.417969 197.363281 174.625 197.507812 173.792969 C 197.65625 172.957031 198.445312 172.402344 199.277344 172.550781 " fill-opacity="1" fill-rule="nonzero"/><path fill="#000000" d="M 193.601562 174.546875 C 194.378906 174.683594 194.894531 175.425781 194.757812 176.203125 C 194.621094 176.984375 193.882812 177.503906 193.105469 177.367188 C 192.328125 177.226562 191.808594 176.484375 191.945312 175.707031 C 192.082031 174.929688 192.824219 174.410156 193.601562 174.546875 " fill-opacity="1" fill-rule="nonzero"/><path fill="#000000" d="M 187.5625 175.414062 C 188.285156 175.539062 188.765625 176.230469 188.640625 176.953125 C 188.511719 177.679688 187.824219 178.164062 187.101562 178.035156 C 186.378906 177.90625 185.898438 177.21875 186.023438 176.492188 C 186.152344 175.769531 186.839844 175.285156 187.5625 175.414062 " fill-opacity="1" fill-rule="nonzero"/><path fill="#000000" d="M 181.304688 175.046875 C 181.972656 175.164062 182.417969 175.804688 182.300781 176.472656 C 182.183594 177.140625 181.546875 177.589844 180.878906 177.472656 C 180.210938 177.355469 179.765625 176.714844 179.882812 176.046875 C 180.003906 175.375 180.640625 174.929688 181.304688 175.046875 " fill-opacity="1" fill-rule="nonzero"/><path fill="#000000" d="M 175.269531 173.441406 C 175.882812 173.550781 176.292969 174.136719 176.183594 174.753906 C 176.078125 175.367188 175.492188 175.777344 174.878906 175.671875 C 174.261719 175.5625 173.855469 174.976562 173.960938 174.359375 C 174.070312 173.746094 174.65625 173.335938 175.269531 173.441406 " fill-opacity="1" fill-rule="nonzero"/><path fill="#000000" d="M 169.855469 170.757812 C 170.414062 170.855469 170.789062 171.386719 170.6875 171.949219 C 170.589844 172.507812 170.058594 172.882812 169.5 172.785156 C 168.941406 172.6875 168.566406 172.152344 168.664062 171.589844 C 168.765625 171.03125 169.296875 170.65625 169.855469 170.757812 " fill-opacity="1" fill-rule="nonzero"/><path fill="#000000" d="M 165.164062 167.128906 C 165.671875 167.21875 166.007812 167.699219 165.917969 168.207031 C 165.832031 168.710938 165.347656 169.050781 164.84375 168.960938 C 164.339844 168.871094 164.003906 168.390625 164.089844 167.882812 C 164.179688 167.378906 164.664062 167.039062 165.164062 167.128906 " fill-opacity="1" fill-rule="nonzero"/><path fill="#000000" d="M 161.304688 162.707031 C 161.753906 162.789062 162.054688 163.21875 161.972656 163.671875 C 161.894531 164.121094 161.464844 164.421875 161.015625 164.34375 C 160.566406 164.265625 160.265625 163.835938 160.34375 163.382812 C 160.421875 162.929688 160.851562 162.628906 161.304688 162.707031 " fill-opacity="1" fill-rule="nonzero"/><path fill="#000000" d="M 158.363281 157.636719 C 158.761719 157.707031 159.027344 158.085938 158.957031 158.484375 C 158.886719 158.878906 158.507812 159.144531 158.113281 159.074219 C 157.71875 159.007812 157.453125 158.625 157.523438 158.230469 C 157.589844 157.832031 157.96875 157.570312 158.363281 157.636719 " fill-opacity="1" fill-rule="nonzero"/><path fill="#000000" d="M 156.457031 152.0625 C 156.796875 152.121094 157.023438 152.449219 156.964844 152.789062 C 156.902344 153.132812 156.578125 153.359375 156.238281 153.300781 C 155.894531 153.242188 155.667969 152.914062 155.726562 152.570312 C 155.789062 152.230469 156.113281 152 156.457031 152.0625 " fill-opacity="1" fill-rule="nonzero"/><path fill="#000000" d="M 155.671875 146.121094 C 155.960938 146.171875 156.152344 146.449219 156.101562 146.734375 C 156.050781 147.023438 155.777344 147.214844 155.488281 147.164062 C 155.203125 147.113281 155.011719 146.839844 155.0625 146.554688 C 155.109375 146.265625 155.386719 146.070312 155.671875 146.121094 " fill-opacity="1" fill-rule="nonzero"/><path fill="#000000" d="M 156.117188 139.96875 C 156.351562 140.007812 156.507812 140.230469 156.464844 140.464844 C 156.421875 140.699219 156.203125 140.851562 155.96875 140.8125 C 155.734375 140.769531 155.582031 140.546875 155.621094 140.316406 C 155.664062 140.082031 155.882812 139.925781 156.117188 139.96875 " fill-opacity="1" fill-rule="nonzero"/><path fill="#000000" d="M 199.992188 121.933594 C 201.074219 122.558594 201.445312 123.949219 200.820312 125.03125 C 200.195312 126.117188 198.8125 126.488281 197.730469 125.863281 C 196.648438 125.234375 196.277344 123.847656 196.902344 122.765625 C 197.527344 121.679688 198.910156 121.308594 199.992188 121.933594 " fill-opacity="1" fill-rule="nonzero"/><path fill="#000000" d="M 204.011719 124.9375 C 205.054688 125.539062 205.414062 126.878906 204.8125 127.921875 C 204.207031 128.96875 202.875 129.328125 201.832031 128.726562 C 200.785156 128.121094 200.429688 126.78125 201.03125 125.734375 C 201.632812 124.691406 202.96875 124.332031 204.011719 124.9375 " fill-opacity="1" fill-rule="nonzero"/><path fill="#000000" d="M 207.269531 128.582031 C 208.273438 129.164062 208.621094 130.449219 208.039062 131.460938 C 207.457031 132.46875 206.171875 132.8125 205.167969 132.230469 C 204.160156 131.648438 203.816406 130.359375 204.398438 129.351562 C 204.976562 128.34375 206.261719 127.996094 207.269531 128.582031 " fill-opacity="1" fill-rule="nonzero"/><path fill="#000000" d="M 209.726562 132.730469 C 210.691406 133.289062 211.023438 134.53125 210.464844 135.5 C 209.90625 136.46875 208.667969 136.804688 207.703125 136.242188 C 206.734375 135.683594 206.402344 134.445312 206.960938 133.472656 C 207.519531 132.503906 208.757812 132.171875 209.726562 132.730469 " fill-opacity="1" fill-rule="nonzero"/><path fill="#000000" d="M 211.34375 137.253906 C 212.269531 137.789062 212.589844 138.980469 212.054688 139.914062 C 211.519531 140.84375 210.328125 141.164062 209.398438 140.625 C 208.472656 140.089844 208.152344 138.898438 208.691406 137.964844 C 209.226562 137.035156 210.414062 136.714844 211.34375 137.253906 " fill-opacity="1" fill-rule="nonzero"/><path fill="#000000" d="M 212.085938 142.011719 C 212.976562 142.527344 213.28125 143.667969 212.769531 144.558594 C 212.253906 145.453125 211.113281 145.757812 210.226562 145.242188 C 209.335938 144.726562 209.027344 143.585938 209.542969 142.695312 C 210.058594 141.800781 211.195312 141.496094 212.085938 142.011719 " fill-opacity="1" fill-rule="nonzero"/><path fill="#000000" d="M 211.921875 146.863281 C 212.773438 147.359375 213.066406 148.453125 212.574219 149.304688 C 212.082031 150.160156 210.992188 150.453125 210.136719 149.960938 C 209.285156 149.464844 208.996094 148.375 209.484375 147.519531 C 209.980469 146.664062 211.070312 146.371094 211.921875 146.863281 " fill-opacity="1" fill-rule="nonzero"/><path fill="#000000" d="M 210.808594 151.683594 C 211.625 152.15625 211.902344 153.199219 211.433594 154.015625 C 210.960938 154.832031 209.921875 155.109375 209.109375 154.636719 C 208.292969 154.167969 208.015625 153.125 208.484375 152.308594 C 208.953125 151.492188 209.996094 151.210938 210.808594 151.683594 " fill-opacity="1" fill-rule="nonzero"/><path fill="#000000" d="M 208.714844 156.328125 C 209.492188 156.777344 209.753906 157.773438 209.308594 158.550781 C 208.859375 159.328125 207.867188 159.59375 207.09375 159.144531 C 206.316406 158.695312 206.050781 157.699219 206.5 156.921875 C 206.945312 156.144531 207.9375 155.878906 208.714844 156.328125 " fill-opacity="1" fill-rule="nonzero"/><path fill="#000000" d="M 205.75 160.46875 C 206.488281 160.894531 206.742188 161.839844 206.316406 162.582031 C 205.890625 163.320312 204.945312 163.574219 204.207031 163.148438 C 203.46875 162.71875 203.21875 161.773438 203.644531 161.035156 C 204.070312 160.296875 205.011719 160.042969 205.75 160.46875 " fill-opacity="1" fill-rule="nonzero"/><path fill="#000000" d="M 202.144531 163.84375 C 202.84375 164.25 203.082031 165.144531 202.679688 165.84375 C 202.277344 166.546875 201.382812 166.789062 200.683594 166.382812 C 199.984375 165.980469 199.742188 165.082031 200.148438 164.378906 C 200.550781 163.679688 201.445312 163.4375 202.144531 163.84375 " fill-opacity="1" fill-rule="nonzero"/><path fill="#000000" d="M 198.035156 166.414062 C 198.695312 166.796875 198.921875 167.644531 198.539062 168.308594 C 198.160156 168.96875 197.3125 169.199219 196.652344 168.816406 C 195.992188 168.433594 195.765625 167.585938 196.144531 166.921875 C 196.527344 166.257812 197.375 166.03125 198.035156 166.414062 " fill-opacity="1" fill-rule="nonzero"/><path fill="#000000" d="M 193.554688 168.148438 C 194.175781 168.507812 194.390625 169.304688 194.03125 169.929688 C 193.667969 170.554688 192.875 170.769531 192.25 170.40625 C 191.628906 170.046875 191.414062 169.25 191.773438 168.625 C 192.132812 168 192.929688 167.785156 193.554688 168.148438 " fill-opacity="1" fill-rule="nonzero"/><path fill="#000000" d="M 188.839844 169.003906 C 189.421875 169.34375 189.625 170.089844 189.285156 170.675781 C 188.949219 171.261719 188.199219 171.464844 187.617188 171.125 C 187.03125 170.785156 186.832031 170.039062 187.167969 169.449219 C 187.507812 168.863281 188.253906 168.664062 188.839844 169.003906 " fill-opacity="1" fill-rule="nonzero"/><path fill="#000000" d="M 184.027344 168.945312 C 184.570312 169.261719 184.757812 169.964844 184.445312 170.511719 C 184.128906 171.058594 183.429688 171.246094 182.882812 170.929688 C 182.335938 170.613281 182.148438 169.914062 182.464844 169.363281 C 182.78125 168.820312 183.480469 168.628906 184.027344 168.945312 " fill-opacity="1" fill-rule="nonzero"/><path fill="#000000" d="M 179.25 167.941406 C 179.757812 168.234375 179.929688 168.886719 179.640625 169.394531 C 179.34375 169.90625 178.695312 170.078125 178.1875 169.785156 C 177.679688 169.492188 177.503906 168.839844 177.796875 168.332031 C 178.089844 167.820312 178.742188 167.648438 179.25 167.941406 " fill-opacity="1" fill-rule="nonzero"/><path fill="#000000" d="M 174.644531 165.949219 C 175.117188 166.222656 175.277344 166.824219 175.007812 167.296875 C 174.734375 167.765625 174.136719 167.929688 173.664062 167.65625 C 173.195312 167.382812 173.035156 166.78125 173.304688 166.308594 C 173.574219 165.839844 174.175781 165.675781 174.644531 165.949219 " fill-opacity="1" fill-rule="nonzero"/><path fill="#000000" d="M 170.546875 163.089844 C 170.976562 163.335938 171.125 163.890625 170.875 164.324219 C 170.628906 164.757812 170.074219 164.902344 169.644531 164.652344 C 169.210938 164.40625 169.0625 163.851562 169.3125 163.417969 C 169.5625 162.988281 170.113281 162.835938 170.546875 163.089844 " fill-opacity="1" fill-rule="nonzero"/><path fill="#000000" d="M 167.210938 159.582031 C 167.601562 159.808594 167.738281 160.3125 167.511719 160.707031 C 167.285156 161.101562 166.78125 161.238281 166.386719 161.007812 C 165.996094 160.78125 165.859375 160.277344 166.085938 159.882812 C 166.3125 159.488281 166.816406 159.355469 167.210938 159.582031 " fill-opacity="1" fill-rule="nonzero"/><path fill="#000000" d="M 164.675781 155.570312 C 165.03125 155.777344 165.152344 156.230469 164.945312 156.585938 C 164.738281 156.941406 164.285156 157.0625 163.933594 156.859375 C 163.578125 156.652344 163.457031 156.199219 163.660156 155.84375 C 163.863281 155.484375 164.320312 155.363281 164.675781 155.570312 " fill-opacity="1" fill-rule="nonzero"/><path fill="#000000" d="M 162.976562 151.1875 C 163.292969 151.371094 163.402344 151.773438 163.21875 152.09375 C 163.035156 152.410156 162.628906 152.519531 162.3125 152.335938 C 161.996094 152.152344 161.886719 151.746094 162.070312 151.429688 C 162.253906 151.113281 162.660156 151.003906 162.976562 151.1875 " fill-opacity="1" fill-rule="nonzero"/><path fill="#000000" d="M 162.152344 146.570312 C 162.429688 146.730469 162.523438 147.085938 162.363281 147.367188 C 162.203125 147.644531 161.847656 147.742188 161.570312 147.578125 C 161.289062 147.417969 161.195312 147.0625 161.355469 146.78125 C 161.515625 146.503906 161.871094 146.410156 162.152344 146.570312 " fill-opacity="1" fill-rule="nonzero"/><path fill="#000000" d="M 162.238281 141.851562 C 162.476562 141.992188 162.558594 142.300781 162.421875 142.539062 C 162.28125 142.78125 161.976562 142.863281 161.734375 142.722656 C 161.496094 142.585938 161.414062 142.277344 161.550781 142.035156 C 161.691406 141.796875 161.996094 141.714844 162.238281 141.851562 " fill-opacity="1" fill-rule="nonzero"/><path fill="#000000" d="M 163.269531 137.171875 C 163.472656 137.292969 163.539062 137.550781 163.421875 137.75 C 163.308594 137.953125 163.046875 138.023438 162.847656 137.90625 C 162.644531 137.789062 162.574219 137.53125 162.691406 137.328125 C 162.808594 137.125 163.066406 137.054688 163.269531 137.171875 " fill-opacity="1" fill-rule="nonzero"/><path fill="#000000" d="M 165.285156 132.667969 C 165.449219 132.761719 165.503906 132.972656 165.410156 133.136719 C 165.3125 133.300781 165.105469 133.355469 164.941406 133.261719 C 164.777344 133.167969 164.722656 132.957031 164.816406 132.792969 C 164.910156 132.628906 165.121094 132.574219 165.285156 132.667969 " fill-opacity="1" fill-rule="nonzero"/><path fill="#000000" d="M 203.1875 131.148438 C 203.832031 131.917969 203.730469 133.058594 202.964844 133.703125 C 202.199219 134.347656 201.058594 134.25 200.414062 133.480469 C 199.773438 132.714844 199.871094 131.566406 200.636719 130.925781 C 201.402344 130.28125 202.542969 130.382812 203.1875 131.148438 " fill-opacity="1" fill-rule="nonzero"/><path fill="#000000" d="M 205.390625 134.507812 C 206.011719 135.246094 205.914062 136.351562 205.175781 136.972656 C 204.4375 137.59375 203.335938 137.5 202.71875 136.757812 C 202.097656 136.015625 202.195312 134.914062 202.929688 134.292969 C 203.671875 133.671875 204.773438 133.769531 205.390625 134.507812 " fill-opacity="1" fill-rule="nonzero"/><path fill="#000000" d="M 206.84375 138.140625 C 207.441406 138.855469 207.347656 139.917969 206.636719 140.515625 C 205.925781 141.113281 204.863281 141.023438 204.269531 140.308594 C 203.671875 139.59375 203.765625 138.53125 204.476562 137.933594 C 205.1875 137.335938 206.246094 137.429688 206.84375 138.140625 " fill-opacity="1" fill-rule="nonzero"/><path fill="#000000" d="M 207.558594 141.933594 C 208.132812 142.621094 208.042969 143.644531 207.359375 144.222656 C 206.671875 144.796875 205.652344 144.707031 205.078125 144.019531 C 204.503906 143.332031 204.59375 142.3125 205.277344 141.734375 C 205.964844 141.160156 206.984375 141.25 207.558594 141.933594 " fill-opacity="1" fill-rule="nonzero"/><path fill="#000000" d="M 207.539062 145.777344 C 208.089844 146.4375 208.003906 147.421875 207.347656 147.972656 C 206.691406 148.527344 205.710938 148.441406 205.160156 147.78125 C 204.609375 147.121094 204.695312 146.140625 205.351562 145.585938 C 206.007812 145.03125 206.988281 145.117188 207.539062 145.777344 " fill-opacity="1" fill-rule="nonzero"/><path fill="#000000" d="M 206.800781 149.558594 C 207.332031 150.191406 207.246094 151.132812 206.617188 151.664062 C 205.988281 152.191406 205.050781 152.109375 204.519531 151.480469 C 203.992188 150.847656 204.074219 149.90625 204.703125 149.375 C 205.332031 148.84375 206.273438 148.925781 206.800781 149.558594 " fill-opacity="1" fill-rule="nonzero"/><path fill="#000000" d="M 205.351562 153.164062 C 205.859375 153.769531 205.777344 154.667969 205.175781 155.175781 C 204.574219 155.683594 203.675781 155.605469 203.167969 155 C 202.660156 154.394531 202.738281 153.496094 203.34375 152.988281 C 203.945312 152.480469 204.847656 152.558594 205.351562 153.164062 " fill-opacity="1" fill-rule="nonzero"/><path fill="#000000" d="M 203.199219 156.480469 C 203.683594 157.058594 203.609375 157.917969 203.035156 158.402344 C 202.457031 158.886719 201.597656 158.8125 201.117188 158.234375 C 200.632812 157.65625 200.707031 156.796875 201.28125 156.3125 C 201.859375 155.828125 202.71875 155.902344 203.199219 156.480469 " fill-opacity="1" fill-rule="nonzero"/><path fill="#000000" d="M 200.359375 159.398438 C 200.820312 159.945312 200.75 160.769531 200.199219 161.230469 C 199.648438 161.691406 198.832031 161.621094 198.371094 161.070312 C 197.910156 160.519531 197.980469 159.699219 198.53125 159.234375 C 199.082031 158.773438 199.898438 158.847656 200.359375 159.398438 " fill-opacity="1" fill-rule="nonzero"/><path fill="#000000" d="M 197 161.695312 C 197.4375 162.21875 197.371094 163 196.847656 163.441406 C 196.328125 163.878906 195.546875 163.808594 195.109375 163.285156 C 194.671875 162.765625 194.742188 161.984375 195.261719 161.546875 C 195.785156 161.105469 196.5625 161.171875 197 161.695312 " fill-opacity="1" fill-rule="nonzero"/><path fill="#000000" d="M 193.371094 163.246094 C 193.785156 163.742188 193.71875 164.480469 193.226562 164.894531 C 192.730469 165.3125 191.992188 165.246094 191.578125 164.753906 C 191.160156 164.257812 191.226562 163.515625 191.722656 163.101562 C 192.21875 162.683594 192.953125 162.75 193.371094 163.246094 " fill-opacity="1" fill-rule="nonzero"/><path fill="#000000" d="M 189.578125 164.050781 C 189.96875 164.519531 189.910156 165.21875 189.441406 165.613281 C 188.972656 166.003906 188.277344 165.941406 187.882812 165.476562 C 187.492188 165.003906 187.550781 164.308594 188.019531 163.914062 C 188.488281 163.519531 189.183594 163.582031 189.578125 164.050781 " fill-opacity="1" fill-rule="nonzero"/><path fill="#000000" d="M 185.734375 164.121094 C 186.105469 164.566406 186.046875 165.222656 185.609375 165.59375 C 185.167969 165.964844 184.511719 165.90625 184.140625 165.464844 C 183.773438 165.023438 183.828125 164.363281 184.269531 163.992188 C 184.710938 163.625 185.367188 163.679688 185.734375 164.121094 " fill-opacity="1" fill-rule="nonzero"/><path fill="#000000" d="M 181.957031 163.472656 C 182.304688 163.886719 182.25 164.507812 181.835938 164.851562 C 181.425781 165.203125 180.808594 165.148438 180.460938 164.730469 C 180.113281 164.316406 180.167969 163.699219 180.582031 163.351562 C 180.992188 163.003906 181.609375 163.058594 181.957031 163.472656 " fill-opacity="1" fill-rule="nonzero"/><path fill="#000000" d="M 178.355469 162.109375 C 178.679688 162.496094 178.628906 163.074219 178.242188 163.398438 C 177.855469 163.726562 177.28125 163.675781 176.957031 163.289062 C 176.632812 162.902344 176.683594 162.320312 177.070312 161.996094 C 177.453125 161.671875 178.03125 161.722656 178.355469 162.109375 " fill-opacity="1" fill-rule="nonzero"/><path fill="#000000" d="M 175.039062 160.042969 C 175.339844 160.40625 175.292969 160.941406 174.9375 161.246094 C 174.574219 161.546875 174.039062 161.5 173.738281 161.136719 C 173.4375 160.777344 173.484375 160.238281 173.84375 159.9375 C 174.203125 159.636719 174.738281 159.683594 175.039062 160.042969 " fill-opacity="1" fill-rule="nonzero"/><path fill="#000000" d="M 172.125 157.285156 C 172.402344 157.617188 172.359375 158.113281 172.027344 158.394531 C 171.691406 158.671875 171.199219 158.628906 170.917969 158.296875 C 170.640625 157.964844 170.683594 157.464844 171.015625 157.1875 C 171.347656 156.90625 171.84375 156.949219 172.125 157.285156 " fill-opacity="1" fill-rule="nonzero"/><path fill="#000000" d="M 169.820312 154.007812 C 170.078125 154.3125 170.039062 154.769531 169.730469 155.027344 C 169.425781 155.28125 168.972656 155.242188 168.714844 154.9375 C 168.460938 154.632812 168.5 154.175781 168.804688 153.917969 C 169.109375 153.660156 169.566406 153.703125 169.820312 154.007812 " fill-opacity="1" fill-rule="nonzero"/><path fill="#000000" d="M 168.269531 150.457031 C 168.503906 150.734375 168.46875 151.152344 168.1875 151.386719 C 167.910156 151.621094 167.496094 151.582031 167.261719 151.304688 C 167.027344 151.023438 167.0625 150.609375 167.34375 150.375 C 167.621094 150.140625 168.035156 150.175781 168.269531 150.457031 " fill-opacity="1" fill-rule="nonzero"/><path fill="#000000" d="M 167.457031 146.746094 C 167.667969 146.996094 167.636719 147.371094 167.386719 147.582031 C 167.136719 147.792969 166.757812 147.761719 166.546875 147.511719 C 166.335938 147.257812 166.371094 146.882812 166.621094 146.671875 C 166.871094 146.460938 167.25 146.492188 167.457031 146.746094 " fill-opacity="1" fill-rule="nonzero"/><path fill="#000000" d="M 167.378906 142.984375 C 167.566406 143.210938 167.539062 143.542969 167.3125 143.734375 C 167.089844 143.921875 166.753906 143.890625 166.566406 143.667969 C 166.378906 143.441406 166.40625 143.109375 166.632812 142.917969 C 166.855469 142.730469 167.191406 142.757812 167.378906 142.984375 " fill-opacity="1" fill-rule="nonzero"/><path fill="#000000" d="M 168.019531 139.285156 C 168.183594 139.484375 168.15625 139.777344 167.960938 139.945312 C 167.765625 140.109375 167.46875 140.082031 167.304688 139.886719 C 167.140625 139.6875 167.164062 139.394531 167.363281 139.230469 C 167.558594 139.0625 167.851562 139.089844 168.019531 139.285156 " fill-opacity="1" fill-rule="nonzero"/><path fill="#000000" d="M 169.371094 135.765625 C 169.511719 135.933594 169.488281 136.1875 169.320312 136.332031 C 169.152344 136.472656 168.898438 136.453125 168.753906 136.28125 C 168.613281 136.113281 168.632812 135.855469 168.804688 135.714844 C 168.972656 135.570312 169.226562 135.59375 169.371094 135.765625 " fill-opacity="1" fill-rule="nonzero"/><path fill="#000000" d="M 171.421875 132.53125 C 171.542969 132.671875 171.523438 132.886719 171.378906 133.007812 C 171.238281 133.128906 171.023438 133.109375 170.90625 132.964844 C 170.785156 132.824219 170.804688 132.609375 170.945312 132.488281 C 171.089844 132.367188 171.300781 132.386719 171.421875 132.53125 " fill-opacity="1" fill-rule="nonzero"/><path fill="#000000" d="M 174.167969 129.695312 C 174.261719 129.8125 174.25 129.984375 174.132812 130.082031 C 174.015625 130.179688 173.84375 130.164062 173.746094 130.046875 C 173.648438 129.929688 173.664062 129.757812 173.78125 129.660156 C 173.894531 129.566406 174.070312 129.578125 174.167969 129.695312 " fill-opacity="1" fill-rule="nonzero"/><g fill="#000000" fill-opacity="1"><g transform="translate(52.723223, 286.63055)"><g><path d="M 34.515625 -17.46875 L 42.84375 -17.46875 C 42.5625 -14.914062 41.835938 -12.539062 40.671875 -10.34375 C 39.503906 -8.15625 38 -6.238281 36.15625 -4.59375 C 34.3125 -2.945312 32.222656 -1.65625 29.890625 -0.71875 C 27.554688 0.21875 25.078125 0.6875 22.453125 0.6875 C 19.628906 0.6875 16.984375 0.15625 14.515625 -0.90625 C 12.054688 -1.96875 9.894531 -3.4375 8.03125 -5.3125 C 6.175781 -7.1875 4.726562 -9.351562 3.6875 -11.8125 C 2.644531 -14.269531 2.125 -16.914062 2.125 -19.75 C 2.125 -22.582031 2.644531 -25.238281 3.6875 -27.71875 C 4.726562 -30.195312 6.175781 -32.375 8.03125 -34.25 C 9.894531 -36.125 12.054688 -37.59375 14.515625 -38.65625 C 16.984375 -39.71875 19.613281 -40.25 22.40625 -40.25 C 26.082031 -40.25 29.46875 -39.367188 32.5625 -37.609375 C 35.664062 -35.859375 38.101562 -33.535156 39.875 -30.640625 L 33.453125 -26.0625 C 32.035156 -28.1875 30.359375 -29.769531 28.421875 -30.8125 C 26.492188 -31.863281 24.503906 -32.390625 22.453125 -32.390625 C 20.265625 -32.390625 18.265625 -31.820312 16.453125 -30.6875 C 14.648438 -29.550781 13.21875 -28.023438 12.15625 -26.109375 C 11.09375 -24.203125 10.5625 -22.082031 10.5625 -19.75 C 10.5625 -17.445312 11.09375 -15.335938 12.15625 -13.421875 C 13.21875 -11.515625 14.648438 -10.003906 16.453125 -8.890625 C 18.265625 -7.773438 20.265625 -7.21875 22.453125 -7.21875 C 24.441406 -7.21875 26.273438 -7.660156 27.953125 -8.546875 C 29.628906 -9.429688 31.050781 -10.644531 32.21875 -12.1875 C 33.394531 -13.726562 34.160156 -15.488281 34.515625 -17.46875 Z M 34.515625 -17.46875 "/></g></g></g><g fill="#000000" fill-opacity="1"><g transform="translate(97.680739, 286.63055)"><g><path d="M 16.140625 -6.84375 L 12 -6.84375 L 12 0 L 3.765625 0 L 3.765625 -39.5625 L 17.515625 -39.5625 C 19.859375 -39.5625 22.019531 -39.160156 24 -38.359375 C 25.976562 -37.566406 27.710938 -36.453125 29.203125 -35.015625 C 30.691406 -33.578125 31.847656 -31.921875 32.671875 -30.046875 C 33.503906 -28.171875 33.921875 -26.15625 33.921875 -24 C 33.921875 -20.457031 33.125 -17.410156 31.53125 -14.859375 C 29.9375 -12.316406 27.757812 -10.40625 25 -9.125 L 33.5625 0 L 22.625 0 Z M 12 -14.28125 L 15.390625 -14.28125 C 18.648438 -14.28125 21.144531 -15.054688 22.875 -16.609375 C 24.613281 -18.171875 25.484375 -20.421875 25.484375 -23.359375 C 25.484375 -24.984375 25.164062 -26.453125 24.53125 -27.765625 C 23.894531 -29.078125 22.945312 -30.128906 21.6875 -30.921875 C 20.425781 -31.722656 18.859375 -32.125 16.984375 -32.125 L 12 -32.125 Z M 12 -14.28125 "/></g></g></g><g fill="#000000" fill-opacity="1"><g transform="translate(133.508741, 286.63055)"><g><path d="M 28.296875 0 L 3.765625 0 L 3.765625 -39.5625 L 24.796875 -39.5625 L 24.796875 -32.125 L 12 -32.125 L 12 -24.734375 L 26.859375 -24.734375 L 26.859375 -17.359375 L 12 -17.359375 L 12 -7.4375 L 28.296875 -7.4375 Z M 28.296875 0 "/></g></g></g><g fill="#000000" fill-opacity="1"><g transform="translate(163.922737, 286.63055)"><g><path d="M 32.5 0 L 29.890625 -5.3125 L 10.71875 -5.3125 L 8.171875 0 L -0.3125 0 L 20.546875 -40.25 L 41.46875 0 Z M 20.234375 -25.0625 L 14.28125 -12.75 L 26.28125 -12.75 Z M 20.234375 -25.0625 "/></g></g></g><g fill="#000000" fill-opacity="1"><g transform="translate(205.058599, 286.63055)"><g><path d="M 19 0 L 10.78125 0 L 10.78125 -32.125 L 1.015625 -32.125 L 1.015625 -39.5625 L 29.40625 -39.5625 L 29.40625 -32.125 L 19 -32.125 Z M 19 0 "/></g></g></g><g fill="#000000" fill-opacity="1"><g transform="translate(235.472595, 286.63055)"><g><path d="M 12 -39.5625 L 12 0 L 3.765625 0 L 3.765625 -39.5625 Z M 12 -39.5625 "/></g></g></g><g fill="#000000" fill-opacity="1"><g transform="translate(251.236909, 286.63055)"><g><path d="M 21.125 -16.359375 L 32.4375 -39.5625 L 40.9375 -39.5625 L 20.8125 0.6875 L -0.3125 -39.5625 L 9.125 -39.5625 Z M 21.125 -16.359375 "/></g></g></g><g fill="#000000" fill-opacity="1"><g transform="translate(291.841982, 286.63055)"><g><path d="M 28.296875 0 L 3.765625 0 L 3.765625 -39.5625 L 24.796875 -39.5625 L 24.796875 -32.125 L 12 -32.125 L 12 -24.734375 L 26.859375 -24.734375 L 26.859375 -17.359375 L 12 -17.359375 L 12 -7.4375 L 28.296875 -7.4375 Z M 28.296875 0 "/></g></g></g><g fill="#000000" fill-opacity="1"><g transform="translate(122.16114, 320.698441)"><g><path d="M 2.203125 -18.421875 L 6.578125 -18.421875 L 11.421875 -10.625 L 16.265625 -18.421875 L 20.625 -18.421875 L 20.625 0 L 16.609375 0 L 16.609375 -12.03125 L 11.421875 -4.15625 L 11.3125 -4.15625 L 6.1875 -11.953125 L 6.1875 0 L 2.203125 0 Z M 2.203125 -18.421875 "/></g></g></g><g fill="#000000" fill-opacity="1"><g transform="translate(155.189211, 320.698441)"><g><path d="M 2.390625 -18.421875 L 6.453125 -18.421875 L 6.453125 0 L 2.390625 0 Z M 2.390625 -18.421875 "/></g></g></g><g fill="#000000" fill-opacity="1"><g transform="translate(174.217452, 320.698441)"><g><path d="M 2.203125 -18.421875 L 5.953125 -18.421875 L 14.578125 -7.078125 L 14.578125 -18.421875 L 18.578125 -18.421875 L 18.578125 0 L 15.125 0 L 6.203125 -11.703125 L 6.203125 0 L 2.203125 0 Z M 2.203125 -18.421875 "/></g></g></g><g fill="#000000" fill-opacity="1"><g transform="translate(205.192925, 320.698441)"><g><path d="M 2.203125 -18.421875 L 9.390625 -18.421875 C 10.828125 -18.421875 12.144531 -18.1875 13.34375 -17.71875 C 14.550781 -17.257812 15.585938 -16.613281 16.453125 -15.78125 C 17.328125 -14.957031 18 -13.988281 18.46875 -12.875 C 18.945312 -11.757812 19.1875 -10.554688 19.1875 -9.265625 L 19.1875 -9.203125 C 19.1875 -7.910156 18.945312 -6.703125 18.46875 -5.578125 C 18 -4.453125 17.328125 -3.476562 16.453125 -2.65625 C 15.585938 -1.832031 14.550781 -1.179688 13.34375 -0.703125 C 12.144531 -0.234375 10.828125 0 9.390625 0 L 2.203125 0 Z M 6.265625 -14.765625 L 6.265625 -3.65625 L 9.390625 -3.65625 C 10.210938 -3.65625 10.96875 -3.785156 11.65625 -4.046875 C 12.34375 -4.316406 12.925781 -4.695312 13.40625 -5.1875 C 13.882812 -5.675781 14.257812 -6.253906 14.53125 -6.921875 C 14.8125 -7.585938 14.953125 -8.332031 14.953125 -9.15625 L 14.953125 -9.203125 C 14.953125 -10.015625 14.8125 -10.757812 14.53125 -11.4375 C 14.257812 -12.125 13.882812 -12.710938 13.40625 -13.203125 C 12.925781 -13.703125 12.34375 -14.085938 11.65625 -14.359375 C 10.96875 -14.628906 10.210938 -14.765625 9.390625 -14.765625 Z M 6.265625 -14.765625 "/></g></g></g><g fill="#000000" fill-opacity="1"><g transform="translate(235.957858, 320.698441)"><g><path d="M 8.765625 0.265625 C 7.359375 0.265625 5.976562 0.0234375 4.625 -0.453125 C 3.28125 -0.941406 2.054688 -1.6875 0.953125 -2.6875 L 3.34375 -5.546875 C 4.1875 -4.867188 5.050781 -4.328125 5.9375 -3.921875 C 6.820312 -3.515625 7.789062 -3.3125 8.84375 -3.3125 C 9.6875 -3.3125 10.335938 -3.460938 10.796875 -3.765625 C 11.265625 -4.078125 11.5 -4.503906 11.5 -5.046875 L 11.5 -5.109375 C 11.5 -5.367188 11.445312 -5.597656 11.34375 -5.796875 C 11.25 -6.003906 11.066406 -6.191406 10.796875 -6.359375 C 10.523438 -6.535156 10.148438 -6.710938 9.671875 -6.890625 C 9.191406 -7.066406 8.5625 -7.253906 7.78125 -7.453125 C 6.851562 -7.671875 6.007812 -7.921875 5.25 -8.203125 C 4.5 -8.484375 3.859375 -8.832031 3.328125 -9.25 C 2.804688 -9.664062 2.398438 -10.175781 2.109375 -10.78125 C 1.828125 -11.394531 1.6875 -12.160156 1.6875 -13.078125 L 1.6875 -13.125 C 1.6875 -13.96875 1.84375 -14.726562 2.15625 -15.40625 C 2.46875 -16.082031 2.910156 -16.664062 3.484375 -17.15625 C 4.054688 -17.644531 4.734375 -18.019531 5.515625 -18.28125 C 6.304688 -18.550781 7.175781 -18.6875 8.125 -18.6875 C 9.476562 -18.6875 10.71875 -18.484375 11.84375 -18.078125 C 12.976562 -17.671875 14.019531 -17.09375 14.96875 -16.34375 L 12.859375 -13.28125 C 12.035156 -13.84375 11.226562 -14.285156 10.4375 -14.609375 C 9.65625 -14.941406 8.867188 -15.109375 8.078125 -15.109375 C 7.285156 -15.109375 6.691406 -14.953125 6.296875 -14.640625 C 5.898438 -14.335938 5.703125 -13.957031 5.703125 -13.5 L 5.703125 -13.453125 C 5.703125 -13.148438 5.757812 -12.890625 5.875 -12.671875 C 5.988281 -12.453125 6.195312 -12.253906 6.5 -12.078125 C 6.800781 -11.898438 7.207031 -11.734375 7.71875 -11.578125 C 8.238281 -11.421875 8.894531 -11.238281 9.6875 -11.03125 C 10.613281 -10.78125 11.441406 -10.5 12.171875 -10.1875 C 12.898438 -9.882812 13.515625 -9.519531 14.015625 -9.09375 C 14.515625 -8.664062 14.890625 -8.160156 15.140625 -7.578125 C 15.398438 -6.992188 15.53125 -6.300781 15.53125 -5.5 L 15.53125 -5.453125 C 15.53125 -4.535156 15.363281 -3.722656 15.03125 -3.015625 C 14.695312 -2.304688 14.226562 -1.707031 13.625 -1.21875 C 13.03125 -0.738281 12.320312 -0.367188 11.5 -0.109375 C 10.675781 0.140625 9.765625 0.265625 8.765625 0.265625 Z M 8.765625 0.265625 "/></g></g></g></svg>