<svg xmlns="http://www.w3.org/2000/svg" xmlns:xlink="http://www.w3.org/1999/xlink" width="500" zoomAndPan="magnify" viewBox="0 0 375 374.999991" height="500" preserveAspectRatio="xMidYMid meet" version="1.0"><defs><g/><clipPath id="cd15f60c6d"><path d="M 86.890625 138 L 105 138 L 105 157 L 86.890625 157 Z M 86.890625 138 " clip-rule="nonzero"/></clipPath><clipPath id="47e176c8ae"><path d="M 183 46.867188 L 197 46.867188 L 197 60 L 183 60 Z M 183 46.867188 " clip-rule="nonzero"/></clipPath><clipPath id="fa8cf4f3ab"><path d="M 280.390625 143.386719 L 287.890625 143.386719 L 287.890625 151.234375 L 280.390625 151.234375 Z M 280.390625 143.386719 " clip-rule="nonzero"/></clipPath><clipPath id="0ffe319896"><path d="M 188 240 L 192 240 L 192 243.367188 L 188 243.367188 Z M 188 240 " clip-rule="nonzero"/></clipPath></defs><g clip-path="url(#cd15f60c6d)"><path fill="#ffffff" d="M 86.953125 147.402344 C 86.953125 142.632812 90.820312 138.765625 95.589844 138.765625 C 100.359375 138.765625 104.226562 142.632812 104.226562 147.402344 C 104.226562 152.171875 100.359375 156.039062 95.589844 156.039062 C 90.820312 156.039062 86.953125 152.171875 86.953125 147.402344 " fill-opacity="1" fill-rule="nonzero"/></g><path fill="#ffffff" d="M 89.175781 128.386719 C 89.175781 123.785156 92.90625 120.054688 97.507812 120.054688 C 102.109375 120.054688 105.839844 123.785156 105.839844 128.386719 C 105.839844 132.992188 102.109375 136.722656 97.507812 136.722656 C 92.90625 136.722656 89.175781 132.992188 89.175781 128.386719 " fill-opacity="1" fill-rule="nonzero"/><path fill="#ffffff" d="M 94.976562 110.679688 C 94.976562 106.246094 98.570312 102.652344 103.003906 102.652344 C 107.4375 102.652344 111.03125 106.246094 111.03125 110.679688 C 111.03125 115.113281 107.4375 118.707031 103.003906 118.707031 C 98.570312 118.707031 94.976562 115.113281 94.976562 110.679688 " fill-opacity="1" fill-rule="nonzero"/><path fill="#ffffff" d="M 103.980469 94.65625 C 103.980469 90.390625 107.4375 86.933594 111.703125 86.933594 C 115.964844 86.933594 119.421875 90.390625 119.421875 94.65625 C 119.421875 98.917969 115.964844 102.375 111.703125 102.375 C 107.4375 102.375 103.980469 98.917969 103.980469 94.65625 " fill-opacity="1" fill-rule="nonzero"/><path fill="#ffffff" d="M 115.808594 80.691406 C 115.808594 76.597656 119.125 73.277344 123.222656 73.277344 C 127.316406 73.277344 130.636719 76.597656 130.636719 80.691406 C 130.636719 84.789062 127.316406 88.105469 123.222656 88.105469 C 119.125 88.105469 115.808594 84.789062 115.808594 80.691406 " fill-opacity="1" fill-rule="nonzero"/><path fill="#ffffff" d="M 130.074219 69.171875 C 130.074219 65.246094 133.257812 62.0625 137.183594 62.0625 C 141.109375 62.0625 144.292969 65.246094 144.292969 69.171875 C 144.292969 73.097656 141.109375 76.28125 137.183594 76.28125 C 133.257812 76.28125 130.074219 73.097656 130.074219 69.171875 " fill-opacity="1" fill-rule="nonzero"/><path fill="#ffffff" d="M 146.40625 60.472656 C 146.40625 56.714844 149.449219 53.667969 153.207031 53.667969 C 156.96875 53.667969 160.015625 56.714844 160.015625 60.472656 C 160.015625 64.234375 156.96875 67.277344 153.207031 67.277344 C 149.449219 67.277344 146.40625 64.234375 146.40625 60.472656 " fill-opacity="1" fill-rule="nonzero"/><path fill="#ffffff" d="M 164.417969 54.976562 C 164.417969 51.386719 167.328125 48.476562 170.917969 48.476562 C 174.507812 48.476562 177.417969 51.386719 177.417969 54.976562 C 177.417969 58.566406 174.507812 61.476562 170.917969 61.476562 C 167.328125 61.476562 164.417969 58.566406 164.417969 54.976562 " fill-opacity="1" fill-rule="nonzero"/><g clip-path="url(#47e176c8ae)"><path fill="#ffffff" d="M 183.738281 53.058594 C 183.738281 49.636719 186.511719 46.867188 189.929688 46.867188 C 193.351562 46.867188 196.125 49.636719 196.125 53.058594 C 196.125 56.480469 193.351562 59.253906 189.929688 59.253906 C 186.511719 59.253906 183.738281 56.480469 183.738281 53.058594 " fill-opacity="1" fill-rule="nonzero"/></g><path fill="#ffffff" d="M 203.054688 54.976562 C 203.054688 51.722656 205.691406 49.089844 208.945312 49.089844 C 212.195312 49.089844 214.832031 51.722656 214.832031 54.976562 C 214.832031 58.230469 212.195312 60.867188 208.945312 60.867188 C 205.691406 60.867188 203.054688 58.230469 203.054688 54.976562 " fill-opacity="1" fill-rule="nonzero"/><path fill="#ffffff" d="M 221.070312 60.472656 C 221.070312 57.390625 223.570312 54.890625 226.652344 54.890625 C 229.738281 54.890625 232.238281 57.390625 232.238281 60.472656 C 232.238281 63.558594 229.738281 66.054688 226.652344 66.054688 C 223.570312 66.054688 221.070312 63.558594 221.070312 60.472656 " fill-opacity="1" fill-rule="nonzero"/><path fill="#ffffff" d="M 237.402344 69.171875 C 237.402344 66.257812 239.765625 63.894531 242.679688 63.894531 C 245.59375 63.894531 247.957031 66.257812 247.957031 69.171875 C 247.957031 72.085938 245.59375 74.449219 242.679688 74.449219 C 239.765625 74.449219 237.402344 72.085938 237.402344 69.171875 " fill-opacity="1" fill-rule="nonzero"/><path fill="#ffffff" d="M 251.667969 80.691406 C 251.667969 77.945312 253.894531 75.71875 256.640625 75.71875 C 259.386719 75.71875 261.613281 77.945312 261.613281 80.691406 C 261.613281 83.4375 259.386719 85.664062 256.640625 85.664062 C 253.894531 85.664062 251.667969 83.4375 251.667969 80.691406 " fill-opacity="1" fill-rule="nonzero"/><path fill="#ffffff" d="M 263.492188 94.65625 C 263.492188 92.078125 265.582031 89.988281 268.160156 89.988281 C 270.738281 89.988281 272.828125 92.078125 272.828125 94.65625 C 272.828125 97.230469 270.738281 99.320312 268.160156 99.320312 C 265.582031 99.320312 263.492188 97.230469 263.492188 94.65625 " fill-opacity="1" fill-rule="nonzero"/><path fill="#ffffff" d="M 272.496094 110.679688 C 272.496094 108.269531 274.449219 106.316406 276.859375 106.316406 C 279.265625 106.316406 281.21875 108.269531 281.21875 110.679688 C 281.21875 113.089844 279.265625 115.042969 276.859375 115.042969 C 274.449219 115.042969 272.496094 113.089844 272.496094 110.679688 " fill-opacity="1" fill-rule="nonzero"/><path fill="#ffffff" d="M 278.300781 128.386719 C 278.300781 126.148438 280.117188 124.332031 282.355469 124.332031 C 284.597656 124.332031 286.410156 126.148438 286.410156 128.386719 C 286.410156 130.628906 284.597656 132.445312 282.355469 132.445312 C 280.117188 132.445312 278.300781 130.628906 278.300781 128.386719 " fill-opacity="1" fill-rule="nonzero"/><g clip-path="url(#fa8cf4f3ab)"><path fill="#ffffff" d="M 280.523438 147.402344 C 280.523438 145.332031 282.199219 143.648438 284.273438 143.648438 C 286.34375 143.648438 288.023438 145.332031 288.023438 147.402344 C 288.023438 149.472656 286.34375 151.152344 284.273438 151.152344 C 282.199219 151.152344 280.523438 149.472656 280.523438 147.402344 " fill-opacity="1" fill-rule="nonzero"/></g><path fill="#ffffff" d="M 278.910156 166.414062 C 278.910156 164.511719 280.453125 162.96875 282.355469 162.96875 C 284.257812 162.96875 285.800781 164.511719 285.800781 166.414062 C 285.800781 168.316406 284.257812 169.859375 282.355469 169.859375 C 280.453125 169.859375 278.910156 168.316406 278.910156 166.414062 " fill-opacity="1" fill-rule="nonzero"/><path fill="#ffffff" d="M 273.71875 184.121094 C 273.71875 182.390625 275.125 180.984375 276.859375 180.984375 C 278.59375 180.984375 280 182.390625 280 184.121094 C 280 185.855469 278.59375 187.261719 276.859375 187.261719 C 275.125 187.261719 273.71875 185.855469 273.71875 184.121094 " fill-opacity="1" fill-rule="nonzero"/><path fill="#ffffff" d="M 265.324219 200.148438 C 265.324219 198.582031 266.59375 197.3125 268.160156 197.3125 C 269.726562 197.3125 270.996094 198.582031 270.996094 200.148438 C 270.996094 201.714844 269.726562 202.980469 268.160156 202.980469 C 266.59375 202.980469 265.324219 201.714844 265.324219 200.148438 " fill-opacity="1" fill-rule="nonzero"/><path fill="#ffffff" d="M 254.113281 214.109375 C 254.113281 212.714844 255.246094 211.582031 256.640625 211.582031 C 258.035156 211.582031 259.167969 212.714844 259.167969 214.109375 C 259.167969 215.507812 258.035156 216.640625 256.640625 216.640625 C 255.246094 216.640625 254.113281 215.507812 254.113281 214.109375 " fill-opacity="1" fill-rule="nonzero"/><path fill="#ffffff" d="M 240.457031 225.628906 C 240.457031 224.402344 241.449219 223.40625 242.679688 223.40625 C 243.90625 223.40625 244.902344 224.402344 244.902344 225.628906 C 244.902344 226.859375 243.90625 227.851562 242.679688 227.851562 C 241.449219 227.851562 240.457031 226.859375 240.457031 225.628906 " fill-opacity="1" fill-rule="nonzero"/><path fill="#ffffff" d="M 224.734375 234.328125 C 224.734375 233.269531 225.59375 232.410156 226.652344 232.410156 C 227.710938 232.410156 228.570312 233.269531 228.570312 234.328125 C 228.570312 235.386719 227.710938 236.246094 226.652344 236.246094 C 225.59375 236.246094 224.734375 235.386719 224.734375 234.328125 " fill-opacity="1" fill-rule="nonzero"/><path fill="#ffffff" d="M 207.332031 239.828125 C 207.332031 238.9375 208.054688 238.214844 208.945312 238.214844 C 209.835938 238.214844 210.558594 238.9375 210.558594 239.828125 C 210.558594 240.714844 209.835938 241.4375 208.945312 241.4375 C 208.054688 241.4375 207.332031 240.714844 207.332031 239.828125 " fill-opacity="1" fill-rule="nonzero"/><g clip-path="url(#0ffe319896)"><path fill="#ffffff" d="M 188.625 241.742188 C 188.625 241.023438 189.210938 240.4375 189.929688 240.4375 C 190.652344 240.4375 191.238281 241.023438 191.238281 241.742188 C 191.238281 242.464844 190.652344 243.050781 189.929688 243.050781 C 189.210938 243.050781 188.625 242.464844 188.625 241.742188 " fill-opacity="1" fill-rule="nonzero"/></g><path fill="#ffffff" d="M 111.242188 119.285156 C 112.546875 115.699219 116.511719 113.851562 120.097656 115.15625 C 123.683594 116.460938 125.53125 120.425781 124.230469 124.011719 C 122.921875 127.601562 118.957031 129.449219 115.371094 128.140625 C 111.785156 126.839844 109.9375 122.875 111.242188 119.285156 " fill-opacity="1" fill-rule="nonzero"/><path fill="#ffffff" d="M 118.113281 105.601562 C 119.375 102.140625 123.199219 100.359375 126.65625 101.617188 C 130.117188 102.875 131.902344 106.703125 130.640625 110.160156 C 129.382812 113.621094 125.558594 115.40625 122.097656 114.144531 C 118.640625 112.886719 116.855469 109.0625 118.113281 105.601562 " fill-opacity="1" fill-rule="nonzero"/><path fill="#ffffff" d="M 127.320312 93.875 C 128.535156 90.542969 132.21875 88.824219 135.550781 90.039062 C 138.882812 91.25 140.601562 94.9375 139.390625 98.269531 C 138.175781 101.601562 134.492188 103.320312 131.160156 102.105469 C 127.828125 100.894531 126.109375 97.207031 127.320312 93.875 " fill-opacity="1" fill-rule="nonzero"/><path fill="#ffffff" d="M 138.476562 84.292969 C 139.640625 81.085938 143.1875 79.433594 146.390625 80.601562 C 149.597656 81.769531 151.25 85.3125 150.082031 88.519531 C 148.917969 91.722656 145.371094 93.375 142.167969 92.210938 C 138.960938 91.042969 137.308594 87.5 138.476562 84.292969 " fill-opacity="1" fill-rule="nonzero"/><path fill="#ffffff" d="M 151.183594 77.03125 C 152.304688 73.953125 155.710938 72.363281 158.789062 73.488281 C 161.867188 74.609375 163.453125 78.011719 162.335938 81.089844 C 161.214844 84.167969 157.808594 85.757812 154.730469 84.636719 C 151.652344 83.515625 150.0625 80.109375 151.183594 77.03125 " fill-opacity="1" fill-rule="nonzero"/><path fill="#ffffff" d="M 165.0625 72.277344 C 166.136719 69.324219 169.402344 67.800781 172.355469 68.875 C 175.304688 69.949219 176.828125 73.214844 175.753906 76.167969 C 174.679688 79.121094 171.414062 80.640625 168.460938 79.566406 C 165.511719 78.492188 163.988281 75.226562 165.0625 72.277344 " fill-opacity="1" fill-rule="nonzero"/><path fill="#ffffff" d="M 179.71875 70.207031 C 180.746094 67.378906 183.871094 65.921875 186.699219 66.953125 C 189.523438 67.980469 190.980469 71.105469 189.949219 73.929688 C 188.921875 76.753906 185.796875 78.210938 182.972656 77.183594 C 180.148438 76.15625 178.691406 73.03125 179.71875 70.207031 " fill-opacity="1" fill-rule="nonzero"/><path fill="#ffffff" d="M 194.765625 71.003906 C 195.75 68.304688 198.734375 66.910156 201.429688 67.894531 C 204.128906 68.875 205.519531 71.859375 204.539062 74.558594 C 203.554688 77.257812 200.570312 78.648438 197.875 77.667969 C 195.175781 76.683594 193.785156 73.699219 194.765625 71.003906 " fill-opacity="1" fill-rule="nonzero"/><path fill="#ffffff" d="M 209.8125 74.847656 C 210.75 72.273438 213.59375 70.949219 216.164062 71.886719 C 218.734375 72.820312 220.0625 75.664062 219.125 78.238281 C 218.191406 80.808594 215.347656 82.132812 212.773438 81.199219 C 210.203125 80.261719 208.878906 77.417969 209.8125 74.847656 " fill-opacity="1" fill-rule="nonzero"/><path fill="#ffffff" d="M 223.8125 81.574219 C 224.699219 79.128906 227.40625 77.867188 229.847656 78.757812 C 232.292969 79.648438 233.554688 82.351562 232.664062 84.796875 C 231.777344 87.242188 229.070312 88.5 226.628906 87.613281 C 224.179688 86.722656 222.921875 84.019531 223.8125 81.574219 " fill-opacity="1" fill-rule="nonzero"/><path fill="#ffffff" d="M 235.847656 90.632812 C 236.691406 88.316406 239.257812 87.121094 241.574219 87.964844 C 243.894531 88.808594 245.085938 91.371094 244.242188 93.691406 C 243.398438 96.007812 240.835938 97.203125 238.519531 96.359375 C 236.199219 95.515625 235.007812 92.953125 235.847656 90.632812 " fill-opacity="1" fill-rule="nonzero"/><path fill="#ffffff" d="M 245.746094 101.640625 C 246.542969 99.449219 248.964844 98.320312 251.15625 99.121094 C 253.351562 99.917969 254.480469 102.339844 253.679688 104.53125 C 252.882812 106.722656 250.460938 107.851562 248.269531 107.054688 C 246.078125 106.253906 244.949219 103.835938 245.746094 101.640625 " fill-opacity="1" fill-rule="nonzero"/><path fill="#ffffff" d="M 253.320312 114.207031 C 254.070312 112.140625 256.355469 111.078125 258.417969 111.828125 C 260.484375 112.578125 261.546875 114.863281 260.796875 116.929688 C 260.042969 118.992188 257.761719 120.054688 255.699219 119.304688 C 253.632812 118.554688 252.566406 116.269531 253.320312 114.207031 " fill-opacity="1" fill-rule="nonzero"/><path fill="#ffffff" d="M 258.390625 127.9375 C 259.09375 126 261.238281 125.003906 263.175781 125.707031 C 265.113281 126.414062 266.109375 128.554688 265.40625 130.492188 C 264.699219 132.429688 262.558594 133.429688 260.621094 132.722656 C 258.683594 132.019531 257.683594 129.875 258.390625 127.9375 " fill-opacity="1" fill-rule="nonzero"/><path fill="#ffffff" d="M 260.773438 142.449219 C 261.429688 140.636719 263.433594 139.703125 265.246094 140.363281 C 267.054688 141.023438 267.988281 143.023438 267.332031 144.835938 C 266.671875 146.648438 264.671875 147.578125 262.859375 146.921875 C 261.046875 146.261719 260.113281 144.261719 260.773438 142.449219 " fill-opacity="1" fill-rule="nonzero"/><path fill="#ffffff" d="M 260.289062 157.347656 C 260.902344 155.664062 262.765625 154.796875 264.449219 155.410156 C 266.132812 156.023438 267 157.882812 266.386719 159.570312 C 265.773438 161.253906 263.914062 162.121094 262.230469 161.507812 C 260.546875 160.894531 259.675781 159.03125 260.289062 157.347656 " fill-opacity="1" fill-rule="nonzero"/><path fill="#ffffff" d="M 256.757812 172.25 C 257.324219 170.691406 259.046875 169.890625 260.605469 170.457031 C 262.160156 171.023438 262.964844 172.746094 262.398438 174.300781 C 261.832031 175.859375 260.109375 176.664062 258.550781 176.09375 C 256.996094 175.527344 256.191406 173.808594 256.757812 172.25 " fill-opacity="1" fill-rule="nonzero"/><path fill="#ffffff" d="M 250.34375 186.101562 C 250.867188 184.671875 252.445312 183.933594 253.878906 184.453125 C 255.308594 184.976562 256.042969 186.558594 255.523438 187.988281 C 255.003906 189.417969 253.421875 190.15625 251.992188 189.636719 C 250.5625 189.113281 249.824219 187.53125 250.34375 186.101562 " fill-opacity="1" fill-rule="nonzero"/><path fill="#ffffff" d="M 241.597656 197.996094 C 242.070312 196.691406 243.511719 196.019531 244.816406 196.496094 C 246.117188 196.96875 246.792969 198.410156 246.316406 199.710938 C 245.84375 201.015625 244.402344 201.6875 243.097656 201.214844 C 241.792969 200.738281 241.121094 199.296875 241.597656 197.996094 " fill-opacity="1" fill-rule="nonzero"/><path fill="#ffffff" d="M 230.902344 207.746094 C 231.332031 206.570312 232.632812 205.960938 233.808594 206.390625 C 234.984375 206.816406 235.59375 208.121094 235.164062 209.296875 C 234.734375 210.472656 233.433594 211.078125 232.257812 210.652344 C 231.078125 210.222656 230.472656 208.921875 230.902344 207.746094 " fill-opacity="1" fill-rule="nonzero"/><path fill="#ffffff" d="M 218.652344 215.171875 C 219.03125 214.125 220.195312 213.582031 221.246094 213.964844 C 222.292969 214.347656 222.835938 215.507812 222.453125 216.558594 C 222.070312 217.605469 220.910156 218.148438 219.859375 217.765625 C 218.8125 217.382812 218.269531 216.222656 218.652344 215.171875 " fill-opacity="1" fill-rule="nonzero"/><path fill="#ffffff" d="M 205.234375 220.097656 C 205.566406 219.171875 206.589844 218.699219 207.511719 219.035156 C 208.4375 219.371094 208.910156 220.390625 208.574219 221.3125 C 208.238281 222.238281 207.21875 222.710938 206.292969 222.375 C 205.371094 222.039062 204.898438 221.019531 205.234375 220.097656 " fill-opacity="1" fill-rule="nonzero"/><path fill="#ffffff" d="M 191.035156 222.335938 C 191.324219 221.539062 192.207031 221.128906 193 221.417969 C 193.800781 221.707031 194.207031 222.589844 193.917969 223.382812 C 193.628906 224.179688 192.75 224.589844 191.953125 224.300781 C 191.15625 224.011719 190.746094 223.128906 191.035156 222.335938 " fill-opacity="1" fill-rule="nonzero"/><path fill="#ffffff" d="M 176.449219 221.707031 C 176.691406 221.035156 177.433594 220.691406 178.101562 220.933594 C 178.769531 221.179688 179.117188 221.917969 178.871094 222.589844 C 178.628906 223.257812 177.890625 223.601562 177.21875 223.359375 C 176.550781 223.113281 176.207031 222.375 176.449219 221.707031 " fill-opacity="1" fill-rule="nonzero"/><path fill="#ffffff" d="M 161.859375 218.027344 C 162.058594 217.484375 162.65625 217.207031 163.199219 217.402344 C 163.742188 217.597656 164.023438 218.199219 163.824219 218.742188 C 163.628906 219.285156 163.027344 219.5625 162.484375 219.367188 C 161.941406 219.171875 161.664062 218.570312 161.859375 218.027344 " fill-opacity="1" fill-rule="nonzero"/><path fill="#ffffff" d="M 137.195312 104.796875 C 139.15625 102.457031 142.640625 102.152344 144.980469 104.117188 C 147.320312 106.078125 147.625 109.566406 145.664062 111.902344 C 143.699219 114.242188 140.214844 114.546875 137.875 112.585938 C 135.535156 110.621094 135.230469 107.136719 137.195312 104.796875 " fill-opacity="1" fill-rule="nonzero"/><path fill="#ffffff" d="M 146.105469 96.390625 C 147.996094 94.132812 151.359375 93.839844 153.617188 95.734375 C 155.871094 97.625 156.167969 100.988281 154.273438 103.246094 C 152.382812 105.5 149.015625 105.796875 146.761719 103.902344 C 144.503906 102.007812 144.210938 98.644531 146.105469 96.390625 " fill-opacity="1" fill-rule="nonzero"/><path fill="#ffffff" d="M 156.234375 90.09375 C 158.058594 87.921875 161.296875 87.636719 163.472656 89.460938 C 165.644531 91.285156 165.929688 94.527344 164.105469 96.699219 C 162.28125 98.871094 159.039062 99.15625 156.867188 97.332031 C 154.695312 95.507812 154.410156 92.269531 156.234375 90.09375 " fill-opacity="1" fill-rule="nonzero"/><path fill="#ffffff" d="M 167.242188 85.941406 C 168.996094 83.851562 172.113281 83.578125 174.203125 85.332031 C 176.292969 87.085938 176.566406 90.203125 174.8125 92.292969 C 173.058594 94.386719 169.941406 94.65625 167.851562 92.90625 C 165.761719 91.148438 165.488281 88.03125 167.242188 85.941406 " fill-opacity="1" fill-rule="nonzero"/><path fill="#ffffff" d="M 178.78125 83.960938 C 180.46875 81.953125 183.460938 81.691406 185.46875 83.375 C 187.476562 85.0625 187.738281 88.054688 186.054688 90.0625 C 184.371094 92.070312 181.375 92.332031 179.367188 90.648438 C 177.359375 88.960938 177.097656 85.96875 178.78125 83.960938 " fill-opacity="1" fill-rule="nonzero"/><path fill="#ffffff" d="M 190.515625 84.183594 C 192.132812 82.257812 195.003906 82.007812 196.925781 83.621094 C 198.855469 85.238281 199.101562 88.105469 197.488281 90.035156 C 195.871094 91.957031 193.003906 92.210938 191.078125 90.59375 C 189.152344 88.980469 188.898438 86.109375 190.515625 84.183594 " fill-opacity="1" fill-rule="nonzero"/><path fill="#ffffff" d="M 202.101562 86.636719 C 203.644531 84.792969 206.394531 84.554688 208.238281 86.097656 C 210.078125 87.644531 210.320312 90.394531 208.773438 92.238281 C 207.226562 94.078125 204.480469 94.320312 202.636719 92.773438 C 200.796875 91.226562 200.554688 88.480469 202.101562 86.636719 " fill-opacity="1" fill-rule="nonzero"/><path fill="#ffffff" d="M 213.195312 91.351562 C 214.671875 89.59375 217.292969 89.363281 219.054688 90.839844 C 220.8125 92.316406 221.042969 94.941406 219.566406 96.699219 C 218.089844 98.460938 215.464844 98.6875 213.707031 97.214844 C 211.949219 95.738281 211.71875 93.113281 213.195312 91.351562 " fill-opacity="1" fill-rule="nonzero"/><path fill="#ffffff" d="M 223.453125 98.359375 C 224.863281 96.683594 227.363281 96.464844 229.039062 97.871094 C 230.714844 99.277344 230.9375 101.777344 229.527344 103.457031 C 228.121094 105.132812 225.621094 105.351562 223.941406 103.945312 C 222.265625 102.539062 222.046875 100.039062 223.453125 98.359375 " fill-opacity="1" fill-rule="nonzero"/><path fill="#ffffff" d="M 232.136719 107.246094 C 233.476562 105.652344 235.851562 105.445312 237.445312 106.78125 C 239.039062 108.121094 239.25 110.5 237.910156 112.09375 C 236.574219 113.6875 234.195312 113.894531 232.601562 112.558594 C 231.007812 111.21875 230.800781 108.839844 232.136719 107.246094 " fill-opacity="1" fill-rule="nonzero"/><path fill="#ffffff" d="M 238.707031 117.351562 C 239.976562 115.839844 242.230469 115.644531 243.742188 116.914062 C 245.253906 118.183594 245.449219 120.433594 244.183594 121.949219 C 242.914062 123.457031 240.660156 123.65625 239.148438 122.386719 C 237.636719 121.117188 237.4375 118.863281 238.707031 117.351562 " fill-opacity="1" fill-rule="nonzero"/><path fill="#ffffff" d="M 243.136719 128.335938 C 244.335938 126.90625 246.464844 126.71875 247.894531 127.917969 C 249.324219 129.117188 249.511719 131.25 248.308594 132.679688 C 247.113281 134.109375 244.980469 134.292969 243.550781 133.09375 C 242.121094 131.894531 241.9375 129.765625 243.136719 128.335938 " fill-opacity="1" fill-rule="nonzero"/><path fill="#ffffff" d="M 245.390625 139.851562 C 246.523438 138.507812 248.527344 138.332031 249.875 139.460938 C 251.222656 140.589844 251.398438 142.597656 250.265625 143.945312 C 249.136719 145.289062 247.128906 145.464844 245.785156 144.335938 C 244.4375 143.207031 244.261719 141.199219 245.390625 139.851562 " fill-opacity="1" fill-rule="nonzero"/><path fill="#ffffff" d="M 245.445312 151.5625 C 246.503906 150.300781 248.390625 150.136719 249.652344 151.195312 C 250.917969 152.253906 251.082031 154.136719 250.019531 155.402344 C 248.960938 156.667969 247.078125 156.832031 245.8125 155.769531 C 244.550781 154.710938 244.386719 152.828125 245.445312 151.5625 " fill-opacity="1" fill-rule="nonzero"/><path fill="#ffffff" d="M 243.265625 163.125 C 244.257812 161.941406 246.019531 161.789062 247.199219 162.78125 C 248.378906 163.769531 248.535156 165.53125 247.542969 166.710938 C 246.550781 167.894531 244.792969 168.046875 243.609375 167.054688 C 242.429688 166.066406 242.277344 164.304688 243.265625 163.125 " fill-opacity="1" fill-rule="nonzero"/><path fill="#ffffff" d="M 238.824219 174.195312 C 239.75 173.09375 241.386719 172.953125 242.484375 173.875 C 243.582031 174.792969 243.722656 176.429688 242.804688 177.53125 C 241.882812 178.628906 240.246094 178.773438 239.144531 177.847656 C 238.050781 176.929688 237.90625 175.289062 238.824219 174.195312 " fill-opacity="1" fill-rule="nonzero"/><path fill="#ffffff" d="M 232.09375 184.429688 C 232.945312 183.414062 234.460938 183.28125 235.476562 184.132812 C 236.492188 184.984375 236.625 186.496094 235.769531 187.515625 C 234.917969 188.53125 233.40625 188.664062 232.390625 187.808594 C 231.375 186.957031 231.242188 185.445312 232.09375 184.429688 " fill-opacity="1" fill-rule="nonzero"/><path fill="#ffffff" d="M 223.480469 193.085938 C 224.265625 192.152344 225.65625 192.03125 226.589844 192.816406 C 227.523438 193.597656 227.644531 194.988281 226.859375 195.921875 C 226.078125 196.855469 224.6875 196.976562 223.753906 196.195312 C 222.820312 195.410156 222.699219 194.019531 223.480469 193.085938 " fill-opacity="1" fill-rule="nonzero"/><path fill="#ffffff" d="M 213.652344 199.632812 C 214.367188 198.785156 215.632812 198.671875 216.484375 199.386719 C 217.332031 200.097656 217.445312 201.367188 216.730469 202.21875 C 216.019531 203.066406 214.75 203.179688 213.898438 202.464844 C 213.050781 201.75 212.9375 200.484375 213.652344 199.632812 " fill-opacity="1" fill-rule="nonzero"/><path fill="#ffffff" d="M 202.945312 204.039062 C 203.589844 203.269531 204.734375 203.171875 205.5 203.8125 C 206.265625 204.457031 206.367188 205.601562 205.722656 206.371094 C 205.082031 207.136719 203.9375 207.238281 203.167969 206.59375 C 202.402344 205.949219 202.300781 204.804688 202.945312 204.039062 " fill-opacity="1" fill-rule="nonzero"/><path fill="#ffffff" d="M 191.703125 206.269531 C 192.277344 205.585938 193.296875 205.496094 193.984375 206.070312 C 194.667969 206.644531 194.757812 207.664062 194.183594 208.347656 C 193.609375 209.035156 192.589844 209.125 191.902344 208.546875 C 191.21875 207.972656 191.128906 206.953125 191.703125 206.269531 " fill-opacity="1" fill-rule="nonzero"/><path fill="#ffffff" d="M 180.269531 206.296875 C 180.773438 205.699219 181.671875 205.617188 182.273438 206.125 C 182.875 206.628906 182.953125 207.527344 182.449219 208.128906 C 181.945312 208.730469 181.046875 208.808594 180.445312 208.304688 C 179.84375 207.796875 179.761719 206.902344 180.269531 206.296875 " fill-opacity="1" fill-rule="nonzero"/><path fill="#ffffff" d="M 168.984375 204.097656 C 169.417969 203.578125 170.191406 203.507812 170.710938 203.945312 C 171.230469 204.382812 171.300781 205.15625 170.863281 205.675781 C 170.429688 206.191406 169.65625 206.261719 169.136719 205.828125 C 168.617188 205.390625 168.546875 204.617188 168.984375 204.097656 " fill-opacity="1" fill-rule="nonzero"/><path fill="#ffffff" d="M 158.191406 199.632812 C 158.554688 199.195312 159.207031 199.140625 159.644531 199.503906 C 160.078125 199.871094 160.136719 200.523438 159.769531 200.957031 C 159.402344 201.394531 158.753906 201.453125 158.316406 201.085938 C 157.878906 200.71875 157.824219 200.070312 158.191406 199.632812 " fill-opacity="1" fill-rule="nonzero"/><path fill="#ffffff" d="M 148.230469 192.875 C 148.527344 192.519531 149.054688 192.476562 149.40625 192.773438 C 149.761719 193.070312 149.808594 193.597656 149.511719 193.953125 C 149.214844 194.304688 148.6875 194.351562 148.332031 194.054688 C 147.980469 193.757812 147.933594 193.230469 148.230469 192.875 " fill-opacity="1" fill-rule="nonzero"/><path fill="#ffffff" d="M 160.667969 101.003906 C 162.78125 99.785156 165.488281 100.507812 166.707031 102.625 C 167.929688 104.738281 167.207031 107.445312 165.089844 108.664062 C 162.976562 109.886719 160.269531 109.160156 159.046875 107.046875 C 157.828125 104.929688 158.550781 102.226562 160.667969 101.003906 " fill-opacity="1" fill-rule="nonzero"/><path fill="#ffffff" d="M 169.667969 97.125 C 171.707031 95.945312 174.316406 96.644531 175.492188 98.683594 C 176.671875 100.726562 175.972656 103.335938 173.933594 104.511719 C 171.890625 105.691406 169.285156 104.992188 168.105469 102.953125 C 166.925781 100.910156 167.625 98.300781 169.667969 97.125 " fill-opacity="1" fill-rule="nonzero"/><path fill="#ffffff" d="M 179.003906 95.164062 C 180.96875 94.027344 183.484375 94.699219 184.617188 96.667969 C 185.753906 98.632812 185.078125 101.144531 183.113281 102.28125 C 181.148438 103.414062 178.632812 102.742188 177.5 100.777344 C 176.363281 98.8125 177.039062 96.296875 179.003906 95.164062 " fill-opacity="1" fill-rule="nonzero"/><path fill="#ffffff" d="M 188.414062 95.050781 C 190.304688 93.960938 192.722656 94.609375 193.816406 96.5 C 194.90625 98.390625 194.257812 100.808594 192.367188 101.898438 C 190.476562 102.992188 188.058594 102.34375 186.96875 100.453125 C 185.875 98.5625 186.523438 96.144531 188.414062 95.050781 " fill-opacity="1" fill-rule="nonzero"/><path fill="#ffffff" d="M 197.632812 96.722656 C 199.449219 95.671875 201.773438 96.292969 202.820312 98.109375 C 203.867188 99.925781 203.246094 102.25 201.429688 103.296875 C 199.613281 104.347656 197.292969 103.722656 196.242188 101.90625 C 195.195312 100.09375 195.816406 97.769531 197.632812 96.722656 " fill-opacity="1" fill-rule="nonzero"/><path fill="#ffffff" d="M 206.394531 100.097656 C 208.136719 99.09375 210.359375 99.691406 211.367188 101.429688 C 212.371094 103.171875 211.777344 105.398438 210.035156 106.40625 C 208.292969 107.410156 206.066406 106.8125 205.0625 105.074219 C 204.054688 103.328125 204.652344 101.105469 206.394531 100.097656 " fill-opacity="1" fill-rule="nonzero"/><path fill="#ffffff" d="M 214.429688 105.113281 C 216.097656 104.152344 218.226562 104.722656 219.191406 106.390625 C 220.152344 108.054688 219.582031 110.1875 217.914062 111.148438 C 216.25 112.109375 214.117188 111.539062 213.15625 109.871094 C 212.195312 108.207031 212.765625 106.074219 214.429688 105.113281 " fill-opacity="1" fill-rule="nonzero"/><path fill="#ffffff" d="M 221.480469 111.695312 C 223.070312 110.773438 225.105469 111.320312 226.027344 112.914062 C 226.945312 114.503906 226.398438 116.539062 224.808594 117.457031 C 223.214844 118.375 221.183594 117.832031 220.261719 116.238281 C 219.34375 114.648438 219.886719 112.613281 221.480469 111.695312 " fill-opacity="1" fill-rule="nonzero"/><path fill="#ffffff" d="M 227.277344 119.769531 C 228.792969 118.894531 230.730469 119.414062 231.605469 120.929688 C 232.484375 122.445312 231.960938 124.386719 230.445312 125.261719 C 228.929688 126.136719 226.992188 125.617188 226.117188 124.101562 C 225.238281 122.585938 225.757812 120.644531 227.277344 119.769531 " fill-opacity="1" fill-rule="nonzero"/><path fill="#ffffff" d="M 231.371094 128.824219 C 232.8125 127.992188 234.65625 128.488281 235.488281 129.929688 C 236.320312 131.371094 235.828125 133.214844 234.386719 134.046875 C 232.945312 134.878906 231.101562 134.386719 230.265625 132.945312 C 229.433594 131.503906 229.929688 129.660156 231.371094 128.824219 " fill-opacity="1" fill-rule="nonzero"/><path fill="#ffffff" d="M 233.546875 138.21875 C 234.914062 137.429688 236.660156 137.898438 237.449219 139.265625 C 238.238281 140.632812 237.773438 142.382812 236.40625 143.171875 C 235.035156 143.960938 233.289062 143.492188 232.5 142.125 C 231.710938 140.757812 232.179688 139.007812 233.546875 138.21875 " fill-opacity="1" fill-rule="nonzero"/><path fill="#ffffff" d="M 233.871094 147.6875 C 235.160156 146.941406 236.8125 147.386719 237.558594 148.675781 C 238.304688 149.96875 237.863281 151.621094 236.570312 152.367188 C 235.28125 153.113281 233.625 152.671875 232.878906 151.378906 C 232.132812 150.085938 232.578125 148.433594 233.871094 147.6875 " fill-opacity="1" fill-rule="nonzero"/><path fill="#ffffff" d="M 232.414062 156.964844 C 233.632812 156.261719 235.1875 156.679688 235.890625 157.894531 C 236.59375 159.113281 236.175781 160.671875 234.960938 161.371094 C 233.742188 162.078125 232.183594 161.660156 231.480469 160.441406 C 230.78125 159.222656 231.195312 157.667969 232.414062 156.964844 " fill-opacity="1" fill-rule="nonzero"/><path fill="#ffffff" d="M 229.25 165.78125 C 230.394531 165.121094 231.855469 165.515625 232.515625 166.65625 C 233.171875 167.800781 232.78125 169.261719 231.640625 169.921875 C 230.496094 170.578125 229.035156 170.1875 228.375 169.046875 C 227.714844 167.902344 228.109375 166.441406 229.25 165.78125 " fill-opacity="1" fill-rule="nonzero"/><path fill="#ffffff" d="M 224.449219 173.875 C 225.519531 173.261719 226.882812 173.625 227.5 174.691406 C 228.117188 175.761719 227.75 177.128906 226.683594 177.742188 C 225.613281 178.359375 224.25 177.996094 223.632812 176.925781 C 223.015625 175.859375 223.382812 174.492188 224.449219 173.875 " fill-opacity="1" fill-rule="nonzero"/><path fill="#ffffff" d="M 218.082031 180.980469 C 219.074219 180.410156 220.347656 180.75 220.917969 181.742188 C 221.492188 182.734375 221.152344 184.003906 220.160156 184.578125 C 219.167969 185.152344 217.894531 184.8125 217.324219 183.820312 C 216.75 182.824219 217.089844 181.554688 218.082031 180.980469 " fill-opacity="1" fill-rule="nonzero"/><path fill="#ffffff" d="M 210.21875 186.835938 C 211.140625 186.304688 212.3125 186.617188 212.84375 187.539062 C 213.375 188.457031 213.058594 189.628906 212.140625 190.160156 C 211.222656 190.691406 210.046875 190.378906 209.519531 189.457031 C 208.988281 188.539062 209.300781 187.367188 210.21875 186.835938 " fill-opacity="1" fill-rule="nonzero"/><path fill="#ffffff" d="M 201.378906 190.988281 C 202.222656 190.5 203.300781 190.789062 203.789062 191.632812 C 204.273438 192.476562 203.984375 193.554688 203.140625 194.042969 C 202.300781 194.53125 201.21875 194.242188 200.734375 193.398438 C 200.246094 192.554688 200.535156 191.476562 201.378906 190.988281 " fill-opacity="1" fill-rule="nonzero"/><path fill="#ffffff" d="M 192.195312 193.21875 C 192.964844 192.777344 193.949219 193.039062 194.394531 193.808594 C 194.835938 194.578125 194.574219 195.5625 193.804688 196.003906 C 193.035156 196.449219 192.054688 196.183594 191.609375 195.414062 C 191.164062 194.648438 191.429688 193.664062 192.195312 193.21875 " fill-opacity="1" fill-rule="nonzero"/><path fill="#ffffff" d="M 182.941406 193.601562 C 183.636719 193.199219 184.523438 193.4375 184.925781 194.128906 C 185.324219 194.828125 185.085938 195.710938 184.394531 196.113281 C 183.699219 196.515625 182.8125 196.277344 182.410156 195.582031 C 182.011719 194.890625 182.25 194 182.941406 193.601562 " fill-opacity="1" fill-rule="nonzero"/><path fill="#ffffff" d="M 173.882812 192.203125 C 174.5 191.84375 175.292969 192.058594 175.648438 192.675781 C 176.007812 193.296875 175.792969 194.085938 175.175781 194.445312 C 174.554688 194.800781 173.765625 194.589844 173.40625 193.972656 C 173.050781 193.351562 173.261719 192.558594 173.882812 192.203125 " fill-opacity="1" fill-rule="nonzero"/><path fill="#ffffff" d="M 165.277344 189.097656 C 165.820312 188.78125 166.515625 188.96875 166.832031 189.511719 C 167.144531 190.058594 166.960938 190.753906 166.414062 191.070312 C 165.871094 191.382812 165.175781 191.195312 164.859375 190.648438 C 164.546875 190.105469 164.730469 189.410156 165.277344 189.097656 " fill-opacity="1" fill-rule="nonzero"/><path fill="#ffffff" d="M 157.394531 184.351562 C 157.863281 184.082031 158.464844 184.242188 158.738281 184.710938 C 159.007812 185.179688 158.847656 185.78125 158.378906 186.054688 C 157.90625 186.324219 157.308594 186.164062 157.035156 185.691406 C 156.765625 185.222656 156.925781 184.625 157.394531 184.351562 " fill-opacity="1" fill-rule="nonzero"/><path fill="#ffffff" d="M 150.503906 178.042969 C 150.898438 177.816406 151.402344 177.949219 151.628906 178.34375 C 151.859375 178.738281 151.722656 179.246094 151.328125 179.472656 C 150.933594 179.699219 150.429688 179.566406 150.199219 179.171875 C 149.972656 178.777344 150.109375 178.269531 150.503906 178.042969 " fill-opacity="1" fill-rule="nonzero"/><path fill="#ffffff" d="M 144.863281 170.238281 C 145.183594 170.054688 145.59375 170.164062 145.777344 170.484375 C 145.960938 170.804688 145.851562 171.210938 145.53125 171.398438 C 145.210938 171.582031 144.804688 171.472656 144.621094 171.152344 C 144.433594 170.832031 144.542969 170.421875 144.863281 170.238281 " fill-opacity="1" fill-rule="nonzero"/><path fill="#ffffff" d="M 179.351562 104.578125 C 181.273438 104.238281 183.109375 105.523438 183.449219 107.449219 C 183.789062 109.371094 182.503906 111.207031 180.578125 111.546875 C 178.65625 111.886719 176.820312 110.601562 176.480469 108.675781 C 176.140625 106.753906 177.425781 104.917969 179.351562 104.578125 " fill-opacity="1" fill-rule="nonzero"/><path fill="#ffffff" d="M 187.179688 104.121094 C 189.035156 103.792969 190.804688 105.035156 191.132812 106.890625 C 191.460938 108.746094 190.21875 110.515625 188.363281 110.84375 C 186.507812 111.171875 184.738281 109.929688 184.410156 108.074219 C 184.082031 106.21875 185.324219 104.449219 187.179688 104.121094 " fill-opacity="1" fill-rule="nonzero"/><path fill="#ffffff" d="M 194.734375 105.203125 C 196.523438 104.886719 198.226562 106.082031 198.542969 107.871094 C 198.859375 109.660156 197.664062 111.363281 195.878906 111.679688 C 194.089844 111.996094 192.382812 110.800781 192.070312 109.011719 C 191.753906 107.222656 192.945312 105.519531 194.734375 105.203125 " fill-opacity="1" fill-rule="nonzero"/><path fill="#ffffff" d="M 201.839844 107.695312 C 203.558594 107.390625 205.199219 108.539062 205.503906 110.261719 C 205.804688 111.980469 204.65625 113.621094 202.9375 113.925781 C 201.21875 114.226562 199.578125 113.078125 199.273438 111.359375 C 198.96875 109.636719 200.121094 108 201.839844 107.695312 " fill-opacity="1" fill-rule="nonzero"/><path fill="#ffffff" d="M 208.3125 111.472656 C 209.964844 111.179688 211.539062 112.285156 211.832031 113.9375 C 212.125 115.589844 211.019531 117.164062 209.367188 117.457031 C 207.714844 117.746094 206.140625 116.644531 205.847656 114.992188 C 205.558594 113.339844 206.660156 111.761719 208.3125 111.472656 " fill-opacity="1" fill-rule="nonzero"/><path fill="#ffffff" d="M 213.976562 116.410156 C 215.558594 116.128906 217.066406 117.1875 217.347656 118.769531 C 217.628906 120.355469 216.570312 121.863281 214.984375 122.144531 C 213.402344 122.425781 211.890625 121.363281 211.613281 119.78125 C 211.332031 118.199219 212.390625 116.6875 213.976562 116.410156 " fill-opacity="1" fill-rule="nonzero"/><path fill="#ffffff" d="M 218.644531 122.375 C 220.160156 122.109375 221.605469 123.121094 221.871094 124.636719 C 222.140625 126.152344 221.128906 127.601562 219.613281 127.867188 C 218.097656 128.132812 216.652344 127.121094 216.382812 125.605469 C 216.117188 124.089844 217.128906 122.644531 218.644531 122.375 " fill-opacity="1" fill-rule="nonzero"/><path fill="#ffffff" d="M 222.144531 129.253906 C 223.589844 128.996094 224.972656 129.964844 225.226562 131.410156 C 225.484375 132.859375 224.515625 134.242188 223.070312 134.496094 C 221.621094 134.75 220.238281 133.785156 219.984375 132.335938 C 219.730469 130.886719 220.695312 129.507812 222.144531 129.253906 " fill-opacity="1" fill-rule="nonzero"/><path fill="#ffffff" d="M 224.289062 136.90625 C 225.667969 136.664062 226.984375 137.585938 227.230469 138.964844 C 227.472656 140.347656 226.550781 141.664062 225.171875 141.90625 C 223.792969 142.148438 222.476562 141.226562 222.234375 139.847656 C 221.988281 138.46875 222.910156 137.152344 224.289062 136.90625 " fill-opacity="1" fill-rule="nonzero"/><path fill="#ffffff" d="M 224.890625 144.835938 C 226.203125 144.605469 227.453125 145.480469 227.683594 146.792969 C 227.917969 148.105469 227.042969 149.355469 225.730469 149.585938 C 224.417969 149.820312 223.167969 148.941406 222.933594 147.628906 C 222.703125 146.320312 223.578125 145.066406 224.890625 144.835938 " fill-opacity="1" fill-rule="nonzero"/><path fill="#ffffff" d="M 223.957031 152.496094 C 225.199219 152.273438 226.386719 153.105469 226.605469 154.351562 C 226.824219 155.59375 225.992188 156.78125 224.75 157 C 223.503906 157.21875 222.320312 156.386719 222.101562 155.144531 C 221.878906 153.902344 222.710938 152.714844 223.957031 152.496094 " fill-opacity="1" fill-rule="nonzero"/><path fill="#ffffff" d="M 221.609375 159.699219 C 222.785156 159.492188 223.90625 160.277344 224.113281 161.457031 C 224.320312 162.628906 223.535156 163.75 222.359375 163.960938 C 221.183594 164.167969 220.0625 163.378906 219.855469 162.203125 C 219.648438 161.03125 220.433594 159.910156 221.609375 159.699219 " fill-opacity="1" fill-rule="nonzero"/><path fill="#ffffff" d="M 217.976562 166.277344 C 219.082031 166.082031 220.140625 166.820312 220.335938 167.929688 C 220.53125 169.035156 219.792969 170.09375 218.683594 170.285156 C 217.574219 170.484375 216.519531 169.742188 216.324219 168.632812 C 216.128906 167.527344 216.867188 166.46875 217.976562 166.277344 " fill-opacity="1" fill-rule="nonzero"/><path fill="#ffffff" d="M 213.1875 172.039062 C 214.226562 171.855469 215.214844 172.550781 215.398438 173.589844 C 215.582031 174.628906 214.886719 175.621094 213.847656 175.804688 C 212.808594 175.988281 211.820312 175.292969 211.632812 174.253906 C 211.449219 173.214844 212.144531 172.222656 213.1875 172.039062 " fill-opacity="1" fill-rule="nonzero"/><path fill="#ffffff" d="M 207.363281 176.8125 C 208.332031 176.640625 209.257812 177.289062 209.429688 178.261719 C 209.601562 179.230469 208.953125 180.15625 207.980469 180.328125 C 207.011719 180.5 206.082031 179.851562 205.910156 178.878906 C 205.738281 177.910156 206.390625 176.980469 207.363281 176.8125 " fill-opacity="1" fill-rule="nonzero"/><path fill="#ffffff" d="M 200.628906 180.410156 C 201.535156 180.25 202.394531 180.855469 202.554688 181.757812 C 202.714844 182.660156 202.109375 183.523438 201.207031 183.683594 C 200.304688 183.84375 199.441406 183.238281 199.28125 182.335938 C 199.125 181.433594 199.726562 180.570312 200.628906 180.410156 " fill-opacity="1" fill-rule="nonzero"/><path fill="#ffffff" d="M 193.117188 182.660156 C 193.957031 182.511719 194.753906 183.070312 194.898438 183.90625 C 195.046875 184.742188 194.488281 185.539062 193.652344 185.6875 C 192.816406 185.832031 192.019531 185.273438 191.875 184.441406 C 191.726562 183.601562 192.285156 182.808594 193.117188 182.660156 " fill-opacity="1" fill-rule="nonzero"/><path fill="#ffffff" d="M 185.335938 183.363281 C 186.101562 183.226562 186.835938 183.738281 186.96875 184.507812 C 187.105469 185.273438 186.59375 186.007812 185.824219 186.140625 C 185.058594 186.277344 184.324219 185.765625 184.191406 184.996094 C 184.054688 184.230469 184.566406 183.496094 185.335938 183.363281 " fill-opacity="1" fill-rule="nonzero"/><path fill="#ffffff" d="M 177.820312 182.527344 C 178.523438 182.402344 179.1875 182.871094 179.3125 183.570312 C 179.4375 184.269531 178.96875 184.9375 178.269531 185.058594 C 177.570312 185.183594 176.902344 184.714844 176.78125 184.015625 C 176.65625 183.316406 177.125 182.652344 177.820312 182.527344 " fill-opacity="1" fill-rule="nonzero"/><path fill="#ffffff" d="M 170.761719 180.28125 C 171.390625 180.167969 171.996094 180.589844 172.105469 181.222656 C 172.21875 181.855469 171.796875 182.457031 171.164062 182.566406 C 170.53125 182.679688 169.929688 182.257812 169.820312 181.625 C 169.707031 180.996094 170.128906 180.394531 170.761719 180.28125 " fill-opacity="1" fill-rule="nonzero"/><path fill="#ffffff" d="M 164.332031 176.75 C 164.894531 176.652344 165.433594 177.027344 165.53125 177.589844 C 165.632812 178.152344 165.253906 178.691406 164.691406 178.792969 C 164.128906 178.890625 163.589844 178.515625 163.492188 177.953125 C 163.390625 177.386719 163.769531 176.851562 164.332031 176.75 " fill-opacity="1" fill-rule="nonzero"/><path fill="#ffffff" d="M 158.714844 172.0625 C 159.210938 171.972656 159.679688 172.304688 159.769531 172.800781 C 159.855469 173.296875 159.523438 173.765625 159.03125 173.855469 C 158.535156 173.941406 158.0625 173.609375 157.976562 173.117188 C 157.886719 172.621094 158.21875 172.148438 158.714844 172.0625 " fill-opacity="1" fill-rule="nonzero"/><path fill="#ffffff" d="M 154.085938 166.339844 C 154.515625 166.261719 154.921875 166.546875 154.996094 166.976562 C 155.074219 167.402344 154.789062 167.8125 154.359375 167.886719 C 153.933594 167.960938 153.523438 167.675781 153.449219 167.25 C 153.375 166.820312 153.660156 166.414062 154.085938 166.339844 " fill-opacity="1" fill-rule="nonzero"/><path fill="#ffffff" d="M 150.632812 159.710938 C 150.992188 159.648438 151.332031 159.886719 151.394531 160.246094 C 151.460938 160.605469 151.222656 160.949219 150.859375 161.011719 C 150.503906 161.074219 150.160156 160.835938 150.097656 160.472656 C 150.03125 160.117188 150.273438 159.773438 150.632812 159.710938 " fill-opacity="1" fill-rule="nonzero"/><path fill="#ffffff" d="M 148.527344 152.300781 C 148.820312 152.25 149.097656 152.441406 149.148438 152.734375 C 149.199219 153.027344 149.003906 153.304688 148.714844 153.355469 C 148.421875 153.40625 148.144531 153.210938 148.09375 152.921875 C 148.042969 152.628906 148.238281 152.351562 148.527344 152.300781 " fill-opacity="1" fill-rule="nonzero"/><path fill="#ffffff" d="M 192.417969 112.375 C 193.960938 112.648438 194.988281 114.117188 194.714844 115.652344 C 194.445312 117.195312 192.976562 118.222656 191.4375 117.949219 C 189.898438 117.679688 188.871094 116.210938 189.140625 114.671875 C 189.414062 113.132812 190.878906 112.105469 192.417969 112.375 " fill-opacity="1" fill-rule="nonzero"/><path fill="#ffffff" d="M 198.429688 114.175781 C 199.914062 114.4375 200.90625 115.851562 200.644531 117.335938 C 200.382812 118.824219 198.964844 119.8125 197.480469 119.550781 C 195.996094 119.289062 195.003906 117.875 195.265625 116.390625 C 195.527344 114.90625 196.945312 113.914062 198.429688 114.175781 " fill-opacity="1" fill-rule="nonzero"/><path fill="#ffffff" d="M 203.8125 117.054688 C 205.242188 117.304688 206.199219 118.671875 205.945312 120.101562 C 205.695312 121.53125 204.328125 122.488281 202.898438 122.234375 C 201.46875 121.984375 200.511719 120.617188 200.765625 119.1875 C 201.019531 117.757812 202.382812 116.800781 203.8125 117.054688 " fill-opacity="1" fill-rule="nonzero"/><path fill="#ffffff" d="M 208.472656 120.871094 C 209.847656 121.113281 210.765625 122.425781 210.523438 123.804688 C 210.28125 125.179688 208.96875 126.097656 207.59375 125.855469 C 206.21875 125.613281 205.296875 124.300781 205.539062 122.925781 C 205.785156 121.550781 207.097656 120.628906 208.472656 120.871094 " fill-opacity="1" fill-rule="nonzero"/><path fill="#ffffff" d="M 212.304688 125.480469 C 213.628906 125.714844 214.511719 126.976562 214.277344 128.296875 C 214.042969 129.621094 212.78125 130.5 211.460938 130.269531 C 210.140625 130.035156 209.257812 128.777344 209.492188 127.453125 C 209.722656 126.132812 210.984375 125.25 212.304688 125.480469 " fill-opacity="1" fill-rule="nonzero"/><path fill="#ffffff" d="M 215.210938 130.742188 C 216.476562 130.964844 217.324219 132.175781 217.101562 133.441406 C 216.878906 134.707031 215.667969 135.554688 214.402344 135.332031 C 213.136719 135.109375 212.289062 133.898438 212.511719 132.632812 C 212.734375 131.363281 213.941406 130.519531 215.210938 130.742188 " fill-opacity="1" fill-rule="nonzero"/><path fill="#ffffff" d="M 217.089844 136.507812 C 218.300781 136.722656 219.109375 137.878906 218.898438 139.089844 C 218.683594 140.304688 217.527344 141.113281 216.3125 140.898438 C 215.101562 140.683594 214.289062 139.527344 214.503906 138.316406 C 214.71875 137.101562 215.875 136.292969 217.089844 136.507812 " fill-opacity="1" fill-rule="nonzero"/><path fill="#ffffff" d="M 217.835938 142.632812 C 218.996094 142.839844 219.769531 143.941406 219.566406 145.101562 C 219.359375 146.257812 218.257812 147.03125 217.097656 146.828125 C 215.941406 146.625 215.164062 145.519531 215.371094 144.363281 C 215.574219 143.203125 216.679688 142.429688 217.835938 142.632812 " fill-opacity="1" fill-rule="nonzero"/><path fill="#ffffff" d="M 217.355469 148.976562 C 218.460938 149.171875 219.199219 150.222656 219.003906 151.328125 C 218.808594 152.433594 217.753906 153.167969 216.652344 152.972656 C 215.546875 152.777344 214.808594 151.726562 215.003906 150.621094 C 215.199219 149.519531 216.253906 148.78125 217.355469 148.976562 " fill-opacity="1" fill-rule="nonzero"/><path fill="#ffffff" d="M 215.640625 155.101562 C 216.6875 155.285156 217.390625 156.289062 217.203125 157.335938 C 217.019531 158.386719 216.019531 159.085938 214.96875 158.902344 C 213.917969 158.714844 213.21875 157.714844 213.402344 156.667969 C 213.589844 155.617188 214.589844 154.917969 215.640625 155.101562 " fill-opacity="1" fill-rule="nonzero"/><path fill="#ffffff" d="M 212.839844 160.601562 C 213.835938 160.777344 214.5 161.726562 214.324219 162.722656 C 214.148438 163.714844 213.199219 164.382812 212.203125 164.207031 C 211.210938 164.03125 210.546875 163.082031 210.722656 162.085938 C 210.894531 161.089844 211.84375 160.425781 212.839844 160.601562 " fill-opacity="1" fill-rule="nonzero"/><path fill="#ffffff" d="M 209.105469 165.375 C 210.042969 165.542969 210.671875 166.441406 210.507812 167.378906 C 210.339844 168.320312 209.445312 168.949219 208.503906 168.785156 C 207.5625 168.617188 206.933594 167.722656 207.101562 166.78125 C 207.265625 165.839844 208.164062 165.210938 209.105469 165.375 " fill-opacity="1" fill-rule="nonzero"/><path fill="#ffffff" d="M 204.574219 169.324219 C 205.460938 169.480469 206.050781 170.328125 205.894531 171.210938 C 205.738281 172.101562 204.894531 172.691406 204.007812 172.535156 C 203.121094 172.378906 202.53125 171.53125 202.6875 170.648438 C 202.84375 169.761719 203.6875 169.167969 204.574219 169.324219 " fill-opacity="1" fill-rule="nonzero"/><path fill="#ffffff" d="M 199.394531 172.347656 C 200.226562 172.492188 200.785156 173.285156 200.636719 174.117188 C 200.492188 174.949219 199.695312 175.503906 198.863281 175.359375 C 198.035156 175.210938 197.476562 174.417969 197.625 173.589844 C 197.773438 172.757812 198.5625 172.199219 199.394531 172.347656 " fill-opacity="1" fill-rule="nonzero"/><path fill="#ffffff" d="M 193.714844 174.339844 C 194.488281 174.476562 195.007812 175.21875 194.871094 175.996094 C 194.734375 176.773438 193.992188 177.292969 193.214844 177.15625 C 192.4375 177.019531 191.917969 176.277344 192.054688 175.5 C 192.195312 174.722656 192.933594 174.203125 193.714844 174.339844 " fill-opacity="1" fill-rule="nonzero"/><path fill="#ffffff" d="M 187.667969 175.207031 C 188.390625 175.332031 188.871094 176.023438 188.746094 176.746094 C 188.617188 177.46875 187.929688 177.953125 187.207031 177.824219 C 186.484375 177.695312 186 177.007812 186.128906 176.285156 C 186.253906 175.5625 186.945312 175.078125 187.667969 175.207031 " fill-opacity="1" fill-rule="nonzero"/><path fill="#ffffff" d="M 181.40625 174.839844 C 182.074219 174.957031 182.519531 175.597656 182.402344 176.265625 C 182.285156 176.933594 181.648438 177.378906 180.980469 177.261719 C 180.308594 177.144531 179.863281 176.507812 179.980469 175.839844 C 180.101562 175.167969 180.738281 174.722656 181.40625 174.839844 " fill-opacity="1" fill-rule="nonzero"/><path fill="#ffffff" d="M 175.363281 173.238281 C 175.976562 173.347656 176.386719 173.933594 176.277344 174.546875 C 176.167969 175.160156 175.585938 175.570312 174.96875 175.460938 C 174.355469 175.355469 173.945312 174.769531 174.054688 174.15625 C 174.160156 173.539062 174.746094 173.132812 175.363281 173.238281 " fill-opacity="1" fill-rule="nonzero"/><path fill="#ffffff" d="M 169.941406 170.554688 C 170.503906 170.65625 170.875 171.1875 170.777344 171.746094 C 170.679688 172.308594 170.144531 172.679688 169.585938 172.582031 C 169.027344 172.484375 168.652344 171.949219 168.75 171.390625 C 168.851562 170.832031 169.382812 170.457031 169.941406 170.554688 " fill-opacity="1" fill-rule="nonzero"/><path fill="#ffffff" d="M 165.246094 166.9375 C 165.753906 167.023438 166.089844 167.507812 166.003906 168.011719 C 165.914062 168.515625 165.433594 168.855469 164.925781 168.765625 C 164.421875 168.675781 164.082031 168.195312 164.171875 167.6875 C 164.261719 167.183594 164.742188 166.847656 165.246094 166.9375 " fill-opacity="1" fill-rule="nonzero"/><path fill="#ffffff" d="M 161.382812 162.523438 C 161.832031 162.601562 162.132812 163.03125 162.050781 163.484375 C 161.972656 163.933594 161.542969 164.234375 161.09375 164.15625 C 160.640625 164.074219 160.34375 163.644531 160.421875 163.195312 C 160.5 162.746094 160.929688 162.441406 161.382812 162.523438 " fill-opacity="1" fill-rule="nonzero"/><path fill="#ffffff" d="M 158.441406 157.460938 C 158.835938 157.53125 159.101562 157.90625 159.03125 158.304688 C 158.960938 158.699219 158.582031 158.964844 158.1875 158.894531 C 157.792969 158.824219 157.527344 158.445312 157.597656 158.050781 C 157.664062 157.65625 158.042969 157.390625 158.441406 157.460938 " fill-opacity="1" fill-rule="nonzero"/><path fill="#ffffff" d="M 156.527344 151.894531 C 156.871094 151.953125 157.097656 152.277344 157.039062 152.621094 C 156.976562 152.960938 156.652344 153.191406 156.308594 153.128906 C 155.96875 153.070312 155.738281 152.742188 155.800781 152.402344 C 155.859375 152.058594 156.1875 151.832031 156.527344 151.894531 " fill-opacity="1" fill-rule="nonzero"/><path fill="#ffffff" d="M 155.742188 145.964844 C 156.03125 146.011719 156.222656 146.289062 156.171875 146.574219 C 156.121094 146.863281 155.847656 147.054688 155.5625 147.003906 C 155.273438 146.953125 155.082031 146.679688 155.132812 146.390625 C 155.183594 146.105469 155.457031 145.914062 155.742188 145.964844 " fill-opacity="1" fill-rule="nonzero"/><path fill="#ffffff" d="M 156.191406 139.816406 C 156.421875 139.859375 156.578125 140.082031 156.539062 140.3125 C 156.496094 140.546875 156.273438 140.703125 156.042969 140.660156 C 155.808594 140.621094 155.652344 140.398438 155.695312 140.164062 C 155.734375 139.933594 155.957031 139.777344 156.191406 139.816406 " fill-opacity="1" fill-rule="nonzero"/><path fill="#ffffff" d="M 200.109375 121.8125 C 201.195312 122.4375 201.566406 123.824219 200.941406 124.90625 C 200.3125 125.988281 198.929688 126.359375 197.847656 125.734375 C 196.761719 125.109375 196.390625 123.726562 197.015625 122.640625 C 197.644531 121.558594 199.027344 121.1875 200.109375 121.8125 " fill-opacity="1" fill-rule="nonzero"/><path fill="#ffffff" d="M 204.136719 124.808594 C 205.179688 125.414062 205.539062 126.75 204.933594 127.792969 C 204.332031 128.839844 202.996094 129.195312 201.953125 128.59375 C 200.90625 127.992188 200.546875 126.65625 201.152344 125.609375 C 201.753906 124.566406 203.089844 124.207031 204.136719 124.808594 " fill-opacity="1" fill-rule="nonzero"/><path fill="#ffffff" d="M 207.394531 128.449219 C 208.402344 129.03125 208.746094 130.316406 208.167969 131.324219 C 207.582031 132.328125 206.296875 132.675781 205.289062 132.09375 C 204.285156 131.511719 203.941406 130.226562 204.523438 129.21875 C 205.101562 128.210938 206.386719 127.867188 207.394531 128.449219 " fill-opacity="1" fill-rule="nonzero"/><path fill="#ffffff" d="M 209.855469 132.59375 C 210.820312 133.152344 211.152344 134.390625 210.59375 135.359375 C 210.035156 136.324219 208.796875 136.65625 207.828125 136.097656 C 206.859375 135.539062 206.53125 134.300781 207.089844 133.332031 C 207.648438 132.363281 208.886719 132.035156 209.855469 132.59375 " fill-opacity="1" fill-rule="nonzero"/><path fill="#ffffff" d="M 211.472656 137.105469 C 212.402344 137.644531 212.722656 138.832031 212.183594 139.761719 C 211.648438 140.695312 210.460938 141.011719 209.527344 140.472656 C 208.601562 139.9375 208.28125 138.75 208.816406 137.820312 C 209.355469 136.890625 210.542969 136.570312 211.472656 137.105469 " fill-opacity="1" fill-rule="nonzero"/><path fill="#ffffff" d="M 212.21875 141.855469 C 213.109375 142.371094 213.414062 143.511719 212.902344 144.402344 C 212.386719 145.292969 211.246094 145.601562 210.355469 145.085938 C 209.460938 144.570312 209.15625 143.429688 209.671875 142.539062 C 210.1875 141.648438 211.328125 141.34375 212.21875 141.855469 " fill-opacity="1" fill-rule="nonzero"/><path fill="#ffffff" d="M 212.054688 146.703125 C 212.90625 147.195312 213.199219 148.289062 212.703125 149.140625 C 212.210938 149.992188 211.121094 150.285156 210.265625 149.792969 C 209.414062 149.300781 209.121094 148.210938 209.613281 147.355469 C 210.109375 146.503906 211.199219 146.210938 212.054688 146.703125 " fill-opacity="1" fill-rule="nonzero"/><path fill="#ffffff" d="M 210.9375 151.515625 C 211.753906 151.984375 212.03125 153.027344 211.5625 153.84375 C 211.09375 154.65625 210.050781 154.9375 209.234375 154.464844 C 208.421875 153.996094 208.140625 152.953125 208.613281 152.136719 C 209.082031 151.324219 210.125 151.042969 210.9375 151.515625 " fill-opacity="1" fill-rule="nonzero"/><path fill="#ffffff" d="M 208.84375 156.152344 C 209.621094 156.601562 209.882812 157.59375 209.4375 158.371094 C 208.988281 159.144531 207.996094 159.414062 207.21875 158.964844 C 206.441406 158.515625 206.175781 157.523438 206.625 156.746094 C 207.070312 155.96875 208.066406 155.703125 208.84375 156.152344 " fill-opacity="1" fill-rule="nonzero"/><path fill="#ffffff" d="M 205.875 160.285156 C 206.613281 160.710938 206.867188 161.65625 206.441406 162.394531 C 206.015625 163.132812 205.070312 163.386719 204.332031 162.960938 C 203.59375 162.53125 203.339844 161.589844 203.765625 160.851562 C 204.191406 160.113281 205.136719 159.859375 205.875 160.285156 " fill-opacity="1" fill-rule="nonzero"/><path fill="#ffffff" d="M 202.265625 163.65625 C 202.964844 164.058594 203.203125 164.953125 202.800781 165.652344 C 202.398438 166.355469 201.503906 166.59375 200.800781 166.191406 C 200.101562 165.785156 199.863281 164.890625 200.265625 164.191406 C 200.671875 163.492188 201.566406 163.25 202.265625 163.65625 " fill-opacity="1" fill-rule="nonzero"/><path fill="#ffffff" d="M 198.148438 166.222656 C 198.8125 166.605469 199.039062 167.449219 198.65625 168.113281 C 198.277344 168.773438 197.429688 169 196.769531 168.621094 C 196.105469 168.234375 195.878906 167.390625 196.261719 166.726562 C 196.644531 166.066406 197.488281 165.839844 198.148438 166.222656 " fill-opacity="1" fill-rule="nonzero"/><path fill="#ffffff" d="M 193.664062 167.953125 C 194.289062 168.3125 194.503906 169.109375 194.140625 169.730469 C 193.78125 170.355469 192.984375 170.570312 192.359375 170.207031 C 191.738281 169.847656 191.523438 169.050781 191.882812 168.429688 C 192.246094 167.804688 193.042969 167.59375 193.664062 167.953125 " fill-opacity="1" fill-rule="nonzero"/><path fill="#ffffff" d="M 188.945312 168.804688 C 189.53125 169.144531 189.730469 169.894531 189.394531 170.476562 C 189.054688 171.0625 188.308594 171.261719 187.722656 170.925781 C 187.136719 170.585938 186.9375 169.839844 187.273438 169.253906 C 187.613281 168.667969 188.359375 168.46875 188.945312 168.804688 " fill-opacity="1" fill-rule="nonzero"/><path fill="#ffffff" d="M 184.128906 168.75 C 184.675781 169.066406 184.863281 169.765625 184.546875 170.3125 C 184.230469 170.859375 183.53125 171.046875 182.984375 170.730469 C 182.4375 170.414062 182.25 169.714844 182.566406 169.167969 C 182.882812 168.621094 183.582031 168.433594 184.128906 168.75 " fill-opacity="1" fill-rule="nonzero"/><path fill="#ffffff" d="M 179.347656 167.746094 C 179.855469 168.039062 180.027344 168.691406 179.738281 169.199219 C 179.441406 169.707031 178.792969 169.878906 178.285156 169.585938 C 177.773438 169.292969 177.601562 168.644531 177.894531 168.136719 C 178.1875 167.625 178.839844 167.453125 179.347656 167.746094 " fill-opacity="1" fill-rule="nonzero"/><path fill="#ffffff" d="M 174.738281 165.757812 C 175.207031 166.027344 175.371094 166.632812 175.097656 167.101562 C 174.828125 167.574219 174.226562 167.734375 173.757812 167.460938 C 173.285156 167.1875 173.125 166.589844 173.394531 166.117188 C 173.667969 165.648438 174.269531 165.488281 174.738281 165.757812 " fill-opacity="1" fill-rule="nonzero"/><path fill="#ffffff" d="M 170.632812 162.902344 C 171.066406 163.148438 171.214844 163.703125 170.964844 164.132812 C 170.714844 164.566406 170.160156 164.714844 169.730469 164.464844 C 169.300781 164.214844 169.148438 163.664062 169.398438 163.230469 C 169.648438 162.800781 170.203125 162.652344 170.632812 162.902344 " fill-opacity="1" fill-rule="nonzero"/><path fill="#ffffff" d="M 167.292969 159.402344 C 167.6875 159.628906 167.824219 160.132812 167.59375 160.523438 C 167.367188 160.917969 166.863281 161.054688 166.472656 160.824219 C 166.078125 160.597656 165.941406 160.097656 166.167969 159.703125 C 166.394531 159.308594 166.898438 159.171875 167.292969 159.402344 " fill-opacity="1" fill-rule="nonzero"/><path fill="#ffffff" d="M 164.757812 155.394531 C 165.113281 155.601562 165.234375 156.054688 165.027344 156.410156 C 164.820312 156.765625 164.367188 156.886719 164.011719 156.683594 C 163.65625 156.476562 163.535156 156.023438 163.738281 155.667969 C 163.945312 155.3125 164.402344 155.191406 164.757812 155.394531 " fill-opacity="1" fill-rule="nonzero"/><path fill="#ffffff" d="M 163.054688 151.019531 C 163.375 151.203125 163.480469 151.605469 163.296875 151.925781 C 163.117188 152.242188 162.710938 152.351562 162.394531 152.167969 C 162.074219 151.984375 161.964844 151.578125 162.152344 151.261719 C 162.332031 150.945312 162.738281 150.835938 163.054688 151.019531 " fill-opacity="1" fill-rule="nonzero"/><path fill="#ffffff" d="M 162.230469 146.410156 C 162.507812 146.570312 162.605469 146.925781 162.441406 147.203125 C 162.28125 147.484375 161.925781 147.578125 161.648438 147.417969 C 161.367188 147.257812 161.273438 146.902344 161.433594 146.621094 C 161.59375 146.34375 161.953125 146.25 162.230469 146.410156 " fill-opacity="1" fill-rule="nonzero"/><path fill="#ffffff" d="M 162.316406 141.699219 C 162.554688 141.839844 162.640625 142.148438 162.5 142.386719 C 162.363281 142.625 162.054688 142.710938 161.8125 142.570312 C 161.574219 142.433594 161.492188 142.125 161.628906 141.882812 C 161.769531 141.644531 162.074219 141.5625 162.316406 141.699219 " fill-opacity="1" fill-rule="nonzero"/><path fill="#ffffff" d="M 163.347656 137.027344 C 163.550781 137.144531 163.621094 137.402344 163.503906 137.605469 C 163.386719 137.808594 163.128906 137.875 162.925781 137.761719 C 162.726562 137.644531 162.65625 137.382812 162.773438 137.183594 C 162.890625 136.980469 163.148438 136.910156 163.347656 137.027344 " fill-opacity="1" fill-rule="nonzero"/><path fill="#ffffff" d="M 165.367188 132.527344 C 165.53125 132.625 165.585938 132.835938 165.492188 133 C 165.398438 133.160156 165.1875 133.21875 165.023438 133.125 C 164.859375 133.027344 164.804688 132.820312 164.898438 132.65625 C 164.992188 132.492188 165.203125 132.4375 165.367188 132.527344 " fill-opacity="1" fill-rule="nonzero"/><path fill="#ffffff" d="M 203.308594 131.011719 C 203.953125 131.78125 203.851562 132.921875 203.085938 133.566406 C 202.320312 134.207031 201.175781 134.109375 200.535156 133.339844 C 199.890625 132.574219 199.992188 131.433594 200.757812 130.789062 C 201.523438 130.144531 202.664062 130.246094 203.308594 131.011719 " fill-opacity="1" fill-rule="nonzero"/><path fill="#ffffff" d="M 205.515625 134.367188 C 206.136719 135.105469 206.039062 136.207031 205.300781 136.828125 C 204.5625 137.449219 203.460938 137.351562 202.839844 136.613281 C 202.21875 135.875 202.3125 134.769531 203.054688 134.152344 C 203.792969 133.53125 204.894531 133.628906 205.515625 134.367188 " fill-opacity="1" fill-rule="nonzero"/><path fill="#ffffff" d="M 206.972656 137.996094 C 207.570312 138.707031 207.476562 139.769531 206.765625 140.367188 C 206.050781 140.964844 204.988281 140.871094 204.390625 140.15625 C 203.792969 139.445312 203.886719 138.382812 204.601562 137.785156 C 205.3125 137.1875 206.371094 137.28125 206.972656 137.996094 " fill-opacity="1" fill-rule="nonzero"/><path fill="#ffffff" d="M 207.683594 141.78125 C 208.257812 142.46875 208.167969 143.488281 207.484375 144.0625 C 206.800781 144.640625 205.777344 144.546875 205.203125 143.863281 C 204.628906 143.179688 204.71875 142.15625 205.402344 141.582031 C 206.089844 141.007812 207.109375 141.097656 207.683594 141.78125 " fill-opacity="1" fill-rule="nonzero"/><path fill="#ffffff" d="M 207.667969 145.621094 C 208.21875 146.277344 208.132812 147.257812 207.476562 147.808594 C 206.816406 148.363281 205.835938 148.277344 205.285156 147.617188 C 204.730469 146.960938 204.816406 145.980469 205.476562 145.425781 C 206.132812 144.875 207.113281 144.960938 207.667969 145.621094 " fill-opacity="1" fill-rule="nonzero"/><path fill="#ffffff" d="M 206.929688 149.394531 C 207.457031 150.023438 207.375 150.964844 206.742188 151.496094 C 206.113281 152.023438 205.171875 151.941406 204.640625 151.3125 C 204.113281 150.679688 204.195312 149.738281 204.828125 149.210938 C 205.457031 148.679688 206.398438 148.761719 206.929688 149.394531 " fill-opacity="1" fill-rule="nonzero"/><path fill="#ffffff" d="M 205.476562 152.992188 C 205.984375 153.597656 205.902344 154.496094 205.300781 155.003906 C 204.695312 155.507812 203.796875 155.429688 203.289062 154.828125 C 202.785156 154.222656 202.863281 153.324219 203.464844 152.816406 C 204.070312 152.308594 204.96875 152.386719 205.476562 152.992188 " fill-opacity="1" fill-rule="nonzero"/><path fill="#ffffff" d="M 203.324219 156.300781 C 203.808594 156.878906 203.730469 157.738281 203.15625 158.222656 C 202.578125 158.707031 201.71875 158.632812 201.234375 158.054688 C 200.75 157.476562 200.828125 156.621094 201.402344 156.136719 C 201.980469 155.652344 202.839844 155.726562 203.324219 156.300781 " fill-opacity="1" fill-rule="nonzero"/><path fill="#ffffff" d="M 200.476562 159.214844 C 200.941406 159.765625 200.867188 160.585938 200.320312 161.046875 C 199.769531 161.507812 198.949219 161.433594 198.488281 160.886719 C 198.027344 160.335938 198.097656 159.515625 198.648438 159.054688 C 199.199219 158.59375 200.015625 158.664062 200.476562 159.214844 " fill-opacity="1" fill-rule="nonzero"/><path fill="#ffffff" d="M 197.117188 161.511719 C 197.554688 162.035156 197.488281 162.8125 196.964844 163.25 C 196.441406 163.691406 195.664062 163.621094 195.222656 163.097656 C 194.785156 162.578125 194.855469 161.796875 195.375 161.359375 C 195.898438 160.921875 196.679688 160.988281 197.117188 161.511719 " fill-opacity="1" fill-rule="nonzero"/><path fill="#ffffff" d="M 193.480469 163.058594 C 193.898438 163.550781 193.832031 164.289062 193.335938 164.707031 C 192.839844 165.125 192.105469 165.058594 191.6875 164.5625 C 191.269531 164.066406 191.335938 163.328125 191.832031 162.914062 C 192.328125 162.496094 193.066406 162.5625 193.480469 163.058594 " fill-opacity="1" fill-rule="nonzero"/><path fill="#ffffff" d="M 189.683594 163.863281 C 190.078125 164.328125 190.019531 165.027344 189.546875 165.421875 C 189.078125 165.8125 188.382812 165.75 187.988281 165.285156 C 187.597656 164.816406 187.65625 164.117188 188.125 163.722656 C 188.59375 163.332031 189.292969 163.394531 189.683594 163.863281 " fill-opacity="1" fill-rule="nonzero"/><path fill="#ffffff" d="M 185.839844 163.933594 C 186.210938 164.375 186.152344 165.03125 185.710938 165.402344 C 185.269531 165.773438 184.613281 165.714844 184.242188 165.273438 C 183.875 164.832031 183.929688 164.175781 184.371094 163.804688 C 184.8125 163.4375 185.46875 163.492188 185.839844 163.933594 " fill-opacity="1" fill-rule="nonzero"/><path fill="#ffffff" d="M 182.058594 163.285156 C 182.40625 163.699219 182.351562 164.316406 181.9375 164.664062 C 181.523438 165.011719 180.90625 164.957031 180.558594 164.542969 C 180.210938 164.128906 180.265625 163.511719 180.679688 163.164062 C 181.09375 162.816406 181.710938 162.871094 182.058594 163.285156 " fill-opacity="1" fill-rule="nonzero"/><path fill="#ffffff" d="M 178.453125 161.925781 C 178.777344 162.3125 178.726562 162.886719 178.339844 163.210938 C 177.953125 163.535156 177.375 163.484375 177.050781 163.101562 C 176.726562 162.714844 176.777344 162.136719 177.164062 161.8125 C 177.550781 161.484375 178.128906 161.535156 178.453125 161.925781 " fill-opacity="1" fill-rule="nonzero"/><path fill="#ffffff" d="M 175.132812 159.863281 C 175.433594 160.222656 175.386719 160.757812 175.027344 161.058594 C 174.667969 161.363281 174.132812 161.3125 173.828125 160.953125 C 173.527344 160.59375 173.574219 160.058594 173.933594 159.757812 C 174.292969 159.453125 174.832031 159.5 175.132812 159.863281 " fill-opacity="1" fill-rule="nonzero"/><path fill="#ffffff" d="M 172.210938 157.105469 C 172.492188 157.441406 172.449219 157.933594 172.117188 158.214844 C 171.78125 158.492188 171.285156 158.449219 171.007812 158.117188 C 170.730469 157.785156 170.773438 157.289062 171.105469 157.007812 C 171.4375 156.730469 171.933594 156.773438 172.210938 157.105469 " fill-opacity="1" fill-rule="nonzero"/><path fill="#ffffff" d="M 169.910156 153.835938 C 170.164062 154.140625 170.125 154.59375 169.820312 154.851562 C 169.511719 155.109375 169.058594 155.070312 168.800781 154.765625 C 168.542969 154.457031 168.585938 154.003906 168.890625 153.746094 C 169.195312 153.488281 169.652344 153.53125 169.910156 153.835938 " fill-opacity="1" fill-rule="nonzero"/><path fill="#ffffff" d="M 168.355469 150.289062 C 168.589844 150.570312 168.550781 150.984375 168.273438 151.21875 C 167.996094 151.453125 167.578125 151.414062 167.347656 151.136719 C 167.113281 150.855469 167.148438 150.441406 167.425781 150.207031 C 167.707031 149.972656 168.121094 150.011719 168.355469 150.289062 " fill-opacity="1" fill-rule="nonzero"/><path fill="#ffffff" d="M 167.542969 146.582031 C 167.753906 146.835938 167.722656 147.210938 167.46875 147.421875 C 167.21875 147.632812 166.84375 147.601562 166.632812 147.347656 C 166.421875 147.097656 166.453125 146.722656 166.707031 146.511719 C 166.957031 146.300781 167.332031 146.332031 167.542969 146.582031 " fill-opacity="1" fill-rule="nonzero"/><path fill="#ffffff" d="M 167.460938 142.828125 C 167.652344 143.054688 167.621094 143.386719 167.398438 143.578125 C 167.171875 143.765625 166.839844 143.734375 166.652344 143.511719 C 166.460938 143.285156 166.492188 142.953125 166.714844 142.765625 C 166.941406 142.574219 167.273438 142.605469 167.460938 142.828125 " fill-opacity="1" fill-rule="nonzero"/><path fill="#ffffff" d="M 168.101562 139.136719 C 168.269531 139.335938 168.242188 139.628906 168.046875 139.792969 C 167.847656 139.960938 167.554688 139.933594 167.390625 139.738281 C 167.222656 139.539062 167.25 139.246094 167.449219 139.078125 C 167.644531 138.914062 167.9375 138.941406 168.101562 139.136719 " fill-opacity="1" fill-rule="nonzero"/><path fill="#ffffff" d="M 169.457031 135.621094 C 169.597656 135.789062 169.578125 136.046875 169.40625 136.1875 C 169.238281 136.332031 168.984375 136.308594 168.839844 136.136719 C 168.699219 135.96875 168.71875 135.714844 168.890625 135.570312 C 169.058594 135.429688 169.3125 135.449219 169.457031 135.621094 " fill-opacity="1" fill-rule="nonzero"/><path fill="#ffffff" d="M 171.511719 132.394531 C 171.632812 132.535156 171.613281 132.75 171.46875 132.867188 C 171.328125 132.988281 171.113281 132.96875 170.992188 132.828125 C 170.871094 132.683594 170.890625 132.472656 171.035156 132.351562 C 171.179688 132.230469 171.390625 132.25 171.511719 132.394531 " fill-opacity="1" fill-rule="nonzero"/><path fill="#ffffff" d="M 174.257812 129.5625 C 174.355469 129.679688 174.339844 129.851562 174.226562 129.949219 C 174.109375 130.046875 173.933594 130.03125 173.839844 129.914062 C 173.742188 129.796875 173.757812 129.625 173.871094 129.527344 C 173.988281 129.429688 174.160156 129.445312 174.257812 129.5625 " fill-opacity="1" fill-rule="nonzero"/><g fill="#ffffff" fill-opacity="1"><g transform="translate(52.723223, 286.63055)"><g><path d="M 34.515625 -17.46875 L 42.84375 -17.46875 C 42.5625 -14.914062 41.835938 -12.539062 40.671875 -10.34375 C 39.503906 -8.15625 38 -6.238281 36.15625 -4.59375 C 34.3125 -2.945312 32.222656 -1.65625 29.890625 -0.71875 C 27.554688 0.21875 25.078125 0.6875 22.453125 0.6875 C 19.628906 0.6875 16.984375 0.15625 14.515625 -0.90625 C 12.054688 -1.96875 9.894531 -3.4375 8.03125 -5.3125 C 6.175781 -7.1875 4.726562 -9.351562 3.6875 -11.8125 C 2.644531 -14.269531 2.125 -16.914062 2.125 -19.75 C 2.125 -22.582031 2.644531 -25.238281 3.6875 -27.71875 C 4.726562 -30.195312 6.175781 -32.375 8.03125 -34.25 C 9.894531 -36.125 12.054688 -37.59375 14.515625 -38.65625 C 16.984375 -39.71875 19.613281 -40.25 22.40625 -40.25 C 26.082031 -40.25 29.46875 -39.367188 32.5625 -37.609375 C 35.664062 -35.859375 38.101562 -33.535156 39.875 -30.640625 L 33.453125 -26.0625 C 32.035156 -28.1875 30.359375 -29.769531 28.421875 -30.8125 C 26.492188 -31.863281 24.503906 -32.390625 22.453125 -32.390625 C 20.265625 -32.390625 18.265625 -31.820312 16.453125 -30.6875 C 14.648438 -29.550781 13.21875 -28.023438 12.15625 -26.109375 C 11.09375 -24.203125 10.5625 -22.082031 10.5625 -19.75 C 10.5625 -17.445312 11.09375 -15.335938 12.15625 -13.421875 C 13.21875 -11.515625 14.648438 -10.003906 16.453125 -8.890625 C 18.265625 -7.773438 20.265625 -7.21875 22.453125 -7.21875 C 24.441406 -7.21875 26.273438 -7.660156 27.953125 -8.546875 C 29.628906 -9.429688 31.050781 -10.644531 32.21875 -12.1875 C 33.394531 -13.726562 34.160156 -15.488281 34.515625 -17.46875 Z M 34.515625 -17.46875 "/></g></g></g><g fill="#ffffff" fill-opacity="1"><g transform="translate(97.680739, 286.63055)"><g><path d="M 16.140625 -6.84375 L 12 -6.84375 L 12 0 L 3.765625 0 L 3.765625 -39.5625 L 17.515625 -39.5625 C 19.859375 -39.5625 22.019531 -39.160156 24 -38.359375 C 25.976562 -37.566406 27.710938 -36.453125 29.203125 -35.015625 C 30.691406 -33.578125 31.847656 -31.921875 32.671875 -30.046875 C 33.503906 -28.171875 33.921875 -26.15625 33.921875 -24 C 33.921875 -20.457031 33.125 -17.410156 31.53125 -14.859375 C 29.9375 -12.316406 27.757812 -10.40625 25 -9.125 L 33.5625 0 L 22.625 0 Z M 12 -14.28125 L 15.390625 -14.28125 C 18.648438 -14.28125 21.144531 -15.054688 22.875 -16.609375 C 24.613281 -18.171875 25.484375 -20.421875 25.484375 -23.359375 C 25.484375 -24.984375 25.164062 -26.453125 24.53125 -27.765625 C 23.894531 -29.078125 22.945312 -30.128906 21.6875 -30.921875 C 20.425781 -31.722656 18.859375 -32.125 16.984375 -32.125 L 12 -32.125 Z M 12 -14.28125 "/></g></g></g><g fill="#ffffff" fill-opacity="1"><g transform="translate(133.508741, 286.63055)"><g><path d="M 28.296875 0 L 3.765625 0 L 3.765625 -39.5625 L 24.796875 -39.5625 L 24.796875 -32.125 L 12 -32.125 L 12 -24.734375 L 26.859375 -24.734375 L 26.859375 -17.359375 L 12 -17.359375 L 12 -7.4375 L 28.296875 -7.4375 Z M 28.296875 0 "/></g></g></g><g fill="#ffffff" fill-opacity="1"><g transform="translate(163.922737, 286.63055)"><g><path d="M 32.5 0 L 29.890625 -5.3125 L 10.71875 -5.3125 L 8.171875 0 L -0.3125 0 L 20.546875 -40.25 L 41.46875 0 Z M 20.234375 -25.0625 L 14.28125 -12.75 L 26.28125 -12.75 Z M 20.234375 -25.0625 "/></g></g></g><g fill="#ffffff" fill-opacity="1"><g transform="translate(205.058599, 286.63055)"><g><path d="M 19 0 L 10.78125 0 L 10.78125 -32.125 L 1.015625 -32.125 L 1.015625 -39.5625 L 29.40625 -39.5625 L 29.40625 -32.125 L 19 -32.125 Z M 19 0 "/></g></g></g><g fill="#ffffff" fill-opacity="1"><g transform="translate(235.472595, 286.63055)"><g><path d="M 12 -39.5625 L 12 0 L 3.765625 0 L 3.765625 -39.5625 Z M 12 -39.5625 "/></g></g></g><g fill="#ffffff" fill-opacity="1"><g transform="translate(251.236909, 286.63055)"><g><path d="M 21.125 -16.359375 L 32.4375 -39.5625 L 40.9375 -39.5625 L 20.8125 0.6875 L -0.3125 -39.5625 L 9.125 -39.5625 Z M 21.125 -16.359375 "/></g></g></g><g fill="#ffffff" fill-opacity="1"><g transform="translate(291.841982, 286.63055)"><g><path d="M 28.296875 0 L 3.765625 0 L 3.765625 -39.5625 L 24.796875 -39.5625 L 24.796875 -32.125 L 12 -32.125 L 12 -24.734375 L 26.859375 -24.734375 L 26.859375 -17.359375 L 12 -17.359375 L 12 -7.4375 L 28.296875 -7.4375 Z M 28.296875 0 "/></g></g></g><g fill="#ffffff" fill-opacity="1"><g transform="translate(122.16114, 320.698441)"><g><path d="M 2.203125 -18.421875 L 6.578125 -18.421875 L 11.421875 -10.625 L 16.265625 -18.421875 L 20.625 -18.421875 L 20.625 0 L 16.609375 0 L 16.609375 -12.03125 L 11.421875 -4.15625 L 11.3125 -4.15625 L 6.1875 -11.953125 L 6.1875 0 L 2.203125 0 Z M 2.203125 -18.421875 "/></g></g></g><g fill="#ffffff" fill-opacity="1"><g transform="translate(155.189211, 320.698441)"><g><path d="M 2.390625 -18.421875 L 6.453125 -18.421875 L 6.453125 0 L 2.390625 0 Z M 2.390625 -18.421875 "/></g></g></g><g fill="#ffffff" fill-opacity="1"><g transform="translate(174.217452, 320.698441)"><g><path d="M 2.203125 -18.421875 L 5.953125 -18.421875 L 14.578125 -7.078125 L 14.578125 -18.421875 L 18.578125 -18.421875 L 18.578125 0 L 15.125 0 L 6.203125 -11.703125 L 6.203125 0 L 2.203125 0 Z M 2.203125 -18.421875 "/></g></g></g><g fill="#ffffff" fill-opacity="1"><g transform="translate(205.192925, 320.698441)"><g><path d="M 2.203125 -18.421875 L 9.390625 -18.421875 C 10.828125 -18.421875 12.144531 -18.1875 13.34375 -17.71875 C 14.550781 -17.257812 15.585938 -16.613281 16.453125 -15.78125 C 17.328125 -14.957031 18 -13.988281 18.46875 -12.875 C 18.945312 -11.757812 19.1875 -10.554688 19.1875 -9.265625 L 19.1875 -9.203125 C 19.1875 -7.910156 18.945312 -6.703125 18.46875 -5.578125 C 18 -4.453125 17.328125 -3.476562 16.453125 -2.65625 C 15.585938 -1.832031 14.550781 -1.179688 13.34375 -0.703125 C 12.144531 -0.234375 10.828125 0 9.390625 0 L 2.203125 0 Z M 6.265625 -14.765625 L 6.265625 -3.65625 L 9.390625 -3.65625 C 10.210938 -3.65625 10.96875 -3.785156 11.65625 -4.046875 C 12.34375 -4.316406 12.925781 -4.695312 13.40625 -5.1875 C 13.882812 -5.675781 14.257812 -6.253906 14.53125 -6.921875 C 14.8125 -7.585938 14.953125 -8.332031 14.953125 -9.15625 L 14.953125 -9.203125 C 14.953125 -10.015625 14.8125 -10.757812 14.53125 -11.4375 C 14.257812 -12.125 13.882812 -12.710938 13.40625 -13.203125 C 12.925781 -13.703125 12.34375 -14.085938 11.65625 -14.359375 C 10.96875 -14.628906 10.210938 -14.765625 9.390625 -14.765625 Z M 6.265625 -14.765625 "/></g></g></g><g fill="#ffffff" fill-opacity="1"><g transform="translate(235.957858, 320.698441)"><g><path d="M 8.765625 0.265625 C 7.359375 0.265625 5.976562 0.0234375 4.625 -0.453125 C 3.28125 -0.941406 2.054688 -1.6875 0.953125 -2.6875 L 3.34375 -5.546875 C 4.1875 -4.867188 5.050781 -4.328125 5.9375 -3.921875 C 6.820312 -3.515625 7.789062 -3.3125 8.84375 -3.3125 C 9.6875 -3.3125 10.335938 -3.460938 10.796875 -3.765625 C 11.265625 -4.078125 11.5 -4.503906 11.5 -5.046875 L 11.5 -5.109375 C 11.5 -5.367188 11.445312 -5.597656 11.34375 -5.796875 C 11.25 -6.003906 11.066406 -6.191406 10.796875 -6.359375 C 10.523438 -6.535156 10.148438 -6.710938 9.671875 -6.890625 C 9.191406 -7.066406 8.5625 -7.253906 7.78125 -7.453125 C 6.851562 -7.671875 6.007812 -7.921875 5.25 -8.203125 C 4.5 -8.484375 3.859375 -8.832031 3.328125 -9.25 C 2.804688 -9.664062 2.398438 -10.175781 2.109375 -10.78125 C 1.828125 -11.394531 1.6875 -12.160156 1.6875 -13.078125 L 1.6875 -13.125 C 1.6875 -13.96875 1.84375 -14.726562 2.15625 -15.40625 C 2.46875 -16.082031 2.910156 -16.664062 3.484375 -17.15625 C 4.054688 -17.644531 4.734375 -18.019531 5.515625 -18.28125 C 6.304688 -18.550781 7.175781 -18.6875 8.125 -18.6875 C 9.476562 -18.6875 10.71875 -18.484375 11.84375 -18.078125 C 12.976562 -17.671875 14.019531 -17.09375 14.96875 -16.34375 L 12.859375 -13.28125 C 12.035156 -13.84375 11.226562 -14.285156 10.4375 -14.609375 C 9.65625 -14.941406 8.867188 -15.109375 8.078125 -15.109375 C 7.285156 -15.109375 6.691406 -14.953125 6.296875 -14.640625 C 5.898438 -14.335938 5.703125 -13.957031 5.703125 -13.5 L 5.703125 -13.453125 C 5.703125 -13.148438 5.757812 -12.890625 5.875 -12.671875 C 5.988281 -12.453125 6.195312 -12.253906 6.5 -12.078125 C 6.800781 -11.898438 7.207031 -11.734375 7.71875 -11.578125 C 8.238281 -11.421875 8.894531 -11.238281 9.6875 -11.03125 C 10.613281 -10.78125 11.441406 -10.5 12.171875 -10.1875 C 12.898438 -9.882812 13.515625 -9.519531 14.015625 -9.09375 C 14.515625 -8.664062 14.890625 -8.160156 15.140625 -7.578125 C 15.398438 -6.992188 15.53125 -6.300781 15.53125 -5.5 L 15.53125 -5.453125 C 15.53125 -4.535156 15.363281 -3.722656 15.03125 -3.015625 C 14.695312 -2.304688 14.226562 -1.707031 13.625 -1.21875 C 13.03125 -0.738281 12.320312 -0.367188 11.5 -0.109375 C 10.675781 0.140625 9.765625 0.265625 8.765625 0.265625 Z M 8.765625 0.265625 "/></g></g></g></svg>