<svg xmlns="http://www.w3.org/2000/svg" xmlns:xlink="http://www.w3.org/1999/xlink" width="500" zoomAndPan="magnify" viewBox="0 0 375 374.999991" height="500" preserveAspectRatio="xMidYMid meet" version="1.0"><defs><g/><clipPath id="3b4d615abc"><path d="M 71 119 L 87 119 L 87 126 L 71 126 Z M 71 119 " clip-rule="nonzero"/></clipPath><clipPath id="800cac9d2e"><path d="M 0 173.640625 L 119.40625 87.902344 L 200.773438 201.21875 L 81.367188 286.957031 Z M 0 173.640625 " clip-rule="nonzero"/></clipPath><clipPath id="f0dbb17e71"><path d="M 0 173.640625 L 119.40625 87.902344 L 200.773438 201.21875 L 81.367188 286.957031 Z M 0 173.640625 " clip-rule="nonzero"/></clipPath><clipPath id="c64eb5bfa4"><path d="M 78 118 L 91 118 L 91 125 L 78 125 Z M 78 118 " clip-rule="nonzero"/></clipPath><clipPath id="4eafe45d60"><path d="M 0 173.640625 L 119.40625 87.902344 L 200.773438 201.21875 L 81.367188 286.957031 Z M 0 173.640625 " clip-rule="nonzero"/></clipPath><clipPath id="f231de320e"><path d="M 0 173.640625 L 119.40625 87.902344 L 200.773438 201.21875 L 81.367188 286.957031 Z M 0 173.640625 " clip-rule="nonzero"/></clipPath><clipPath id="8bf4a5bff7"><path d="M 89 118 L 99 118 L 99 125 L 89 125 Z M 89 118 " clip-rule="nonzero"/></clipPath><clipPath id="8d73541e3c"><path d="M 0 173.640625 L 119.40625 87.902344 L 200.773438 201.21875 L 81.367188 286.957031 Z M 0 173.640625 " clip-rule="nonzero"/></clipPath><clipPath id="26cb5e2a98"><path d="M 0 173.640625 L 119.40625 87.902344 L 200.773438 201.21875 L 81.367188 286.957031 Z M 0 173.640625 " clip-rule="nonzero"/></clipPath><clipPath id="c1bc2069ff"><path d="M 100 118 L 108 118 L 108 125 L 100 125 Z M 100 118 " clip-rule="nonzero"/></clipPath><clipPath id="cf3ccef1d4"><path d="M 0 173.640625 L 119.40625 87.902344 L 200.773438 201.21875 L 81.367188 286.957031 Z M 0 173.640625 " clip-rule="nonzero"/></clipPath><clipPath id="bf6161482a"><path d="M 0 173.640625 L 119.40625 87.902344 L 200.773438 201.21875 L 81.367188 286.957031 Z M 0 173.640625 " clip-rule="nonzero"/></clipPath><clipPath id="6668ea1db2"><path d="M 110 119 L 119 119 L 119 126 L 110 126 Z M 110 119 " clip-rule="nonzero"/></clipPath><clipPath id="7e4eca3730"><path d="M 0 173.640625 L 119.40625 87.902344 L 200.773438 201.21875 L 81.367188 286.957031 Z M 0 173.640625 " clip-rule="nonzero"/></clipPath><clipPath id="f6d631eb4c"><path d="M 0 173.640625 L 119.40625 87.902344 L 200.773438 201.21875 L 81.367188 286.957031 Z M 0 173.640625 " clip-rule="nonzero"/></clipPath><clipPath id="accd1d74aa"><path d="M 117 119 L 130 119 L 130 126 L 117 126 Z M 117 119 " clip-rule="nonzero"/></clipPath><clipPath id="6a0e17ae2a"><path d="M 0 173.640625 L 119.40625 87.902344 L 200.773438 201.21875 L 81.367188 286.957031 Z M 0 173.640625 " clip-rule="nonzero"/></clipPath><clipPath id="0a8a047cad"><path d="M 0 173.640625 L 119.40625 87.902344 L 200.773438 201.21875 L 81.367188 286.957031 Z M 0 173.640625 " clip-rule="nonzero"/></clipPath><clipPath id="82daba017a"><path d="M 122 119 L 137 119 L 137 127 L 122 127 Z M 122 119 " clip-rule="nonzero"/></clipPath><clipPath id="217cbd4dcb"><path d="M 0 173.640625 L 119.40625 87.902344 L 200.773438 201.21875 L 81.367188 286.957031 Z M 0 173.640625 " clip-rule="nonzero"/></clipPath><clipPath id="a3a4196dc9"><path d="M 0 173.640625 L 119.40625 87.902344 L 200.773438 201.21875 L 81.367188 286.957031 Z M 0 173.640625 " clip-rule="nonzero"/></clipPath><clipPath id="c407f06464"><path d="M 51 128 L 66 128 L 66 140 L 51 140 Z M 51 128 " clip-rule="nonzero"/></clipPath><clipPath id="c1853f51d8"><path d="M 0 173.640625 L 119.40625 87.902344 L 200.773438 201.21875 L 81.367188 286.957031 Z M 0 173.640625 " clip-rule="nonzero"/></clipPath><clipPath id="0c15c2cc90"><path d="M 0 173.640625 L 119.40625 87.902344 L 200.773438 201.21875 L 81.367188 286.957031 Z M 0 173.640625 " clip-rule="nonzero"/></clipPath><clipPath id="b4a3dc2dfe"><path d="M 59 127 L 73 127 L 73 139 L 59 139 Z M 59 127 " clip-rule="nonzero"/></clipPath><clipPath id="321bea16d1"><path d="M 0 173.640625 L 119.40625 87.902344 L 200.773438 201.21875 L 81.367188 286.957031 Z M 0 173.640625 " clip-rule="nonzero"/></clipPath><clipPath id="5fe8232c64"><path d="M 0 173.640625 L 119.40625 87.902344 L 200.773438 201.21875 L 81.367188 286.957031 Z M 0 173.640625 " clip-rule="nonzero"/></clipPath><clipPath id="c901cc48ea"><path d="M 72 127 L 86 127 L 86 138 L 72 138 Z M 72 127 " clip-rule="nonzero"/></clipPath><clipPath id="56dd79a0a2"><path d="M 0 173.640625 L 119.40625 87.902344 L 200.773438 201.21875 L 81.367188 286.957031 Z M 0 173.640625 " clip-rule="nonzero"/></clipPath><clipPath id="49298ea80a"><path d="M 0 173.640625 L 119.40625 87.902344 L 200.773438 201.21875 L 81.367188 286.957031 Z M 0 173.640625 " clip-rule="nonzero"/></clipPath><clipPath id="271395c2d9"><path d="M 89 126 L 102 126 L 102 138 L 89 138 Z M 89 126 " clip-rule="nonzero"/></clipPath><clipPath id="319e59d2b0"><path d="M 0 173.640625 L 119.40625 87.902344 L 200.773438 201.21875 L 81.367188 286.957031 Z M 0 173.640625 " clip-rule="nonzero"/></clipPath><clipPath id="8a6a700b63"><path d="M 0 173.640625 L 119.40625 87.902344 L 200.773438 201.21875 L 81.367188 286.957031 Z M 0 173.640625 " clip-rule="nonzero"/></clipPath><clipPath id="c1c227533f"><path d="M 106 127 L 119 127 L 119 138 L 106 138 Z M 106 127 " clip-rule="nonzero"/></clipPath><clipPath id="8cfe6b88fa"><path d="M 0 173.640625 L 119.40625 87.902344 L 200.773438 201.21875 L 81.367188 286.957031 Z M 0 173.640625 " clip-rule="nonzero"/></clipPath><clipPath id="7cc34bfd07"><path d="M 0 173.640625 L 119.40625 87.902344 L 200.773438 201.21875 L 81.367188 286.957031 Z M 0 173.640625 " clip-rule="nonzero"/></clipPath><clipPath id="beb70b3c30"><path d="M 122 127 L 135 127 L 135 139 L 122 139 Z M 122 127 " clip-rule="nonzero"/></clipPath><clipPath id="7d409db00f"><path d="M 0 173.640625 L 119.40625 87.902344 L 200.773438 201.21875 L 81.367188 286.957031 Z M 0 173.640625 " clip-rule="nonzero"/></clipPath><clipPath id="95ebc33e3d"><path d="M 0 173.640625 L 119.40625 87.902344 L 200.773438 201.21875 L 81.367188 286.957031 Z M 0 173.640625 " clip-rule="nonzero"/></clipPath><clipPath id="f1a3b09263"><path d="M 135 128 L 148 128 L 148 140 L 135 140 Z M 135 128 " clip-rule="nonzero"/></clipPath><clipPath id="f1607fadef"><path d="M 0 173.640625 L 119.40625 87.902344 L 200.773438 201.21875 L 81.367188 286.957031 Z M 0 173.640625 " clip-rule="nonzero"/></clipPath><clipPath id="81ef8a3ac6"><path d="M 0 173.640625 L 119.40625 87.902344 L 200.773438 201.21875 L 81.367188 286.957031 Z M 0 173.640625 " clip-rule="nonzero"/></clipPath><clipPath id="f7e100b461"><path d="M 142 129 L 156 129 L 156 142 L 142 142 Z M 142 129 " clip-rule="nonzero"/></clipPath><clipPath id="240f3daa6e"><path d="M 0 173.640625 L 119.40625 87.902344 L 200.773438 201.21875 L 81.367188 286.957031 Z M 0 173.640625 " clip-rule="nonzero"/></clipPath><clipPath id="d683526862"><path d="M 0 173.640625 L 119.40625 87.902344 L 200.773438 201.21875 L 81.367188 286.957031 Z M 0 173.640625 " clip-rule="nonzero"/></clipPath><clipPath id="f786cffe0a"><path d="M 37 142 L 48 142 L 48 157 L 37 157 Z M 37 142 " clip-rule="nonzero"/></clipPath><clipPath id="0323bf4765"><path d="M 0 173.640625 L 119.40625 87.902344 L 200.773438 201.21875 L 81.367188 286.957031 Z M 0 173.640625 " clip-rule="nonzero"/></clipPath><clipPath id="8580cedc8c"><path d="M 0 173.640625 L 119.40625 87.902344 L 200.773438 201.21875 L 81.367188 286.957031 Z M 0 173.640625 " clip-rule="nonzero"/></clipPath><clipPath id="1c80fe8b0d"><path d="M 43 141 L 55 141 L 55 156 L 43 156 Z M 43 141 " clip-rule="nonzero"/></clipPath><clipPath id="8b8266ca08"><path d="M 0 173.640625 L 119.40625 87.902344 L 200.773438 201.21875 L 81.367188 286.957031 Z M 0 173.640625 " clip-rule="nonzero"/></clipPath><clipPath id="261bde34a0"><path d="M 0 173.640625 L 119.40625 87.902344 L 200.773438 201.21875 L 81.367188 286.957031 Z M 0 173.640625 " clip-rule="nonzero"/></clipPath><clipPath id="3b1114008e"><path d="M 55 140 L 70 140 L 70 155 L 55 155 Z M 55 140 " clip-rule="nonzero"/></clipPath><clipPath id="f145d43895"><path d="M 0 173.640625 L 119.40625 87.902344 L 200.773438 201.21875 L 81.367188 286.957031 Z M 0 173.640625 " clip-rule="nonzero"/></clipPath><clipPath id="989544fc8b"><path d="M 0 173.640625 L 119.40625 87.902344 L 200.773438 201.21875 L 81.367188 286.957031 Z M 0 173.640625 " clip-rule="nonzero"/></clipPath><clipPath id="9a4e9951d4"><path d="M 74 139 L 90 139 L 90 155 L 74 155 Z M 74 139 " clip-rule="nonzero"/></clipPath><clipPath id="d8f26c6607"><path d="M 0 173.640625 L 119.40625 87.902344 L 200.773438 201.21875 L 81.367188 286.957031 Z M 0 173.640625 " clip-rule="nonzero"/></clipPath><clipPath id="d5c3c833a8"><path d="M 0 173.640625 L 119.40625 87.902344 L 200.773438 201.21875 L 81.367188 286.957031 Z M 0 173.640625 " clip-rule="nonzero"/></clipPath><clipPath id="419abdac2f"><path d="M 96 140 L 112 140 L 112 155 L 96 155 Z M 96 140 " clip-rule="nonzero"/></clipPath><clipPath id="138c09636c"><path d="M 0 173.640625 L 119.40625 87.902344 L 200.773438 201.21875 L 81.367188 286.957031 Z M 0 173.640625 " clip-rule="nonzero"/></clipPath><clipPath id="465dd5079e"><path d="M 0 173.640625 L 119.40625 87.902344 L 200.773438 201.21875 L 81.367188 286.957031 Z M 0 173.640625 " clip-rule="nonzero"/></clipPath><clipPath id="bb449e5a90"><path d="M 118 140 L 133 140 L 133 155 L 118 155 Z M 118 140 " clip-rule="nonzero"/></clipPath><clipPath id="3f286c4bf1"><path d="M 0 173.640625 L 119.40625 87.902344 L 200.773438 201.21875 L 81.367188 286.957031 Z M 0 173.640625 " clip-rule="nonzero"/></clipPath><clipPath id="1af95a3c03"><path d="M 0 173.640625 L 119.40625 87.902344 L 200.773438 201.21875 L 81.367188 286.957031 Z M 0 173.640625 " clip-rule="nonzero"/></clipPath><clipPath id="0a0385cf8a"><path d="M 137 141 L 151 141 L 151 157 L 137 157 Z M 137 141 " clip-rule="nonzero"/></clipPath><clipPath id="f0cb50e631"><path d="M 0 173.640625 L 119.40625 87.902344 L 200.773438 201.21875 L 81.367188 286.957031 Z M 0 173.640625 " clip-rule="nonzero"/></clipPath><clipPath id="b33387bf95"><path d="M 0 173.640625 L 119.40625 87.902344 L 200.773438 201.21875 L 81.367188 286.957031 Z M 0 173.640625 " clip-rule="nonzero"/></clipPath><clipPath id="6057a56c47"><path d="M 152 142 L 164 142 L 164 158 L 152 158 Z M 152 142 " clip-rule="nonzero"/></clipPath><clipPath id="98fe2de468"><path d="M 0 173.640625 L 119.40625 87.902344 L 200.773438 201.21875 L 81.367188 286.957031 Z M 0 173.640625 " clip-rule="nonzero"/></clipPath><clipPath id="7d11271183"><path d="M 0 173.640625 L 119.40625 87.902344 L 200.773438 201.21875 L 81.367188 286.957031 Z M 0 173.640625 " clip-rule="nonzero"/></clipPath><clipPath id="11c8a67054"><path d="M 159 144 L 170 144 L 170 160 L 159 160 Z M 159 144 " clip-rule="nonzero"/></clipPath><clipPath id="d8220b2133"><path d="M 0 173.640625 L 119.40625 87.902344 L 200.773438 201.21875 L 81.367188 286.957031 Z M 0 173.640625 " clip-rule="nonzero"/></clipPath><clipPath id="14499fa3fa"><path d="M 0 173.640625 L 119.40625 87.902344 L 200.773438 201.21875 L 81.367188 286.957031 Z M 0 173.640625 " clip-rule="nonzero"/></clipPath><clipPath id="b0428e4a71"><path d="M 32 158 L 41 158 L 41 176 L 32 176 Z M 32 158 " clip-rule="nonzero"/></clipPath><clipPath id="b623d1cadf"><path d="M 0 173.640625 L 119.40625 87.902344 L 200.773438 201.21875 L 81.367188 286.957031 Z M 0 173.640625 " clip-rule="nonzero"/></clipPath><clipPath id="209d3d4de3"><path d="M 0 173.640625 L 119.40625 87.902344 L 200.773438 201.21875 L 81.367188 286.957031 Z M 0 173.640625 " clip-rule="nonzero"/></clipPath><clipPath id="66978da0cc"><path d="M 41 157 L 54 157 L 54 174 L 41 174 Z M 41 157 " clip-rule="nonzero"/></clipPath><clipPath id="585b1b8068"><path d="M 0 173.640625 L 119.40625 87.902344 L 200.773438 201.21875 L 81.367188 286.957031 Z M 0 173.640625 " clip-rule="nonzero"/></clipPath><clipPath id="b2965f377b"><path d="M 0 173.640625 L 119.40625 87.902344 L 200.773438 201.21875 L 81.367188 286.957031 Z M 0 173.640625 " clip-rule="nonzero"/></clipPath><clipPath id="88e1a3a7e8"><path d="M 58 156 L 75 156 L 75 174 L 58 174 Z M 58 156 " clip-rule="nonzero"/></clipPath><clipPath id="47ae3ad082"><path d="M 0 173.640625 L 119.40625 87.902344 L 200.773438 201.21875 L 81.367188 286.957031 Z M 0 173.640625 " clip-rule="nonzero"/></clipPath><clipPath id="e9263e27cd"><path d="M 0 173.640625 L 119.40625 87.902344 L 200.773438 201.21875 L 81.367188 286.957031 Z M 0 173.640625 " clip-rule="nonzero"/></clipPath><clipPath id="c2587aa108"><path d="M 82 156 L 100 156 L 100 173 L 82 173 Z M 82 156 " clip-rule="nonzero"/></clipPath><clipPath id="8e2e155bc2"><path d="M 0 173.640625 L 119.40625 87.902344 L 200.773438 201.21875 L 81.367188 286.957031 Z M 0 173.640625 " clip-rule="nonzero"/></clipPath><clipPath id="ec231b4f6a"><path d="M 0 173.640625 L 119.40625 87.902344 L 200.773438 201.21875 L 81.367188 286.957031 Z M 0 173.640625 " clip-rule="nonzero"/></clipPath><clipPath id="e96a355a0b"><path d="M 131 157 L 147 157 L 147 175 L 131 175 Z M 131 157 " clip-rule="nonzero"/></clipPath><clipPath id="a016798c42"><path d="M 0 173.640625 L 119.40625 87.902344 L 200.773438 201.21875 L 81.367188 286.957031 Z M 0 173.640625 " clip-rule="nonzero"/></clipPath><clipPath id="6e8440dbe1"><path d="M 0 173.640625 L 119.40625 87.902344 L 200.773438 201.21875 L 81.367188 286.957031 Z M 0 173.640625 " clip-rule="nonzero"/></clipPath><clipPath id="508584c4de"><path d="M 29 179 L 32 179 L 32 199 L 29 199 Z M 29 179 " clip-rule="nonzero"/></clipPath><clipPath id="c532e99ce6"><path d="M 0 173.640625 L 119.40625 87.902344 L 200.773438 201.21875 L 81.367188 286.957031 Z M 0 173.640625 " clip-rule="nonzero"/></clipPath><clipPath id="4d9804a406"><path d="M 0 173.640625 L 119.40625 87.902344 L 200.773438 201.21875 L 81.367188 286.957031 Z M 0 173.640625 " clip-rule="nonzero"/></clipPath><clipPath id="fe24c86d58"><path d="M 33 177 L 42 177 L 42 197 L 33 197 Z M 33 177 " clip-rule="nonzero"/></clipPath><clipPath id="63011f4833"><path d="M 0 173.640625 L 119.40625 87.902344 L 200.773438 201.21875 L 81.367188 286.957031 Z M 0 173.640625 " clip-rule="nonzero"/></clipPath><clipPath id="9df893280b"><path d="M 0 173.640625 L 119.40625 87.902344 L 200.773438 201.21875 L 81.367188 286.957031 Z M 0 173.640625 " clip-rule="nonzero"/></clipPath><clipPath id="a199f67fcc"><path d="M 46 176 L 61 176 L 61 196 L 46 196 Z M 46 176 " clip-rule="nonzero"/></clipPath><clipPath id="0fac7bb88d"><path d="M 0 173.640625 L 119.40625 87.902344 L 200.773438 201.21875 L 81.367188 286.957031 Z M 0 173.640625 " clip-rule="nonzero"/></clipPath><clipPath id="1edda78406"><path d="M 0 173.640625 L 119.40625 87.902344 L 200.773438 201.21875 L 81.367188 286.957031 Z M 0 173.640625 " clip-rule="nonzero"/></clipPath><clipPath id="c00f3241ac"><path d="M 68 176 L 86 176 L 86 196 L 68 196 Z M 68 176 " clip-rule="nonzero"/></clipPath><clipPath id="45b416162b"><path d="M 0 173.640625 L 119.40625 87.902344 L 200.773438 201.21875 L 81.367188 286.957031 Z M 0 173.640625 " clip-rule="nonzero"/></clipPath><clipPath id="591c4b954c"><path d="M 0 173.640625 L 119.40625 87.902344 L 200.773438 201.21875 L 81.367188 286.957031 Z M 0 173.640625 " clip-rule="nonzero"/></clipPath><clipPath id="0d876dd7eb"><path d="M 94 176 L 113 176 L 113 196 L 94 196 Z M 94 176 " clip-rule="nonzero"/></clipPath><clipPath id="d8df1b8003"><path d="M 0 173.640625 L 119.40625 87.902344 L 200.773438 201.21875 L 81.367188 286.957031 Z M 0 173.640625 " clip-rule="nonzero"/></clipPath><clipPath id="0427f1a57f"><path d="M 0 173.640625 L 119.40625 87.902344 L 200.773438 201.21875 L 81.367188 286.957031 Z M 0 173.640625 " clip-rule="nonzero"/></clipPath><clipPath id="869cd30301"><path d="M 32 202 L 40 202 L 40 220 L 32 220 Z M 32 202 " clip-rule="nonzero"/></clipPath><clipPath id="43720364f4"><path d="M 0 173.640625 L 119.40625 87.902344 L 200.773438 201.21875 L 81.367188 286.957031 Z M 0 173.640625 " clip-rule="nonzero"/></clipPath><clipPath id="ef4b2f0b68"><path d="M 0 173.640625 L 119.40625 87.902344 L 200.773438 201.21875 L 81.367188 286.957031 Z M 0 173.640625 " clip-rule="nonzero"/></clipPath><clipPath id="cb9792ae36"><path d="M 41 201 L 53 201 L 53 219 L 41 219 Z M 41 201 " clip-rule="nonzero"/></clipPath><clipPath id="d43072dccf"><path d="M 0 173.640625 L 119.40625 87.902344 L 200.773438 201.21875 L 81.367188 286.957031 Z M 0 173.640625 " clip-rule="nonzero"/></clipPath><clipPath id="e1dc96d0f4"><path d="M 0 173.640625 L 119.40625 87.902344 L 200.773438 201.21875 L 81.367188 286.957031 Z M 0 173.640625 " clip-rule="nonzero"/></clipPath><clipPath id="5f4cb02c98"><path d="M 58 200 L 75 200 L 75 218 L 58 218 Z M 58 200 " clip-rule="nonzero"/></clipPath><clipPath id="cca8530cd1"><path d="M 0 173.640625 L 119.40625 87.902344 L 200.773438 201.21875 L 81.367188 286.957031 Z M 0 173.640625 " clip-rule="nonzero"/></clipPath><clipPath id="8bf834a983"><path d="M 0 173.640625 L 119.40625 87.902344 L 200.773438 201.21875 L 81.367188 286.957031 Z M 0 173.640625 " clip-rule="nonzero"/></clipPath><clipPath id="c0bc310eb3"><path d="M 81 200 L 99 200 L 99 218 L 81 218 Z M 81 200 " clip-rule="nonzero"/></clipPath><clipPath id="aa1ba4f6b7"><path d="M 0 173.640625 L 119.40625 87.902344 L 200.773438 201.21875 L 81.367188 286.957031 Z M 0 173.640625 " clip-rule="nonzero"/></clipPath><clipPath id="c4fdc88dd3"><path d="M 0 173.640625 L 119.40625 87.902344 L 200.773438 201.21875 L 81.367188 286.957031 Z M 0 173.640625 " clip-rule="nonzero"/></clipPath><clipPath id="c8069dd96e"><path d="M 37 223 L 48 223 L 48 239 L 37 239 Z M 37 223 " clip-rule="nonzero"/></clipPath><clipPath id="51dc23752d"><path d="M 0 173.640625 L 119.40625 87.902344 L 200.773438 201.21875 L 81.367188 286.957031 Z M 0 173.640625 " clip-rule="nonzero"/></clipPath><clipPath id="5109606a1a"><path d="M 0 173.640625 L 119.40625 87.902344 L 200.773438 201.21875 L 81.367188 286.957031 Z M 0 173.640625 " clip-rule="nonzero"/></clipPath><clipPath id="47bfa72c34"><path d="M 43 222 L 55 222 L 55 237 L 43 237 Z M 43 222 " clip-rule="nonzero"/></clipPath><clipPath id="f2763cdf9c"><path d="M 0 173.640625 L 119.40625 87.902344 L 200.773438 201.21875 L 81.367188 286.957031 Z M 0 173.640625 " clip-rule="nonzero"/></clipPath><clipPath id="a155ddfbba"><path d="M 0 173.640625 L 119.40625 87.902344 L 200.773438 201.21875 L 81.367188 286.957031 Z M 0 173.640625 " clip-rule="nonzero"/></clipPath><clipPath id="ae4782e047"><path d="M 55 221 L 69 221 L 69 237 L 55 237 Z M 55 221 " clip-rule="nonzero"/></clipPath><clipPath id="a88dbca060"><path d="M 0 173.640625 L 119.40625 87.902344 L 200.773438 201.21875 L 81.367188 286.957031 Z M 0 173.640625 " clip-rule="nonzero"/></clipPath><clipPath id="3d9f8835f9"><path d="M 0 173.640625 L 119.40625 87.902344 L 200.773438 201.21875 L 81.367188 286.957031 Z M 0 173.640625 " clip-rule="nonzero"/></clipPath><clipPath id="fffc884f2b"><path d="M 51 239 L 65 239 L 65 252 L 51 252 Z M 51 239 " clip-rule="nonzero"/></clipPath><clipPath id="1f0157c0ee"><path d="M 0 173.640625 L 119.40625 87.902344 L 200.773438 201.21875 L 81.367188 286.957031 Z M 0 173.640625 " clip-rule="nonzero"/></clipPath><clipPath id="b04e2c4bae"><path d="M 0 173.640625 L 119.40625 87.902344 L 200.773438 201.21875 L 81.367188 286.957031 Z M 0 173.640625 " clip-rule="nonzero"/></clipPath><clipPath id="ddc2ede4e2"><path d="M 58 238 L 72 238 L 72 251 L 58 251 Z M 58 238 " clip-rule="nonzero"/></clipPath><clipPath id="63642bc231"><path d="M 0 173.640625 L 119.40625 87.902344 L 200.773438 201.21875 L 81.367188 286.957031 Z M 0 173.640625 " clip-rule="nonzero"/></clipPath><clipPath id="09796caa5a"><path d="M 0 173.640625 L 119.40625 87.902344 L 200.773438 201.21875 L 81.367188 286.957031 Z M 0 173.640625 " clip-rule="nonzero"/></clipPath><clipPath id="99617eb918"><path d="M 71 238 L 84 238 L 84 250 L 71 250 Z M 71 238 " clip-rule="nonzero"/></clipPath><clipPath id="852d88ef44"><path d="M 0 173.640625 L 119.40625 87.902344 L 200.773438 201.21875 L 81.367188 286.957031 Z M 0 173.640625 " clip-rule="nonzero"/></clipPath><clipPath id="c22a576ff8"><path d="M 0 173.640625 L 119.40625 87.902344 L 200.773438 201.21875 L 81.367188 286.957031 Z M 0 173.640625 " clip-rule="nonzero"/></clipPath><clipPath id="4bfcc834f3"><path d="M 87 237 L 100 237 L 100 250 L 87 250 Z M 87 237 " clip-rule="nonzero"/></clipPath><clipPath id="0dbeb76aee"><path d="M 0 173.640625 L 119.40625 87.902344 L 200.773438 201.21875 L 81.367188 286.957031 Z M 0 173.640625 " clip-rule="nonzero"/></clipPath><clipPath id="e82da61a88"><path d="M 0 173.640625 L 119.40625 87.902344 L 200.773438 201.21875 L 81.367188 286.957031 Z M 0 173.640625 " clip-rule="nonzero"/></clipPath><clipPath id="5a4576fae9"><path d="M 69 252 L 85 252 L 85 261 L 69 261 Z M 69 252 " clip-rule="nonzero"/></clipPath><clipPath id="cf9289b272"><path d="M 0 173.640625 L 119.40625 87.902344 L 200.773438 201.21875 L 81.367188 286.957031 Z M 0 173.640625 " clip-rule="nonzero"/></clipPath><clipPath id="4dc626c0bb"><path d="M 0 173.640625 L 119.40625 87.902344 L 200.773438 201.21875 L 81.367188 286.957031 Z M 0 173.640625 " clip-rule="nonzero"/></clipPath><clipPath id="3d7ad3db11"><path d="M 76 252 L 89 252 L 89 260 L 76 260 Z M 76 252 " clip-rule="nonzero"/></clipPath><clipPath id="091fccb21a"><path d="M 0 173.640625 L 119.40625 87.902344 L 200.773438 201.21875 L 81.367188 286.957031 Z M 0 173.640625 " clip-rule="nonzero"/></clipPath><clipPath id="fa79ee19db"><path d="M 0 173.640625 L 119.40625 87.902344 L 200.773438 201.21875 L 81.367188 286.957031 Z M 0 173.640625 " clip-rule="nonzero"/></clipPath><clipPath id="fa8029b6ae"><path d="M 86 251 L 96 251 L 96 260 L 86 260 Z M 86 251 " clip-rule="nonzero"/></clipPath><clipPath id="ad566dd0ca"><path d="M 0 173.640625 L 119.40625 87.902344 L 200.773438 201.21875 L 81.367188 286.957031 Z M 0 173.640625 " clip-rule="nonzero"/></clipPath><clipPath id="2026af1e04"><path d="M 0 173.640625 L 119.40625 87.902344 L 200.773438 201.21875 L 81.367188 286.957031 Z M 0 173.640625 " clip-rule="nonzero"/></clipPath><clipPath id="0addb3b080"><path d="M 98 251 L 106 251 L 106 260 L 98 260 Z M 98 251 " clip-rule="nonzero"/></clipPath><clipPath id="89018d0c3d"><path d="M 0 173.640625 L 119.40625 87.902344 L 200.773438 201.21875 L 81.367188 286.957031 Z M 0 173.640625 " clip-rule="nonzero"/></clipPath><clipPath id="7d0e9a93f4"><path d="M 0 173.640625 L 119.40625 87.902344 L 200.773438 201.21875 L 81.367188 286.957031 Z M 0 173.640625 " clip-rule="nonzero"/></clipPath><clipPath id="16c3230e2f"><path d="M 107 252 L 117 252 L 117 260 L 107 260 Z M 107 252 " clip-rule="nonzero"/></clipPath><clipPath id="89bd87420c"><path d="M 0 173.640625 L 119.40625 87.902344 L 200.773438 201.21875 L 81.367188 286.957031 Z M 0 173.640625 " clip-rule="nonzero"/></clipPath><clipPath id="1117919d04"><path d="M 0 173.640625 L 119.40625 87.902344 L 200.773438 201.21875 L 81.367188 286.957031 Z M 0 173.640625 " clip-rule="nonzero"/></clipPath><clipPath id="3e87863a4d"><path d="M 114 252 L 127 252 L 127 261 L 114 261 Z M 114 252 " clip-rule="nonzero"/></clipPath><clipPath id="ad595082ec"><path d="M 0 173.640625 L 119.40625 87.902344 L 200.773438 201.21875 L 81.367188 286.957031 Z M 0 173.640625 " clip-rule="nonzero"/></clipPath><clipPath id="8e14ad4f30"><path d="M 0 173.640625 L 119.40625 87.902344 L 200.773438 201.21875 L 81.367188 286.957031 Z M 0 173.640625 " clip-rule="nonzero"/></clipPath></defs><g clip-path="url(#3b4d615abc)"><g clip-path="url(#800cac9d2e)"><g clip-path="url(#f0dbb17e71)"><path fill="#ffffff" d="M 79.644531 122.011719 C 72.0625 125.421875 71.609375 125.625 71.144531 125.414062 C 71.679688 123.835938 82.347656 119.835938 86.210938 119.25 C 86.054688 119.375 86.054688 119.375 85.269531 119.671875 C 83.71875 120.253906 82.167969 120.875 79.644531 122.011719 " fill-opacity="1" fill-rule="nonzero"/></g></g></g><g clip-path="url(#c64eb5bfa4)"><g clip-path="url(#4eafe45d60)"><g clip-path="url(#f231de320e)"><path fill="#ffffff" d="M 87.242188 121.652344 C 81.320312 125.238281 78.175781 125.433594 78.507812 124.335938 C 79.097656 122.398438 87.246094 119.226562 90.613281 118.957031 C 90.695312 118.957031 90.808594 118.964844 90.886719 118.980469 C 90.902344 119.011719 90.921875 119.054688 90.9375 119.085938 C 90.632812 119.59375 87.378906 121.566406 87.242188 121.652344 " fill-opacity="1" fill-rule="nonzero"/></g></g></g><g clip-path="url(#8bf4a5bff7)"><g clip-path="url(#8d73541e3c)"><g clip-path="url(#26cb5e2a98)"><path fill="#ffffff" d="M 97.246094 121.542969 C 94.691406 124.859375 89.351562 125.441406 89.09375 123.59375 C 88.8125 121.570312 94.152344 118.949219 97.0625 118.820312 C 99.257812 118.898438 97.328125 121.433594 97.246094 121.542969 " fill-opacity="1" fill-rule="nonzero"/></g></g></g><g clip-path="url(#c1bc2069ff)"><g clip-path="url(#cf3ccef1d4)"><g clip-path="url(#bf6161482a)"><path fill="#ffffff" d="M 107.792969 121.691406 C 108.3125 124.394531 104.097656 125.613281 101.71875 124.054688 C 99.21875 122.410156 101.035156 119.460938 103.46875 118.9375 C 103.773438 118.871094 104.023438 118.867188 104.226562 118.863281 C 106.113281 118.96875 107.546875 120.414062 107.792969 121.691406 " fill-opacity="1" fill-rule="nonzero"/></g></g></g><g clip-path="url(#6668ea1db2)"><g clip-path="url(#7e4eca3730)"><g clip-path="url(#f6d631eb4c)"><path fill="#ffffff" d="M 117.808594 122.0625 C 119.640625 123.765625 119.0625 125.015625 117.375 125.117188 C 113.3125 125.363281 109.132812 120.539062 110.464844 119.273438 C 110.679688 119.070312 111.023438 119.066406 111.277344 119.066406 C 112.988281 119.207031 116.09375 120.46875 117.808594 122.0625 " fill-opacity="1" fill-rule="nonzero"/></g></g></g><g clip-path="url(#accd1d74aa)"><g clip-path="url(#6a0e17ae2a)"><g clip-path="url(#0a8a047cad)"><path fill="#ffffff" d="M 126.226562 122.632812 C 129.023438 124.222656 129.757812 125.472656 128.832031 125.714844 C 128.207031 125.882812 126.523438 125.566406 123.839844 124.132812 C 121.574219 122.921875 117.128906 119.882812 117.15625 119.46875 C 117.230469 119.410156 117.269531 119.410156 117.484375 119.414062 C 119.097656 119.597656 123.207031 120.910156 126.226562 122.632812 " fill-opacity="1" fill-rule="nonzero"/></g></g></g><g clip-path="url(#82daba017a)"><g clip-path="url(#217cbd4dcb)"><g clip-path="url(#a3a4196dc9)"><path fill="#ffffff" d="M 131.824219 123.335938 C 134.367188 124.519531 137.035156 126.089844 136.910156 126.554688 C 136.769531 126.605469 136.476562 126.707031 134.21875 125.695312 C 134.113281 125.648438 122.152344 119.980469 122.007812 119.886719 L 122.097656 119.871094 C 122.941406 120.027344 127.34375 121.238281 131.824219 123.335938 " fill-opacity="1" fill-rule="nonzero"/></g></g></g><g clip-path="url(#c407f06464)"><g clip-path="url(#c1853f51d8)"><g clip-path="url(#0c15c2cc90)"><path fill="#ffffff" d="M 59.484375 133.546875 C 54.820312 137.585938 52.207031 139.464844 51.722656 139.128906 C 51.527344 137.402344 62.042969 129.101562 64.972656 128.230469 L 65.082031 128.222656 C 65.105469 128.425781 65.132812 128.648438 59.484375 133.546875 " fill-opacity="1" fill-rule="nonzero"/></g></g></g><g clip-path="url(#b4a3dc2dfe)"><g clip-path="url(#321bea16d1)"><g clip-path="url(#5fe8232c64)"><path fill="#ffffff" d="M 69.199219 132.796875 C 64.609375 137.527344 59.410156 139.550781 59.351562 137.351562 C 59.269531 134.371094 67.667969 128.015625 71.5 127.515625 C 74.265625 127.542969 69.253906 132.742188 69.199219 132.796875 " fill-opacity="1" fill-rule="nonzero"/></g></g></g><g clip-path="url(#c901cc48ea)"><g clip-path="url(#56dd79a0a2)"><g clip-path="url(#49298ea80a)"><path fill="#ffffff" d="M 84.140625 132.398438 C 80.910156 137.542969 73.421875 139.246094 72.472656 135.992188 C 71.546875 132.828125 77.777344 127.40625 82.726562 127.070312 C 86.5625 127.179688 85.050781 130.953125 84.140625 132.398438 " fill-opacity="1" fill-rule="nonzero"/></g></g></g><g clip-path="url(#271395c2d9)"><g clip-path="url(#319e59d2b0)"><g clip-path="url(#8a6a700b63)"><path fill="#ffffff" d="M 101.277344 132.433594 C 100.1875 137.914062 91.980469 139.121094 89.765625 135.339844 C 87.859375 132.085938 91.996094 127.160156 96.792969 126.976562 C 100.597656 127.171875 101.707031 130.285156 101.277344 132.433594 " fill-opacity="1" fill-rule="nonzero"/></g></g></g><g clip-path="url(#c1c227533f)"><g clip-path="url(#8cfe6b88fa)"><g clip-path="url(#7cc34bfd07)"><path fill="#ffffff" d="M 118.414062 132.871094 C 119.492188 137.371094 113.847656 139.191406 109.804688 136.726562 C 105.34375 134.007812 106.0625 128.4375 109.945312 127.394531 C 110.480469 127.246094 110.972656 127.238281 111.371094 127.234375 C 115.324219 127.527344 117.910156 130.773438 118.414062 132.871094 " fill-opacity="1" fill-rule="nonzero"/></g></g></g><g clip-path="url(#beb70b3c30)"><g clip-path="url(#7d409db00f)"><g clip-path="url(#95ebc33e3d)"><path fill="#ffffff" d="M 133.800781 133.652344 C 135.917969 136.992188 134.246094 139.351562 130.425781 138.417969 C 124.671875 137.011719 120.601562 129.703125 123.53125 128.066406 C 124.015625 127.792969 124.480469 127.792969 124.976562 127.796875 C 128.359375 128.148438 132.191406 131.113281 133.800781 133.652344 " fill-opacity="1" fill-rule="nonzero"/></g></g></g><g clip-path="url(#f1a3b09263)"><g clip-path="url(#f1607fadef)"><g clip-path="url(#81ef8a3ac6)"><path fill="#ffffff" d="M 145.671875 134.722656 C 148.394531 137.636719 148.765625 139.917969 146.488281 139.699219 C 141.859375 139.261719 133.652344 129.949219 135.40625 128.738281 C 135.597656 128.605469 135.898438 128.613281 136.144531 128.621094 C 138.832031 129.050781 143.242188 132.121094 145.671875 134.722656 " fill-opacity="1" fill-rule="nonzero"/></g></g></g><g clip-path="url(#f7e100b461)"><g clip-path="url(#240f3daa6e)"><g clip-path="url(#d683526862)"><path fill="#ffffff" d="M 151.679688 135.890625 C 153.820312 137.855469 156.066406 140.277344 155.941406 140.964844 C 154.582031 141.769531 142.941406 129.804688 142.914062 129.632812 C 142.960938 129.621094 143.023438 129.609375 143.074219 129.601562 C 144.21875 129.980469 148.046875 132.5625 151.679688 135.890625 " fill-opacity="1" fill-rule="nonzero"/></g></g></g><g clip-path="url(#f786cffe0a)"><g clip-path="url(#0323bf4765)"><g clip-path="url(#8580cedc8c)"><path fill="#ffffff" d="M 43.242188 149.5 C 38.808594 156.136719 38.226562 156.609375 38.003906 156.785156 L 37.9375 156.726562 C 37.996094 156.519531 38.066406 156.332031 38.441406 155.636719 L 38.457031 155.601562 C 42.308594 149.109375 42.308594 149.109375 44.617188 146.085938 L 47.058594 143.054688 C 47.542969 142.484375 47.667969 142.375 47.816406 142.257812 L 47.863281 142.308594 C 47.757812 142.570312 47.582031 143.003906 43.242188 149.5 " fill-opacity="1" fill-rule="nonzero"/></g></g></g><g clip-path="url(#1c80fe8b0d)"><g clip-path="url(#8b8266ca08)"><g clip-path="url(#261bde34a0)"><path fill="#ffffff" d="M 52.015625 148.367188 C 48.699219 153.714844 44.113281 157.105469 43.40625 154.730469 C 42.46875 151.5625 49.589844 141.910156 53.433594 141.140625 C 55.671875 141.128906 53.753906 145.566406 52.015625 148.367188 " fill-opacity="1" fill-rule="nonzero"/></g></g></g><g clip-path="url(#3b1114008e)"><g clip-path="url(#f145d43895)"><g clip-path="url(#989544fc8b)"><path fill="#ffffff" d="M 68.035156 147.609375 C 65.058594 153.683594 57.125 156.816406 55.734375 152.464844 C 54.484375 148.546875 60.082031 140.878906 65.773438 140.320312 C 69.757812 140.40625 69.496094 144.632812 68.035156 147.609375 " fill-opacity="1" fill-rule="nonzero"/></g></g></g><g clip-path="url(#9a4e9951d4)"><g clip-path="url(#d8f26c6607)"><g clip-path="url(#d5c3c833a8)"><path fill="#ffffff" d="M 89.132812 147.378906 C 87.339844 153.78125 77.753906 156.460938 74.894531 151.355469 C 72.59375 147.261719 77.074219 140.300781 83.835938 139.933594 C 89.152344 140.160156 89.90625 144.617188 89.132812 147.378906 " fill-opacity="1" fill-rule="nonzero"/></g></g></g><g clip-path="url(#419abdac2f)"><g clip-path="url(#138c09636c)"><g clip-path="url(#465dd5079e)"><path fill="#ffffff" d="M 111.378906 147.691406 C 111.109375 153.882812 102.632812 156.550781 98.042969 151.886719 C 94 147.78125 96.71875 140.261719 103.902344 140.054688 C 109.273438 140.402344 111.507812 144.726562 111.378906 147.691406 " fill-opacity="1" fill-rule="nonzero"/></g></g></g><g clip-path="url(#bb449e5a90)"><g clip-path="url(#3f286c4bf1)"><g clip-path="url(#1af95a3c03)"><path fill="#ffffff" d="M 132.503906 148.480469 C 133.558594 154.007812 127.652344 156.859375 122.3125 153.394531 C 116.238281 149.460938 117.15625 141.597656 122.375 140.707031 C 122.753906 140.644531 123.269531 140.632812 123.652344 140.632812 C 128.8125 141.097656 131.933594 145.5 132.503906 148.480469 " fill-opacity="1" fill-rule="nonzero"/></g></g></g><g clip-path="url(#0a0385cf8a)"><g clip-path="url(#f0cb50e631)"><g clip-path="url(#b33387bf95)"><path fill="#ffffff" d="M 150.257812 149.675781 C 152.097656 154.316406 149.527344 157.269531 145.160156 155.523438 C 138.492188 152.859375 135.539062 143.289062 139.589844 141.777344 C 140.097656 141.585938 140.625 141.59375 141.046875 141.597656 C 145.371094 142.167969 149.101562 146.753906 150.257812 149.675781 " fill-opacity="1" fill-rule="nonzero"/></g></g></g><g clip-path="url(#6057a56c47)"><g clip-path="url(#98fe2de468)"><g clip-path="url(#7d11271183)"><path fill="#ffffff" d="M 162.0625 151.15625 C 164.328125 155.28125 164.234375 158.148438 161.859375 157.417969 C 157.4375 156.058594 150.382812 144.003906 153.378906 142.925781 C 153.546875 142.863281 153.789062 142.875 153.964844 142.882812 C 156.769531 143.527344 160.390625 148.109375 162.0625 151.15625 " fill-opacity="1" fill-rule="nonzero"/></g></g></g><g clip-path="url(#11c8a67054)"><g clip-path="url(#d8220b2133)"><g clip-path="url(#14499fa3fa)"><path fill="#ffffff" d="M 168.851562 158.382812 C 169.039062 158.785156 169.074219 158.914062 169.109375 159.042969 L 169.042969 159.097656 C 168.023438 158.191406 160.125 145.40625 159.699219 144.28125 L 159.746094 144.234375 C 159.902344 144.371094 159.964844 144.4375 160.359375 144.921875 L 162.785156 148.15625 C 166.910156 154.476562 166.910156 154.476562 168.605469 157.882812 L 168.71875 158.109375 C 168.757812 158.191406 168.8125 158.300781 168.851562 158.382812 " fill-opacity="1" fill-rule="nonzero"/></g></g></g><g clip-path="url(#b0428e4a71)"><g clip-path="url(#b623d1cadf)"><g clip-path="url(#209d3d4de3)"><path fill="#ffffff" d="M 38.738281 166.832031 C 36.789062 172.699219 33.960938 176.648438 33.136719 174.652344 C 31.980469 171.847656 36.140625 159.289062 39.285156 158.171875 C 40.996094 158.128906 39.859375 163.460938 38.738281 166.832031 " fill-opacity="1" fill-rule="nonzero"/></g></g></g><g clip-path="url(#66978da0cc)"><g clip-path="url(#585b1b8068)"><g clip-path="url(#b2965f377b)"><path fill="#ffffff" d="M 52.863281 165.738281 C 50.742188 172.640625 44.683594 176.394531 42.578125 172.109375 C 40.410156 167.707031 44.566406 157.785156 50.019531 157.003906 C 53.820312 157.054688 53.96875 162.140625 52.863281 165.738281 " fill-opacity="1" fill-rule="nonzero"/></g></g></g><g clip-path="url(#88e1a3a7e8)"><g clip-path="url(#47ae3ad082)"><g clip-path="url(#e9263e27cd)"><path fill="#ffffff" d="M 74.582031 165.160156 C 72.757812 172.757812 63.082031 175.949219 59.789062 170.042969 C 57.011719 165.0625 61.1875 156.804688 68.476562 156.265625 C 74.429688 156.457031 75.378906 161.820312 74.582031 165.160156 " fill-opacity="1" fill-rule="nonzero"/></g></g></g><g clip-path="url(#c2587aa108)"><g clip-path="url(#8e2e155bc2)"><g clip-path="url(#ec231b4f6a)"><path fill="#ffffff" d="M 99.484375 165.214844 C 98.421875 172.894531 88.289062 175.792969 83.777344 169.703125 C 80.097656 164.742188 83.722656 156.445312 91.605469 156.113281 C 97.863281 156.457031 99.980469 161.640625 99.484375 165.214844 " fill-opacity="1" fill-rule="nonzero"/></g></g></g><g clip-path="url(#e96a355a0b)"><g clip-path="url(#a016798c42)"><g clip-path="url(#6e8440dbe1)"><path fill="#ffffff" d="M 146.757812 166.984375 C 147.34375 173.886719 140.558594 176.898438 135.234375 172.101562 C 129.578125 167.007812 130.820312 157.839844 137.214844 157.460938 C 137.433594 157.449219 137.722656 157.460938 137.941406 157.460938 C 143.515625 158.078125 146.453125 163.402344 146.757812 166.984375 " fill-opacity="1" fill-rule="nonzero"/></g></g></g><g clip-path="url(#508584c4de)"><g clip-path="url(#c532e99ce6)"><g clip-path="url(#4d9804a406)"><path fill="#ffffff" d="M 31.523438 189.171875 C 31.4375 192.449219 31.101562 198.011719 30.378906 198.078125 C 30.144531 197.859375 29.882812 197.183594 29.710938 193.804688 L 29.648438 189.203125 L 29.957031 183.613281 C 30.3125 179.949219 30.65625 179.585938 30.800781 179.429688 L 30.898438 179.421875 C 31.578125 180.0625 31.613281 185.851562 31.523438 189.171875 " fill-opacity="1" fill-rule="nonzero"/></g></g></g><g clip-path="url(#fe24c86d58)"><g clip-path="url(#63011f4833)"><g clip-path="url(#9df893280b)"><path fill="#ffffff" d="M 41.902344 187.828125 C 41.5 194.433594 38.324219 198.566406 35.832031 195.722656 C 32.503906 191.925781 33.386719 179.027344 38.0625 177.980469 C 41.121094 178 42.148438 183.75 41.902344 187.828125 " fill-opacity="1" fill-rule="nonzero"/></g></g></g><g clip-path="url(#a199f67fcc)"><g clip-path="url(#0fac7bb88d)"><g clip-path="url(#1edda78406)"><path fill="#ffffff" d="M 60.84375 186.933594 C 60.113281 194.648438 52.835938 198.371094 48.867188 193.066406 C 44.957031 187.839844 47.28125 177.644531 54.007812 176.925781 C 59.363281 177.066406 61.230469 182.867188 60.84375 186.933594 " fill-opacity="1" fill-rule="nonzero"/></g></g></g><g clip-path="url(#c00f3241ac)"><g clip-path="url(#45b416162b)"><g clip-path="url(#591c4b954c)"><path fill="#ffffff" d="M 85.789062 186.660156 C 84.882812 194.832031 75.191406 198.023438 70.3125 191.757812 C 66.03125 186.257812 69.121094 176.917969 77.355469 176.425781 C 84.289062 176.75 86.207031 182.875 85.789062 186.660156 " fill-opacity="1" fill-rule="nonzero"/></g></g></g><g clip-path="url(#0d876dd7eb)"><g clip-path="url(#d8df1b8003)"><g clip-path="url(#0427f1a57f)"><path fill="#ffffff" d="M 112.089844 187.027344 C 111.136719 195.242188 101.085938 198.191406 96.035156 191.742188 C 91.644531 186.136719 94.824219 176.867188 103.285156 176.582031 C 110.519531 177.082031 112.527344 183.253906 112.089844 187.027344 " fill-opacity="1" fill-rule="nonzero"/></g></g></g><g clip-path="url(#869cd30301)"><g clip-path="url(#43720364f4)"><g clip-path="url(#ef4b2f0b68)"><path fill="#ffffff" d="M 38.890625 211.59375 C 40.101562 216.332031 40.039062 220.675781 38.015625 219.335938 C 34.921875 217.292969 30.597656 203.605469 33.683594 202.355469 C 35.636719 202.328125 37.90625 207.742188 38.890625 211.59375 " fill-opacity="1" fill-rule="nonzero"/></g></g></g><g clip-path="url(#cb9792ae36)"><g clip-path="url(#d43072dccf)"><g clip-path="url(#e1dc96d0f4)"><path fill="#ffffff" d="M 52.8125 210.519531 C 53.734375 216.503906 50.644531 220.128906 46.800781 217.578125 C 41.246094 213.886719 39.761719 202.394531 44.679688 201.179688 C 44.839844 201.140625 45.0625 201.121094 45.222656 201.097656 C 49.46875 201.171875 52.214844 206.652344 52.8125 210.519531 " fill-opacity="1" fill-rule="nonzero"/></g></g></g><g clip-path="url(#5f4cb02c98)"><g clip-path="url(#cca8530cd1)"><g clip-path="url(#8bf834a983)"><path fill="#ffffff" d="M 74.210938 209.949219 C 74.394531 217.042969 67.320312 220.179688 62.003906 215.367188 C 57.023438 210.863281 56.90625 200.949219 65.066406 200.304688 C 71.207031 200.523438 74.109375 206.074219 74.210938 209.949219 " fill-opacity="1" fill-rule="nonzero"/></g></g></g><g clip-path="url(#c0bc310eb3)"><g clip-path="url(#aa1ba4f6b7)"><g clip-path="url(#c4fdc88dd3)"><path fill="#ffffff" d="M 98.753906 210.003906 C 97.964844 217.945312 88.433594 220.332031 83.53125 213.8125 C 79.519531 208.472656 82.152344 200.496094 89.933594 200.136719 C 96.65625 200.527344 99.136719 206.140625 98.753906 210.003906 " fill-opacity="1" fill-rule="nonzero"/></g></g></g><g clip-path="url(#c8069dd96e)"><g clip-path="url(#51dc23752d)"><g clip-path="url(#5109606a1a)"><path fill="#ffffff" d="M 44.199219 231.308594 C 46.820312 235.382812 48.035156 237.636719 47.8125 238.003906 C 46.28125 238.125 37.21875 224.585938 38.015625 223.371094 C 38.992188 223.292969 43.339844 229.96875 44.199219 231.308594 " fill-opacity="1" fill-rule="nonzero"/></g></g></g><g clip-path="url(#47bfa72c34)"><g clip-path="url(#f2763cdf9c)"><g clip-path="url(#a155ddfbba)"><path fill="#ffffff" d="M 52.628906 230.21875 C 54.523438 233.980469 55.019531 237.488281 52.5625 236.84375 C 47.9375 235.632812 41.175781 224.367188 43.84375 222.324219 C 44.003906 222.199219 44.277344 222.128906 44.472656 222.082031 C 47.109375 222.09375 50.644531 226.28125 52.628906 230.21875 " fill-opacity="1" fill-rule="nonzero"/></g></g></g><g clip-path="url(#ae4782e047)"><g clip-path="url(#a88dbca060)"><g clip-path="url(#3d9f8835f9)"><path fill="#ffffff" d="M 68.011719 229.492188 C 69.445312 234.410156 66.78125 238.023438 61.742188 235.066406 C 55.238281 231.25 52.824219 222.183594 58.046875 221.210938 C 58.230469 221.175781 58.476562 221.160156 58.65625 221.140625 C 63.46875 221.265625 67.023438 226.097656 68.011719 229.492188 " fill-opacity="1" fill-rule="nonzero"/></g></g></g><g clip-path="url(#fffc884f2b)"><g clip-path="url(#1f0157c0ee)"><g clip-path="url(#b04e2c4bae)"><path fill="#ffffff" d="M 60.121094 245.945312 C 63.496094 249.183594 64.921875 250.898438 64.355469 251.039062 C 62.039062 251.609375 49.84375 240.894531 51.308594 239.574219 C 51.34375 239.539062 51.414062 239.523438 51.460938 239.503906 C 53.191406 239.476562 58.097656 244 60.121094 245.945312 " fill-opacity="1" fill-rule="nonzero"/></g></g></g><g clip-path="url(#ddc2ede4e2)"><g clip-path="url(#63642bc231)"><g clip-path="url(#09796caa5a)"><path fill="#ffffff" d="M 69.269531 245.238281 C 70.777344 247.234375 72.691406 250.550781 70.296875 250.347656 C 66.015625 249.984375 56.628906 241.4375 58.988281 238.957031 C 59.246094 238.691406 59.617188 238.628906 59.921875 238.582031 C 62.921875 238.632812 66.871094 242.066406 69.269531 245.238281 " fill-opacity="1" fill-rule="nonzero"/></g></g></g><g clip-path="url(#99617eb918)"><g clip-path="url(#852d88ef44)"><g clip-path="url(#c22a576ff8)"><path fill="#ffffff" d="M 83.332031 244.863281 C 84.746094 248.699219 83.015625 251.378906 78.273438 249.089844 C 72.164062 246.132812 69.121094 239.394531 73.34375 238.160156 C 73.667969 238.066406 74.125 238.027344 74.464844 238 C 79.175781 238.164062 82.347656 242.195312 83.332031 244.863281 " fill-opacity="1" fill-rule="nonzero"/></g></g></g><g clip-path="url(#4bfcc834f3)"><g clip-path="url(#0dbeb76aee)"><g clip-path="url(#e82da61a88)"><path fill="#ffffff" d="M 99.457031 244.898438 C 99.214844 249.863281 93.828125 251.882812 89.671875 246.992188 C 86.476562 243.222656 87.367188 238.128906 92.699219 237.878906 C 97.132812 238.136719 99.621094 241.652344 99.457031 244.898438 " fill-opacity="1" fill-rule="nonzero"/></g></g></g><g clip-path="url(#5a4576fae9)"><g clip-path="url(#cf9289b272)"><g clip-path="url(#4dc626c0bb)"><path fill="#ffffff" d="M 79.027344 257.039062 C 84.046875 259.859375 84.046875 259.859375 84.199219 260.027344 C 84.179688 260.050781 84.152344 260.082031 84.128906 260.105469 C 80.429688 260.054688 67.71875 253.601562 69.347656 252.605469 C 69.390625 252.582031 69.464844 252.574219 69.511719 252.558594 C 71.097656 252.574219 74.773438 254.640625 79.027344 257.039062 " fill-opacity="1" fill-rule="nonzero"/></g></g></g><g clip-path="url(#3d7ad3db11)"><g clip-path="url(#091fccb21a)"><g clip-path="url(#fa79ee19db)"><path fill="#ffffff" d="M 86.082031 256.703125 C 89.585938 259.761719 88.722656 259.808594 88.4375 259.824219 C 85.503906 259.976562 74.964844 254.0625 76.671875 252.292969 C 76.855469 252.105469 77.1875 252.066406 77.433594 252.035156 C 80.589844 252.125 84.851562 255.632812 86.082031 256.703125 " fill-opacity="1" fill-rule="nonzero"/></g></g></g><g clip-path="url(#fa8029b6ae)"><g clip-path="url(#ad566dd0ca)"><g clip-path="url(#2026af1e04)"><path fill="#ffffff" d="M 95.367188 256.601562 C 95.78125 257.636719 96.820312 260.882812 92.828125 259.175781 C 88.179688 257.1875 85.410156 253.171875 87.882812 252.015625 C 88.261719 251.835938 88.707031 251.808594 89.03125 251.785156 C 92.125 251.9375 94.484375 254.390625 95.367188 256.601562 " fill-opacity="1" fill-rule="nonzero"/></g></g></g><g clip-path="url(#0addb3b080)"><g clip-path="url(#89018d0c3d)"><g clip-path="url(#7d0e9a93f4)"><path fill="#ffffff" d="M 105.160156 256.738281 C 103.847656 260.234375 100.296875 261.015625 98.597656 257 C 97.585938 254.617188 98.675781 251.984375 101.910156 251.863281 C 105.003906 252.089844 105.988281 254.519531 105.160156 256.738281 " fill-opacity="1" fill-rule="nonzero"/></g></g></g><g clip-path="url(#16c3230e2f)"><g clip-path="url(#89bd87420c)"><g clip-path="url(#1117919d04)"><path fill="#ffffff" d="M 114.457031 257.085938 C 113.382812 258.027344 107.367188 262.0625 107.722656 258.480469 C 107.972656 255.972656 110.769531 252.296875 114.589844 252.234375 C 117.433594 252.527344 116.800781 255.027344 114.457031 257.085938 " fill-opacity="1" fill-rule="nonzero"/></g></g></g><g clip-path="url(#3e87863a4d)"><g clip-path="url(#ad595082ec)"><g clip-path="url(#8e14ad4f30)"><path fill="#ffffff" d="M 122.273438 257.613281 C 119.191406 259.28125 114.21875 260.910156 114.40625 259.996094 C 114.578125 259.15625 121.566406 252.835938 125.753906 252.855469 C 127.703125 253.15625 126.167969 254.964844 124.65625 256.105469 C 123.992188 256.609375 123.1875 257.117188 122.273438 257.613281 " fill-opacity="1" fill-rule="nonzero"/></g></g></g><g fill="#ffffff" fill-opacity="1"><g transform="translate(130.921608, 216.386111)"><g><path d="M 6.671875 -30.15625 L 21.75 -30.15625 C 22.957031 -30.15625 23.972656 -29.738281 24.796875 -28.90625 C 25.628906 -28.082031 26.046875 -27.066406 26.046875 -25.859375 L 26.046875 -21.78125 L 19.8125 -21.78125 L 19.8125 -23.453125 C 19.8125 -23.785156 19.703125 -24.054688 19.484375 -24.265625 C 19.265625 -24.472656 18.984375 -24.578125 18.640625 -24.578125 L 9.8125 -24.578125 C 9.46875 -24.578125 9.179688 -24.472656 8.953125 -24.265625 C 8.722656 -24.054688 8.609375 -23.785156 8.609375 -23.453125 L 8.609375 -6.703125 C 8.609375 -6.367188 8.722656 -6.097656 8.953125 -5.890625 C 9.179688 -5.679688 9.46875 -5.578125 9.8125 -5.578125 L 18.640625 -5.578125 C 18.984375 -5.578125 19.265625 -5.679688 19.484375 -5.890625 C 19.703125 -6.097656 19.8125 -6.367188 19.8125 -6.703125 L 19.8125 -11.015625 L 14.296875 -11.015625 L 14.296875 -16.59375 L 26.046875 -16.59375 L 26.046875 -4.296875 C 26.046875 -3.109375 25.628906 -2.09375 24.796875 -1.25 C 23.972656 -0.414062 22.957031 0 21.75 0 L 6.671875 0 C 5.484375 0 4.46875 -0.414062 3.625 -1.25 C 2.78125 -2.09375 2.359375 -3.109375 2.359375 -4.296875 L 2.359375 -25.859375 C 2.359375 -27.066406 2.78125 -28.082031 3.625 -28.90625 C 4.46875 -29.738281 5.484375 -30.15625 6.671875 -30.15625 Z M 6.671875 -30.15625 "/></g></g></g><g fill="#ffffff" fill-opacity="1"><g transform="translate(167.467494, 216.386111)"><g><path d="M 2.359375 -30.15625 L 8.609375 -30.15625 L 8.609375 -5.578125 L 24.078125 -5.578125 L 24.078125 0 L 2.359375 0 Z M 2.359375 -30.15625 "/></g></g></g><g fill="#ffffff" fill-opacity="1"><g transform="translate(199.866839, 216.386111)"><g><path d="M 6.671875 -30.15625 L 21.75 -30.15625 C 22.519531 -30.15625 23.234375 -29.960938 23.890625 -29.578125 C 24.554688 -29.191406 25.082031 -28.664062 25.46875 -28 C 25.851562 -27.34375 26.046875 -26.628906 26.046875 -25.859375 L 26.046875 -4.296875 C 26.046875 -3.523438 25.851562 -2.816406 25.46875 -2.171875 C 25.082031 -1.523438 24.554688 -1 23.890625 -0.59375 C 23.234375 -0.195312 22.519531 0 21.75 0 L 6.671875 0 C 5.890625 0 5.175781 -0.195312 4.53125 -0.59375 C 3.882812 -1 3.359375 -1.523438 2.953125 -2.171875 C 2.554688 -2.816406 2.359375 -3.523438 2.359375 -4.296875 L 2.359375 -25.859375 C 2.359375 -26.628906 2.554688 -27.34375 2.953125 -28 C 3.359375 -28.664062 3.882812 -29.191406 4.53125 -29.578125 C 5.175781 -29.960938 5.890625 -30.15625 6.671875 -30.15625 Z M 9.8125 -24.578125 C 9.46875 -24.578125 9.179688 -24.472656 8.953125 -24.265625 C 8.722656 -24.054688 8.609375 -23.785156 8.609375 -23.453125 L 8.609375 -6.703125 C 8.609375 -6.367188 8.722656 -6.097656 8.953125 -5.890625 C 9.179688 -5.679688 9.46875 -5.578125 9.8125 -5.578125 L 18.640625 -5.578125 C 18.984375 -5.578125 19.265625 -5.679688 19.484375 -5.890625 C 19.703125 -6.097656 19.8125 -6.367188 19.8125 -6.703125 L 19.8125 -23.453125 C 19.8125 -23.785156 19.703125 -24.054688 19.484375 -24.265625 C 19.265625 -24.472656 18.984375 -24.578125 18.640625 -24.578125 Z M 9.8125 -24.578125 "/></g></g></g><g fill="#ffffff" fill-opacity="1"><g transform="translate(236.412725, 216.386111)"><g><path d="M 2.359375 -30.15625 L 21.75 -30.15625 C 22.957031 -30.15625 23.972656 -29.738281 24.796875 -28.90625 C 25.628906 -28.082031 26.046875 -27.066406 26.046875 -25.859375 L 26.046875 -19.109375 C 26.046875 -18.179688 25.785156 -17.351562 25.265625 -16.625 C 24.753906 -15.90625 24.085938 -15.390625 23.265625 -15.078125 C 24.085938 -14.765625 24.753906 -14.238281 25.265625 -13.5 C 25.785156 -12.769531 26.046875 -11.941406 26.046875 -11.015625 L 26.046875 -4.296875 C 26.046875 -3.109375 25.628906 -2.09375 24.796875 -1.25 C 23.972656 -0.414062 22.957031 0 21.75 0 L 2.359375 0 Z M 8.609375 -12.28125 L 8.609375 -5.578125 L 18.640625 -5.578125 C 18.984375 -5.578125 19.265625 -5.679688 19.484375 -5.890625 C 19.703125 -6.097656 19.8125 -6.367188 19.8125 -6.703125 L 19.8125 -11.015625 C 19.8125 -11.367188 19.691406 -11.664062 19.453125 -11.90625 C 19.222656 -12.15625 18.925781 -12.28125 18.5625 -12.28125 Z M 8.609375 -17.875 L 18.5625 -17.875 C 18.925781 -17.875 19.222656 -17.992188 19.453125 -18.234375 C 19.691406 -18.484375 19.8125 -18.773438 19.8125 -19.109375 L 19.8125 -23.453125 C 19.8125 -23.785156 19.703125 -24.054688 19.484375 -24.265625 C 19.265625 -24.472656 18.984375 -24.578125 18.640625 -24.578125 L 8.609375 -24.578125 Z M 8.609375 -17.875 "/></g></g></g><g fill="#ffffff" fill-opacity="1"><g transform="translate(272.958612, 216.386111)"><g><path d="M 9.5 -30.15625 L 19.8125 -30.15625 L 28.84375 0 L 22.40625 0 L 20.421875 -6.359375 L 8.875 -6.359375 L 6.90625 0 L 0.421875 0 Z M 10.578125 -11.9375 L 18.71875 -11.9375 L 14.65625 -25.078125 Z M 10.578125 -11.9375 "/></g></g></g><g fill="#ffffff" fill-opacity="1"><g transform="translate(310.357064, 216.386111)"><g><path d="M 2.359375 -30.15625 L 8.609375 -30.15625 L 8.609375 -5.578125 L 24.078125 -5.578125 L 24.078125 0 L 2.359375 0 Z M 2.359375 -30.15625 "/></g></g></g><g fill="#737373" fill-opacity="1"><g transform="translate(126.861851, 244.179322)"><g><path d="M 11.015625 -15.53125 L 12.953125 -15.53125 L 7.359375 0 L 5.5625 0 L 0 -15.53125 L 1.90625 -15.53125 L 5.484375 -5.484375 C 5.890625 -4.328125 6.21875 -3.203125 6.46875 -2.109375 C 6.71875 -3.265625 7.046875 -4.410156 7.453125 -5.546875 Z M 11.015625 -15.53125 "/></g></g></g><g fill="#737373" fill-opacity="1"><g transform="translate(146.024915, 244.179322)"><g><path d="M 2.140625 0 L 2.140625 -15.53125 L 3.9375 -15.53125 L 3.9375 0 Z M 2.140625 0 "/></g></g></g><g fill="#737373" fill-opacity="1"><g transform="translate(158.300912, 244.179322)"><g><path d="M 10.90625 -4.140625 C 10.90625 -2.765625 10.40625 -1.691406 9.40625 -0.921875 C 8.414062 -0.160156 7.070312 0.21875 5.375 0.21875 C 3.53125 0.21875 2.113281 -0.0195312 1.125 -0.5 L 1.125 -2.25 C 1.757812 -1.976562 2.453125 -1.765625 3.203125 -1.609375 C 3.960938 -1.453125 4.707031 -1.375 5.4375 -1.375 C 6.644531 -1.375 7.550781 -1.597656 8.15625 -2.046875 C 8.769531 -2.503906 9.078125 -3.144531 9.078125 -3.96875 C 9.078125 -4.5 8.96875 -4.9375 8.75 -5.28125 C 8.53125 -5.625 8.164062 -5.941406 7.65625 -6.234375 C 7.15625 -6.523438 6.390625 -6.859375 5.359375 -7.234375 C 3.910156 -7.742188 2.875 -8.351562 2.25 -9.0625 C 1.632812 -9.769531 1.328125 -10.695312 1.328125 -11.84375 C 1.328125 -13.039062 1.773438 -13.992188 2.671875 -14.703125 C 3.578125 -15.410156 4.769531 -15.765625 6.25 -15.765625 C 7.789062 -15.765625 9.210938 -15.476562 10.515625 -14.90625 L 9.953125 -13.34375 C 8.671875 -13.875 7.421875 -14.140625 6.203125 -14.140625 C 5.242188 -14.140625 4.492188 -13.929688 3.953125 -13.515625 C 3.421875 -13.109375 3.15625 -12.539062 3.15625 -11.8125 C 3.15625 -11.28125 3.253906 -10.84375 3.453125 -10.5 C 3.648438 -10.15625 3.984375 -9.835938 4.453125 -9.546875 C 4.929688 -9.265625 5.65625 -8.945312 6.625 -8.59375 C 8.25 -8.007812 9.367188 -7.382812 9.984375 -6.71875 C 10.597656 -6.0625 10.90625 -5.203125 10.90625 -4.140625 Z M 10.90625 -4.140625 "/></g></g></g><g fill="#737373" fill-opacity="1"><g transform="translate(176.454292, 244.179322)"><g><path d="M 2.140625 0 L 2.140625 -15.53125 L 3.9375 -15.53125 L 3.9375 0 Z M 2.140625 0 "/></g></g></g><g fill="#737373" fill-opacity="1"><g transform="translate(188.730289, 244.179322)"><g><path d="M 15.625 -7.796875 C 15.625 -5.304688 14.992188 -3.347656 13.734375 -1.921875 C 12.472656 -0.492188 10.722656 0.21875 8.484375 0.21875 C 6.203125 0.21875 4.4375 -0.476562 3.1875 -1.875 C 1.945312 -3.28125 1.328125 -5.257812 1.328125 -7.8125 C 1.328125 -10.34375 1.945312 -12.300781 3.1875 -13.6875 C 4.4375 -15.082031 6.210938 -15.78125 8.515625 -15.78125 C 10.742188 -15.78125 12.484375 -15.070312 13.734375 -13.65625 C 14.992188 -12.238281 15.625 -10.285156 15.625 -7.796875 Z M 3.234375 -7.796875 C 3.234375 -5.691406 3.679688 -4.09375 4.578125 -3 C 5.484375 -1.914062 6.785156 -1.375 8.484375 -1.375 C 10.210938 -1.375 11.515625 -1.914062 12.390625 -3 C 13.265625 -4.082031 13.703125 -5.679688 13.703125 -7.796875 C 13.703125 -9.878906 13.265625 -11.460938 12.390625 -12.546875 C 11.515625 -13.628906 10.222656 -14.171875 8.515625 -14.171875 C 6.796875 -14.171875 5.484375 -13.625 4.578125 -12.53125 C 3.679688 -11.445312 3.234375 -9.867188 3.234375 -7.796875 Z M 3.234375 -7.796875 "/></g></g></g><g fill="#737373" fill-opacity="1"><g transform="translate(211.889556, 244.179322)"><g><path d="M 14.265625 0 L 12.21875 0 L 3.71875 -13.046875 L 3.640625 -13.046875 C 3.753906 -11.515625 3.8125 -10.109375 3.8125 -8.828125 L 3.8125 0 L 2.140625 0 L 2.140625 -15.53125 L 4.171875 -15.53125 L 12.640625 -2.546875 L 12.734375 -2.546875 C 12.710938 -2.742188 12.675781 -3.359375 12.625 -4.390625 C 12.582031 -5.429688 12.566406 -6.175781 12.578125 -6.625 L 12.578125 -15.53125 L 14.265625 -15.53125 Z M 14.265625 0 "/></g></g></g><g fill="#737373" fill-opacity="1"><g transform="translate(234.506779, 244.179322)"><g/></g></g><g fill="#737373" fill-opacity="1"><g transform="translate(246.368273, 244.179322)"><g><path d="M 9.015625 0 L 3.734375 -13.78125 L 3.65625 -13.78125 C 3.757812 -12.6875 3.8125 -11.390625 3.8125 -9.890625 L 3.8125 0 L 2.140625 0 L 2.140625 -15.53125 L 4.859375 -15.53125 L 9.78125 -2.71875 L 9.859375 -2.71875 L 14.828125 -15.53125 L 17.53125 -15.53125 L 17.53125 0 L 15.71875 0 L 15.71875 -10.015625 C 15.71875 -11.160156 15.769531 -12.40625 15.875 -13.75 L 15.78125 -13.75 L 10.46875 0 Z M 9.015625 0 "/></g></g></g><g fill="#737373" fill-opacity="1"><g transform="translate(272.2271, 244.179322)"><g><path d="M 10.796875 0 L 2.140625 0 L 2.140625 -15.53125 L 10.796875 -15.53125 L 10.796875 -13.9375 L 3.9375 -13.9375 L 3.9375 -8.921875 L 10.390625 -8.921875 L 10.390625 -7.328125 L 3.9375 -7.328125 L 3.9375 -1.609375 L 10.796875 -1.609375 Z M 10.796875 0 "/></g></g></g><g fill="#737373" fill-opacity="1"><g transform="translate(290.539913, 244.179322)"><g><path d="M 14.53125 -7.921875 C 14.53125 -5.359375 13.832031 -3.394531 12.4375 -2.03125 C 11.050781 -0.675781 9.050781 0 6.4375 0 L 2.140625 0 L 2.140625 -15.53125 L 6.890625 -15.53125 C 9.304688 -15.53125 11.179688 -14.859375 12.515625 -13.515625 C 13.859375 -12.179688 14.53125 -10.316406 14.53125 -7.921875 Z M 12.625 -7.859375 C 12.625 -9.878906 12.113281 -11.398438 11.09375 -12.421875 C 10.082031 -13.453125 8.570312 -13.96875 6.5625 -13.96875 L 3.9375 -13.96875 L 3.9375 -1.5625 L 6.140625 -1.5625 C 8.296875 -1.5625 9.914062 -2.085938 11 -3.140625 C 12.082031 -4.203125 12.625 -5.773438 12.625 -7.859375 Z M 12.625 -7.859375 "/></g></g></g><g fill="#737373" fill-opacity="1"><g transform="translate(312.615104, 244.179322)"><g><path d="M 2.140625 0 L 2.140625 -15.53125 L 3.9375 -15.53125 L 3.9375 0 Z M 2.140625 0 "/></g></g></g><g fill="#737373" fill-opacity="1"><g transform="translate(324.891105, 244.179322)"><g><path d="M 11.90625 0 L 9.96875 -4.9375 L 3.734375 -4.9375 L 1.828125 0 L 0 0 L 6.140625 -15.59375 L 7.65625 -15.59375 L 13.78125 0 Z M 9.40625 -6.5625 L 7.59375 -11.375 C 7.363281 -11.988281 7.125 -12.738281 6.875 -13.625 C 6.71875 -12.945312 6.492188 -12.195312 6.203125 -11.375 L 4.375 -6.5625 Z M 9.40625 -6.5625 "/></g></g></g></svg>