<svg xmlns="http://www.w3.org/2000/svg" xmlns:xlink="http://www.w3.org/1999/xlink" width="500" zoomAndPan="magnify" viewBox="0 0 375 374.999991" height="500" preserveAspectRatio="xMidYMid meet" version="1.0"><defs><g/></defs><g fill="#f1efe7" fill-opacity="1"><g transform="translate(17.996311, 189.691799)"><g><path d="M 0.96875 -58.609375 C 2.769531 -59.835938 4.832031 -61.078125 7.15625 -62.328125 C 9.476562 -63.585938 11.765625 -64.632812 14.015625 -65.46875 C 16.273438 -66.3125 18.113281 -66.734375 19.53125 -66.734375 C 20.5625 -66.734375 21.800781 -66.28125 23.25 -65.375 C 24.707031 -64.476562 26 -63.398438 27.125 -62.140625 C 28.257812 -60.878906 28.828125 -59.671875 28.828125 -58.515625 L 28.828125 -25.34375 C 28.828125 -22.757812 29.375 -20.453125 30.46875 -18.421875 C 31.5625 -16.390625 33.523438 -15.375 36.359375 -15.375 C 38.359375 -15.375 39.988281 -16.019531 41.25 -17.3125 C 42.507812 -18.601562 43.203125 -19.859375 43.328125 -21.078125 L 43.328125 -47.203125 C 43.328125 -49.648438 42.796875 -51.835938 41.734375 -53.765625 C 40.671875 -55.703125 39.492188 -57.1875 38.203125 -58.21875 L 38.203125 -58.609375 C 40.003906 -59.835938 42.066406 -61.078125 44.390625 -62.328125 C 46.710938 -63.585938 49 -64.632812 51.25 -65.46875 C 53.507812 -66.3125 55.351562 -66.734375 56.78125 -66.734375 C 57.8125 -66.734375 59.050781 -66.28125 60.5 -65.375 C 61.945312 -64.476562 63.234375 -63.398438 64.359375 -62.140625 C 65.492188 -60.878906 66.0625 -59.671875 66.0625 -58.515625 L 66.0625 -23.109375 C 66.0625 -19.628906 66.347656 -16.488281 66.921875 -13.6875 C 67.503906 -10.882812 69.019531 -8.453125 71.46875 -6.390625 L 71.46875 -6 C 69.019531 -4.96875 66.535156 -3.867188 64.015625 -2.703125 C 61.503906 -1.546875 59.21875 -0.566406 57.15625 0.234375 C 55.09375 1.046875 53.515625 1.453125 52.421875 1.453125 C 51.328125 1.453125 50.066406 1.03125 48.640625 0.1875 C 47.222656 -0.644531 45.984375 -1.722656 44.921875 -3.046875 C 43.859375 -4.367188 43.328125 -5.738281 43.328125 -7.15625 L 43.328125 -16.828125 C 42.296875 -14.828125 41.019531 -12.710938 39.5 -10.484375 C 37.988281 -8.265625 36.363281 -6.171875 34.625 -4.203125 C 32.882812 -2.234375 31.144531 -0.640625 29.40625 0.578125 C 28.5 0.835938 27.660156 1.046875 26.890625 1.203125 C 26.117188 1.367188 25.179688 1.453125 24.078125 1.453125 C 20.085938 1.453125 16.753906 0.535156 14.078125 -1.296875 C 11.398438 -3.140625 9.398438 -5.507812 8.078125 -8.40625 C 6.753906 -11.3125 6.09375 -14.34375 6.09375 -17.5 L 6.09375 -47.203125 C 6.09375 -49.648438 5.5625 -51.835938 4.5 -53.765625 C 3.4375 -55.703125 2.257812 -57.1875 0.96875 -58.21875 Z M 0.96875 -58.609375 "/></g></g></g><g fill="#f1efe7" fill-opacity="1"><g transform="translate(87.822148, 189.691799)"><g><path d="M 0.96875 -58.90625 L 0.96875 -59.28125 C 3.476562 -60.320312 5.972656 -61.421875 8.453125 -62.578125 C 10.941406 -63.734375 13.21875 -64.710938 15.28125 -65.515625 C 17.34375 -66.328125 18.921875 -66.734375 20.015625 -66.734375 C 21.117188 -66.734375 22.378906 -66.3125 23.796875 -65.46875 C 25.210938 -64.632812 26.453125 -63.570312 27.515625 -62.28125 C 28.578125 -61 29.109375 -59.613281 29.109375 -58.125 L 29.109375 -36.84375 C 30.203125 -43.363281 31.972656 -48.847656 34.421875 -53.296875 C 36.878906 -57.742188 39.640625 -61.109375 42.703125 -63.390625 C 45.765625 -65.679688 48.8125 -66.828125 51.84375 -66.828125 C 53.582031 -66.828125 55.414062 -66.328125 57.34375 -65.328125 C 59.28125 -64.328125 60.910156 -62.710938 62.234375 -60.484375 C 63.554688 -58.265625 64.21875 -55.253906 64.21875 -51.453125 C 64.21875 -48.804688 64.007812 -46.882812 63.59375 -45.6875 C 63.175781 -44.5 62.707031 -44.003906 62.1875 -44.203125 C 60.382812 -44.910156 58.660156 -45.441406 57.015625 -45.796875 C 55.367188 -46.148438 53.453125 -46.328125 51.265625 -46.328125 C 46.742188 -46.328125 43.03125 -45.664062 40.125 -44.34375 C 37.226562 -43.019531 34.972656 -41.296875 33.359375 -39.171875 C 31.753906 -37.046875 30.644531 -34.722656 30.03125 -32.203125 C 29.414062 -29.691406 29.109375 -27.210938 29.109375 -24.765625 L 29.109375 -15.09375 C 29.109375 -11.539062 29.316406 -8.75 29.734375 -6.71875 C 30.160156 -4.6875 30.660156 -3.234375 31.234375 -2.359375 C 31.816406 -1.492188 32.316406 -0.945312 32.734375 -0.71875 C 33.160156 -0.5 33.375 -0.390625 33.375 -0.390625 L 33.375 0 L 2.125 0 L 2.125 -0.390625 C 2.125 -0.390625 2.332031 -0.5 2.75 -0.71875 C 3.175781 -0.945312 3.675781 -1.492188 4.25 -2.359375 C 4.832031 -3.234375 5.332031 -4.6875 5.75 -6.71875 C 6.175781 -8.75 6.390625 -11.539062 6.390625 -15.09375 L 6.390625 -42.171875 C 6.390625 -45.648438 6.097656 -48.789062 5.515625 -51.59375 C 4.929688 -54.40625 3.414062 -56.84375 0.96875 -58.90625 Z M 0.96875 -58.90625 "/></g></g></g><g fill="#f1efe7" fill-opacity="1"><g transform="translate(151.361705, 189.691799)"><g><path d="M 6.390625 -73.609375 C 6.390625 -77.085938 6.097656 -80.226562 5.515625 -83.03125 C 4.929688 -85.832031 3.414062 -88.265625 0.96875 -90.328125 L 0.96875 -90.71875 C 3.476562 -91.75 5.972656 -92.84375 8.453125 -94 C 10.941406 -95.164062 13.21875 -96.148438 15.28125 -96.953125 C 17.34375 -97.765625 18.921875 -98.171875 20.015625 -98.171875 C 21.117188 -98.171875 22.378906 -97.75 23.796875 -96.90625 C 25.210938 -96.070312 26.453125 -95.007812 27.515625 -93.71875 C 28.578125 -92.425781 29.109375 -91.039062 29.109375 -89.5625 L 29.109375 -47.203125 C 29.878906 -49.203125 30.957031 -51.328125 32.34375 -53.578125 C 33.738281 -55.835938 35.253906 -57.96875 36.890625 -59.96875 C 38.535156 -61.96875 40.164062 -63.59375 41.78125 -64.84375 C 43.394531 -66.101562 44.8125 -66.734375 46.03125 -66.734375 C 49.769531 -66.734375 52.960938 -65.796875 55.609375 -63.921875 C 58.253906 -62.054688 60.414062 -59.59375 62.09375 -56.53125 C 63.769531 -53.46875 65.007812 -50.097656 65.8125 -46.421875 C 66.625 -42.742188 67.03125 -39.101562 67.03125 -35.5 C 67.03125 -31.113281 66.351562 -26.742188 65 -22.390625 C 63.644531 -18.035156 61.753906 -14.050781 59.328125 -10.4375 C 56.910156 -6.832031 54.109375 -3.945312 50.921875 -1.78125 C 47.734375 0.375 44.300781 1.453125 40.625 1.453125 C 39.332031 1.453125 37.640625 0.242188 35.546875 -2.171875 C 33.453125 -4.585938 31.304688 -7.796875 29.109375 -11.796875 L 29.109375 -8.609375 C 29.109375 -7.253906 28.960938 -5.914062 28.671875 -4.59375 C 28.378906 -3.269531 27.832031 -2.171875 27.03125 -1.296875 C 26.226562 -0.429688 25.019531 0 23.40625 0 L 2.125 0 L 2.125 -0.390625 C 2.125 -0.390625 2.332031 -0.5 2.75 -0.71875 C 3.175781 -0.945312 3.675781 -1.492188 4.25 -2.359375 C 4.832031 -3.234375 5.332031 -4.6875 5.75 -6.71875 C 6.175781 -8.75 6.390625 -11.539062 6.390625 -15.09375 Z M 29.109375 -14.21875 C 29.429688 -14.15625 30.015625 -14.125 30.859375 -14.125 C 32.398438 -14.125 33.992188 -14.703125 35.640625 -15.859375 C 37.285156 -17.023438 38.800781 -18.554688 40.1875 -20.453125 C 41.570312 -22.359375 42.679688 -24.453125 43.515625 -26.734375 C 44.359375 -29.023438 44.78125 -31.332031 44.78125 -33.65625 C 44.78125 -36.238281 44.503906 -38.6875 43.953125 -41 C 43.410156 -43.320312 42.476562 -45.238281 41.15625 -46.75 C 39.832031 -48.269531 38.007812 -49.03125 35.6875 -49.03125 C 33.300781 -49.03125 31.609375 -47.96875 30.609375 -45.84375 C 29.609375 -43.71875 29.109375 -41.332031 29.109375 -38.6875 Z M 29.109375 -14.21875 "/></g></g></g><g fill="#f1efe7" fill-opacity="1"><g transform="translate(218.67304, 189.691799)"><g><path d="M 0.96875 -14.21875 C 0.96875 -17.894531 1.882812 -21.25 3.71875 -24.28125 C 5.5625 -27.3125 8 -29.726562 11.03125 -31.53125 C 14.0625 -33.332031 17.378906 -34.234375 20.984375 -34.234375 L 39.84375 -34.234375 C 39.84375 -38.109375 39.859375 -41.832031 39.890625 -45.40625 C 39.921875 -48.988281 39.9375 -52.082031 39.9375 -54.6875 C 39.9375 -57.300781 39.9375 -59.09375 39.9375 -60.0625 C 39.9375 -60.96875 39.804688 -61.660156 39.546875 -62.140625 C 39.296875 -62.628906 38.785156 -62.875 38.015625 -62.875 C 37.171875 -62.875 35.957031 -62.289062 34.375 -61.125 C 32.800781 -59.96875 31.03125 -58.421875 29.0625 -56.484375 C 27.09375 -54.546875 25.109375 -52.382812 23.109375 -50 C 21.117188 -47.613281 19.234375 -45.179688 17.453125 -42.703125 C 15.679688 -40.222656 14.25 -37.851562 13.15625 -35.59375 C 11.539062 -35.59375 9.8125 -36.238281 7.96875 -37.53125 C 6.132812 -38.820312 4.585938 -40.445312 3.328125 -42.40625 C 2.078125 -44.375 1.453125 -46.257812 1.453125 -48.0625 C 1.453125 -50.257812 2.222656 -52.453125 3.765625 -54.640625 C 5.316406 -56.835938 7.394531 -58.851562 10 -60.6875 C 12.613281 -62.53125 15.566406 -64 18.859375 -65.09375 C 22.148438 -66.1875 25.503906 -66.734375 28.921875 -66.734375 C 33.753906 -66.734375 38.21875 -65.941406 42.3125 -64.359375 C 46.40625 -62.785156 49.953125 -60.609375 52.953125 -57.828125 C 55.953125 -55.054688 58.273438 -51.832031 59.921875 -48.15625 C 61.566406 -44.488281 62.390625 -40.523438 62.390625 -36.265625 L 62.390625 -18.09375 C 62.390625 -15.707031 62.9375 -13.53125 64.03125 -11.5625 C 65.125 -9.59375 66.285156 -8.09375 67.515625 -7.0625 L 67.515625 -6.671875 C 65.765625 -5.453125 63.710938 -4.210938 61.359375 -2.953125 C 59.015625 -1.691406 56.726562 -0.644531 54.5 0.1875 C 52.28125 1.03125 50.425781 1.453125 48.9375 1.453125 C 47.96875 1.453125 46.742188 1 45.265625 0.09375 C 43.785156 -0.800781 42.476562 -1.894531 41.34375 -3.1875 C 40.21875 -4.476562 39.65625 -5.671875 39.65625 -6.765625 C 39.65625 -7.285156 39.671875 -8.59375 39.703125 -10.6875 C 39.734375 -12.78125 39.75 -15.390625 39.75 -18.515625 C 39.75 -21.648438 39.75 -24.988281 39.75 -28.53125 L 28.828125 -3 C 25.660156 -0.03125 21.820312 1.453125 17.3125 1.453125 C 14.476562 1.453125 11.800781 0.757812 9.28125 -0.625 C 6.769531 -2.007812 4.753906 -3.894531 3.234375 -6.28125 C 1.722656 -8.664062 0.96875 -11.3125 0.96875 -14.21875 Z M 23.109375 -22.046875 C 23.109375 -21.210938 23.414062 -20.472656 24.03125 -19.828125 C 24.644531 -19.179688 25.46875 -18.859375 26.5 -18.859375 C 27.851562 -18.859375 29.269531 -19.375 30.75 -20.40625 C 32.238281 -21.4375 33.644531 -22.707031 34.96875 -24.21875 C 36.289062 -25.738281 37.382812 -27.269531 38.25 -28.8125 C 39.125 -30.363281 39.59375 -31.625 39.65625 -32.59375 L 39.84375 -32.5 C 37.132812 -32.363281 34.503906 -31.796875 31.953125 -30.796875 C 29.410156 -29.804688 27.300781 -28.550781 25.625 -27.03125 C 23.945312 -25.519531 23.109375 -23.859375 23.109375 -22.046875 Z M 23.109375 -22.046875 "/></g></g></g><g fill="#f1efe7" fill-opacity="1"><g transform="translate(284.533697, 189.691799)"><g><path d="M 6.390625 -42.171875 C 6.390625 -45.648438 6.097656 -48.789062 5.515625 -51.59375 C 4.929688 -54.40625 3.414062 -56.84375 0.96875 -58.90625 L 0.96875 -59.28125 C 3.476562 -60.320312 5.972656 -61.421875 8.453125 -62.578125 C 10.941406 -63.734375 13.21875 -64.710938 15.28125 -65.515625 C 17.34375 -66.328125 18.921875 -66.734375 20.015625 -66.734375 C 21.117188 -66.734375 22.378906 -66.3125 23.796875 -65.46875 C 25.210938 -64.632812 26.453125 -63.570312 27.515625 -62.28125 C 28.578125 -61 29.109375 -59.613281 29.109375 -58.125 L 29.109375 -48.453125 C 30.203125 -50.515625 31.488281 -52.640625 32.96875 -54.828125 C 34.457031 -57.023438 36.070312 -59.109375 37.8125 -61.078125 C 39.550781 -63.046875 41.296875 -64.640625 43.046875 -65.859375 C 43.941406 -66.117188 44.789062 -66.328125 45.59375 -66.484375 C 46.40625 -66.648438 47.359375 -66.734375 48.453125 -66.734375 C 52.453125 -66.734375 55.773438 -65.8125 58.421875 -63.96875 C 61.066406 -62.132812 63.046875 -59.78125 64.359375 -56.90625 C 65.679688 -54.039062 66.34375 -51 66.34375 -47.78125 L 66.34375 -18.09375 C 66.34375 -15.707031 66.890625 -13.53125 67.984375 -11.5625 C 69.085938 -9.59375 70.25 -8.09375 71.46875 -7.0625 L 71.46875 -6.671875 C 69.726562 -5.453125 67.679688 -4.210938 65.328125 -2.953125 C 62.972656 -1.691406 60.679688 -0.644531 58.453125 0.1875 C 56.234375 1.03125 54.382812 1.453125 52.90625 1.453125 C 51.9375 1.453125 50.707031 1 49.21875 0.09375 C 47.738281 -0.800781 46.4375 -1.894531 45.3125 -3.1875 C 44.1875 -4.476562 43.625 -5.671875 43.625 -6.765625 L 43.625 -39.9375 C 43.625 -42.582031 43.070312 -44.90625 41.96875 -46.90625 C 40.875 -48.90625 38.910156 -49.90625 36.078125 -49.90625 C 34.078125 -49.90625 32.445312 -49.273438 31.1875 -48.015625 C 29.9375 -46.765625 29.242188 -45.492188 29.109375 -44.203125 L 29.109375 -15.09375 C 29.109375 -11.539062 29.316406 -8.75 29.734375 -6.71875 C 30.160156 -4.6875 30.660156 -3.234375 31.234375 -2.359375 C 31.816406 -1.492188 32.316406 -0.945312 32.734375 -0.71875 C 33.160156 -0.5 33.375 -0.390625 33.375 -0.390625 L 33.375 0 L 2.125 0 L 2.125 -0.390625 C 2.125 -0.390625 2.332031 -0.5 2.75 -0.71875 C 3.175781 -0.945312 3.675781 -1.492188 4.25 -2.359375 C 4.832031 -3.234375 5.332031 -4.6875 5.75 -6.71875 C 6.175781 -8.75 6.390625 -11.539062 6.390625 -15.09375 Z M 6.390625 -42.171875 "/></g></g></g><path stroke-linecap="butt" transform="matrix(0.938076, 0, 0, 0.938076, 7.672057, 134.55667)" fill="none" stroke-linejoin="miter" d="M 40.520764 126.207906 C 38.397067 125.69572 36.764736 124.83375 35.632098 123.626158 C 34.495296 122.418566 33.649982 120.990276 33.100319 119.341288 C 32.554821 117.6923 32.188379 115.876748 32.005158 113.898796 C 31.821937 111.920844 31.617896 109.867937 31.397198 107.744241 C 31.69285 106.79066 32.075948 105.986986 32.554821 105.324893 C 33.029529 104.666963 33.229406 103.750859 33.158617 102.57658 C 33.96229 100.232186 34.695173 97.962746 35.357267 95.764095 C 36.015196 93.565445 36.456592 91.291841 36.673126 88.947447 C 37.114521 88.289517 37.551753 87.848122 37.993149 87.631588 C 38.580288 83.454985 38.651078 79.165952 38.213847 74.768651 C 37.772451 70.375515 37.039567 66.307179 36.015196 62.571972 C 36.09015 61.764135 36.198417 61.160339 36.344161 60.75642 C 36.489905 60.352501 36.489905 60.00688 36.344161 59.711228 C 36.198417 59.053299 36.419115 58.724334 37.006255 58.724334 C 37.58923 58.724334 38.17637 58.724334 38.763509 58.724334 C 38.763509 57.404311 38.526155 56.105109 38.047282 54.822563 C 37.572574 53.540017 37.114521 52.053429 36.673126 50.371129 C 37.260265 49.051106 37.664184 47.76856 37.884882 46.523491 C 38.101416 45.278422 38.505334 44.14162 39.092474 43.117249 C 41.436868 43.850132 43.743785 44.691282 46.017389 45.644864 C 48.286829 46.594281 50.522957 47.531206 52.721607 48.44731 C 54.920257 49.363414 57.08143 50.242041 59.205127 51.083192 C 61.332987 51.928506 63.419206 52.603092 65.472113 53.119442 C 68.62018 55.388882 71.864022 57.641665 75.199474 59.877793 C 78.530763 62.11392 81.574727 64.566581 84.32304 67.23994 C 87.067189 69.917463 89.35745 72.97392 91.189658 76.417639 C 93.021867 79.861358 94.083715 83.929694 94.379367 88.618482 C 94.233623 89.059878 94.121192 89.42632 94.050402 89.717807 C 93.975448 90.009295 93.900494 90.304947 93.829704 90.596435 C 93.75475 90.892086 93.717273 91.221051 93.717273 91.587493 C 93.717273 91.953935 93.717273 92.46612 93.717273 93.12405 C 91.081391 97.742048 87.745939 101.627163 83.71508 104.77523 C 79.688385 107.927462 75.291085 110.713252 70.527343 113.128436 C 65.7636 115.547784 60.799981 117.76309 55.63232 119.77852 C 50.468823 121.793949 45.43025 123.938466 40.520764 126.207906 Z M 51.293317 63.887831 C 50.631224 63.887831 50.156515 64.033575 49.865027 64.329227 C 50.743655 67.627202 51.401584 70.741957 51.84298 73.669326 C 52.280211 76.60086 52.52173 79.532393 52.555043 82.463927 C 52.592519 85.395461 52.430119 88.397784 52.063677 91.475062 C 51.697236 94.552339 51.180886 97.887792 50.522957 101.477255 C 51.476538 101.406465 52.317688 101.223244 53.050572 100.927592 C 53.783455 100.636105 54.537159 100.30714 55.303355 99.940698 C 56.073716 99.574256 56.881553 99.245292 57.722703 98.94964 C 58.563854 98.658152 59.538256 98.474931 60.633417 98.399977 C 60.929068 97.817002 61.312167 97.35895 61.791039 97.025821 C 62.265748 96.696856 62.686323 96.351235 63.052765 95.984793 C 64.884973 95.25191 66.717182 94.481549 68.54939 93.673712 C 70.381599 92.870039 72.068063 91.953935 73.60462 90.925399 C 75.145341 89.901028 76.536154 88.730913 77.781223 87.41089 C 79.026292 86.090867 80.054827 84.516833 80.8585 82.684625 C 80.271361 81.5853 79.559298 80.652539 78.713984 79.882179 C 77.872833 79.111818 76.994206 78.341458 76.078102 77.571097 C 75.161997 76.804901 74.28337 75.997064 73.438056 75.155913 C 72.596905 74.310599 71.918156 73.340361 71.40597 72.241036 C 70.235855 72.095292 69.20732 71.782984 68.328692 71.308276 C 67.450065 70.833567 66.608915 70.354694 65.801077 69.879986 C 64.99324 69.401113 64.135433 68.943061 63.219329 68.505829 C 62.303225 68.064434 61.220556 67.810423 59.975487 67.735469 C 58.072489 66.711098 56.348547 65.994871 54.81199 65.590952 C 53.271269 65.191197 52.09699 64.620714 51.293317 63.887831 Z M 151.952356 63.117471 C 152.02731 63.63382 152.043966 64.016918 152.006489 64.275093 C 151.973176 64.529104 151.935699 64.766458 151.898222 64.987156 C 151.860745 65.207854 151.844089 65.445208 151.844089 65.703383 C 151.844089 65.957394 151.914879 66.344656 152.064787 66.856842 C 150.524066 69.34698 148.745991 71.050101 146.734726 71.966205 C 144.719296 72.882309 142.537302 73.544403 140.192908 73.944157 C 137.848514 74.348076 135.449987 74.768651 132.993162 75.210047 C 130.540501 75.651443 128.104496 76.60086 125.685148 78.066627 C 124.731567 77.700185 123.869596 77.700185 123.1034 78.066627 C 122.333039 78.433068 121.212894 78.545499 119.751291 78.395591 C 119.309895 78.836987 118.760233 79.149295 118.102303 79.332516 C 117.44021 79.515737 116.78228 79.715614 116.120187 79.936312 C 116.415838 80.594242 116.544926 81.272992 116.507449 81.968398 C 116.469972 82.663804 116.561582 83.234287 116.78228 83.671519 C 119.347372 83.892217 122.187295 83.85474 125.297886 83.563252 C 128.41264 83.271764 131.473261 83.088544 134.475585 83.01359 C 134.550539 83.380031 134.513062 83.617386 134.367318 83.729817 C 134.221574 83.838083 134.184097 84.037961 134.259051 84.333613 C 134.771237 84.700054 135.283422 85.158106 135.795608 85.707769 C 136.307793 86.257432 136.824143 86.786274 137.336329 87.298459 C 137.848514 87.814809 138.377356 88.235384 138.927019 88.564349 C 139.476681 88.893313 140.117954 89.022401 140.850838 88.947447 C 141.14649 89.534586 141.346367 90.175859 141.458798 90.871266 C 141.567065 91.566672 141.475454 92.282899 141.183967 93.015783 C 140.009688 93.82362 138.835408 94.64395 137.665293 95.489264 C 136.491014 96.330414 135.266766 97.084118 133.98422 97.742048 C 132.701674 98.399977 131.344174 98.932983 129.915884 99.336902 C 128.487594 99.736657 126.89274 99.903221 125.135485 99.828267 C 124.769044 99.828267 124.494212 99.828267 124.310992 99.828267 C 124.127771 99.828267 123.890416 99.72 123.594765 99.499302 C 123.011789 99.865744 122.187295 99.978175 121.121283 99.828267 C 120.059435 99.682523 119.234941 99.794954 118.651966 100.161396 C 117.844128 99.794954 116.873891 99.62839 115.737088 99.665867 C 114.600286 99.703344 113.592572 99.574256 112.713944 99.278605 C 111.543829 100.819325 110.481981 102.468313 109.5284 104.225568 C 108.574819 105.986986 107.733668 107.852508 107.000785 109.83046 C 109.490923 110.196902 111.560486 110.34681 113.209473 110.271856 C 114.858461 110.196902 116.415838 110.071979 117.881605 109.888758 C 119.347372 109.705537 120.846452 109.522316 122.387173 109.339095 C 123.927893 109.155874 125.868369 109.097577 128.212763 109.172531 C 129.67853 108.364693 131.419128 107.835851 133.434557 107.577676 C 135.449987 107.323666 137.298852 106.903091 138.985316 106.315951 C 139.568292 106.536649 140.084641 106.919747 140.521873 107.46941 C 140.963269 108.019072 141.383844 108.531258 141.787763 109.005966 C 142.191681 109.484839 142.612256 109.905414 143.049488 110.271856 C 143.490884 110.638298 144.040546 110.784041 144.698476 110.713252 C 144.994128 111.004739 145.194005 111.354525 145.302272 111.754279 C 145.414703 112.158198 145.506313 112.541296 145.577103 112.907738 C 145.652057 113.274179 145.781144 113.586488 145.964365 113.844662 C 146.147586 114.098673 146.459894 114.190284 146.897126 114.119494 C 145.797801 116.538842 144.536075 118.387707 143.103621 119.670253 C 141.675332 120.952799 140.047165 121.923037 138.214956 122.580966 C 136.382747 123.243059 134.350662 123.755245 132.114534 124.121687 C 129.878407 124.488128 127.404926 124.92536 124.69409 125.44171 C 124.03616 125.587454 123.486498 125.566633 123.045102 125.383412 C 122.60787 125.200191 122.095685 125.108581 121.508545 125.108581 C 119.822081 125.475023 117.806651 125.803987 115.462257 126.099639 C 113.117863 126.391127 110.735992 126.503558 108.316644 126.428604 C 105.90146 126.35365 103.590379 126.045506 101.395892 125.495843 C 99.197242 124.946181 97.402511 123.975943 96.007534 122.580966 C 95.420394 122.06878 95.037296 121.464984 94.854075 120.769578 C 94.670854 120.074172 94.175325 119.541165 93.371652 119.174724 C 93.296698 118.221142 93.150954 117.159294 92.930256 115.989179 C 92.709558 114.8149 92.493025 113.586488 92.272327 112.303942 C 92.051629 111.021396 91.885065 109.75967 91.776798 108.514601 C 91.668531 107.269532 91.722664 106.13273 91.943362 105.104195 C 92.159896 104.00487 92.617948 103.017976 93.313354 102.139348 C 94.012925 101.260721 94.250279 100.30714 94.029581 99.278605 C 94.396023 99.207815 94.616721 99.003773 94.687511 98.674809 C 94.762465 98.345844 95.053952 98.216756 95.570302 98.29171 C 96.007534 96.971687 96.486406 95.726618 96.998592 94.552339 C 97.510778 93.382224 98.03962 92.245422 98.589282 91.146097 C 99.138945 90.046772 99.688607 88.93079 100.23827 87.793988 C 100.787932 86.657186 101.320938 85.395461 101.833124 84.004648 C 100.808753 83.051067 100.055049 82.005875 99.58034 80.869073 C 99.105632 79.736435 98.755847 78.599633 98.535149 77.462831 C 98.314451 76.326028 98.13123 75.155913 97.985486 73.944157 C 97.839742 72.736565 97.585732 71.508153 97.21929 70.263084 C 97.948009 69.163759 98.847457 68.268475 99.909305 67.568904 C 100.971153 66.873498 102.128776 66.307179 103.373845 65.865783 C 104.618914 65.428552 105.97225 65.06211 107.438017 64.766458 C 108.903783 64.47497 110.444504 64.146006 112.056015 63.779564 C 114.987549 62.825983 117.606774 62.093099 119.913691 61.580914 C 122.220608 61.068728 124.494212 60.648153 126.73034 60.315024 C 128.962303 59.98606 131.29004 59.673751 133.709389 59.382264 C 136.124573 59.090776 138.872885 58.64938 141.950163 58.062241 C 142.612256 58.724334 143.232709 59.053299 143.819848 59.053299 C 144.111336 58.391205 144.461121 58.191328 144.86504 58.449503 C 145.268959 58.703514 145.431359 58.503636 145.360569 57.845707 C 146.093453 59.090776 147.026213 60.131803 148.163016 60.977118 C 149.295654 61.818268 150.561543 62.534495 151.952356 63.117471 Z M 145.668713 75.539012 C 146.180899 74.002455 147.005393 72.682432 148.142195 71.583107 C 149.278997 70.483782 150.524066 69.551021 151.881566 68.780661 C 153.234902 68.0103 154.646535 67.369027 156.112302 66.856842 C 157.578069 66.344656 158.968882 65.90326 160.288905 65.536819 C 163.220438 64.29175 166.351849 63.100814 169.687302 61.964012 C 173.01859 60.831374 176.428996 59.823659 179.906029 58.940868 C 183.387225 58.062241 186.960031 57.495922 190.624448 57.237747 C 194.288866 56.983736 198.136504 57.441788 202.163198 58.611903 C 202.383896 59.344787 202.712861 60.040193 203.154256 60.702287 C 203.595652 61.360216 204.053704 62.02231 204.528413 62.680239 C 205.003121 63.338168 205.423697 63.979441 205.790138 64.604058 C 206.15658 65.22451 206.377278 65.865783 206.452232 66.527877 C 207.185115 67.185806 207.772255 67.902033 208.209486 68.66823 C 208.650882 69.43859 208.721672 70.446305 208.430184 71.691374 C 207.697301 72.278513 206.981074 72.811519 206.285667 73.286228 C 205.590261 73.760937 204.840721 74.185676 204.032884 74.552117 C 201.322048 73.890024 198.573735 73.669326 195.787945 73.890024 C 193.00632 74.110722 190.516182 74.293943 188.317531 74.439686 C 187.655438 73.781757 186.868421 73.452792 185.952317 73.452792 C 185.036212 73.452792 184.082631 73.598536 183.095737 73.890024 C 182.104679 74.185676 181.117785 74.477163 180.126726 74.768651 C 179.139832 75.064303 178.202907 75.135093 177.32428 74.989349 C 176.591397 75.576489 175.696113 75.959587 174.630101 76.142808 C 173.568253 76.326028 172.414794 76.492593 171.169725 76.638337 C 171.094771 77.004778 171.169725 77.242133 171.390423 77.354564 C 171.611121 77.462831 171.644434 77.700185 171.49869 78.066627 C 171.940085 78.578812 172.506404 78.945254 173.201811 79.165952 C 173.897217 79.38665 174.630101 79.607347 175.400461 79.828045 C 176.170822 80.044579 176.849572 80.31941 177.432547 80.652539 C 178.019687 80.981504 178.423605 81.510346 178.644303 82.243229 C 179.743628 82.243229 180.697209 82.501404 181.500883 83.01359 C 182.30872 83.525775 182.96665 84.150392 183.478835 84.883275 C 183.991021 85.616159 184.378283 86.403175 184.632294 87.244326 C 184.890469 88.08964 185.019556 88.83918 185.019556 89.497109 C 185.240254 90.084249 185.494265 90.342424 185.789916 90.26747 C 186.081404 90.192516 186.410369 90.342424 186.776811 90.708866 C 186.997508 91.658283 187.547171 92.632684 188.425798 93.619579 C 189.304426 94.610637 189.999832 95.689141 190.516182 96.863421 C 190.661925 98.695629 190.770192 100.323796 190.845146 101.752086 C 190.915936 103.180376 190.661925 104.629486 190.074786 106.095253 C 188.975461 108.806089 187.455561 111.225437 185.515085 113.349133 C 183.570446 115.47283 181.371795 117.359172 178.919134 119.008159 C 176.462309 120.657147 173.843084 122.06878 171.061458 123.243059 C 168.275668 124.413174 165.564833 125.404233 162.924787 126.207906 C 162.633299 126.137116 162.341811 126.137116 162.046159 126.207906 C 161.754672 126.28286 161.679718 126.099639 161.825461 125.658243 C 161.242486 126.170429 160.601213 126.503558 159.901643 126.649302 C 159.206236 126.795046 158.456696 126.849179 157.648859 126.811702 C 156.845186 126.778389 156.020692 126.720092 155.175377 126.649302 C 154.334227 126.574348 153.54721 126.611825 152.814327 126.757569 C 152.302141 126.245383 151.844089 125.749854 151.44017 125.275145 C 151.036252 124.800437 150.723943 124.192477 150.50741 123.459593 C 150.140968 123.459593 149.974404 123.276372 150.011881 122.909931 C 150.049358 122.543489 149.92027 122.360268 149.628782 122.360268 C 150.066014 121.627385 150.270055 121.20681 150.232578 121.098543 C 150.195101 120.990276 150.086834 120.898665 149.903614 120.823711 C 149.720393 120.748757 149.553828 120.657147 149.408085 120.54888 C 149.262341 120.440613 149.224864 120.274049 149.295654 120.053351 C 149.591305 119.466211 149.699572 118.791626 149.628782 118.021265 C 149.553828 117.250905 149.478874 116.463888 149.408085 115.65605 C 149.333131 114.852377 149.387264 114.082017 149.570485 113.349133 C 149.753706 112.61625 150.286712 112.02911 151.165339 111.591879 C 153.655477 111.883367 156.020692 111.791756 158.256819 111.317048 C 160.488782 110.838175 162.595822 110.163589 164.573774 109.280798 C 166.551727 108.40217 168.438069 107.452753 170.236964 106.424218 C 172.031696 105.399847 173.805607 104.483742 175.567026 103.675905 C 175.787723 103.017976 176.095868 102.468313 176.499786 102.026917 C 176.903705 101.589686 177.32428 101.185767 177.765676 100.819325 C 178.202907 100.452884 178.606826 100.048965 178.973268 99.611733 C 179.33971 99.170338 179.597884 98.620675 179.743628 97.962746 C 179.814418 97.45056 179.689495 97.138252 179.356366 97.025821 C 179.027401 96.917554 178.865001 96.642723 178.865001 96.201327 L 177.653245 95.872362 C 176.262432 95.068689 174.688398 94.389939 172.92698 93.840276 C 171.169725 93.290614 169.666481 92.686818 168.421412 92.024724 C 167.617739 92.46612 166.864035 92.574387 166.168629 92.357853 C 165.473222 92.137155 164.573774 91.916458 163.474449 91.69576 C 160.984311 91.550016 158.585784 91.291841 156.274702 90.925399 C 153.967785 90.558958 151.752479 89.901028 149.628782 88.947447 C 149.478874 88.581005 149.295654 88.25204 149.07912 87.960553 C 148.858422 87.664901 148.454503 87.594111 147.867364 87.739855 C 147.430132 87.152715 146.988736 86.586396 146.547341 86.036734 C 146.110109 85.487071 145.70619 84.883275 145.339749 84.221182 C 145.485493 83.342554 145.597924 82.593015 145.668713 81.968398 C 145.743667 81.347946 145.52297 80.739985 145.010784 80.15701 C 145.302272 79.203429 145.52297 78.433068 145.668713 77.845929 C 145.818621 77.262953 145.818621 76.492593 145.668713 75.539012 Z M 214.01842 117.305038 C 214.384862 119.503688 214.255775 121.22763 213.631158 122.472699 C 213.010706 123.717768 212.132078 124.650529 210.995276 125.275145 C 209.858474 125.895598 208.559272 126.245383 207.093505 126.320337 C 205.627738 126.391127 204.232761 126.320337 202.916902 126.099639 C 202.184019 125.075268 201.521925 123.792722 200.93895 122.252001 C 200.35181 120.715445 199.802148 119.12059 199.289962 117.471603 C 198.777777 115.822615 198.319724 114.190284 197.915806 112.578773 C 197.511887 110.967262 197.162102 109.538972 196.870614 108.293903 C 197.237056 107.415276 197.47441 106.407561 197.586841 105.270759 C 197.695108 104.133957 197.770062 102.980499 197.803375 101.810384 C 197.840852 100.636105 197.878329 99.445169 197.915806 98.237577 C 197.953283 97.025821 198.044893 95.872362 198.190637 94.773037 C 198.702823 91.69576 199.452362 88.764226 200.443421 85.9826 C 201.430315 83.19681 202.221496 80.302754 202.804471 77.296266 C 202.954379 76.638337 202.896082 76.017884 202.642071 75.430745 C 202.383896 74.843605 202.329763 74.293943 202.475506 73.781757 C 202.55046 73.486105 202.771158 73.286228 203.1376 73.177961 C 203.504042 73.06553 203.720575 72.828176 203.795529 72.461734 C 204.016227 71.658061 204.070361 70.995967 203.962094 70.483782 C 203.849663 69.971596 203.97875 69.34698 204.345192 68.614096 C 204.711634 68.026957 205.169686 67.16915 205.719348 66.032348 C 206.269011 64.895546 206.468888 63.70461 206.323144 62.459541 C 206.981074 62.02231 207.60569 61.50596 208.19283 60.922984 C 208.775805 60.335845 209.383765 59.802839 210.004218 59.32813 C 210.628834 58.849257 211.324241 58.428682 212.094601 58.062241 C 212.864962 57.695799 213.797722 57.512578 214.897048 57.512578 C 215.484187 58.245461 215.867285 59.053299 216.050506 59.931926 C 216.233727 60.810553 216.416948 61.689181 216.600169 62.571972 C 216.78339 63.450599 217.058221 64.275093 217.424663 65.041289 C 217.791104 65.81165 218.411557 66.415446 219.294348 66.856842 C 219.294348 67.443981 219.294348 68.176865 219.294348 69.055492 C 219.294348 69.934119 219.327661 70.79609 219.402615 71.63724 C 219.477569 72.478391 219.639969 73.248751 219.898144 73.944157 C 220.152155 74.643728 220.576894 75.10178 221.159869 75.318314 C 219.844011 78.836987 218.615598 82.318183 217.478796 85.761902 C 216.341994 89.205622 215.409233 92.665997 214.67635 96.147194 C 213.943466 99.62839 213.485414 103.126243 213.302193 106.644916 C 213.118972 110.163589 213.356327 113.715575 214.01842 117.305038 Z M 299.291071 105.216626 C 297.533817 108.364693 295.222736 110.804862 292.366156 112.52464 C 289.509576 114.248581 286.357345 115.676871 282.913626 116.809509 C 279.469906 117.946311 275.859623 118.954026 272.086939 119.832653 C 268.314255 120.715445 264.670658 121.848083 261.151985 123.243059 C 260.127614 123.243059 259.228166 123.276372 258.457806 123.351326 C 257.687445 123.42628 256.954562 123.517891 256.259155 123.626158 C 255.563749 123.734424 254.884999 123.846855 254.22707 123.955122 C 253.56914 124.067553 252.836257 124.159164 252.028419 124.229954 C 251.736932 124.159164 251.553711 124.213297 251.478757 124.396518 C 251.403803 124.579739 251.295536 124.742139 251.149792 124.892047 C 249.904723 125.108581 248.784577 125.221012 247.797683 125.221012 C 246.806625 125.221012 245.982131 125.221012 245.324202 125.221012 C 244.445574 125.221012 243.546127 125.350099 242.630022 125.60411 C 241.713918 125.862285 240.889424 125.953895 240.156541 125.878941 C 234.664079 125.587454 230.358389 123.626158 227.243635 119.999218 C 224.12888 116.372277 222.388282 111.333704 222.02184 104.887661 C 222.096794 104.521219 222.042661 104.300522 221.85944 104.225568 C 221.676219 104.154778 221.509655 104.042347 221.363911 103.896603 C 221.363911 103.163719 221.455521 102.543267 221.638742 102.026917 C 221.821963 101.514732 221.838619 100.856802 221.692876 100.048965 C 223.600038 96.018106 225.761211 92.266243 228.176395 88.785047 C 230.595743 85.30385 233.4898 82.243229 236.86273 79.607347 C 237.374915 79.165952 237.812147 78.72872 238.178588 78.287324 C 238.54503 77.845929 238.894815 77.408697 239.22378 76.967301 C 239.552745 76.53007 239.940007 76.142808 240.377239 75.813843 C 240.818634 75.484878 241.368297 75.247524 242.026226 75.10178 C 243.566947 73.340361 245.399156 71.728851 247.522852 70.263084 C 249.646548 68.797317 251.882675 67.385684 254.22707 66.032348 C 256.571464 64.674848 258.899201 63.321512 261.206118 61.964012 C 263.513036 60.610676 265.620075 59.090776 267.527238 57.404311 C 268.330911 57.770753 268.918051 57.87902 269.284492 57.733276 C 269.650934 57.587532 270.054853 57.587532 270.492084 57.733276 C 271.008434 58.832601 271.720497 59.602961 272.636601 60.040193 C 273.552706 60.481589 274.46881 60.939641 275.384914 61.414349 C 276.301018 61.893222 277.162989 62.459541 277.966663 63.117471 C 278.7745 63.779564 279.394952 64.658191 279.836348 65.757516 C 279.394952 65.757516 279.195075 65.924081 279.232552 66.253046 C 279.270029 66.58201 279.361639 66.910975 279.507383 67.23994 C 279.653127 67.568904 279.707261 67.902033 279.669784 68.230998 C 279.636471 68.559963 279.361639 68.726527 278.84529 68.726527 C 278.920244 69.092969 279.157598 69.292846 279.561517 69.330323 C 279.965435 69.3678 280.165313 69.567677 280.165313 69.934119 C 280.165313 70.300561 280.073702 70.592049 279.890481 70.812746 C 279.707261 71.033444 279.690604 71.399886 279.836348 71.912072 C 278.370581 72.865653 276.742414 73.781757 274.943518 74.660384 C 273.148787 75.539012 271.283265 76.471772 269.338626 77.462831 C 267.398151 78.453889 265.382721 79.515737 263.296502 80.652539 C 261.206118 81.785177 259.174033 83.088544 257.19608 84.55431 C 255.218128 86.015913 253.202698 87.648244 251.149792 89.442976 C 249.096886 91.237708 247.118933 93.12405 245.215935 95.102002 C 243.308772 97.084118 241.514041 99.116204 239.827576 101.202424 C 238.141111 103.292807 236.712822 105.36237 235.542707 107.415276 C 235.68845 107.781718 235.855015 108.056549 236.038236 108.23977 C 236.221457 108.422991 236.383857 108.697822 236.529601 109.064264 C 238.873995 109.210008 241.055989 109.189187 243.071418 109.005966 C 245.086847 108.822745 247.118933 108.951833 249.17184 109.393229 C 249.392537 109.247485 249.538281 109.026787 249.609071 108.731135 C 249.684025 108.439647 249.867246 108.218949 250.158734 108.073206 C 254.335336 107.63181 258.220451 106.957224 261.809914 106.04112 C 265.399378 105.125015 269.063795 104.154778 272.803166 103.126243 C 272.216026 102.909709 271.68302 102.705667 271.208311 102.522447 C 270.733603 102.339226 270.275551 102.176825 269.834155 102.026917 C 269.467713 101.660476 269.48437 101.352332 269.888288 101.094157 C 270.292207 100.835982 270.641992 100.561151 270.93348 100.269663 C 269.909109 99.682523 269.084615 98.94964 268.459999 98.071013 C 267.839546 97.192385 267.452284 96.018106 267.30654 94.552339 C 267.747936 94.185898 267.96447 93.748666 267.96447 93.23648 C 267.96447 92.724295 267.747936 92.320376 267.30654 92.024724 C 267.015052 91.953935 266.831832 91.953935 266.756878 92.024724 C 266.681924 92.099678 266.62779 92.207945 266.590313 92.357853 C 266.557 92.503597 266.498703 92.632684 266.427913 92.740951 C 266.352959 92.849218 266.169738 92.832562 265.87825 92.686818 C 265.94904 92.024724 266.115605 91.475062 266.373779 91.03783 C 266.62779 90.596435 266.831832 90.084249 266.977575 89.497109 L 274.56042 84.441879 C 275.368258 85.029019 276.355152 85.670292 277.529431 86.365698 C 278.699546 87.061105 279.927958 87.756511 281.210504 88.456082 C 282.49305 89.151488 283.813073 89.846895 285.166409 90.542301 C 286.523909 91.237708 287.785635 91.916458 288.959914 92.574387 C 289.984285 93.015783 290.900389 93.602922 291.708227 94.335806 C 292.5119 95.068689 293.28226 95.818229 294.015144 96.588589 C 294.748027 97.35895 295.497567 98.10849 296.267927 98.841373 C 297.038288 99.574256 297.933572 100.194709 298.962107 100.711059 C 298.816363 101.660476 298.849676 102.430836 299.070374 103.017976 C 299.291071 103.605115 299.366025 104.337999 299.291071 105.216626 Z M 311.91249 104.995928 C 311.250396 105.141672 310.775688 105.528934 310.4842 106.149387 C 310.188548 106.774003 309.913717 107.415276 309.659706 108.073206 C 309.401531 108.731135 309.147521 109.339095 308.889346 109.888758 C 308.631171 110.43842 308.248073 110.713252 307.735887 110.713252 C 307.660933 111.296227 307.461056 111.812577 307.132091 112.249808 C 306.798962 112.691204 306.490818 113.149256 306.195166 113.623965 C 305.903679 114.098673 305.682981 114.615023 305.537237 115.164685 C 305.391493 115.714348 305.462283 116.355621 305.757935 117.08434 C 305.170795 117.525736 304.804354 118.150353 304.65861 118.954026 C 304.512866 119.761863 304.346301 120.532224 304.163081 121.260943 C 303.97986 121.993826 303.667551 122.618443 303.23032 123.130628 C 302.788924 123.642814 301.981087 123.863512 300.810972 123.792722 C 300.590274 124.08421 300.552797 124.267431 300.702705 124.342385 C 300.848449 124.413174 300.956716 124.671349 301.03167 125.108581 C 300.223832 124.962837 299.620036 125.01697 299.216117 125.275145 C 298.812199 125.53332 298.320834 125.69572 297.733694 125.770674 C 296.342881 125.329279 295.185259 124.558918 294.269154 123.459593 C 293.35305 122.360268 292.549377 121.13602 291.85397 119.77852 C 291.158564 118.425184 290.533947 117.051027 289.984285 115.65605 C 289.434622 114.265238 288.901616 113.057646 288.389431 112.02911 C 288.610129 111.225437 288.647605 110.43842 288.501862 109.66806 C 288.351954 108.897699 288.097943 108.256426 287.731501 107.744241 C 291.320964 100.123919 295.243556 91.991412 299.490949 83.342554 C 303.742505 74.697861 307.773364 66.161435 311.583525 57.733276 C 313.265826 58.391205 314.935634 59.144909 316.584622 59.98606 C 318.233609 60.831374 319.732689 61.801612 321.090189 62.900937 C 322.443525 64.000262 323.601148 65.261987 324.550565 66.690277 C 325.504146 68.118567 326.128763 69.713421 326.42025 71.47484 C 326.274506 71.912072 326.107942 72.078636 325.924721 71.966205 C 325.7415 71.857938 325.5791 71.912072 325.429192 72.132769 C 325.724844 72.499211 325.887244 72.753222 325.924721 72.90313 C 325.962198 73.048874 325.962198 73.194618 325.924721 73.340361 C 325.887244 73.486105 325.870588 73.690147 325.870588 73.944157 C 325.870588 74.202332 325.978855 74.552117 326.199552 74.989349 C 325.908065 74.918559 325.704023 74.951872 325.595756 75.10178 C 325.48749 75.247524 325.245971 75.247524 324.879529 75.10178 C 325.175181 75.905453 325.266792 76.563383 325.154361 77.079732 C 325.046094 77.591918 324.879529 78.04997 324.662996 78.453889 C 324.442298 78.853643 324.259077 79.295039 324.113333 79.769748 C 323.967589 80.24862 324.000902 80.852416 324.2216 81.5853 C 324.000902 81.5853 323.838502 81.639433 323.726071 81.7477 C 323.617804 81.860131 323.526194 81.968398 323.45124 82.080829 C 323.38045 82.189096 323.288839 82.297363 323.176408 82.409794 C 323.068141 82.518061 322.901577 82.538881 322.685043 82.463927 C 322.901577 84.075438 322.976531 85.686948 322.901577 87.298459 C 322.830787 88.914134 322.776654 90.542301 322.739177 92.191289 C 322.7017 93.840276 322.718356 95.560054 322.79331 97.35895 C 322.868264 99.153681 323.122275 101.002546 323.563671 102.909709 C 326.199552 101.368988 328.306592 99.391036 329.880626 96.971687 C 331.458824 94.552339 332.74137 91.841504 333.728264 88.83918 C 334.719322 85.832692 335.468862 82.609671 335.981048 79.165952 C 336.497397 75.722232 337.04706 72.203559 337.630035 68.614096 C 338.292129 67.956167 338.804314 67.148329 339.170756 66.198912 C 339.537198 65.245331 339.866162 64.237616 340.15765 63.175768 C 340.453302 62.11392 340.74479 61.047908 341.040442 59.98606 C 341.331929 58.924211 341.698371 57.953974 342.135603 57.075346 C 343.234928 57.22109 344.171853 57.570876 344.942213 58.120538 C 345.708409 58.666037 346.424636 59.253176 347.082566 59.877793 C 347.744659 60.498245 348.440066 61.085385 349.172949 61.635047 C 349.905832 62.18471 350.821937 62.534495 351.921262 62.680239 C 352.799889 63.925308 353.603562 65.1329 354.336446 66.307179 C 355.069329 67.477294 355.548202 68.726527 355.764736 70.042386 C 355.402458 70.629526 355.127627 71.291619 354.944406 72.020338 C 354.761185 72.753222 354.557144 73.486105 354.336446 74.218989 C 354.119912 74.951872 353.82426 75.630622 353.457819 76.255239 C 353.091377 76.875691 352.579191 77.408697 351.921262 77.845929 C 351.700564 79.753091 351.425733 81.493689 351.096768 83.067723 C 350.767803 84.645921 350.434674 86.199134 350.10571 87.739855 C 349.776745 89.280576 349.501914 90.871266 349.281216 92.520254 C 349.060518 94.169241 348.989728 95.984793 349.060518 97.962746 C 348.477543 99.645046 347.852926 101.443942 347.194997 103.34694 C 346.532903 105.254103 346.020718 106.97388 345.654276 108.514601 C 344.484161 109.464018 343.568057 110.600821 342.905963 111.920844 C 342.248034 113.240866 341.552627 114.556725 340.819744 115.876748 C 340.524092 116.1724 340.340871 116.24319 340.270081 116.097446 C 340.195127 115.951702 339.941116 115.839271 339.499721 115.768481 C 339.574675 116.059969 339.574675 116.280667 339.499721 116.426411 C 339.424767 116.572155 339.333156 116.701242 339.224889 116.809509 C 339.116623 116.92194 339.041669 117.08434 339.004192 117.305038 C 338.966715 117.525736 339.025012 117.817224 339.170756 118.183665 C 338.142221 118.625061 337.230281 119.249678 336.422443 120.053351 C 335.614606 120.861188 334.756799 121.594072 333.840695 122.252001 C 332.924591 122.909931 331.825265 123.351326 330.542719 123.572024 C 329.260173 123.792722 327.594529 123.534547 325.541623 122.801664 C 322.535135 120.603014 319.878433 118.075399 317.571516 115.218819 C 315.264599 112.358075 313.378257 108.951833 311.91249 104.995928 Z M 311.91249 104.995928 " stroke="#f1efe7" stroke-width="8.44155" stroke-opacity="1" stroke-miterlimit="4"/><g fill="#292929" fill-opacity="1"><g transform="translate(35.579804, 251.816112)"><g><path d="M 10.109375 1.140625 C 8.109375 0.648438 6.578125 -0.15625 5.515625 -1.28125 C 4.453125 -2.414062 3.660156 -3.753906 3.140625 -5.296875 C 2.628906 -6.847656 2.285156 -8.550781 2.109375 -10.40625 C 1.941406 -12.269531 1.753906 -14.195312 1.546875 -16.1875 C 1.816406 -17.082031 2.175781 -17.835938 2.625 -18.453125 C 3.070312 -19.078125 3.265625 -19.9375 3.203125 -21.03125 C 3.953125 -23.226562 4.632812 -25.359375 5.25 -27.421875 C 5.875 -29.484375 6.289062 -31.613281 6.5 -33.8125 C 6.90625 -34.4375 7.316406 -34.851562 7.734375 -35.0625 C 8.285156 -38.976562 8.351562 -42.992188 7.9375 -47.109375 C 7.53125 -51.234375 6.84375 -55.050781 5.875 -58.5625 C 5.945312 -59.320312 6.050781 -59.890625 6.1875 -60.265625 C 6.320312 -60.640625 6.320312 -60.96875 6.1875 -61.25 C 6.050781 -61.863281 6.253906 -62.171875 6.796875 -62.171875 C 7.347656 -62.171875 7.898438 -62.171875 8.453125 -62.171875 C 8.453125 -63.410156 8.226562 -64.628906 7.78125 -65.828125 C 7.332031 -67.035156 6.90625 -68.425781 6.5 -70 C 7.050781 -71.238281 7.425781 -72.441406 7.625 -73.609375 C 7.832031 -74.785156 8.210938 -75.851562 8.765625 -76.8125 C 10.960938 -76.125 13.125 -75.332031 15.25 -74.4375 C 17.382812 -73.539062 19.484375 -72.660156 21.546875 -71.796875 C 23.609375 -70.941406 25.632812 -70.117188 27.625 -69.328125 C 29.625 -68.546875 31.585938 -67.914062 33.515625 -67.4375 C 36.460938 -65.300781 39.5 -63.179688 42.625 -61.078125 C 45.757812 -58.984375 48.613281 -56.679688 51.1875 -54.171875 C 53.769531 -51.671875 55.921875 -48.800781 57.640625 -45.5625 C 59.359375 -42.332031 60.351562 -38.519531 60.625 -34.125 C 60.488281 -33.71875 60.382812 -33.375 60.3125 -33.09375 C 60.25 -32.820312 60.179688 -32.546875 60.109375 -32.265625 C 60.035156 -31.992188 60 -31.6875 60 -31.34375 C 60 -31 60 -30.519531 60 -29.90625 C 57.53125 -25.570312 54.40625 -21.925781 50.625 -18.96875 C 46.84375 -16.007812 42.71875 -13.394531 38.25 -11.125 C 33.78125 -8.863281 29.125 -6.785156 24.28125 -4.890625 C 19.4375 -3.003906 14.710938 -0.992188 10.109375 1.140625 Z M 20.203125 -57.328125 C 19.585938 -57.328125 19.144531 -57.1875 18.875 -56.90625 C 19.695312 -53.820312 20.3125 -50.90625 20.71875 -48.15625 C 21.132812 -45.40625 21.359375 -42.65625 21.390625 -39.90625 C 21.429688 -37.15625 21.28125 -34.332031 20.9375 -31.4375 C 20.59375 -28.550781 20.109375 -25.425781 19.484375 -22.0625 C 20.378906 -22.132812 21.171875 -22.304688 21.859375 -22.578125 C 22.546875 -22.847656 23.25 -23.15625 23.96875 -23.5 C 24.6875 -23.84375 25.441406 -24.148438 26.234375 -24.421875 C 27.023438 -24.703125 27.9375 -24.878906 28.96875 -24.953125 C 29.25 -25.503906 29.609375 -25.929688 30.046875 -26.234375 C 30.492188 -26.546875 30.890625 -26.875 31.234375 -27.21875 C 32.953125 -27.90625 34.671875 -28.625 36.390625 -29.375 C 38.109375 -30.132812 39.6875 -30.992188 41.125 -31.953125 C 42.570312 -32.921875 43.878906 -34.023438 45.046875 -35.265625 C 46.222656 -36.503906 47.1875 -37.976562 47.9375 -39.6875 C 47.394531 -40.71875 46.726562 -41.59375 45.9375 -42.3125 C 45.144531 -43.039062 44.316406 -43.765625 43.453125 -44.484375 C 42.597656 -45.210938 41.773438 -45.96875 40.984375 -46.75 C 40.191406 -47.539062 39.554688 -48.453125 39.078125 -49.484375 C 37.972656 -49.628906 37.007812 -49.921875 36.1875 -50.359375 C 35.363281 -50.804688 34.570312 -51.253906 33.8125 -51.703125 C 33.0625 -52.148438 32.253906 -52.578125 31.390625 -52.984375 C 30.535156 -53.398438 29.523438 -53.644531 28.359375 -53.71875 C 26.566406 -54.675781 24.945312 -55.34375 23.5 -55.71875 C 22.0625 -56.101562 20.960938 -56.640625 20.203125 -57.328125 Z M 20.203125 -57.328125 "/></g></g></g><g fill="#292929" fill-opacity="1"><g transform="translate(92.682872, 251.816112)"><g><path d="M 57.53125 -58.046875 C 57.601562 -57.566406 57.617188 -57.207031 57.578125 -56.96875 C 57.546875 -56.726562 57.507812 -56.503906 57.46875 -56.296875 C 57.4375 -56.085938 57.421875 -55.863281 57.421875 -55.625 C 57.421875 -55.382812 57.492188 -55.023438 57.640625 -54.546875 C 56.191406 -52.203125 54.519531 -50.597656 52.625 -49.734375 C 50.738281 -48.878906 48.695312 -48.265625 46.5 -47.890625 C 44.300781 -47.515625 42.050781 -47.117188 39.75 -46.703125 C 37.445312 -46.296875 35.160156 -45.40625 32.890625 -44.03125 C 31.992188 -44.375 31.1875 -44.375 30.46875 -44.03125 C 29.75 -43.6875 28.703125 -43.582031 27.328125 -43.71875 C 26.910156 -43.300781 26.390625 -43.003906 25.765625 -42.828125 C 25.148438 -42.660156 24.535156 -42.472656 23.921875 -42.265625 C 24.191406 -41.648438 24.3125 -41.015625 24.28125 -40.359375 C 24.25 -39.710938 24.332031 -39.179688 24.53125 -38.765625 C 26.9375 -38.554688 29.597656 -38.585938 32.515625 -38.859375 C 35.441406 -39.140625 38.316406 -39.316406 41.140625 -39.390625 C 41.203125 -39.046875 41.164062 -38.820312 41.03125 -38.71875 C 40.894531 -38.613281 40.863281 -38.421875 40.9375 -38.140625 C 41.414062 -37.804688 41.894531 -37.378906 42.375 -36.859375 C 42.851562 -36.347656 43.332031 -35.847656 43.8125 -35.359375 C 44.300781 -34.878906 44.800781 -34.484375 45.3125 -34.171875 C 45.832031 -33.867188 46.4375 -33.75 47.125 -33.8125 C 47.394531 -33.269531 47.582031 -32.671875 47.6875 -32.015625 C 47.789062 -31.359375 47.703125 -30.6875 47.421875 -30 C 46.328125 -29.25 45.226562 -28.476562 44.125 -27.6875 C 43.03125 -26.894531 41.878906 -26.1875 40.671875 -25.5625 C 39.472656 -24.945312 38.203125 -24.445312 36.859375 -24.0625 C 35.515625 -23.6875 34.019531 -23.535156 32.375 -23.609375 C 32.03125 -23.609375 31.769531 -23.609375 31.59375 -23.609375 C 31.425781 -23.609375 31.207031 -23.710938 30.9375 -23.921875 C 30.382812 -23.578125 29.609375 -23.472656 28.609375 -23.609375 C 27.609375 -23.742188 26.835938 -23.640625 26.296875 -23.296875 C 25.535156 -23.640625 24.625 -23.796875 23.5625 -23.765625 C 22.5 -23.734375 21.550781 -23.851562 20.71875 -24.125 C 19.625 -22.6875 18.628906 -21.140625 17.734375 -19.484375 C 16.835938 -17.835938 16.046875 -16.085938 15.359375 -14.234375 C 17.703125 -13.890625 19.644531 -13.75 21.1875 -13.8125 C 22.726562 -13.882812 24.1875 -14.003906 25.5625 -14.171875 C 26.9375 -14.347656 28.347656 -14.519531 29.796875 -14.6875 C 31.242188 -14.863281 33.066406 -14.914062 35.265625 -14.84375 C 36.640625 -15.601562 38.269531 -16.101562 40.15625 -16.34375 C 42.050781 -16.582031 43.785156 -16.976562 45.359375 -17.53125 C 45.910156 -17.320312 46.390625 -16.957031 46.796875 -16.4375 C 47.210938 -15.925781 47.609375 -15.445312 47.984375 -15 C 48.367188 -14.550781 48.765625 -14.15625 49.171875 -13.8125 C 49.585938 -13.46875 50.109375 -13.332031 50.734375 -13.40625 C 51.003906 -13.125 51.191406 -12.796875 51.296875 -12.421875 C 51.398438 -12.046875 51.484375 -11.6875 51.546875 -11.34375 C 51.617188 -11 51.738281 -10.707031 51.90625 -10.46875 C 52.082031 -10.226562 52.378906 -10.140625 52.796875 -10.203125 C 51.765625 -7.941406 50.578125 -6.207031 49.234375 -5 C 47.890625 -3.800781 46.359375 -2.890625 44.640625 -2.265625 C 42.921875 -1.648438 41.015625 -1.171875 38.921875 -0.828125 C 36.828125 -0.484375 34.507812 -0.0703125 31.96875 0.40625 C 31.34375 0.550781 30.820312 0.535156 30.40625 0.359375 C 30 0.191406 29.519531 0.109375 28.96875 0.109375 C 27.382812 0.453125 25.492188 0.757812 23.296875 1.03125 C 21.097656 1.300781 18.863281 1.398438 16.59375 1.328125 C 14.332031 1.265625 12.171875 0.972656 10.109375 0.453125 C 8.046875 -0.0546875 6.359375 -0.960938 5.046875 -2.265625 C 4.503906 -2.742188 4.144531 -3.3125 3.96875 -3.96875 C 3.800781 -4.625 3.335938 -5.125 2.578125 -5.46875 C 2.503906 -6.363281 2.363281 -7.359375 2.15625 -8.453125 C 1.957031 -9.554688 1.753906 -10.707031 1.546875 -11.90625 C 1.335938 -13.113281 1.179688 -14.300781 1.078125 -15.46875 C 0.972656 -16.632812 1.023438 -17.695312 1.234375 -18.65625 C 1.441406 -19.6875 1.867188 -20.613281 2.515625 -21.4375 C 3.171875 -22.269531 3.398438 -23.164062 3.203125 -24.125 C 3.546875 -24.195312 3.75 -24.382812 3.8125 -24.6875 C 3.882812 -25 4.160156 -25.117188 4.640625 -25.046875 C 5.054688 -26.285156 5.503906 -27.453125 5.984375 -28.546875 C 6.460938 -29.648438 6.957031 -30.71875 7.46875 -31.75 C 7.988281 -32.78125 8.503906 -33.828125 9.015625 -34.890625 C 9.535156 -35.960938 10.035156 -37.148438 10.515625 -38.453125 C 9.554688 -39.347656 8.851562 -40.328125 8.40625 -41.390625 C 7.957031 -42.460938 7.628906 -43.53125 7.421875 -44.59375 C 7.210938 -45.65625 7.039062 -46.753906 6.90625 -47.890625 C 6.769531 -49.023438 6.53125 -50.175781 6.1875 -51.34375 C 6.875 -52.375 7.710938 -53.210938 8.703125 -53.859375 C 9.703125 -54.515625 10.785156 -55.050781 11.953125 -55.46875 C 13.128906 -55.882812 14.40625 -56.226562 15.78125 -56.5 C 17.15625 -56.769531 18.597656 -57.078125 20.109375 -57.421875 C 22.859375 -58.316406 25.3125 -59.003906 27.46875 -59.484375 C 29.632812 -59.972656 31.765625 -60.367188 33.859375 -60.671875 C 35.960938 -60.984375 38.144531 -61.273438 40.40625 -61.546875 C 42.675781 -61.828125 45.257812 -62.242188 48.15625 -62.796875 C 48.769531 -62.171875 49.351562 -61.859375 49.90625 -61.859375 C 50.175781 -62.484375 50.5 -62.671875 50.875 -62.421875 C 51.257812 -62.179688 51.414062 -62.375 51.34375 -63 C 52.03125 -61.832031 52.90625 -60.851562 53.96875 -60.0625 C 55.039062 -59.269531 56.226562 -58.597656 57.53125 -58.046875 Z M 57.53125 -58.046875 "/></g></g></g><g fill="#292929" fill-opacity="1"><g transform="translate(142.671834, 251.816112)"><g><path d="M 1.65625 -46.390625 C 2.132812 -47.835938 2.90625 -49.078125 3.96875 -50.109375 C 5.03125 -51.140625 6.195312 -52.015625 7.46875 -52.734375 C 8.738281 -53.453125 10.0625 -54.050781 11.4375 -54.53125 C 12.8125 -55.019531 14.117188 -55.4375 15.359375 -55.78125 C 18.109375 -56.945312 21.046875 -58.0625 24.171875 -59.125 C 27.304688 -60.195312 30.503906 -61.144531 33.765625 -61.96875 C 37.023438 -62.789062 40.375 -63.320312 43.8125 -63.5625 C 47.25 -63.800781 50.859375 -63.375 54.640625 -62.28125 C 54.847656 -61.59375 55.15625 -60.9375 55.5625 -60.3125 C 55.976562 -59.695312 56.410156 -59.078125 56.859375 -58.453125 C 57.304688 -57.835938 57.703125 -57.238281 58.046875 -56.65625 C 58.390625 -56.070312 58.597656 -55.46875 58.671875 -54.84375 C 59.359375 -54.226562 59.90625 -53.5625 60.3125 -52.84375 C 60.726562 -52.125 60.796875 -51.175781 60.515625 -50 C 59.828125 -49.457031 59.15625 -48.960938 58.5 -48.515625 C 57.851562 -48.066406 57.148438 -47.671875 56.390625 -47.328125 C 53.847656 -47.941406 51.269531 -48.144531 48.65625 -47.9375 C 46.050781 -47.738281 43.71875 -47.566406 41.65625 -47.421875 C 41.03125 -48.046875 40.285156 -48.359375 39.421875 -48.359375 C 38.566406 -48.359375 37.675781 -48.21875 36.75 -47.9375 C 35.820312 -47.664062 34.894531 -47.390625 33.96875 -47.109375 C 33.039062 -46.835938 32.164062 -46.769531 31.34375 -46.90625 C 30.65625 -46.363281 29.8125 -46.003906 28.8125 -45.828125 C 27.820312 -45.660156 26.738281 -45.503906 25.5625 -45.359375 C 25.5 -45.015625 25.566406 -44.789062 25.765625 -44.6875 C 25.972656 -44.59375 26.007812 -44.375 25.875 -44.03125 C 26.289062 -43.539062 26.820312 -43.191406 27.46875 -42.984375 C 28.125 -42.785156 28.8125 -42.582031 29.53125 -42.375 C 30.257812 -42.164062 30.894531 -41.90625 31.4375 -41.59375 C 31.988281 -41.289062 32.367188 -40.796875 32.578125 -40.109375 C 33.609375 -40.109375 34.5 -39.863281 35.25 -39.375 C 36.007812 -38.894531 36.628906 -38.3125 37.109375 -37.625 C 37.597656 -36.945312 37.960938 -36.210938 38.203125 -35.421875 C 38.441406 -34.628906 38.5625 -33.921875 38.5625 -33.296875 C 38.769531 -32.753906 39.007812 -32.515625 39.28125 -32.578125 C 39.550781 -32.648438 39.859375 -32.515625 40.203125 -32.171875 C 40.410156 -31.273438 40.925781 -30.363281 41.75 -29.4375 C 42.582031 -28.507812 43.238281 -27.492188 43.71875 -26.390625 C 43.851562 -24.671875 43.953125 -23.140625 44.015625 -21.796875 C 44.085938 -20.460938 43.847656 -19.109375 43.296875 -17.734375 C 42.265625 -15.191406 40.835938 -12.921875 39.015625 -10.921875 C 37.203125 -8.929688 35.144531 -7.160156 32.84375 -5.609375 C 30.539062 -4.066406 28.082031 -2.742188 25.46875 -1.640625 C 22.851562 -0.546875 20.3125 0.378906 17.84375 1.140625 C 17.5625 1.066406 17.28125 1.0625 17 1.125 C 16.726562 1.195312 16.664062 1.03125 16.8125 0.625 C 16.257812 1.101562 15.65625 1.410156 15 1.546875 C 14.34375 1.679688 13.632812 1.734375 12.875 1.703125 C 12.125 1.671875 11.351562 1.617188 10.5625 1.546875 C 9.769531 1.472656 9.03125 1.507812 8.34375 1.65625 C 7.863281 1.164062 7.4375 0.695312 7.0625 0.25 C 6.6875 -0.1875 6.394531 -0.75 6.1875 -1.4375 C 5.84375 -1.4375 5.6875 -1.609375 5.71875 -1.953125 C 5.757812 -2.296875 5.640625 -2.46875 5.359375 -2.46875 C 5.773438 -3.15625 5.960938 -3.550781 5.921875 -3.65625 C 5.890625 -3.757812 5.785156 -3.84375 5.609375 -3.90625 C 5.441406 -3.976562 5.289062 -4.066406 5.15625 -4.171875 C 5.019531 -4.273438 4.984375 -4.429688 5.046875 -4.640625 C 5.328125 -5.191406 5.429688 -5.828125 5.359375 -6.546875 C 5.296875 -7.265625 5.226562 -8 5.15625 -8.75 C 5.082031 -9.507812 5.128906 -10.234375 5.296875 -10.921875 C 5.472656 -11.609375 5.976562 -12.160156 6.8125 -12.578125 C 9.144531 -12.304688 11.359375 -12.390625 13.453125 -12.828125 C 15.546875 -13.273438 17.519531 -13.910156 19.375 -14.734375 C 21.238281 -15.566406 23.007812 -16.460938 24.6875 -17.421875 C 26.375 -18.390625 28.039062 -19.25 29.6875 -20 C 29.894531 -20.625 30.1875 -21.140625 30.5625 -21.546875 C 30.945312 -21.960938 31.34375 -22.34375 31.75 -22.6875 C 32.164062 -23.03125 32.546875 -23.40625 32.890625 -23.8125 C 33.234375 -24.226562 33.472656 -24.742188 33.609375 -25.359375 C 33.679688 -25.835938 33.5625 -26.128906 33.25 -26.234375 C 32.9375 -26.335938 32.78125 -26.597656 32.78125 -27.015625 L 31.65625 -27.328125 C 30.34375 -28.078125 28.863281 -28.707031 27.21875 -29.21875 C 25.570312 -29.738281 24.160156 -30.3125 22.984375 -30.9375 C 22.234375 -30.519531 21.53125 -30.414062 20.875 -30.625 C 20.226562 -30.832031 19.390625 -31.035156 18.359375 -31.234375 C 16.015625 -31.378906 13.757812 -31.625 11.59375 -31.96875 C 9.425781 -32.3125 7.347656 -32.925781 5.359375 -33.8125 C 5.222656 -34.15625 5.050781 -34.460938 4.84375 -34.734375 C 4.632812 -35.015625 4.257812 -35.085938 3.71875 -34.953125 C 3.300781 -35.503906 2.882812 -36.035156 2.46875 -36.546875 C 2.0625 -37.066406 1.6875 -37.632812 1.34375 -38.25 C 1.476562 -39.070312 1.578125 -39.773438 1.640625 -40.359375 C 1.710938 -40.941406 1.507812 -41.507812 1.03125 -42.0625 C 1.300781 -42.957031 1.503906 -43.679688 1.640625 -44.234375 C 1.785156 -44.785156 1.789062 -45.503906 1.65625 -46.390625 Z M 1.65625 -46.390625 "/></g></g></g><g fill="#292929" fill-opacity="1"><g transform="translate(186.577715, 251.816112)"><g><path d="M 21.859375 -7.21875 C 22.203125 -5.15625 22.082031 -3.539062 21.5 -2.375 C 20.914062 -1.207031 20.085938 -0.332031 19.015625 0.25 C 17.953125 0.84375 16.734375 1.171875 15.359375 1.234375 C 13.984375 1.304688 12.675781 1.238281 11.4375 1.03125 C 10.75 0.0703125 10.128906 -1.128906 9.578125 -2.578125 C 9.035156 -4.023438 8.523438 -5.519531 8.046875 -7.0625 C 7.566406 -8.601562 7.132812 -10.128906 6.75 -11.640625 C 6.375 -13.160156 6.050781 -14.503906 5.78125 -15.671875 C 6.125 -16.492188 6.34375 -17.4375 6.4375 -18.5 C 6.539062 -19.570312 6.609375 -20.65625 6.640625 -21.75 C 6.679688 -22.851562 6.71875 -23.972656 6.75 -25.109375 C 6.789062 -26.242188 6.878906 -27.328125 7.015625 -28.359375 C 7.492188 -31.242188 8.195312 -33.988281 9.125 -36.59375 C 10.050781 -39.207031 10.789062 -41.925781 11.34375 -44.75 C 11.476562 -45.363281 11.425781 -45.945312 11.1875 -46.5 C 10.945312 -47.050781 10.894531 -47.566406 11.03125 -48.046875 C 11.101562 -48.316406 11.3125 -48.503906 11.65625 -48.609375 C 12 -48.710938 12.203125 -48.9375 12.265625 -49.28125 C 12.472656 -50.039062 12.523438 -50.660156 12.421875 -51.140625 C 12.316406 -51.617188 12.4375 -52.203125 12.78125 -52.890625 C 13.125 -53.441406 13.550781 -54.25 14.0625 -55.3125 C 14.582031 -56.375 14.773438 -57.492188 14.640625 -58.671875 C 15.253906 -59.078125 15.835938 -59.554688 16.390625 -60.109375 C 16.941406 -60.660156 17.507812 -61.160156 18.09375 -61.609375 C 18.675781 -62.054688 19.328125 -62.453125 20.046875 -62.796875 C 20.773438 -63.140625 21.65625 -63.3125 22.6875 -63.3125 C 23.226562 -62.625 23.582031 -61.863281 23.75 -61.03125 C 23.925781 -60.207031 24.097656 -59.382812 24.265625 -58.5625 C 24.441406 -57.738281 24.703125 -56.960938 25.046875 -56.234375 C 25.390625 -55.515625 25.976562 -54.953125 26.8125 -54.546875 C 26.8125 -53.992188 26.8125 -53.304688 26.8125 -52.484375 C 26.8125 -51.660156 26.84375 -50.851562 26.90625 -50.0625 C 26.976562 -49.269531 27.132812 -48.546875 27.375 -47.890625 C 27.613281 -47.234375 28.007812 -46.804688 28.5625 -46.609375 C 27.320312 -43.304688 26.164062 -40.039062 25.09375 -36.8125 C 24.03125 -33.582031 23.15625 -30.332031 22.46875 -27.0625 C 21.789062 -23.800781 21.363281 -20.519531 21.1875 -17.21875 C 21.019531 -13.914062 21.242188 -10.582031 21.859375 -7.21875 Z M 21.859375 -7.21875 "/></g></g></g><g fill="#292929" fill-opacity="1"><g transform="translate(215.327463, 251.816112)"><g><path d="M 73.09375 -18.5625 C 71.445312 -15.601562 69.28125 -13.316406 66.59375 -11.703125 C 63.914062 -10.085938 60.960938 -8.742188 57.734375 -7.671875 C 54.503906 -6.609375 51.117188 -5.664062 47.578125 -4.84375 C 44.035156 -4.019531 40.617188 -2.957031 37.328125 -1.65625 C 36.359375 -1.65625 35.515625 -1.617188 34.796875 -1.546875 C 34.078125 -1.472656 33.390625 -1.382812 32.734375 -1.28125 C 32.078125 -1.1875 31.441406 -1.085938 30.828125 -0.984375 C 30.210938 -0.878906 29.523438 -0.789062 28.765625 -0.71875 C 28.492188 -0.789062 28.320312 -0.738281 28.25 -0.5625 C 28.175781 -0.394531 28.070312 -0.242188 27.9375 -0.109375 C 26.769531 0.0976562 25.722656 0.203125 24.796875 0.203125 C 23.867188 0.203125 23.097656 0.203125 22.484375 0.203125 C 21.648438 0.203125 20.800781 0.320312 19.9375 0.5625 C 19.082031 0.800781 18.3125 0.890625 17.625 0.828125 C 12.46875 0.546875 8.429688 -1.289062 5.515625 -4.6875 C 2.597656 -8.09375 0.96875 -12.820312 0.625 -18.875 C 0.6875 -19.21875 0.628906 -19.421875 0.453125 -19.484375 C 0.285156 -19.554688 0.132812 -19.660156 0 -19.796875 C 0 -20.484375 0.0820312 -21.066406 0.25 -21.546875 C 0.425781 -22.023438 0.445312 -22.644531 0.3125 -23.40625 C 2.09375 -27.1875 4.117188 -30.707031 6.390625 -33.96875 C 8.660156 -37.238281 11.375 -40.109375 14.53125 -42.578125 C 15.019531 -42.992188 15.4375 -43.40625 15.78125 -43.8125 C 16.125 -44.226562 16.445312 -44.640625 16.75 -45.046875 C 17.0625 -45.460938 17.421875 -45.828125 17.828125 -46.140625 C 18.242188 -46.453125 18.765625 -46.675781 19.390625 -46.8125 C 20.828125 -48.457031 22.539062 -49.96875 24.53125 -51.34375 C 26.53125 -52.71875 28.628906 -54.039062 30.828125 -55.3125 C 33.023438 -56.582031 35.207031 -57.851562 37.375 -59.125 C 39.539062 -60.394531 41.515625 -61.820312 43.296875 -63.40625 C 44.054688 -63.0625 44.609375 -62.957031 44.953125 -63.09375 C 45.296875 -63.238281 45.675781 -63.238281 46.09375 -63.09375 C 46.570312 -62.0625 47.238281 -61.335938 48.09375 -60.921875 C 48.957031 -60.515625 49.816406 -60.085938 50.671875 -59.640625 C 51.535156 -59.191406 52.34375 -58.660156 53.09375 -58.046875 C 53.851562 -57.429688 54.4375 -56.609375 54.84375 -55.578125 C 54.4375 -55.578125 54.25 -55.421875 54.28125 -55.109375 C 54.3125 -54.796875 54.394531 -54.484375 54.53125 -54.171875 C 54.675781 -53.867188 54.726562 -53.5625 54.6875 -53.25 C 54.65625 -52.945312 54.398438 -52.796875 53.921875 -52.796875 C 53.992188 -52.453125 54.21875 -52.257812 54.59375 -52.21875 C 54.96875 -52.1875 55.15625 -52 55.15625 -51.65625 C 55.15625 -51.3125 55.066406 -51.035156 54.890625 -50.828125 C 54.722656 -50.617188 54.707031 -50.273438 54.84375 -49.796875 C 53.476562 -48.898438 51.953125 -48.039062 50.265625 -47.21875 C 48.578125 -46.394531 46.820312 -45.519531 45 -44.59375 C 43.175781 -43.664062 41.285156 -42.664062 39.328125 -41.59375 C 37.367188 -40.53125 35.460938 -39.3125 33.609375 -37.9375 C 31.753906 -36.5625 29.863281 -35.03125 27.9375 -33.34375 C 26.007812 -31.664062 24.148438 -29.898438 22.359375 -28.046875 C 20.578125 -26.191406 18.894531 -24.285156 17.3125 -22.328125 C 15.738281 -20.367188 14.398438 -18.425781 13.296875 -16.5 C 13.429688 -16.15625 13.582031 -15.894531 13.75 -15.71875 C 13.925781 -15.550781 14.085938 -15.296875 14.234375 -14.953125 C 16.429688 -14.816406 18.472656 -14.832031 20.359375 -15 C 22.253906 -15.175781 24.160156 -15.054688 26.078125 -14.640625 C 26.285156 -14.773438 26.421875 -14.976562 26.484375 -15.25 C 26.554688 -15.53125 26.734375 -15.738281 27.015625 -15.875 C 30.929688 -16.289062 34.570312 -16.925781 37.9375 -17.78125 C 41.3125 -18.644531 44.75 -19.554688 48.25 -20.515625 C 47.695312 -20.722656 47.195312 -20.910156 46.75 -21.078125 C 46.3125 -21.253906 45.882812 -21.410156 45.46875 -21.546875 C 45.125 -21.890625 45.140625 -22.179688 45.515625 -22.421875 C 45.898438 -22.660156 46.226562 -22.921875 46.5 -23.203125 C 45.539062 -23.742188 44.765625 -24.425781 44.171875 -25.25 C 43.585938 -26.082031 43.226562 -27.1875 43.09375 -28.5625 C 43.507812 -28.90625 43.71875 -29.316406 43.71875 -29.796875 C 43.71875 -30.273438 43.507812 -30.65625 43.09375 -30.9375 C 42.820312 -31 42.648438 -30.992188 42.578125 -30.921875 C 42.515625 -30.859375 42.460938 -30.757812 42.421875 -30.625 C 42.390625 -30.488281 42.335938 -30.367188 42.265625 -30.265625 C 42.203125 -30.160156 42.03125 -30.175781 41.75 -30.3125 C 41.820312 -30.925781 41.976562 -31.441406 42.21875 -31.859375 C 42.457031 -32.273438 42.644531 -32.753906 42.78125 -33.296875 L 49.90625 -38.046875 C 50.65625 -37.492188 51.578125 -36.890625 52.671875 -36.234375 C 53.773438 -35.585938 54.925781 -34.9375 56.125 -34.28125 C 57.332031 -33.625 58.570312 -32.96875 59.84375 -32.3125 C 61.125 -31.664062 62.3125 -31.035156 63.40625 -30.421875 C 64.375 -30.003906 65.234375 -29.453125 65.984375 -28.765625 C 66.742188 -28.078125 67.46875 -27.367188 68.15625 -26.640625 C 68.84375 -25.921875 69.546875 -25.21875 70.265625 -24.53125 C 70.984375 -23.84375 71.828125 -23.257812 72.796875 -22.78125 C 72.648438 -21.894531 72.679688 -21.175781 72.890625 -20.625 C 73.097656 -20.070312 73.164062 -19.382812 73.09375 -18.5625 Z M 73.09375 -18.5625 "/></g></g></g><g fill="#292929" fill-opacity="1"><g transform="translate(279.132215, 251.816112)"><g><path d="M 21.140625 -18.765625 C 20.515625 -18.628906 20.066406 -18.269531 19.796875 -17.6875 C 19.523438 -17.101562 19.265625 -16.5 19.015625 -15.875 C 18.773438 -15.257812 18.535156 -14.691406 18.296875 -14.171875 C 18.054688 -13.660156 17.695312 -13.40625 17.21875 -13.40625 C 17.144531 -12.851562 16.953125 -12.367188 16.640625 -11.953125 C 16.335938 -11.546875 16.046875 -11.117188 15.765625 -10.671875 C 15.492188 -10.222656 15.289062 -9.738281 15.15625 -9.21875 C 15.019531 -8.707031 15.085938 -8.109375 15.359375 -7.421875 C 14.804688 -7.015625 14.460938 -6.429688 14.328125 -5.671875 C 14.191406 -4.910156 14.035156 -4.1875 13.859375 -3.5 C 13.691406 -2.8125 13.398438 -2.226562 12.984375 -1.75 C 12.578125 -1.269531 11.820312 -1.066406 10.71875 -1.140625 C 10.507812 -0.859375 10.472656 -0.679688 10.609375 -0.609375 C 10.753906 -0.546875 10.859375 -0.304688 10.921875 0.109375 C 10.171875 -0.0351562 9.601562 0.0078125 9.21875 0.25 C 8.84375 0.5 8.378906 0.65625 7.828125 0.71875 C 6.523438 0.3125 5.441406 -0.40625 4.578125 -1.4375 C 3.722656 -2.46875 2.96875 -3.617188 2.3125 -4.890625 C 1.664062 -6.171875 1.082031 -7.460938 0.5625 -8.765625 C 0.0507812 -10.066406 -0.441406 -11.203125 -0.921875 -12.171875 C -0.722656 -12.921875 -0.691406 -13.65625 -0.828125 -14.375 C -0.960938 -15.101562 -1.203125 -15.707031 -1.546875 -16.1875 C 1.816406 -23.332031 5.492188 -30.960938 9.484375 -39.078125 C 13.472656 -47.191406 17.253906 -55.195312 20.828125 -63.09375 C 22.410156 -62.476562 23.972656 -61.773438 25.515625 -60.984375 C 27.066406 -60.191406 28.476562 -59.28125 29.75 -58.25 C 31.019531 -57.21875 32.097656 -56.03125 32.984375 -54.6875 C 33.878906 -53.351562 34.46875 -51.863281 34.75 -50.21875 C 34.613281 -49.800781 34.457031 -49.644531 34.28125 -49.75 C 34.113281 -49.851562 33.957031 -49.800781 33.8125 -49.59375 C 34.09375 -49.25 34.25 -49.007812 34.28125 -48.875 C 34.3125 -48.738281 34.3125 -48.597656 34.28125 -48.453125 C 34.25 -48.316406 34.234375 -48.128906 34.234375 -47.890625 C 34.234375 -47.648438 34.335938 -47.320312 34.546875 -46.90625 C 34.265625 -46.976562 34.070312 -46.945312 33.96875 -46.8125 C 33.863281 -46.675781 33.640625 -46.675781 33.296875 -46.8125 C 33.578125 -46.050781 33.664062 -45.429688 33.5625 -44.953125 C 33.457031 -44.472656 33.300781 -44.039062 33.09375 -43.65625 C 32.882812 -43.28125 32.710938 -42.867188 32.578125 -42.421875 C 32.441406 -41.972656 32.476562 -41.40625 32.6875 -40.71875 C 32.476562 -40.71875 32.320312 -40.664062 32.21875 -40.5625 C 32.113281 -40.46875 32.023438 -40.367188 31.953125 -40.265625 C 31.890625 -40.160156 31.804688 -40.054688 31.703125 -39.953125 C 31.597656 -39.847656 31.441406 -39.832031 31.234375 -39.90625 C 31.441406 -38.394531 31.507812 -36.878906 31.4375 -35.359375 C 31.375 -33.847656 31.320312 -32.316406 31.28125 -30.765625 C 31.25 -29.222656 31.269531 -27.609375 31.34375 -25.921875 C 31.414062 -24.242188 31.65625 -22.507812 32.0625 -20.71875 C 34.539062 -22.164062 36.515625 -24.019531 37.984375 -26.28125 C 39.460938 -28.550781 40.664062 -31.09375 41.59375 -33.90625 C 42.53125 -36.726562 43.238281 -39.753906 43.71875 -42.984375 C 44.195312 -46.222656 44.710938 -49.523438 45.265625 -52.890625 C 45.878906 -53.503906 46.359375 -54.257812 46.703125 -55.15625 C 47.046875 -56.050781 47.351562 -56.992188 47.625 -57.984375 C 47.90625 -58.984375 48.179688 -59.984375 48.453125 -60.984375 C 48.734375 -61.984375 49.078125 -62.894531 49.484375 -63.71875 C 50.515625 -63.582031 51.390625 -63.253906 52.109375 -62.734375 C 52.835938 -62.222656 53.507812 -61.675781 54.125 -61.09375 C 54.75 -60.507812 55.40625 -59.957031 56.09375 -59.4375 C 56.78125 -58.925781 57.640625 -58.597656 58.671875 -58.453125 C 59.492188 -57.285156 60.25 -56.148438 60.9375 -55.046875 C 61.625 -53.953125 62.070312 -52.785156 62.28125 -51.546875 C 61.9375 -51.003906 61.675781 -50.390625 61.5 -49.703125 C 61.332031 -49.015625 61.144531 -48.328125 60.9375 -47.640625 C 60.726562 -46.953125 60.453125 -46.3125 60.109375 -45.71875 C 59.765625 -45.132812 59.285156 -44.640625 58.671875 -44.234375 C 58.460938 -42.441406 58.203125 -40.804688 57.890625 -39.328125 C 57.578125 -37.859375 57.265625 -36.398438 56.953125 -34.953125 C 56.648438 -33.503906 56.394531 -32.003906 56.1875 -30.453125 C 55.976562 -28.910156 55.910156 -27.210938 55.984375 -25.359375 C 55.429688 -23.773438 54.84375 -22.085938 54.21875 -20.296875 C 53.601562 -18.515625 53.128906 -16.90625 52.796875 -15.46875 C 51.691406 -14.570312 50.828125 -13.503906 50.203125 -12.265625 C 49.585938 -11.023438 48.9375 -9.789062 48.25 -8.5625 C 47.976562 -8.28125 47.804688 -8.207031 47.734375 -8.34375 C 47.671875 -8.488281 47.429688 -8.59375 47.015625 -8.65625 C 47.085938 -8.382812 47.085938 -8.175781 47.015625 -8.03125 C 46.941406 -7.894531 46.851562 -7.773438 46.75 -7.671875 C 46.65625 -7.578125 46.585938 -7.425781 46.546875 -7.21875 C 46.515625 -7.007812 46.566406 -6.734375 46.703125 -6.390625 C 45.742188 -5.984375 44.882812 -5.398438 44.125 -4.640625 C 43.375 -3.878906 42.566406 -3.191406 41.703125 -2.578125 C 40.847656 -1.960938 39.816406 -1.550781 38.609375 -1.34375 C 37.410156 -1.132812 35.847656 -1.375 33.921875 -2.0625 C 31.097656 -4.125 28.601562 -6.492188 26.4375 -9.171875 C 24.28125 -11.859375 22.515625 -15.054688 21.140625 -18.765625 Z M 21.140625 -18.765625 "/></g></g></g></svg>